<?xml version="1.0" encoding="UTF-8" standalone="no" ?>
<!DOCTYPE svg PUBLIC "-//W3C//DTD SVG 1.1//EN" "http://www.w3.org/Graphics/SVG/1.1/DTD/svg11.dtd">
<svg xmlns="http://www.w3.org/2000/svg" xmlns:xlink="http://www.w3.org/1999/xlink" version="1.1" width="500" height="500" viewBox="185 145 150 150" xml:space="preserve">
<desc>Created with Fabric.js 4.6.0</desc>
<defs>
</defs>
<g transform="matrix(1 0 0 1.33 258 219.5)" id="awezMFVWbeASIYiK2MQA_"  >
<path style="stroke: rgb(0,0,0); stroke-width: 3; stroke-dasharray: none; stroke-linecap: butt; stroke-dashoffset: 0; stroke-linejoin: miter; stroke-miterlimit: 4; fill: rgb(255,255,255); fill-rule: nonzero; opacity: 1;" vector-effect="non-scaling-stroke"  transform=" translate(0, 0)" d="M -50 -36.89197 L -40.77278 -43.495850000000004 L -32.06805 -50.00000000000001 L 50 -50.00000000000001 L 50 49.99999999999999 L -50 49.99999999999999 z" stroke-linecap="round" />
</g>
<g transform="matrix(0.02 0.28 -0.29 0.03 220 162)" id="ReFkIFsMO26k2bxPHSTRk"  >
<path style="stroke: none; stroke-width: 0; stroke-dasharray: none; stroke-linecap: butt; stroke-dashoffset: 0; stroke-linejoin: miter; stroke-miterlimit: 4; fill: rgb(255,255,255); fill-rule: nonzero; opacity: 1;" vector-effect="non-scaling-stroke"  transform=" translate(0, 0)" d="M -63.43411 -80.11835 L 63.43411 80.11835 L -43.37494 42.00592 z" stroke-linecap="round" />
</g>
<g transform="matrix(0.01 -0.29 0.29 0.01 219.5 164.5)" id="DG1l6UbQtRBBONYXO6Xip"  >
<path style="stroke: rgb(0,0,0); stroke-width: 3; stroke-dasharray: none; stroke-linecap: butt; stroke-dashoffset: 0; stroke-linejoin: miter; stroke-miterlimit: 4; fill: rgb(255,255,255); fill-rule: nonzero; opacity: 1;" vector-effect="non-scaling-stroke"  transform=" translate(-40, -40)" d="M 0 0 L 80 80 L 0 80 L 0 0 z" stroke-linecap="round" />
</g>
<g transform="matrix(0.29 -0.27 0.27 0.29 203.5 151.5)" id="rVcHa-nA2qmmvd9z7peFZ"  >
<path style="stroke: rgb(63,145,142); stroke-width: 0; stroke-dasharray: none; stroke-linecap: butt; stroke-dashoffset: 0; stroke-linejoin: miter; stroke-miterlimit: 4; fill: rgb(255,255,255); fill-rule: nonzero; opacity: 1;" vector-effect="non-scaling-stroke"  transform=" translate(0, 0)" d="M -50 -50 L 50 -50 L 50 50 L -50 50 z" stroke-linecap="round" />
</g>
<g transform="matrix(1 0 0 1 258 224.5)" id="CSRYcA7ZL66LF-Rr13cJR"  >
<g style="" vector-effect="non-scaling-stroke"   >
		<g transform="matrix(1 0 0 1 0 0)" id="D6DHYaiYmb5ZRhSrmFaCi"  >
<path style="stroke: none; stroke-width: 1; stroke-dasharray: none; stroke-linecap: butt; stroke-dashoffset: 0; stroke-linejoin: miter; stroke-miterlimit: 4; fill: rgb(179,181,179); fill-rule: nonzero; opacity: 1;" vector-effect="non-scaling-stroke"  transform=" translate(-39.96, -39.97)" d="M 71 61.1 C 72.8 58.800000000000004 72.8 55.4 70.9 53 C 70.9 53 50.7 27.3 50.60000000000001 27.3 C 51.00000000000001 25.7 51.20000000000001 24 51.20000000000001 22.3 C 51.2 10 41.2 0 28.9 0 C 16.6 0 6.6 10 6.6 22.3 C 6.6 34.6 16.6 44.6 28.9 44.6 C 30.599999999999998 44.6 32.199999999999996 44.4 33.8 44 C 33.8 44 57.9 65.2 57.9 65.2 C 59.199999999999996 66.3 60.699999999999996 66.9 62.3 66.9 C 63.9 66.9 65.39999999999999 66.30000000000001 66.6 65.2 L 67.5 64.3 C 68.7 66.1 70.1 68.6 69.9 70.7 C 69.80000000000001 71.8 69.30000000000001 72.8 68.30000000000001 73.60000000000001 C 64.70000000000002 76.50000000000001 59.80000000000001 73.7 55.000000000000014 70.50000000000001 C 54.20000000000002 70.00000000000001 53.40000000000001 69.40000000000002 52.600000000000016 68.90000000000002 C 48.000000000000014 65.60000000000002 43.20000000000002 62.30000000000002 36.80000000000001 63.20000000000002 C 32.80000000000001 63.80000000000002 29.600000000000012 66.60000000000002 28.900000000000013 70.20000000000002 C 28.200000000000014 73.90000000000002 30.000000000000014 77.40000000000002 33.80000000000001 79.70000000000002 C 34.90000000000001 80.30000000000001 35.90000000000001 79.60000000000002 36.20000000000001 79.10000000000002 C 36.70000000000001 78.30000000000003 36.40000000000001 77.20000000000002 35.60000000000001 76.70000000000002 C 33.10000000000001 75.20000000000002 31.90000000000001 73.10000000000002 32.30000000000001 70.90000000000002 C 32.70000000000001 68.70000000000002 34.70000000000001 67.00000000000001 37.30000000000001 66.70000000000002 C 42.40000000000001 66.00000000000001 46.40000000000001 68.80000000000001 50.70000000000001 71.80000000000001 C 51.50000000000001 72.4 52.30000000000001 72.9 53.10000000000001 73.50000000000001 C 57.10000000000001 76.20000000000002 64.7 81.20000000000002 70.5 76.40000000000002 C 72.2 75.00000000000001 73.2 73.20000000000002 73.3 71.10000000000002 C 73.6 67.60000000000002 71.39999999999999 64.00000000000003 70 62.00000000000002 C 70.1 62 70.8 61.3 71 61.1 z" stroke-linecap="round" />
</g>
		<g transform="matrix(1 0 0 1 -0.48 -6.4)" id="CLJx7L2gyNFlm_Rb6Tcnr"  >
<path style="stroke: none; stroke-width: 1; stroke-dasharray: none; stroke-linecap: butt; stroke-dashoffset: 0; stroke-linejoin: miter; stroke-miterlimit: 4; fill: rgb(255,255,255); fill-rule: nonzero; opacity: 1;" vector-effect="non-scaling-stroke"  transform=" translate(-39.49, -33.56)" d="M 28.9 39.8 C 19.299999999999997 39.8 11.5 31.999999999999996 11.5 22.4 C 11.5 12.799999999999999 19.3 5 28.9 5 C 38.5 5 46.3 12.8 46.3 22.4 C 46.3 31.9 38.5 39.8 28.9 39.8 z M 48.7 32.7 C 46.6 36.800000000000004 43.2 40.1 39.1 42.2 L 56.400000000000006 57.5 L 63.00000000000001 50.9 L 48.7 32.7 z M 67.1 56.1 C 67.6 56.7 67.6 57.800000000000004 67.1 58.300000000000004 L 63.3 61.800000000000004 C 62.8 62.300000000000004 61.8 62.2 61.199999999999996 61.7 L 59 59.8 L 65.2 53.599999999999994 L 67.1 56.1 z" stroke-linecap="round" />
</g>
		<g transform="matrix(1 0 0 1 9.09 2.93)" id="IN3yeY22fjqTWHniKfYwQ"  >
<path style="stroke: none; stroke-width: 1; stroke-dasharray: none; stroke-linecap: butt; stroke-dashoffset: 0; stroke-linejoin: miter; stroke-miterlimit: 4; fill: rgb(179,181,179); fill-rule: nonzero; opacity: 1;" vector-effect="non-scaling-stroke"  transform=" translate(-49.05, -42.9)" d="M 48 39 L 52.9 44 L 50.1 46.8 L 45.2 41.8 L 48 39 z" stroke-linecap="round" />
</g>
</g>
</g>
<g transform="matrix(1 0 0 1 231.71 200.69)" id="YveKIqIulvL_YgA2qG0Dn"  >
<path style="stroke: rgb(0,0,0); stroke-width: 1; stroke-dasharray: none; stroke-linecap: butt; stroke-dashoffset: 0; stroke-linejoin: miter; stroke-miterlimit: 4; fill: rgb(255,255,255); fill-opacity: 0; fill-rule: nonzero; opacity: 1;" vector-effect="non-scaling-stroke"  transform=" translate(0, 0)" d="M 0 0" stroke-linecap="round" />
</g>
<g transform="matrix(1 0 0 0 492.1 569.34)" id="1kbdBVq-lQHEmiC015UGK"  >
<path style="stroke: rgb(0,0,0); stroke-width: 1; stroke-dasharray: none; stroke-linecap: butt; stroke-dashoffset: 0; stroke-linejoin: miter; stroke-miterlimit: 4; fill: rgb(255,255,255); fill-opacity: 0; fill-rule: nonzero; opacity: 1;" vector-effect="non-scaling-stroke"  transform=" translate(0, 0)" d="M -29.98847 0 L 29.988460000000003 0" stroke-linecap="round" />
</g>
<g transform="matrix(1 0 0 0 491.6 590.34)" id="zdS_mMRhc2tAz4dQIP4ly"  >
<path style="stroke: rgb(0,0,0); stroke-width: 1; stroke-dasharray: none; stroke-linecap: butt; stroke-dashoffset: 0; stroke-linejoin: miter; stroke-miterlimit: 4; fill: rgb(255,255,255); fill-opacity: 0; fill-rule: nonzero; opacity: 1;" vector-effect="non-scaling-stroke"  transform=" translate(0, 0)" d="M -30.48847 0 L 30.488460000000003 0" stroke-linecap="round" />
</g>
<g transform="matrix(0 0 0 0 461.1 617.34)" id="1DsJvNEjf6oQ__Ad6NaHR"  >
<path style="stroke: rgb(0,0,0); stroke-width: 1; stroke-dasharray: none; stroke-linecap: butt; stroke-dashoffset: 0; stroke-linejoin: miter; stroke-miterlimit: 4; fill: rgb(255,255,255); fill-opacity: 0; fill-rule: nonzero; opacity: 1;" vector-effect="non-scaling-stroke"  transform=" translate(0, 0)" d="M 0 0" stroke-linecap="round" />
</g>
<g transform="matrix(0.99 0 0 0 491.6 608.34)" id="9qzNdWOja98S4QoJQKdRt"  >
<path style="stroke: rgb(0,0,0); stroke-width: 1; stroke-dasharray: none; stroke-linecap: butt; stroke-dashoffset: 0; stroke-linejoin: miter; stroke-miterlimit: 4; fill: rgb(255,255,255); fill-opacity: 0; fill-rule: nonzero; opacity: 1;" vector-effect="non-scaling-stroke"  transform=" translate(0, 0)" d="M -30.73847 0 L 30.738460000000003 0" stroke-linecap="round" />
</g>
<g transform="matrix(0 0 0 0 461.1 633.34)" id="bWjVjA5Qy8b3AbBJAG_6l"  >
<path style="stroke: rgb(0,0,0); stroke-width: 1; stroke-dasharray: none; stroke-linecap: butt; stroke-dashoffset: 0; stroke-linejoin: miter; stroke-miterlimit: 4; fill: rgb(255,255,255); fill-opacity: 0; fill-rule: nonzero; opacity: 1;" vector-effect="non-scaling-stroke"  transform=" translate(0, 0)" d="M 0 0" stroke-linecap="round" />
</g>
<g transform="matrix(1 0 0 0 491.1 625.34)" id="Aei_cPugybUR-8kFy5kHP"  >
<path style="stroke: rgb(0,0,0); stroke-width: 1; stroke-dasharray: none; stroke-linecap: butt; stroke-dashoffset: 0; stroke-linejoin: miter; stroke-miterlimit: 4; fill: rgb(255,255,255); fill-opacity: 0; fill-rule: nonzero; opacity: 1;" vector-effect="non-scaling-stroke"  transform=" translate(0, 0)" d="M -30.98847 0 L 30.988460000000003 0" stroke-linecap="round" />
</g>
<g transform="matrix(0 0 0 0 460.1 649.34)" id="6t6vcgsc_C7U1G_qQVedr"  >
<path style="stroke: rgb(0,0,0); stroke-width: 1; stroke-dasharray: none; stroke-linecap: butt; stroke-dashoffset: 0; stroke-linejoin: miter; stroke-miterlimit: 4; fill: rgb(255,255,255); fill-opacity: 0; fill-rule: nonzero; opacity: 1;" vector-effect="non-scaling-stroke"  transform=" translate(0, 0)" d="M 0 0" stroke-linecap="round" />
</g>
<g transform="matrix(1 0 0 1 157 197)" id="qqra6I2JeqWTxVLPwGMkg"  >
<path style="stroke: rgb(244,20,203); stroke-width: 0; stroke-dasharray: none; stroke-linecap: butt; stroke-dashoffset: 0; stroke-linejoin: miter; stroke-miterlimit: 4; fill: rgb(255,255,255); fill-rule: nonzero; opacity: 1;" vector-effect="non-scaling-stroke"  transform=" translate(-50, -50)" d="M 0 0 L 100 0 L 100 100 L 0 100 z" stroke-linecap="round" />
</g>
<g transform="matrix(1 0 0 1 259.23 179.06)" id="I6qWpIFwsFXnWxKbOY4Xq"  >
<path style="stroke: rgb(0,0,0); stroke-width: 1; stroke-dasharray: none; stroke-linecap: butt; stroke-dashoffset: 0; stroke-linejoin: miter; stroke-miterlimit: 4; fill: rgb(255,255,255); fill-opacity: 0; fill-rule: nonzero; opacity: 1;" vector-effect="non-scaling-stroke"  transform=" translate(0, 0)" d="M -22.49135 0 L 22.49135 0" stroke-linecap="round" />
</g>
<g transform="matrix(1 0 0 1 222.93 197)" id="sHUtOTQR6SqyAU6kjSmc6"  >
<path style="stroke: rgb(0,0,0); stroke-width: 1; stroke-dasharray: none; stroke-linecap: butt; stroke-dashoffset: 0; stroke-linejoin: miter; stroke-miterlimit: 4; fill: rgb(255,255,255); fill-opacity: 0; fill-rule: nonzero; opacity: 1;" vector-effect="non-scaling-stroke"  transform=" translate(0, 0)" d="M -3.42762 0 L 3.4276299999999997 0" stroke-linecap="round" />
</g>
<g transform="matrix(1 0 0 1 281.72 196.5)" id="q-xWn3fb41cPzI1VG68Rm"  >
<path style="stroke: rgb(0,0,0); stroke-width: 1; stroke-dasharray: none; stroke-linecap: butt; stroke-dashoffset: 0; stroke-linejoin: miter; stroke-miterlimit: 4; fill: rgb(255,255,255); fill-opacity: 0; fill-rule: nonzero; opacity: 1;" vector-effect="non-scaling-stroke"  transform=" translate(0, 0)" d="M -14.41753 0 L 14.41753 0" stroke-linecap="round" />
</g>
<g transform="matrix(0.74 -0.24 0.24 0.74 205 120)" id="It-RzGtEhpDumDIBrGFIj"  >
<path style="stroke: rgb(224,156,16); stroke-width: 0; stroke-dasharray: none; stroke-linecap: butt; stroke-dashoffset: 0; stroke-linejoin: miter; stroke-miterlimit: 4; fill: rgb(255,255,255); fill-rule: nonzero; opacity: 1;" vector-effect="non-scaling-stroke"  transform=" translate(0, 0)" d="M -50 -50 L 50 -50 L 50 50 L -50 50 z" stroke-linecap="round" />
</g>
<g transform="matrix(1 0 0 1 157 253)" id="7UzfY_e-1Dm6Sm743gUue"  >
<path style="stroke: rgb(202,182,88); stroke-width: 0; stroke-dasharray: none; stroke-linecap: butt; stroke-dashoffset: 0; stroke-linejoin: miter; stroke-miterlimit: 4; fill: rgb(255,255,255); fill-rule: nonzero; opacity: 1;" vector-effect="non-scaling-stroke"  transform=" translate(-50, -50)" d="M 0 0 L 100 0 L 100 100 L 0 100 Z" stroke-linecap="round" />
</g>
<g transform="matrix(1 0 0 1 219.5 214.93)" id="knddqP-QBrA1yZHRkmRpw"  >
<path style="stroke: rgb(0,0,0); stroke-width: 1; stroke-dasharray: none; stroke-linecap: butt; stroke-dashoffset: 0; stroke-linejoin: miter; stroke-miterlimit: 4; fill: rgb(255,255,255); fill-opacity: 0; fill-rule: nonzero; opacity: 1;" vector-effect="non-scaling-stroke"  transform=" translate(0, 0)" d="M 0 0" stroke-linecap="round" />
</g>
<g transform="matrix(1 0 0 1 223.43 217.43)" id="JuB9VnJSTID-dczjlT9T1"  >
<path style="stroke: rgb(0,0,0); stroke-width: 1; stroke-dasharray: none; stroke-linecap: butt; stroke-dashoffset: 0; stroke-linejoin: miter; stroke-miterlimit: 4; fill: rgb(255,255,255); fill-opacity: 0; fill-rule: nonzero; opacity: 1;" vector-effect="non-scaling-stroke"  transform=" translate(0, 0)" d="M -3.42762 0 L 3.4276299999999997 0" stroke-linecap="round" />
</g>
<g transform="matrix(1 0 0 1 285.26 217.93)" id="OybuZnTG_dYoOfkkoP2b-"  >
<path style="stroke: rgb(0,0,0); stroke-width: 1; stroke-dasharray: none; stroke-linecap: butt; stroke-dashoffset: 0; stroke-linejoin: miter; stroke-miterlimit: 4; fill: rgb(255,255,255); fill-opacity: 0; fill-rule: nonzero; opacity: 1;" vector-effect="non-scaling-stroke"  transform=" translate(0, 0)" d="M -11.37361 0 L 11.3736 0" stroke-linecap="round" />
</g>
<g transform="matrix(1 0 0 1 219 237.43)" id="h6bAXDJygPpylMAaST3xX"  >
<path style="stroke: rgb(0,0,0); stroke-width: 1; stroke-dasharray: none; stroke-linecap: butt; stroke-dashoffset: 0; stroke-linejoin: miter; stroke-miterlimit: 4; fill: rgb(255,255,255); fill-opacity: 0; fill-rule: nonzero; opacity: 1;" vector-effect="non-scaling-stroke"  transform=" translate(0, 0)" d="M 0 0" stroke-linecap="round" />
</g>
<g transform="matrix(1 0 0 1 219.5 253)" id="6qhQFemvAFrCvCG2Efw4K"  >
<path style="stroke: rgb(0,0,0); stroke-width: 1; stroke-dasharray: none; stroke-linecap: butt; stroke-dashoffset: 0; stroke-linejoin: miter; stroke-miterlimit: 4; fill: rgb(255,255,255); fill-opacity: 0; fill-rule: nonzero; opacity: 1;" vector-effect="non-scaling-stroke"  transform=" translate(0, 0)" d="M 0 0" stroke-linecap="round" />
</g>
<g transform="matrix(1 0 0 1 220 253.5)" id="dRrqdUW81JCwfeh9gkWun"  >
<path style="stroke: rgb(0,0,0); stroke-width: 1; stroke-dasharray: none; stroke-linecap: butt; stroke-dashoffset: 0; stroke-linejoin: miter; stroke-miterlimit: 4; fill: rgb(255,255,255); fill-opacity: 0; fill-rule: nonzero; opacity: 1;" vector-effect="non-scaling-stroke"  transform=" translate(0, 0)" d="M 0 0" stroke-linecap="round" />
</g>
<g transform="matrix(1 0 0 1 233.89 252.5)" id="SNcmRPZms1jNOBcMKfwbR"  >
<path style="stroke: rgb(0,0,0); stroke-width: 1; stroke-dasharray: none; stroke-linecap: butt; stroke-dashoffset: 0; stroke-linejoin: miter; stroke-miterlimit: 4; fill: rgb(255,255,255); fill-opacity: 0; fill-rule: nonzero; opacity: 1;" vector-effect="non-scaling-stroke"  transform=" translate(0, 0)" d="M -13.88889 0 L 13.88889 0" stroke-linecap="round" />
</g>
<g transform="matrix(1 0 0 1 254.14 252.5)" id="hrkLgHuWHaVireHYSEWiA"  >
<path style="stroke: rgb(0,0,0); stroke-width: 1; stroke-dasharray: none; stroke-linecap: butt; stroke-dashoffset: 0; stroke-linejoin: miter; stroke-miterlimit: 4; fill: rgb(255,255,255); fill-opacity: 0; fill-rule: nonzero; opacity: 1;" vector-effect="non-scaling-stroke"  transform=" translate(0, 0)" d="M 0 0" stroke-linecap="round" />
</g>
<g transform="matrix(1 0 0 1 257.14 252.5)" id="dx44EyyrD3jTUfAClCPft"  >
<path style="stroke: rgb(0,0,0); stroke-width: 1; stroke-dasharray: none; stroke-linecap: butt; stroke-dashoffset: 0; stroke-linejoin: miter; stroke-miterlimit: 4; fill: rgb(255,255,255); fill-opacity: 0; fill-rule: nonzero; opacity: 1;" vector-effect="non-scaling-stroke"  transform=" translate(0, 0)" d="M -5.40541 0 L 5.4054 0" stroke-linecap="round" />
</g>
<g transform="matrix(1 0 0 1 270.66 252.5)" id="F6xyr-R7wthpnBjhVXkaQ"  >
<path style="stroke: rgb(0,0,0); stroke-width: 1; stroke-dasharray: none; stroke-linecap: butt; stroke-dashoffset: 0; stroke-linejoin: miter; stroke-miterlimit: 4; fill: rgb(255,255,255); fill-opacity: 0; fill-rule: nonzero; opacity: 1;" vector-effect="non-scaling-stroke"  transform=" translate(0, 0)" d="M 0 0" stroke-linecap="round" />
</g>
<g transform="matrix(1 0 0 1 278.8 252.5)" id="30iQS82JmKA3egMVN0ivD"  >
<path style="stroke: rgb(0,0,0); stroke-width: 1; stroke-dasharray: none; stroke-linecap: butt; stroke-dashoffset: 0; stroke-linejoin: miter; stroke-miterlimit: 4; fill: rgb(255,255,255); fill-opacity: 0; fill-rule: nonzero; opacity: 1;" vector-effect="non-scaling-stroke"  transform=" translate(0, 0)" d="M -8.64768 0 L 8.647689999999999 0" stroke-linecap="round" />
</g>
<g transform="matrix(1.08 0 0 0 293.5 253)" id="6EzRW9Y8cT0JYa2vETg2M"  >
<path style="stroke: rgb(0,0,0); stroke-width: 1; stroke-dasharray: none; stroke-linecap: butt; stroke-dashoffset: 0; stroke-linejoin: miter; stroke-miterlimit: 4; fill: rgb(255,255,255); fill-opacity: 0; fill-rule: nonzero; opacity: 1;" vector-effect="non-scaling-stroke"  transform=" translate(0, 0)" d="M -2.3166 0 L 2.3166 0" stroke-linecap="round" />
</g>
<g transform="matrix(1 0 0 1 293.78 252.5)" id="bmYWrnOhOZJkOBnaL5HuL"  >
<path style="stroke: rgb(0,0,0); stroke-width: 1; stroke-dasharray: none; stroke-linecap: butt; stroke-dashoffset: 0; stroke-linejoin: miter; stroke-miterlimit: 4; fill: rgb(255,255,255); fill-opacity: 0; fill-rule: nonzero; opacity: 1;" vector-effect="non-scaling-stroke"  transform=" translate(0, 0)" d="M -2.85473 0 L 2.85473 0" stroke-linecap="round" />
</g>
<g transform="matrix(1 0 0 1 220.5 269.06)" id="OOa7USIWnbA-JJeD-5_zZ"  >
<path style="stroke: rgb(0,0,0); stroke-width: 1; stroke-dasharray: none; stroke-linecap: butt; stroke-dashoffset: 0; stroke-linejoin: miter; stroke-miterlimit: 4; fill: rgb(255,255,255); fill-opacity: 0; fill-rule: nonzero; opacity: 1;" vector-effect="non-scaling-stroke"  transform=" translate(0, 0)" d="M 0 0" stroke-linecap="round" />
</g>
<g transform="matrix(1 0 0 1 220 268.56)" id="iqfQ_pNg3Ta1tEGdMPNxu"  >
<path style="stroke: rgb(0,0,0); stroke-width: 1; stroke-dasharray: none; stroke-linecap: butt; stroke-dashoffset: 0; stroke-linejoin: miter; stroke-miterlimit: 4; fill: rgb(255,255,255); fill-opacity: 0; fill-rule: nonzero; opacity: 1;" vector-effect="non-scaling-stroke"  transform=" translate(0, 0)" d="M 0 0" stroke-linecap="round" />
</g>
<g transform="matrix(1 0 0 1 258.32 269.56)" id="fyjztfc78AI7owCO8g-sg"  >
<path style="stroke: rgb(0,0,0); stroke-width: 1; stroke-dasharray: none; stroke-linecap: butt; stroke-dashoffset: 0; stroke-linejoin: miter; stroke-miterlimit: 4; fill: rgb(255,255,255); fill-opacity: 0; fill-rule: nonzero; opacity: 1;" vector-effect="non-scaling-stroke"  transform=" translate(0, 0)" d="M -38.31805 0 L 38.31805 0" stroke-linecap="round" />
</g>
<g transform="matrix(1 0 0 1 239.61 235.08)" id="BVvt4UX9cCsv-Ie7qUR3g"  >
<path style="stroke: rgb(0,0,0); stroke-width: 1; stroke-dasharray: none; stroke-linecap: butt; stroke-dashoffset: 0; stroke-linejoin: miter; stroke-miterlimit: 4; fill: rgb(255,255,255); fill-opacity: 0; fill-rule: nonzero; opacity: 1;" vector-effect="non-scaling-stroke"  transform=" translate(0, 0)" d="M -19.61361 0 L 19.61361 0" stroke-linecap="round" />
</g>
<g transform="matrix(1 0 0 1 291.85 235.08)" id="1l5dU_h4-a8Jau_ijMN-w"  >
<path style="stroke: rgb(0,0,0); stroke-width: 1; stroke-dasharray: none; stroke-linecap: butt; stroke-dashoffset: 0; stroke-linejoin: miter; stroke-miterlimit: 4; fill: rgb(255,255,255); fill-opacity: 0; fill-rule: nonzero; opacity: 1;" vector-effect="non-scaling-stroke"  transform=" translate(0, 0)" d="M -4.78523 0 L 4.78523 0" stroke-linecap="round" />
</g>
</svg>