<?xml version="1.0" encoding="UTF-8" standalone="no" ?>
<!DOCTYPE svg PUBLIC "-//W3C//DTD SVG 1.1//EN" "http://www.w3.org/Graphics/SVG/1.1/DTD/svg11.dtd">
<svg xmlns="http://www.w3.org/2000/svg" xmlns:xlink="http://www.w3.org/1999/xlink" version="1.1" width="500"
     height="500" viewBox="0 0 500 500" xml:space="preserve">
<desc>Created with Fabric.js 4.6.0</desc>
    <defs>
</defs>
    <g transform="matrix(1 0 0 1 125 310)" id="QYr9svNWxZoczkJ2CytDU">
<g style="" vector-effect="non-scaling-stroke">
		<g transform="matrix(0.11 -0.04 0.24 0.67 45.5 -11.5)" id="Y-Y8fAGHJ4HKWDMFq1ZWF">
<path style="stroke: rgb(53,191,119); stroke-width: 0; stroke-dasharray: none; stroke-linecap: butt; stroke-dashoffset: 0; stroke-linejoin: miter; stroke-miterlimit: 4; fill: rgb(136,255,136); fill-rule: nonzero; opacity: 1;"
      vector-effect="non-scaling-stroke" transform=" translate(0, 0)"
      d="M -83.5 -83.5 L 11.502669999999995 -83.5 L 11.502669999999995 -83.5 C 51.265699999999995 -83.5 83.5 -78.08247 83.5 -71.39961 L 83.5 69.40218999999999 L 83.5 69.40218999999999 C 83.5 77.18818999999999 45.94477 83.49999999999999 -0.3819600000000065 83.49999999999999 L -0.3819600000000065 83.49999999999999 L -0.3819600000000065 83.49999999999999 C -46.28679 83.49999999999999 -83.5 77.24568 -83.5 69.53057999999999 z"
      stroke-linecap="round"/>
</g>
    <g transform="matrix(0.51 0 0 1.02 -0.5 -9.7)" id="Y824HgkmszeJfHeQq7mNz">
<path style="stroke: rgb(232,215,109); stroke-width: 0; stroke-dasharray: none; stroke-linecap: butt; stroke-dashoffset: 0; stroke-linejoin: miter; stroke-miterlimit: 4; fill: rgb(136,255,136); fill-rule: nonzero; opacity: 1;"
      vector-effect="non-scaling-stroke" transform=" translate(0, 0)"
      d="M -78.5 -39.32828 C -78.5 -60.96222 -43.42445 -78.5 -0.15655999999999892 -78.5 L -0.01929999999999893 -78.5 L -0.01929999999999893 -78.5 C 43.34571 -78.5 78.5 -60.92286 78.5 -39.24035 L 78.5 57.305339999999994 L 78.5 57.305339999999994 C 78.5 69.01083 59.52166 78.5 36.11068 78.5 L -36.11068999999999 78.5 L -36.11068999999999 78.5 C -59.52165999999999 78.5 -78.50000999999999 69.01083 -78.50000999999999 57.30534 z"
      stroke-linecap="round"/>
</g>
    <g transform="matrix(0.11 0.04 -0.24 0.67 -45.5 -11.5)" id="UjBIvSkAsOTxJmWqVyldi">
<path style="stroke: rgb(53,191,119); stroke-width: 0; stroke-dasharray: none; stroke-linecap: butt; stroke-dashoffset: 0; stroke-linejoin: miter; stroke-miterlimit: 4; fill: rgb(136,255,136); fill-rule: nonzero; opacity: 1;"
      vector-effect="non-scaling-stroke" transform=" translate(0, 0)"
      d="M -83.5 -73.22859 C -83.5 -78.90133 -56.13793 -83.5 -22.385109999999997 -83.5 L 83.5 -83.5 L 83.5 69.40218999999999 L 83.5 69.40218999999999 C 83.5 77.18818999999999 45.94477 83.49999999999999 -0.3819600000000065 83.49999999999999 L -0.3819600000000065 83.49999999999999 L -0.3819600000000065 83.49999999999999 C -46.28679 83.49999999999999 -83.5 77.24568 -83.5 69.53057999999999 z"
      stroke-linecap="round"/>
</g>
    <g transform="matrix(0.12 0 0 0.71 -20.5 110.8)" id="HsWMwVeJpd97nXXMklgK4">
<path style="stroke: rgb(53,191,119); stroke-width: 0; stroke-dasharray: none; stroke-linecap: butt; stroke-dashoffset: 0; stroke-linejoin: miter; stroke-miterlimit: 4; fill: rgb(136,255,136); fill-rule: nonzero; opacity: 1;"
      vector-effect="non-scaling-stroke" transform=" translate(0, 0)"
      d="M -83.5 -83.5 L 83.5 -83.5 L 83.5 69.40218999999999 L 83.5 69.40218999999999 C 83.5 77.18818999999999 45.94477 83.49999999999999 -0.3819600000000065 83.49999999999999 L -0.3819600000000065 83.49999999999999 L -0.3819600000000065 83.49999999999999 C -46.28679 83.49999999999999 -83.5 77.24568 -83.5 69.53057999999999 z"
      stroke-linecap="round"/>
</g>
    <g transform="matrix(0.12 0 0 0.71 19.5 109.8)" id="BV83B4TFdfnuJoucOLerO">
<path style="stroke: rgb(53,191,119); stroke-width: 0; stroke-dasharray: none; stroke-linecap: butt; stroke-dashoffset: 0; stroke-linejoin: miter; stroke-miterlimit: 4; fill: rgb(136,255,136); fill-rule: nonzero; opacity: 1;"
      vector-effect="non-scaling-stroke" transform=" translate(0, 0)"
      d="M -83.5 -83.5 L 83.5 -83.5 L 83.5 69.40218999999999 L 83.5 69.40218999999999 C 83.5 77.18818999999999 45.94477 83.49999999999999 -0.3819600000000065 83.49999999999999 L -0.3819600000000065 83.49999999999999 L -0.3819600000000065 83.49999999999999 C -46.28679 83.49999999999999 -83.5 77.24568 -83.5 69.53057999999999 z"
      stroke-linecap="round"/>
</g>
    <g transform="matrix(0.41 0 0 0.41 -0.5 -129.7)" id="BPt83vlmlTinQH_ymWAA9">
<path style="stroke: rgb(161,45,64); stroke-width: 0; stroke-dasharray: none; stroke-linecap: butt; stroke-dashoffset: 0; stroke-linejoin: miter; stroke-miterlimit: 4; fill: rgb(136,255,136); fill-rule: nonzero; opacity: 1;"
      vector-effect="non-scaling-stroke" transform=" translate(0, 0)"
      d="M 0 -98.5 C 54.372 -98.5 98.5 -54.372 98.5 0 C 98.5 54.372 54.372 98.5 0 98.5 C -54.372 98.5 -98.5 54.372 -98.5 0 C -98.5 -54.372 -54.372 -98.5 0 -98.5 z"
      stroke-linecap="round"/>
</g>
</g>
</g>
    <g transform="matrix(1 0 0 1 375.5 309.5)" id="2urKc5zFn7D0DUYGSU_d2">
<g style="" vector-effect="non-scaling-stroke">
		<g transform="matrix(0.51 0 0 1.02 0 -9.5)" id="8wC6E7DlevHmGLDGySL9k">
<path style="stroke: rgb(232,215,109); stroke-width: 0; stroke-dasharray: none; stroke-linecap: butt; stroke-dashoffset: 0; stroke-linejoin: miter; stroke-miterlimit: 4; fill: rgb(167,136,255); fill-rule: nonzero; opacity: 1;"
      vector-effect="non-scaling-stroke" transform=" translate(0, 0)"
      d="M -78.5 -39.294 C -78.5 -60.94687 -43.39375 -78.5 -0.08799999999999386 -78.5 L -0.08799999999999386 -78.5 L -0.08799999999999386 -78.5 C 43.314960000000006 -78.5 78.50001 -60.90748 78.50001 -39.206 L 78.50001 57.2868 L 78.50001 57.2868 C 78.50001 69.00253000000001 59.50506 78.5 36.073600000000006 78.5 L -36.07358999999999 78.5 L -36.07358999999999 78.5 C -59.50504999999999 78.5 -78.49999999999999 69.00253000000001 -78.49999999999999 57.2868 z"
      stroke-linecap="round"/>
</g>
    <g transform="matrix(0.11 -0.04 0.24 0.67 46 -11)" id="lBkJXVTtpGKEZ6DI9s1bV">
<path style="stroke: rgb(53,191,119); stroke-width: 0; stroke-dasharray: none; stroke-linecap: butt; stroke-dashoffset: 0; stroke-linejoin: miter; stroke-miterlimit: 4; fill: rgb(167,136,255); fill-rule: nonzero; opacity: 1;"
      vector-effect="non-scaling-stroke" transform=" translate(0, 0)"
      d="M -83.5 -83.5 L 11.502669999999995 -83.5 L 11.502669999999995 -83.5 C 51.265699999999995 -83.5 83.5 -78.08247 83.5 -71.39961 L 83.5 69.40218999999999 L 83.5 69.40218999999999 C 83.5 77.18818999999999 45.94477 83.49999999999999 -0.3819600000000065 83.49999999999999 L -0.3819600000000065 83.49999999999999 L -0.3819600000000065 83.49999999999999 C -46.28679 83.49999999999999 -83.5 77.24568 -83.5 69.53057999999999 z"
      stroke-linecap="round"/>
</g>
    <g transform="matrix(0.11 0.04 -0.24 0.67 -46 -11)" id="KYk_yrIVaihRz4dZyxJ5Y">
<path style="stroke: rgb(53,191,119); stroke-width: 0; stroke-dasharray: none; stroke-linecap: butt; stroke-dashoffset: 0; stroke-linejoin: miter; stroke-miterlimit: 4; fill: rgb(167,136,255); fill-rule: nonzero; opacity: 1;"
      vector-effect="non-scaling-stroke" transform=" translate(0, 0)"
      d="M -83.5 -73.22859 C -83.5 -78.90133 -56.13793 -83.5 -22.385109999999997 -83.5 L 83.5 -83.5 L 83.5 69.40218999999999 L 83.5 69.40218999999999 C 83.5 77.18818999999999 45.94477 83.49999999999999 -0.3819600000000065 83.49999999999999 L -0.3819600000000065 83.49999999999999 L -0.3819600000000065 83.49999999999999 C -46.28679 83.49999999999999 -83.5 77.24568 -83.5 69.53057999999999 z"
      stroke-linecap="round"/>
</g>
    <g transform="matrix(0.12 0 0 0.71 -20 111)" id="A7P7jenVNNdsIqODJDUPv">
<path style="stroke: rgb(53,191,119); stroke-width: 0; stroke-dasharray: none; stroke-linecap: butt; stroke-dashoffset: 0; stroke-linejoin: miter; stroke-miterlimit: 4; fill: rgb(167,136,255); fill-rule: nonzero; opacity: 1;"
      vector-effect="non-scaling-stroke" transform=" translate(0, 0)"
      d="M -83.5 -83.5 L 83.5 -83.5 L 83.5 69.40218999999999 L 83.5 69.40218999999999 C 83.5 77.18818999999999 45.94477 83.49999999999999 -0.3819600000000065 83.49999999999999 L -0.3819600000000065 83.49999999999999 L -0.3819600000000065 83.49999999999999 C -46.28679 83.49999999999999 -83.5 77.24568 -83.5 69.53057999999999 z"
      stroke-linecap="round"/>
</g>
    <g transform="matrix(0.12 0 0 0.71 20 110)" id="SrLvd-a3iNaQt5xr24HVq">
<path style="stroke: rgb(53,191,119); stroke-width: 0; stroke-dasharray: none; stroke-linecap: butt; stroke-dashoffset: 0; stroke-linejoin: miter; stroke-miterlimit: 4; fill: rgb(167,136,255); fill-rule: nonzero; opacity: 1;"
      vector-effect="non-scaling-stroke" transform=" translate(0, 0)"
      d="M -83.5 -83.5 L 83.5 -83.5 L 83.5 69.40218999999999 L 83.5 69.40218999999999 C 83.5 77.18818999999999 45.94477 83.49999999999999 -0.3819600000000065 83.49999999999999 L -0.3819600000000065 83.49999999999999 L -0.3819600000000065 83.49999999999999 C -46.28679 83.49999999999999 -83.5 77.24568 -83.5 69.53057999999999 z"
      stroke-linecap="round"/>
</g>
    <g transform="matrix(0.41 0 0 0.41 -0.5 -130)" id="VpkbYV6GCrsVvPmcQ8ZyS">
<path style="stroke: rgb(161,45,64); stroke-width: 0; stroke-dasharray: none; stroke-linecap: butt; stroke-dashoffset: 0; stroke-linejoin: miter; stroke-miterlimit: 4; fill: rgb(167,136,255); fill-rule: nonzero; opacity: 1;"
      vector-effect="non-scaling-stroke" transform=" translate(0, 0)"
      d="M 0 -98.5 C 54.372 -98.5 98.5 -54.372 98.5 0 C 98.5 54.372 54.372 98.5 0 98.5 C -54.372 98.5 -98.5 54.372 -98.5 0 C -98.5 -54.372 -54.372 -98.5 0 -98.5 z"
      stroke-linecap="round"/>
</g>
</g>
</g>
    <g transform="matrix(1 0 0 1 249.5 310)" id="nGxHkV70FdxhPZLNNb512">
<g style="" vector-effect="non-scaling-stroke">
		<g transform="matrix(0.51 0 0 1.02 0 -9.7)" id="k5PHqLHnqBTHiZkpu06Yl">
<path style="stroke: rgb(232,215,109); stroke-width: 0; stroke-dasharray: none; stroke-linecap: butt; stroke-dashoffset: 0; stroke-linejoin: miter; stroke-miterlimit: 4; fill: rgb(255,129,136); fill-rule: nonzero; opacity: 1;"
      vector-effect="non-scaling-stroke" transform=" translate(0, 0)"
      d="M -78.5 -39.294 C -78.5 -60.94687 -43.39375 -78.5 -0.08799999999999386 -78.5 L -0.08799999999999386 -78.5 L -0.08799999999999386 -78.5 C 43.314960000000006 -78.5 78.50001 -60.90748 78.50001 -39.206 L 78.50001 57.2868 L 78.50001 57.2868 C 78.50001 69.00253000000001 59.50506 78.5 36.073600000000006 78.5 L -36.07358999999999 78.5 L -36.07358999999999 78.5 C -59.50504999999999 78.5 -78.49999999999999 69.00253000000001 -78.49999999999999 57.2868 z"
      stroke-linecap="round"/>
</g>
    <g transform="matrix(0.11 -0.04 0.24 0.67 45.5 -11.5)" id="FOUoHKWxQAMfpzDI7m5_H">
<path style="stroke: rgb(53,191,119); stroke-width: 0; stroke-dasharray: none; stroke-linecap: butt; stroke-dashoffset: 0; stroke-linejoin: miter; stroke-miterlimit: 4; fill: rgb(255,129,136); fill-rule: nonzero; opacity: 1;"
      vector-effect="non-scaling-stroke" transform=" translate(0, 0)"
      d="M -83.5 -83.5 L 11.502669999999995 -83.5 L 11.502669999999995 -83.5 C 51.265699999999995 -83.5 83.5 -78.08247 83.5 -71.39961 L 83.5 69.40218999999999 L 83.5 69.40218999999999 C 83.5 77.18818999999999 45.94477 83.49999999999999 -0.3819600000000065 83.49999999999999 L -0.3819600000000065 83.49999999999999 L -0.3819600000000065 83.49999999999999 C -46.28679 83.49999999999999 -83.5 77.24568 -83.5 69.53057999999999 z"
      stroke-linecap="round"/>
</g>
    <g transform="matrix(0.11 0.04 -0.24 0.67 -45.5 -11.5)" id="5mrhVcGsYJVQ01Y7BnTOJ">
<path style="stroke: rgb(53,191,119); stroke-width: 0; stroke-dasharray: none; stroke-linecap: butt; stroke-dashoffset: 0; stroke-linejoin: miter; stroke-miterlimit: 4; fill: rgb(255,129,136); fill-rule: nonzero; opacity: 1;"
      vector-effect="non-scaling-stroke" transform=" translate(0, 0)"
      d="M -83.5 -73.22859 C -83.5 -78.90133 -56.13793 -83.5 -22.385109999999997 -83.5 L 83.5 -83.5 L 83.5 69.40218999999999 L 83.5 69.40218999999999 C 83.5 77.18818999999999 45.94477 83.49999999999999 -0.3819600000000065 83.49999999999999 L -0.3819600000000065 83.49999999999999 L -0.3819600000000065 83.49999999999999 C -46.28679 83.49999999999999 -83.5 77.24568 -83.5 69.53057999999999 z"
      stroke-linecap="round"/>
</g>
    <g transform="matrix(0.12 0 0 0.71 -20 110.8)" id="GGG9MZK9hj7JiJUbygHp0">
<path style="stroke: rgb(53,191,119); stroke-width: 0; stroke-dasharray: none; stroke-linecap: butt; stroke-dashoffset: 0; stroke-linejoin: miter; stroke-miterlimit: 4; fill: rgb(255,129,136); fill-rule: nonzero; opacity: 1;"
      vector-effect="non-scaling-stroke" transform=" translate(0, 0)"
      d="M -83.5 -83.5 L 83.5 -83.5 L 83.5 69.40218999999999 L 83.5 69.40218999999999 C 83.5 77.18818999999999 45.94477 83.49999999999999 -0.3819600000000065 83.49999999999999 L -0.3819600000000065 83.49999999999999 L -0.3819600000000065 83.49999999999999 C -46.28679 83.49999999999999 -83.5 77.24568 -83.5 69.53057999999999 z"
      stroke-linecap="round"/>
</g>
    <g transform="matrix(0.12 0 0 0.71 20 109.8)" id="IavksDgTbFsIco6pqaAdn">
<path style="stroke: rgb(53,191,119); stroke-width: 0; stroke-dasharray: none; stroke-linecap: butt; stroke-dashoffset: 0; stroke-linejoin: miter; stroke-miterlimit: 4; fill: rgb(255,129,136); fill-rule: nonzero; opacity: 1;"
      vector-effect="non-scaling-stroke" transform=" translate(0, 0)"
      d="M -83.5 -83.5 L 83.5 -83.5 L 83.5 69.40218999999999 L 83.5 69.40218999999999 C 83.5 77.18818999999999 45.94477 83.49999999999999 -0.3819600000000065 83.49999999999999 L -0.3819600000000065 83.49999999999999 L -0.3819600000000065 83.49999999999999 C -46.28679 83.49999999999999 -83.5 77.24568 -83.5 69.53057999999999 z"
      stroke-linecap="round"/>
</g>
    <g transform="matrix(0.41 0 0 0.41 0 -129.7)" id="0ITySK4ZJsM6mcTj4rlFA">
<path style="stroke: rgb(161,45,64); stroke-width: 0; stroke-dasharray: none; stroke-linecap: butt; stroke-dashoffset: 0; stroke-linejoin: miter; stroke-miterlimit: 4; fill: rgb(255,129,136); fill-rule: nonzero; opacity: 1;"
      vector-effect="non-scaling-stroke" transform=" translate(0, 0)"
      d="M 0 -98.5 C 54.372 -98.5 98.5 -54.372 98.5 0 C 98.5 54.372 54.372 98.5 0 98.5 C -54.372 98.5 -98.5 54.372 -98.5 0 C -98.5 -54.372 -54.372 -98.5 0 -98.5 z"
      stroke-linecap="round"/>
</g>
</g>
</g>
</svg>