<?xml version="1.0" encoding="UTF-8" standalone="no" ?>
<!DOCTYPE svg PUBLIC "-//W3C//DTD SVG 1.1//EN" "http://www.w3.org/Graphics/SVG/1.1/DTD/svg11.dtd">
<svg xmlns="http://www.w3.org/2000/svg" xmlns:xlink="http://www.w3.org/1999/xlink" version="1.1" width="700" height="500" viewBox="0 0 700 500" xml:space="preserve">
<desc>Created with Fabric.js 4.6.0</desc>
<defs>
</defs>
<g id="main">
<g transform="matrix(0.77 0 0 0.42 60.67 182.31)" id="xrwGJ3Pb2J4X5HeOWj2Qn"  >
<path style="stroke: rgb(0,0,0); stroke-opacity: 0.45; stroke-width: 3; stroke-dasharray: none; stroke-linecap: butt; stroke-dashoffset: 0; stroke-linejoin: miter; stroke-miterlimit: 4; fill: rgb(255,255,255); fill-rule: nonzero; opacity: 1;" vector-effect="non-scaling-stroke"  transform=" translate(0, 0)" d="M -59.69388 0.3838 C -59.69388 -32.796189999999996 -44.97246 -59.693889999999996 -26.81268 -59.693889999999996 L 26.81268 -59.693889999999996 L 26.81268 -59.693889999999996 C 44.97247 -59.693889999999996 59.69388 -32.796189999999996 59.69388 0.3838000000000008 L 59.69388 0.3838000000000008 L 59.69388 0.3838000000000008 C 59.69388 33.13985 45.160560000000004 59.69388 27.232799999999997 59.69388 L -27.232800000000005 59.69388 L -27.232800000000005 59.69388 C -45.160560000000004 59.69388 -59.69388000000001 33.139849999999996 -59.69388000000001 0.3838000000000008 z" stroke-linecap="round" />
</g>
<g transform="matrix(1 0 0 1 111.12 172.2)" style="" id="_flO982XuSPT8GPKbZBdt"  >
		<text xml:space="preserve" font-family="Open Sans" font-size="20" font-style="normal" font-weight="normal" line-height="1.16" style="stroke: none; stroke-width: 1; stroke-dasharray: none; stroke-linecap: butt; stroke-dashoffset: 0; stroke-linejoin: miter; stroke-miterlimit: 4; fill: rgb(0,0,0); fill-rule: nonzero; opacity: 1; white-space: pre;" ><tspan x="-80" y="6.28" >粉々の</tspan></text>
</g>
<g transform="matrix(1 0 0 1 114.8 194.86)" style="" id="nlYPvlBkVeJdXMZDdtaj9"  >
		<text xml:space="preserve" font-family="Open Sans" font-size="20" font-style="normal" font-weight="normal" line-height="1.16" style="stroke: none; stroke-width: 1; stroke-dasharray: none; stroke-linecap: butt; stroke-dashoffset: 0; stroke-linejoin: miter; stroke-miterlimit: 4; fill: rgb(0,0,0); fill-rule: nonzero; opacity: 1; white-space: pre;" ><tspan x="-75" y="6.28" >筐体</tspan></text>
</g>
<g transform="matrix(1 0 0 1 122.35 97.27)" id="5HSctNUiBLtWpn4nq0dMi"  >
<path style="stroke: rgb(0,0,0); stroke-width: 1; stroke-dasharray: none; stroke-linecap: butt; stroke-dashoffset: 0; stroke-linejoin: miter; stroke-miterlimit: 4; fill: rgb(49,168,247); fill-rule: nonzero; opacity: 1;" vector-effect="non-scaling-stroke"  transform=" translate(0, 0)" d="M -20.5102 55.10204 L -20.5102 -41.02041 L -16.224490000000003 -46.530609999999996 L 9.489799999999995 -45.918369999999996 L 9.489799999999995 -55.102039999999995 L 20.510209999999994 -40.408159999999995 L 10.102049999999993 -28.775509999999997 L 10.102049999999993 -37.959179999999996 L -8.877540000000009 -37.34694 L -12.551010000000009 -33.061229999999995 L -12.551010000000009 53.87755 z" stroke-linecap="round" />
</g>
<g transform="matrix(1 0 0 -1 122.35 263.27)" id="jVGl8Mu-qTORRUhlCqEsU"  >
<path style="stroke: rgb(0,0,0); stroke-width: 1; stroke-dasharray: none; stroke-linecap: butt; stroke-dashoffset: 0; stroke-linejoin: miter; stroke-miterlimit: 4; fill: rgb(49,168,247); fill-rule: nonzero; opacity: 1;" vector-effect="non-scaling-stroke"  transform=" translate(0, 0)" d="M -20.5102 55.10204 L -20.5102 -41.02041 L -16.224490000000003 -46.530609999999996 L 9.489799999999995 -45.918369999999996 L 9.489799999999995 -55.102039999999995 L 20.510209999999994 -40.408159999999995 L 10.102049999999993 -28.775509999999997 L 10.102049999999993 -37.959179999999996 L -8.877540000000009 -37.34694 L -12.551010000000009 -33.061229999999995 L -12.551010000000009 53.87755 z" stroke-linecap="round" />
</g>
<g transform="matrix(0.77 0 0 0.42 194.34 55.78)" id="Z8Jbn46T6XQ6WpuCcI3Fp"  >
<path style="stroke: rgb(0,0,0); stroke-opacity: 0.45; stroke-width: 1; stroke-dasharray: none; stroke-linecap: butt; stroke-dashoffset: 0; stroke-linejoin: miter; stroke-miterlimit: 4; fill: rgb(0,0,0); fill-opacity: 0.5; fill-rule: nonzero; opacity: 1;" vector-effect="non-scaling-stroke"  transform=" translate(0, 0)" d="M -59.69388 0.3838 C -59.69388 -32.796189999999996 -44.97246 -59.693889999999996 -26.81268 -59.693889999999996 L 26.81268 -59.693889999999996 L 26.81268 -59.693889999999996 C 44.97247 -59.693889999999996 59.69388 -32.796189999999996 59.69388 0.3838000000000008 L 59.69388 0.3838000000000008 L 59.69388 0.3838000000000008 C 59.69388 33.13985 45.160560000000004 59.69388 27.232799999999997 59.69388 L -27.232800000000005 59.69388 L -27.232800000000005 59.69388 C -45.160560000000004 59.69388 -59.69388000000001 33.139849999999996 -59.69388000000001 0.3838000000000008 z" stroke-linecap="round" />
</g>
<g transform="matrix(1 0 0 1 252.14 57.31)" style="filter: url(#SVGID_0);" id="AgbhAWDbQeoAM_XTZ9lY9"  >
<filter id="SVGID_0" y="-23%" height="146%" x="-21%" width="142%" >
	<feGaussianBlur in="SourceAlpha" stdDeviation="0"></feGaussianBlur>
	<feOffset dx="1" dy="1" result="oBlur" ></feOffset>
	<feFlood flood-color="rgb(255,255,255)" flood-opacity="1"/>
	<feComposite in2="oBlur" operator="in" />
	<feMerge>
		<feMergeNode></feMergeNode>
		<feMergeNode in="SourceGraphic"></feMergeNode>
	</feMerge>
</filter>
		<text xml:space="preserve" font-family="Open Sans" font-size="33" font-style="normal" font-weight="normal" line-height="1.16" style="stroke: none; stroke-width: 1; stroke-dasharray: none; stroke-linecap: butt; stroke-dashoffset: 0; stroke-linejoin: miter; stroke-miterlimit: 4; fill: rgb(0,0,0); fill-rule: nonzero; opacity: 1; white-space: pre;" ><tspan x="-75" y="10.37" >鉄</tspan></text>
</g>
<g transform="matrix(1.22 0 0 0.41 199.93 207.19)" id="1sfjKo7XCi0satE1-Pxqn"  >
<path style="stroke: rgb(0,0,0); stroke-opacity: 0.45; stroke-width: 1; stroke-dasharray: none; stroke-linecap: butt; stroke-dashoffset: 0; stroke-linejoin: miter; stroke-miterlimit: 4; fill: rgb(255,255,255); fill-rule: nonzero; opacity: 1;" vector-effect="non-scaling-stroke"  transform=" translate(0, 0)" d="M -59.69388 2.5206 C -59.69388 -31.839509999999997 -50.42286 -59.69388 -38.98647 -59.69388 L 38.98648 -59.69388 L 38.98648 -59.69388 C 50.42287 -59.69388 59.693889999999996 -31.83951 59.693889999999996 2.5206000000000017 L 59.693889999999996 2.5206000000000017 L 59.693889999999996 2.5206000000000017 C 59.693889999999996 34.09653 51.17408999999999 59.69388 40.66439 59.69388 L -40.66438000000001 59.69388 L -40.66438000000001 59.69388 C -51.17408000000001 59.69388 -59.69388000000001 34.09653 -59.69388000000001 2.5206000000000017 z" stroke-linecap="round" />
</g>
<g transform="matrix(1 0 0 1 255.18 208.26)" style="filter: url(#SVGID_1);" id="kX_UOX3Kr7vR-roybaE-B"  >
<filter id="SVGID_1" y="-24%" height="148%" x="-20%" width="140%" >
	<feGaussianBlur in="SourceAlpha" stdDeviation="0"></feGaussianBlur>
	<feOffset dx="1" dy="1" result="oBlur" ></feOffset>
	<feFlood flood-color="rgb(255,255,255)" flood-opacity="1"/>
	<feComposite in2="oBlur" operator="in" />
	<feMerge>
		<feMergeNode></feMergeNode>
		<feMergeNode in="SourceGraphic"></feMergeNode>
	</feMerge>
</filter>
		<text xml:space="preserve" font-family="Open Sans" font-size="20" font-style="normal" font-weight="normal" line-height="1.16" style="stroke: none; stroke-width: 1; stroke-dasharray: none; stroke-linecap: butt; stroke-dashoffset: 0; stroke-linejoin: miter; stroke-miterlimit: 4; fill: rgb(0,0,0); fill-rule: nonzero; opacity: 1; white-space: pre;" ><tspan x="-115.5" y="6.28" >プラスチック</tspan></text>
</g>
<g transform="matrix(0.77 0 0 0.42 197.84 315.22)" id="nfnbMsttlOaw1ji2GlYKn"  >
<path style="stroke: rgb(0,0,0); stroke-opacity: 0.45; stroke-width: 1; stroke-dasharray: none; stroke-linecap: butt; stroke-dashoffset: 0; stroke-linejoin: miter; stroke-miterlimit: 4; fill: rgb(0,0,0); fill-opacity: 0.2; fill-rule: nonzero; opacity: 1;" vector-effect="non-scaling-stroke"  transform=" translate(0, 0)" d="M -59.69388 0.3838 C -59.69388 -32.796189999999996 -44.97246 -59.693889999999996 -26.81268 -59.693889999999996 L 26.81268 -59.693889999999996 L 26.81268 -59.693889999999996 C 44.97247 -59.693889999999996 59.69388 -32.796189999999996 59.69388 0.3838000000000008 L 59.69388 0.3838000000000008 L 59.69388 0.3838000000000008 C 59.69388 33.13985 45.160560000000004 59.69388 27.232799999999997 59.69388 L -27.232800000000005 59.69388 L -27.232800000000005 59.69388 C -45.160560000000004 59.69388 -59.69388000000001 33.139849999999996 -59.69388000000001 0.3838000000000008 z" stroke-linecap="round" />
</g>
<g transform="matrix(1 0 0 1 234.82 315.53)" style="filter: url(#SVGID_2);" id="-64fI1xqiDUUHhKyL-OOc"  >
<filter id="SVGID_2" y="-23%" height="146%" x="-21%" width="142%" >
	<feGaussianBlur in="SourceAlpha" stdDeviation="0"></feGaussianBlur>
	<feOffset dx="1" dy="1" result="oBlur" ></feOffset>
	<feFlood flood-color="rgb(255,255,255)" flood-opacity="1"/>
	<feComposite in2="oBlur" operator="in" />
	<feMerge>
		<feMergeNode></feMergeNode>
		<feMergeNode in="SourceGraphic"></feMergeNode>
	</feMerge>
</filter>
		<text xml:space="preserve" font-family="Open Sans" font-size="26" font-style="normal" font-weight="normal" line-height="1.16" style="stroke: none; stroke-width: 1; stroke-dasharray: none; stroke-linecap: butt; stroke-dashoffset: 0; stroke-linejoin: miter; stroke-miterlimit: 4; fill: rgb(0,0,0); fill-rule: nonzero; opacity: 1; white-space: pre;" ><tspan x="-75" y="8.17" >アルミ</tspan></text>
</g>
<g transform="matrix(0.77 0 0 0.42 198.45 261.02)" id="j3r5Ij59pzfEK9QnTjNdO"  >
<path style="stroke: rgb(0,0,0); stroke-opacity: 0.45; stroke-width: 1; stroke-dasharray: none; stroke-linecap: butt; stroke-dashoffset: 0; stroke-linejoin: miter; stroke-miterlimit: 4; fill: rgb(252,141,29); fill-opacity: 0.89; fill-rule: nonzero; opacity: 1;" vector-effect="non-scaling-stroke"  transform=" translate(0, 0)" d="M -59.69388 0.3838 C -59.69388 -32.796189999999996 -44.97246 -59.693889999999996 -26.81268 -59.693889999999996 L 26.81268 -59.693889999999996 L 26.81268 -59.693889999999996 C 44.97247 -59.693889999999996 59.69388 -32.796189999999996 59.69388 0.3838000000000008 L 59.69388 0.3838000000000008 L 59.69388 0.3838000000000008 C 59.69388 33.13985 45.160560000000004 59.69388 27.232799999999997 59.69388 L -27.232800000000005 59.69388 L -27.232800000000005 59.69388 C -45.160560000000004 59.69388 -59.69388000000001 33.139849999999996 -59.69388000000001 0.3838000000000008 z" stroke-linecap="round" />
</g>
<g transform="matrix(1 0 0 1 254.41 261.94)" style="filter: url(#SVGID_3);" id="jbiNRxL_H8Q-QCFQKKq33"  >
<filter id="SVGID_3" y="-23%" height="146%" x="-21%" width="142%" >
	<feGaussianBlur in="SourceAlpha" stdDeviation="0"></feGaussianBlur>
	<feOffset dx="1" dy="1" result="oBlur" ></feOffset>
	<feFlood flood-color="rgb(255,255,255)" flood-opacity="1"/>
	<feComposite in2="oBlur" operator="in" />
	<feMerge>
		<feMergeNode></feMergeNode>
		<feMergeNode in="SourceGraphic"></feMergeNode>
	</feMerge>
</filter>
		<text xml:space="preserve" font-family="Open Sans" font-size="33" font-style="normal" font-weight="normal" line-height="1.16" style="stroke: none; stroke-width: 1; stroke-dasharray: none; stroke-linecap: butt; stroke-dashoffset: 0; stroke-linejoin: miter; stroke-miterlimit: 4; fill: rgb(0,0,0); fill-rule: nonzero; opacity: 1; white-space: pre;" ><tspan x="-75" y="10.37" >銅</tspan></text>
</g>
<g transform="matrix(1 0 0 1 201.84 455.96)" style="" id="NU1LkDMzpM2fKRKdrjiFx"  >
	<text xml:space="preserve" font-family="Open Sans" font-size="20" font-style="normal" font-weight="normal" line-height="1.16" style="stroke: none; stroke-width: 1; stroke-dasharray: none; stroke-linecap: butt; stroke-dashoffset: 0; stroke-linejoin: miter; stroke-miterlimit: 4; fill: rgb(0,0,0); fill-rule: nonzero; opacity: 1; white-space: pre;" ><tspan x="-100" y="6.28" ><a href="#petec_img_2">磁力選別機</a></tspan></text>
</g>
<g transform="matrix(1.22 0 0 0.41 417.47 191.46)" id="z-AhTVJSPctUl-n0-vveO"  >
<path style="stroke: rgb(0,0,0); stroke-opacity: 0.45; stroke-width: 1; stroke-dasharray: none; stroke-linecap: butt; stroke-dashoffset: 0; stroke-linejoin: miter; stroke-miterlimit: 4; fill: rgb(255,255,255); fill-rule: nonzero; opacity: 1;" vector-effect="non-scaling-stroke"  transform=" translate(0, 0)" d="M -59.69388 2.5206 C -59.69388 -31.839509999999997 -50.42286 -59.69388 -38.98647 -59.69388 L 38.98648 -59.69388 L 38.98648 -59.69388 C 50.42287 -59.69388 59.693889999999996 -31.83951 59.693889999999996 2.5206000000000017 L 59.693889999999996 2.5206000000000017 L 59.693889999999996 2.5206000000000017 C 59.693889999999996 34.09653 51.17408999999999 59.69388 40.66439 59.69388 L -40.66438000000001 59.69388 L -40.66438000000001 59.69388 C -51.17408000000001 59.69388 -59.69388000000001 34.09653 -59.69388000000001 2.5206000000000017 z" stroke-linecap="round" />
</g>
<g transform="matrix(1 0 0 1 472.72 191.3)" style="filter: url(#SVGID_4);" id="AgzuT30PAC6dFNy3PMAdY"  >
<filter id="SVGID_4" y="-24%" height="148%" x="-20%" width="140%" >
	<feGaussianBlur in="SourceAlpha" stdDeviation="0"></feGaussianBlur>
	<feOffset dx="1" dy="1" result="oBlur" ></feOffset>
	<feFlood flood-color="rgb(255,255,255)" flood-opacity="1"/>
	<feComposite in2="oBlur" operator="in" />
	<feMerge>
		<feMergeNode></feMergeNode>
		<feMergeNode in="SourceGraphic"></feMergeNode>
	</feMerge>
</filter>
		<text xml:space="preserve" font-family="Open Sans" font-size="20" font-style="normal" font-weight="normal" line-height="1.16" style="stroke: none; stroke-width: 1; stroke-dasharray: none; stroke-linecap: butt; stroke-dashoffset: 0; stroke-linejoin: miter; stroke-miterlimit: 4; fill: rgb(0,0,0); fill-rule: nonzero; opacity: 1; white-space: pre;" ><tspan x="-115.5" y="6.28" >プラスチック</tspan></text>
</g>
<g transform="matrix(1 0 0 1 296.33 71.43)" id="oNvpOp7XzLFYNqyepP_pW"  >
<path style="stroke: rgb(0,0,0); stroke-width: 1; stroke-dasharray: none; stroke-linecap: butt; stroke-dashoffset: 0; stroke-linejoin: miter; stroke-miterlimit: 4; fill: rgb(255,255,255); fill-rule: nonzero; opacity: 1;" vector-effect="non-scaling-stroke"  transform=" translate(0, 0)" d="M 0 0" stroke-linecap="round" />
</g>
<g transform="matrix(1 0 0 1 306.7 310.84)" id="hmvd2MrmSpIPYjgx_qbx-"  >
<path style="stroke: rgb(0,0,0); stroke-width: 1; stroke-dasharray: none; stroke-linecap: butt; stroke-dashoffset: 0; stroke-linejoin: miter; stroke-miterlimit: 4; fill: rgb(49,168,247); fill-rule: nonzero; opacity: 1;" vector-effect="non-scaling-stroke"  transform=" translate(0, 0)" d="M -23.26531 -36.73469 L -23.26531 18.367350000000002 L -18.36735 25.102040000000002 L 11.020410000000002 25.714280000000002 L 11.632650000000002 36.73469 L 23.265300000000003 19.59183 L 11.632650000000003 7.346930000000002 L 11.020410000000004 14.693870000000002 L -9.183669999999998 14.693870000000002 L -14.081629999999997 9.795910000000003 L -14.081629999999997 -36.734700000000004 z" stroke-linecap="round" />
</g>
<g transform="matrix(0.77 0 0 0.42 414.02 356.6)" id="2PzOAWQC-idFoLXOE3pV-"  >
<path style="stroke: rgb(0,0,0); stroke-opacity: 0.45; stroke-width: 1; stroke-dasharray: none; stroke-linecap: butt; stroke-dashoffset: 0; stroke-linejoin: miter; stroke-miterlimit: 4; fill: rgb(0,0,0); fill-opacity: 0.18; fill-rule: nonzero; opacity: 1;" vector-effect="non-scaling-stroke"  transform=" translate(0, 0)" d="M -59.69388 0.3838 C -59.69388 -32.796189999999996 -44.97246 -59.693889999999996 -26.81268 -59.693889999999996 L 26.81268 -59.693889999999996 L 26.81268 -59.693889999999996 C 44.97247 -59.693889999999996 59.69388 -32.796189999999996 59.69388 0.3838000000000008 L 59.69388 0.3838000000000008 L 59.69388 0.3838000000000008 C 59.69388 33.13985 45.160560000000004 59.69388 27.232799999999997 59.69388 L -27.232800000000005 59.69388 L -27.232800000000005 59.69388 C -45.160560000000004 59.69388 -59.69388000000001 33.139849999999996 -59.69388000000001 0.3838000000000008 z" stroke-linecap="round" />
</g>
<g transform="matrix(1 0 0 1 451.01 356.9)" style="filter: url(#SVGID_5);" id="Yw_IrTLiAO6SSyU1iKZUi"  >
<filter id="SVGID_5" y="-23%" height="146%" x="-21%" width="142%" >
	<feGaussianBlur in="SourceAlpha" stdDeviation="0"></feGaussianBlur>
	<feOffset dx="1" dy="1" result="oBlur" ></feOffset>
	<feFlood flood-color="rgb(255,255,255)" flood-opacity="1"/>
	<feComposite in2="oBlur" operator="in" />
	<feMerge>
		<feMergeNode></feMergeNode>
		<feMergeNode in="SourceGraphic"></feMergeNode>
	</feMerge>
</filter>
		<text xml:space="preserve" font-family="Open Sans" font-size="26" font-style="normal" font-weight="normal" line-height="1.16" style="stroke: none; stroke-width: 1; stroke-dasharray: none; stroke-linecap: butt; stroke-dashoffset: 0; stroke-linejoin: miter; stroke-miterlimit: 4; fill: rgb(0,0,0); fill-rule: nonzero; opacity: 1; white-space: pre;" ><tspan x="-75" y="8.17" >アルミ</tspan></text>
</g>
<g transform="matrix(0.77 0 0 0.42 414.84 301.45)" id="f45HfDMUKNsBCEKX1YzcR"  >
<path style="stroke: rgb(0,0,0); stroke-opacity: 0.45; stroke-width: 1; stroke-dasharray: none; stroke-linecap: butt; stroke-dashoffset: 0; stroke-linejoin: miter; stroke-miterlimit: 4; fill: rgb(252,141,29); fill-opacity: 0.89; fill-rule: nonzero; opacity: 1;" vector-effect="non-scaling-stroke"  transform=" translate(0, 0)" d="M -59.69388 0.3838 C -59.69388 -32.796189999999996 -44.97246 -59.693889999999996 -26.81268 -59.693889999999996 L 26.81268 -59.693889999999996 L 26.81268 -59.693889999999996 C 44.97247 -59.693889999999996 59.69388 -32.796189999999996 59.69388 0.3838000000000008 L 59.69388 0.3838000000000008 L 59.69388 0.3838000000000008 C 59.69388 33.13985 45.160560000000004 59.69388 27.232799999999997 59.69388 L -27.232800000000005 59.69388 L -27.232800000000005 59.69388 C -45.160560000000004 59.69388 -59.69388000000001 33.139849999999996 -59.69388000000001 0.3838000000000008 z" stroke-linecap="round" />
</g>
<g transform="matrix(1 0 0 1 470.8 302.78)" style="filter: url(#SVGID_6);" id="q94r1o07PJRQjwOD7ffjQ"  >
<filter id="SVGID_6" y="-23%" height="146%" x="-21%" width="142%" >
	<feGaussianBlur in="SourceAlpha" stdDeviation="0"></feGaussianBlur>
	<feOffset dx="1" dy="1" result="oBlur" ></feOffset>
	<feFlood flood-color="rgb(255,255,255)" flood-opacity="1"/>
	<feComposite in2="oBlur" operator="in" />
	<feMerge>
		<feMergeNode></feMergeNode>
		<feMergeNode in="SourceGraphic"></feMergeNode>
	</feMerge>
</filter>
		<text xml:space="preserve" font-family="Open Sans" font-size="33" font-style="normal" font-weight="normal" line-height="1.16" style="stroke: none; stroke-width: 1; stroke-dasharray: none; stroke-linecap: butt; stroke-dashoffset: 0; stroke-linejoin: miter; stroke-miterlimit: 4; fill: rgb(0,0,0); fill-rule: nonzero; opacity: 1; white-space: pre;" ><tspan x="-75" y="10.37" >銅</tspan></text>
</g>
<g transform="matrix(1 0 0 -1 307.27 212.2)" id="wk40nyJtG4KYeVHeoJlAh"  >
<path style="stroke: rgb(0,0,0); stroke-width: 1; stroke-dasharray: none; stroke-linecap: butt; stroke-dashoffset: 0; stroke-linejoin: miter; stroke-miterlimit: 4; fill: rgb(49,168,247); fill-rule: nonzero; opacity: 1;" vector-effect="non-scaling-stroke"  transform=" translate(0, 0)" d="M -23.26531 -36.73469 L -23.26531 18.367350000000002 L -18.36735 25.102040000000002 L 11.020410000000002 25.714280000000002 L 11.632650000000002 36.73469 L 23.265300000000003 19.59183 L 11.632650000000003 7.346930000000002 L 11.020410000000004 14.693870000000002 L -9.183669999999998 14.693870000000002 L -14.081629999999997 9.795910000000003 L -14.081629999999997 -36.734700000000004 z" stroke-linecap="round" />
</g>
<g transform="matrix(1 0 0 1 380.61 455.76)" style="" id="cK-NNmtKjMpboUnEVRwCt"  >
	<text xml:space="preserve" font-family="Open Sans" font-size="20" font-style="normal" font-weight="normal" line-height="1.16" style="stroke: none; stroke-width: 1; stroke-dasharray: none; stroke-linecap: butt; stroke-dashoffset: 0; stroke-linejoin: miter; stroke-miterlimit: 4; fill: rgb(0,0,0); fill-rule: nonzero; opacity: 1; white-space: pre;" ><tspan x="-100" y="6.28" ><a href="#petec_img_3">非鉄金属選別機</a></tspan></text>
</g>
<g transform="matrix(1 0 0 1 506.44 287.15)" id="3dNyd84ooNMs5qwN6yEg-"  >
<path style="stroke: rgb(0,0,0); stroke-width: 1; stroke-dasharray: none; stroke-linecap: butt; stroke-dashoffset: 0; stroke-linejoin: miter; stroke-miterlimit: 4; fill: rgb(49,168,247); fill-rule: nonzero; opacity: 1;" vector-effect="non-scaling-stroke"  transform=" translate(0, 0)" d="M -20.5102 26.32653 L -20.5102 -10.408159999999999 L -15.61224 -17.14285 L 7.65307 -17.14285 L 8.26531 -26.938769999999998 L 20.51021 -12.857139999999998 L 8.87756 -1.2244899999999976 L 7.6530700000000005 -7.959179999999997 L -7.6530499999999995 -7.959179999999997 L -11.938759999999998 -4.897959999999998 L -11.938759999999998 26.93877 z" stroke-linecap="round" />
</g>
<g transform="matrix(1 0 0 -1 506.44 368.18)" id="TOs9vv9LBFzsVQO-Skx8s"  >
<path style="stroke: rgb(0,0,0); stroke-width: 1; stroke-dasharray: none; stroke-linecap: butt; stroke-dashoffset: 0; stroke-linejoin: miter; stroke-miterlimit: 4; fill: rgb(49,168,247); fill-rule: nonzero; opacity: 1;" vector-effect="non-scaling-stroke"  transform=" translate(0, 0)" d="M -20.5102 26.32653 L -20.5102 -10.408159999999999 L -15.61224 -17.14285 L 7.65307 -17.14285 L 8.26531 -26.938769999999998 L 20.51021 -12.857139999999998 L 8.87756 -1.2244899999999976 L 7.6530700000000005 -7.959179999999997 L -7.6530499999999995 -7.959179999999997 L -11.938759999999998 -4.897959999999998 L -11.938759999999998 26.93877 z" stroke-linecap="round" />
</g>
<g transform="matrix(0.77 0 0 0.42 585.99 378.87)" id="4h5ofPFXbBMWsf6DkRxFb"  >
<path style="stroke: rgb(0,0,0); stroke-opacity: 0.45; stroke-width: 1; stroke-dasharray: none; stroke-linecap: butt; stroke-dashoffset: 0; stroke-linejoin: miter; stroke-miterlimit: 4; fill: rgb(0,0,0); fill-opacity: 0.18; fill-rule: nonzero; opacity: 1;" vector-effect="non-scaling-stroke"  transform=" translate(0, 0)" d="M -59.69388 0.3838 C -59.69388 -32.796189999999996 -44.97246 -59.693889999999996 -26.81268 -59.693889999999996 L 26.81268 -59.693889999999996 L 26.81268 -59.693889999999996 C 44.97247 -59.693889999999996 59.69388 -32.796189999999996 59.69388 0.3838000000000008 L 59.69388 0.3838000000000008 L 59.69388 0.3838000000000008 C 59.69388 33.13985 45.160560000000004 59.69388 27.232799999999997 59.69388 L -27.232800000000005 59.69388 L -27.232800000000005 59.69388 C -45.160560000000004 59.69388 -59.69388000000001 33.139849999999996 -59.69388000000001 0.3838000000000008 z" stroke-linecap="round" />
</g>
<g transform="matrix(1 0 0 1 622.98 379.17)" style="filter: url(#SVGID_7);" id="euWA6xd3KVvoij9zn31_s"  >
<filter id="SVGID_7" y="-23%" height="146%" x="-21%" width="142%" >
	<feGaussianBlur in="SourceAlpha" stdDeviation="0"></feGaussianBlur>
	<feOffset dx="1" dy="1" result="oBlur" ></feOffset>
	<feFlood flood-color="rgb(255,255,255)" flood-opacity="1"/>
	<feComposite in2="oBlur" operator="in" />
	<feMerge>
		<feMergeNode></feMergeNode>
		<feMergeNode in="SourceGraphic"></feMergeNode>
	</feMerge>
</filter>
		<text xml:space="preserve" font-family="Open Sans" font-size="26" font-style="normal" font-weight="normal" line-height="1.16" style="stroke: none; stroke-width: 1; stroke-dasharray: none; stroke-linecap: butt; stroke-dashoffset: 0; stroke-linejoin: miter; stroke-miterlimit: 4; fill: rgb(0,0,0); fill-rule: nonzero; opacity: 1; white-space: pre;" ><tspan x="-75" y="8.17" >アルミ</tspan></text>
</g>
<g transform="matrix(0.77 0 0 0.42 584.97 277.43)" id="ULzvRNze2sEwHbWxlgMHy"  >
<path style="stroke: rgb(0,0,0); stroke-opacity: 0.45; stroke-width: 1; stroke-dasharray: none; stroke-linecap: butt; stroke-dashoffset: 0; stroke-linejoin: miter; stroke-miterlimit: 4; fill: rgb(252,141,29); fill-opacity: 0.89; fill-rule: nonzero; opacity: 1;" vector-effect="non-scaling-stroke"  transform=" translate(0, 0)" d="M -59.69388 0.3838 C -59.69388 -32.796189999999996 -44.97246 -59.693889999999996 -26.81268 -59.693889999999996 L 26.81268 -59.693889999999996 L 26.81268 -59.693889999999996 C 44.97247 -59.693889999999996 59.69388 -32.796189999999996 59.69388 0.3838000000000008 L 59.69388 0.3838000000000008 L 59.69388 0.3838000000000008 C 59.69388 33.13985 45.160560000000004 59.69388 27.232799999999997 59.69388 L -27.232800000000005 59.69388 L -27.232800000000005 59.69388 C -45.160560000000004 59.69388 -59.69388000000001 33.139849999999996 -59.69388000000001 0.3838000000000008 z" stroke-linecap="round" />
</g>
<g transform="matrix(1 0 0 1 640.93 278.35)" style="filter: url(#SVGID_8);" id="amjA4uprU-UnFYSqSvCgv"  >
<filter id="SVGID_8" y="-23%" height="146%" x="-21%" width="142%" >
	<feGaussianBlur in="SourceAlpha" stdDeviation="0"></feGaussianBlur>
	<feOffset dx="1" dy="1" result="oBlur" ></feOffset>
	<feFlood flood-color="rgb(255,255,255)" flood-opacity="1"/>
	<feComposite in2="oBlur" operator="in" />
	<feMerge>
		<feMergeNode></feMergeNode>
		<feMergeNode in="SourceGraphic"></feMergeNode>
	</feMerge>
</filter>
		<text xml:space="preserve" font-family="Open Sans" font-size="33" font-style="normal" font-weight="normal" line-height="1.16" style="stroke: none; stroke-width: 1; stroke-dasharray: none; stroke-linecap: butt; stroke-dashoffset: 0; stroke-linejoin: miter; stroke-miterlimit: 4; fill: rgb(0,0,0); fill-rule: nonzero; opacity: 1; white-space: pre;" ><tspan x="-75" y="10.37" >銅</tspan></text>
</g>
<g transform="matrix(1 0 0 1 585.93 456.98)" style="" id="q58jGEUbziC6hsSeLSJ_U"  >
	<text xml:space="preserve" font-family="Open Sans" font-size="20" font-style="normal" font-weight="normal" line-height="1.16" style="stroke: none; stroke-width: 1; stroke-dasharray: none; stroke-linecap: butt; stroke-dashoffset: 0; stroke-linejoin: miter; stroke-miterlimit: 4; fill: rgb(0,0,0); fill-rule: nonzero; opacity: 1; white-space: pre;" ><tspan x="-100" y="6.28" ><a href="#petec_img_4">振動比重選別機</a></tspan></text>
</g>
<g transform="matrix(1 0 0 1 555.58 466.63)" id="Z7moMQEx6cnIbkRa6ApcQ"  >
<path style="stroke: rgb(0,0,0); stroke-width: 1; stroke-dasharray: none; stroke-linecap: butt; stroke-dashoffset: 0; stroke-linejoin: miter; stroke-miterlimit: 4; fill: rgb(255,255,255); fill-rule: nonzero; opacity: 1;" vector-effect="non-scaling-stroke"  transform=" translate(0, 0)" d="M -70.79288 0.28317 L 70.79288 -0.28317" stroke-linecap="round" />
</g>
<g transform="matrix(1 0 0 1 350.85 465.21)" id="-EvaUHcRaconlRhmgtZGw"  >
<path style="stroke: rgb(0,0,0); stroke-width: 1; stroke-dasharray: none; stroke-linecap: butt; stroke-dashoffset: 0; stroke-linejoin: miter; stroke-miterlimit: 4; fill: rgb(255,255,255); fill-rule: nonzero; opacity: 1;" vector-effect="non-scaling-stroke"  transform=" translate(0, 0)" d="M -69.94337 0 L 69.94336 0" stroke-linecap="round" />
</g>
<g transform="matrix(1 0 0 1 152.06 465.78)" id="gGjeu5jcQwx8NFTCzYed6"  >
<path style="stroke: rgb(0,0,0); stroke-width: 1; stroke-dasharray: none; stroke-linecap: butt; stroke-dashoffset: 0; stroke-linejoin: miter; stroke-miterlimit: 4; fill: rgb(255,255,255); fill-rule: nonzero; opacity: 1;" vector-effect="non-scaling-stroke"  transform=" translate(0, 0)" d="M -49.55502 0.56634 L 49.555009999999996 -0.56635" stroke-linecap="round" />
</g>
</g>
</svg>