<?xml version="1.0" encoding="UTF-8" standalone="no" ?>
<!DOCTYPE svg PUBLIC "-//W3C//DTD SVG 1.1//EN" "http://www.w3.org/Graphics/SVG/1.1/DTD/svg11.dtd">
<svg xmlns="http://www.w3.org/2000/svg" xmlns:xlink="http://www.w3.org/1999/xlink" version="1.1" width="750" height="750" viewBox="0 0 750 750" xml:space="preserve">
<desc>Created with Fabric.js 4.6.0</desc>
<defs>
</defs>
<g transform="matrix(0.06 0 0 1 250 124.86)" id="jlLPwo9WgNOG0a0_lsdd8"  >
<path style="stroke: rgb(93,186,86); stroke-width: 0; stroke-dasharray: none; stroke-linecap: butt; stroke-dashoffset: 0; stroke-linejoin: miter; stroke-miterlimit: 4; fill: rgb(0,0,0); fill-opacity: 0.73; fill-rule: nonzero; opacity: 1;" vector-effect="non-scaling-stroke"  transform=" translate(0, 0)" d="M -88.74863 -88.74863 L 88.74863 -88.74863 L 88.74863 88.74863 L -88.74863 88.74863 z" stroke-linecap="round" />
</g>
<g transform="matrix(1 0 0 1 250.29 340)" id="XtA0jKd-QvAGVju6SnMuD"  >
<path style="stroke: rgb(0,0,0); stroke-width: 4; stroke-dasharray: none; stroke-linecap: butt; stroke-dashoffset: 0; stroke-linejoin: miter; stroke-miterlimit: 4; fill: rgb(0,0,0); fill-opacity: 0.19; fill-rule: nonzero; opacity: 1;" vector-effect="non-scaling-stroke"  transform=" translate(-86.44, -86.44)" d="M 86.44347 0 C 134.16027 0 172.88694 38.72668 172.88694 86.44347 C 172.88694 134.16027 134.16026 172.88694 86.44347 172.88694 C 38.726670000000006 172.88694 0 134.16026 0 86.44347 C 0 38.726670000000006 38.72668 0 86.44347 0 z" stroke-linecap="round" />
</g>
<g transform="matrix(0.57 0 0 0.57 357.94 281.78)" id="xSozZ_QRis-D1KQ5_mAIg"  >
<path style="stroke: rgb(0,0,0); stroke-width: 1; stroke-dasharray: none; stroke-linecap: butt; stroke-dashoffset: 0; stroke-linejoin: miter; stroke-miterlimit: 4; fill: rgb(49,168,247); fill-rule: nonzero; opacity: 1;" vector-effect="non-scaling-stroke"  transform=" translate(0, 0)" d="M -27.27772 -50.32931 L -12.678379999999999 -40.340289999999996 L -0.3841999999999981 -27.277719999999995 L 7.299660000000002 -14.215149999999996 L 13.446750000000002 1.152580000000004 L 20.36223 18.057080000000003 L 24.20416 31.88803 L 38.8035 29.58287 L 21.899 50.3293 L -4.226139999999997 40.34028000000001 L 7.299660000000003 37.26673000000001 L 4.226110000000003 23.43578000000001 L 0.38418000000000285 9.604830000000009 L -4.994519999999998 -1.9209699999999916 L -11.141609999999998 -12.678379999999992 L -18.82547 -21.13062999999999 L -27.27772 -28.046109999999988 L -38.80352 -36.49835999999999 z" stroke-linecap="round" />
</g>
<g transform="matrix(-0.57 0 0 -0.57 151.52 399.26)" id="233mPsrbJ_OvO_bMM3D_0"  >
<path style="stroke: rgb(0,0,0); stroke-width: 1; stroke-dasharray: none; stroke-linecap: butt; stroke-dashoffset: 0; stroke-linejoin: miter; stroke-miterlimit: 4; fill: rgb(49,168,247); fill-rule: nonzero; opacity: 1;" vector-effect="non-scaling-stroke"  transform=" translate(0, 0)" d="M -27.27772 -50.32931 L -12.678379999999999 -40.340289999999996 L -0.3841999999999981 -27.277719999999995 L 7.299660000000002 -14.215149999999996 L 13.446750000000002 1.152580000000004 L 20.36223 18.057080000000003 L 24.20416 31.88803 L 38.8035 29.58287 L 21.899 50.3293 L -4.226139999999997 40.34028000000001 L 7.299660000000003 37.26673000000001 L 4.226110000000003 23.43578000000001 L 0.38418000000000285 9.604830000000009 L -4.994519999999998 -1.9209699999999916 L -11.141609999999998 -12.678379999999992 L -18.82547 -21.13062999999999 L -27.27772 -28.046109999999988 L -38.80352 -36.49835999999999 z" stroke-linecap="round" />
</g>
<g transform="matrix(1 0 0 0.01 250.29 593.27)" id="2XrkLaU8qHnCj_ocbFYJs"  >
<path style="stroke: rgb(193,168,79); stroke-width: 0; stroke-dasharray: none; stroke-linecap: butt; stroke-dashoffset: 0; stroke-linejoin: miter; stroke-miterlimit: 4; fill: rgb(0,0,0); fill-opacity: 0.74; fill-rule: nonzero; opacity: 1;" vector-effect="non-scaling-stroke"  transform=" translate(0, 0)" d="M -218.99012 -218.99012 L 218.99012 -218.99012 L 218.99012 218.99012 L -218.99012 218.99012 z" stroke-linecap="round" />
</g>
<g transform="matrix(0.81 0 0 0.68 247.69 564.92)" id="P_vgFssUqJ4-Sd6DEOaUR"  >
<path style="stroke: none; stroke-width: 1; stroke-dasharray: none; stroke-linecap: butt; stroke-dashoffset: 0; stroke-linejoin: miter; stroke-miterlimit: 4; fill: rgb(0,0,0); fill-opacity: 0.72; fill-rule: nonzero; opacity: 1;" vector-effect="non-scaling-stroke"  transform=" translate(0, 0)" d="M 20 0 L 40 40 L 0 40 L -40 40 L -20 0 L 0 -40 z" stroke-linecap="round" />
</g>
<g transform="matrix(1 0 0 1 122.45 638.53)" id="fNXUF6YL9KA2aNhlnTNR-"  >
<path style="stroke: rgb(0,0,0); stroke-opacity: 0.55; stroke-width: 2; stroke-dasharray: none; stroke-linecap: butt; stroke-dashoffset: 0; stroke-linejoin: miter; stroke-miterlimit: 4; fill: rgb(0,0,0); fill-opacity: 0.39; fill-rule: nonzero; opacity: 1;" vector-effect="non-scaling-stroke"  transform=" translate(-36.88, -36.88)" d="M 0 15.64794 C 0 7.00582 7.00582 0 15.64794 0 L 58.117149999999995 0 L 58.117149999999995 0 C 66.75927 0 73.76509 7.00582 73.76509 15.64794 L 73.76509 58.117149999999995 L 73.76509 58.117149999999995 C 73.76509 66.75927 66.75927 73.76509 58.11715 73.76509 L 15.647940000000006 73.76509 L 15.647940000000006 73.76509 C 7.005820000000005 73.76509 5.329070518200751e-15 66.75927 5.329070518200751e-15 58.11715 z" stroke-linecap="round" />
</g>
<g transform="matrix(1 0 0 1 171.5 641.61)" style="filter: url(#SVGID_0);" id="jHkRIIPA8BXQsApoNBVvL"  >
<filter id="SVGID_0" y="-22%" height="144%" x="-21%" width="142%" >
	<feGaussianBlur in="SourceAlpha" stdDeviation="0"></feGaussianBlur>
	<feOffset dx="1" dy="1" result="oBlur" ></feOffset>
	<feFlood flood-color="rgb(255,255,255)" flood-opacity="1"/>
	<feComposite in2="oBlur" operator="in" />
	<feMerge>
		<feMergeNode></feMergeNode>
		<feMergeNode in="SourceGraphic"></feMergeNode>
	</feMerge>
</filter>
		<text xml:space="preserve" font-family="Open Sans" font-size="49" font-style="normal" font-weight="normal" line-height="1.16" style="stroke: none; stroke-width: 1; stroke-dasharray: none; stroke-linecap: butt; stroke-dashoffset: 0; stroke-linejoin: miter; stroke-miterlimit: 4; fill: rgb(0,0,0); fill-rule: nonzero; opacity: 1; white-space: pre;" ><tspan x="-75" y="15.39" >鉄</tspan></text>
</g>
<g transform="matrix(1 0 0 1 316.1 637.77)" id="8GmyIsD8EHBsB_Ha3n5_S"  >
<path style="stroke: rgb(0,0,0); stroke-opacity: 0.55; stroke-width: 2; stroke-dasharray: none; stroke-linecap: butt; stroke-dashoffset: 0; stroke-linejoin: miter; stroke-miterlimit: 4; fill: rgb(252,133,29); fill-opacity: 0.93; fill-rule: nonzero; opacity: 1;" vector-effect="non-scaling-stroke"  transform=" translate(-36.88, -36.88)" d="M 0 15.64794 C 0 7.00582 7.00582 0 15.64794 0 L 58.117149999999995 0 L 58.117149999999995 0 C 66.75927 0 73.76509 7.00582 73.76509 15.64794 L 73.76509 58.117149999999995 L 73.76509 58.117149999999995 C 73.76509 66.75927 66.75927 73.76509 58.11715 73.76509 L 15.647940000000006 73.76509 L 15.647940000000006 73.76509 C 7.005820000000005 73.76509 5.329070518200751e-15 66.75927 5.329070518200751e-15 58.11715 z" stroke-linecap="round" />
</g>
<g transform="matrix(1 0 0 1 365.14 640.84)" style="filter: url(#SVGID_1);" id="ry9XxrjftKwWBSCxMKc_H"  >
<filter id="SVGID_1" y="-22%" height="144%" x="-21%" width="142%" >
	<feGaussianBlur in="SourceAlpha" stdDeviation="0"></feGaussianBlur>
	<feOffset dx="1" dy="1" result="oBlur" ></feOffset>
	<feFlood flood-color="rgb(255,255,255)" flood-opacity="1"/>
	<feComposite in2="oBlur" operator="in" />
	<feMerge>
		<feMergeNode></feMergeNode>
		<feMergeNode in="SourceGraphic"></feMergeNode>
	</feMerge>
</filter>
		<text xml:space="preserve" font-family="Open Sans" font-size="49" font-style="normal" font-weight="normal" line-height="1.16" style="stroke: none; stroke-width: 1; stroke-dasharray: none; stroke-linecap: butt; stroke-dashoffset: 0; stroke-linejoin: miter; stroke-miterlimit: 4; fill: rgb(0,0,0); fill-rule: nonzero; opacity: 1; white-space: pre;" ><tspan x="-75" y="15.39" >銅</tspan></text>
</g>
<g transform="matrix(1.83 0 0 1 422.48 638.55)" id="avL92JLvGrHsdSGtdhzBe"  >
<path style="stroke: rgb(0,0,0); stroke-opacity: 0.55; stroke-width: 2; stroke-dasharray: none; stroke-linecap: butt; stroke-dashoffset: 0; stroke-linejoin: miter; stroke-miterlimit: 4; fill: rgb(0,0,0); fill-opacity: 0.22; fill-rule: nonzero; opacity: 1;" vector-effect="non-scaling-stroke"  transform=" translate(0, 0)" d="M -36.88255 -21.23461 C -36.88255 -29.876730000000002 -33.05744 -36.88255 -28.33893 -36.88255 L 28.33893 -36.88255 L 28.33893 -36.88255 C 33.05744 -36.88255 36.88255 -29.876730000000002 36.88255 -21.234610000000004 L 36.88255 21.234599999999993 L 36.88255 21.234599999999993 C 36.88255 29.87671999999999 33.05744 36.88253999999999 28.33893 36.88253999999999 L -28.33893 36.88253999999999 L -28.33893 36.88253999999999 C -33.05744 36.88253999999999 -36.88255 29.87671999999999 -36.88255 21.234599999999993 z" stroke-linecap="round" />
</g>
<g transform="matrix(1 0 0 1 440.85 641.62)" style="filter: url(#SVGID_2);" id="9GDiLcf_kBzfeN4ivksIj"  >
<filter id="SVGID_2" y="-22%" height="144%" x="-21%" width="142%" >
	<feGaussianBlur in="SourceAlpha" stdDeviation="0"></feGaussianBlur>
	<feOffset dx="1" dy="1" result="oBlur" ></feOffset>
	<feFlood flood-color="rgb(255,255,255)" flood-opacity="1"/>
	<feComposite in2="oBlur" operator="in" />
	<feMerge>
		<feMergeNode></feMergeNode>
		<feMergeNode in="SourceGraphic"></feMergeNode>
	</feMerge>
</filter>
		<text xml:space="preserve" font-family="Open Sans" font-size="39" font-style="normal" font-weight="normal" line-height="1.16" style="stroke: none; stroke-width: 1; stroke-dasharray: none; stroke-linecap: butt; stroke-dashoffset: 0; stroke-linejoin: miter; stroke-miterlimit: 4; fill: rgb(0,0,0); fill-rule: nonzero; opacity: 1; white-space: pre;" ><tspan x="-75" y="12.25" >アルミ</tspan></text>
</g>
<g transform="matrix(2.9 0 0 1 599.09 638.53)" id="lBNQlTKZhZ8aO8YgwRCLz"  >
<path style="stroke: rgb(0,0,0); stroke-opacity: 0.55; stroke-width: 2; stroke-dasharray: none; stroke-linecap: butt; stroke-dashoffset: 0; stroke-linejoin: miter; stroke-miterlimit: 4; fill: rgb(255,255,255); fill-rule: nonzero; opacity: 1;" vector-effect="non-scaling-stroke"  transform=" translate(0, 0)" d="M -36.88255 -21.23461 C -36.88255 -29.876730000000002 -34.468920000000004 -36.88255 -31.49156 -36.88255 L 31.49156 -36.88255 L 31.49156 -36.88255 C 34.46892 -36.88255 36.88255 -29.876730000000002 36.88255 -21.234610000000004 L 36.88255 21.234599999999993 L 36.88255 21.234599999999993 C 36.88255 29.87671999999999 34.468920000000004 36.88253999999999 31.49156 36.88253999999999 L -31.49156 36.88253999999999 L -31.49156 36.88253999999999 C -34.46892 36.88253999999999 -36.88255 29.87671999999999 -36.88255 21.234599999999993 z" stroke-linecap="round" />
</g>
<g transform="matrix(1 0 0 1 642.37 641.62)" style="filter: url(#SVGID_3);" id="GXECCUy0-FvY2BKFyF-cr"  >
<filter id="SVGID_3" y="-23%" height="146%" x="-20%" width="140%" >
	<feGaussianBlur in="SourceAlpha" stdDeviation="0"></feGaussianBlur>
	<feOffset dx="1" dy="1" result="oBlur" ></feOffset>
	<feFlood flood-color="rgb(255,255,255)" flood-opacity="1"/>
	<feComposite in2="oBlur" operator="in" />
	<feMerge>
		<feMergeNode></feMergeNode>
		<feMergeNode in="SourceGraphic"></feMergeNode>
	</feMerge>
</filter>
		<text xml:space="preserve" font-family="Open Sans" font-size="35" font-style="normal" font-weight="normal" line-height="1.16" style="stroke: none; stroke-width: 1; stroke-dasharray: none; stroke-linecap: butt; stroke-dashoffset: 0; stroke-linejoin: miter; stroke-miterlimit: 4; fill: rgb(0,0,0); fill-rule: nonzero; opacity: 1; white-space: pre;" ><tspan x="-147" y="10.99" >プラスチック</tspan></text>
</g>
<g transform="matrix(0.64 0 0 0.64 192.79 583.66)" id="DEDr7cfUhp9ccM4QF1xxG"  >
<path style="stroke: rgb(0,0,0); stroke-opacity: 0.89; stroke-width: 2; stroke-dasharray: none; stroke-linecap: butt; stroke-dashoffset: 0; stroke-linejoin: miter; stroke-miterlimit: 4; fill: rgb(0,0,0); fill-opacity: 0.61; fill-rule: nonzero; opacity: 1;" vector-effect="non-scaling-stroke"  transform=" translate(0, 0)" d="M -12.34907 -12.34907 L 12.34906 -12.34907 L 12.34906 12.34906 L -12.34907 12.34906 z" stroke-linecap="round" />
</g>
<g transform="matrix(0.64 0 0 0.64 347.64 337.73)" id="Kb6mkHVQt2jI2-oa0edHR"  >
<path style="stroke: rgb(0,0,0); stroke-opacity: 0.89; stroke-width: 2; stroke-dasharray: none; stroke-linecap: butt; stroke-dashoffset: 0; stroke-linejoin: miter; stroke-miterlimit: 4; fill: rgb(252,141,29); fill-opacity: 0.82; fill-rule: nonzero; opacity: 1;" vector-effect="non-scaling-stroke"  transform=" translate(0, 0)" d="M -12.34907 -12.34907 L 12.34906 -12.34907 L 12.34906 12.34906 L -12.34907 12.34906 z" stroke-linecap="round" />
</g>
<g transform="matrix(0.64 0 0 0.64 326.42 192.81)" id="RwVR2j92IM4bo3WeJcnzg"  >
<path style="stroke: rgb(0,0,0); stroke-opacity: 0.89; stroke-width: 2; stroke-dasharray: none; stroke-linecap: butt; stroke-dashoffset: 0; stroke-linejoin: miter; stroke-miterlimit: 4; fill: rgb(255,255,255); fill-rule: nonzero; opacity: 1;" vector-effect="non-scaling-stroke"  transform=" translate(0, 0)" d="M -12.34907 -12.34907 L 12.34906 -12.34907 L 12.34906 12.34906 L -12.34907 12.34906 z" stroke-linecap="round" />
</g>
<g transform="matrix(0.64 0 0 0.64 383.9 490.53)" id="AQH5L_J8ZLlpfuPtK_4dE"  >
<path style="stroke: rgb(0,0,0); stroke-opacity: 0.89; stroke-width: 2; stroke-dasharray: none; stroke-linecap: butt; stroke-dashoffset: 0; stroke-linejoin: miter; stroke-miterlimit: 4; fill: rgb(0,0,0); fill-opacity: 0.23; fill-rule: nonzero; opacity: 1;" vector-effect="non-scaling-stroke"  transform=" translate(0, 0)" d="M -12.34907 -12.34907 L 12.34906 -12.34907 L 12.34906 12.34906 L -12.34907 12.34906 z" stroke-linecap="round" />
</g>
<g transform="matrix(0.64 0 0 0.64 169.24 556.02)" id="-Pb_jDesL1pxKtu_GfNLx"  >
<path style="stroke: rgb(0,0,0); stroke-opacity: 0.89; stroke-width: 2; stroke-dasharray: none; stroke-linecap: butt; stroke-dashoffset: 0; stroke-linejoin: miter; stroke-miterlimit: 4; fill: rgb(0,0,0); fill-opacity: 0.61; fill-rule: nonzero; opacity: 1;" vector-effect="non-scaling-stroke"  transform=" translate(0, 0)" d="M -12.34907 -12.34907 L 12.34906 -12.34907 L 12.34906 12.34906 L -12.34907 12.34906 z" stroke-linecap="round" />
</g>
<g transform="matrix(0.64 0 0 0.64 128.9 582.18)" id="Qg1nzHncayVS33b5aLLrT"  >
<path style="stroke: rgb(0,0,0); stroke-opacity: 0.89; stroke-width: 2; stroke-dasharray: none; stroke-linecap: butt; stroke-dashoffset: 0; stroke-linejoin: miter; stroke-miterlimit: 4; fill: rgb(0,0,0); fill-opacity: 0.61; fill-rule: nonzero; opacity: 1;" vector-effect="non-scaling-stroke"  transform=" translate(0, 0)" d="M -12.34907 -12.34907 L 12.34906 -12.34907 L 12.34906 12.34906 L -12.34907 12.34906 z" stroke-linecap="round" />
</g>
<g transform="matrix(0.64 0 0 0.64 96 582.18)" id="ObyAdNuc5UQg2yYK89eBN"  >
<path style="stroke: rgb(0,0,0); stroke-opacity: 0.89; stroke-width: 2; stroke-dasharray: none; stroke-linecap: butt; stroke-dashoffset: 0; stroke-linejoin: miter; stroke-miterlimit: 4; fill: rgb(0,0,0); fill-opacity: 0.61; fill-rule: nonzero; opacity: 1;" vector-effect="non-scaling-stroke"  transform=" translate(0, 0)" d="M -12.34907 -12.34907 L 12.34906 -12.34907 L 12.34906 12.34906 L -12.34907 12.34906 z" stroke-linecap="round" />
</g>
<g transform="matrix(0.64 0 0 0.64 250 442.15)" id="ZfMmEZdAaI4FcAAqLjLLj"  >
<path style="stroke: rgb(0,0,0); stroke-opacity: 0.89; stroke-width: 2; stroke-dasharray: none; stroke-linecap: butt; stroke-dashoffset: 0; stroke-linejoin: miter; stroke-miterlimit: 4; fill: rgb(0,0,0); fill-opacity: 0.61; fill-rule: nonzero; opacity: 1;" vector-effect="non-scaling-stroke"  transform=" translate(0, 0)" d="M -12.34907 -12.34907 L 12.34906 -12.34907 L 12.34906 12.34906 L -12.34907 12.34906 z" stroke-linecap="round" />
</g>
<g transform="matrix(0.64 0 0 0.64 271.69 433.24)" id="XcMPIo889XNgXshnXUvW_"  >
<path style="stroke: rgb(0,0,0); stroke-opacity: 0.89; stroke-width: 2; stroke-dasharray: none; stroke-linecap: butt; stroke-dashoffset: 0; stroke-linejoin: miter; stroke-miterlimit: 4; fill: rgb(0,0,0); fill-opacity: 0.61; fill-rule: nonzero; opacity: 1;" vector-effect="non-scaling-stroke"  transform=" translate(0, 0)" d="M -12.34907 -12.34907 L 12.34906 -12.34907 L 12.34906 12.34906 L -12.34907 12.34906 z" stroke-linecap="round" />
</g>
<g transform="matrix(0.64 0 0 0.64 223.69 456.42)" id="W1PycrHO7oTnA7ulamW5_"  >
<path style="stroke: rgb(0,0,0); stroke-opacity: 0.89; stroke-width: 2; stroke-dasharray: none; stroke-linecap: butt; stroke-dashoffset: 0; stroke-linejoin: miter; stroke-miterlimit: 4; fill: rgb(0,0,0); fill-opacity: 0.61; fill-rule: nonzero; opacity: 1;" vector-effect="non-scaling-stroke"  transform=" translate(0, 0)" d="M -12.34907 -12.34907 L 12.34906 -12.34907 L 12.34906 12.34906 L -12.34907 12.34906 z" stroke-linecap="round" />
</g>
<g transform="matrix(0.64 0 0 0.64 345.08 508.33)" id="2jhXzIR7UKlHUmeXH0ykK"  >
<path style="stroke: rgb(0,0,0); stroke-opacity: 0.89; stroke-width: 2; stroke-dasharray: none; stroke-linecap: butt; stroke-dashoffset: 0; stroke-linejoin: miter; stroke-miterlimit: 4; fill: rgb(0,0,0); fill-opacity: 0.23; fill-rule: nonzero; opacity: 1;" vector-effect="non-scaling-stroke"  transform=" translate(0, 0)" d="M -12.34907 -12.34907 L 12.34906 -12.34907 L 12.34906 12.34906 L -12.34907 12.34906 z" stroke-linecap="round" />
</g>
<g transform="matrix(0.64 0 0 0.64 353.98 582.18)" id="4hjPxIjFyF_y7rWmwRAAW"  >
<path style="stroke: rgb(0,0,0); stroke-opacity: 0.89; stroke-width: 2; stroke-dasharray: none; stroke-linecap: butt; stroke-dashoffset: 0; stroke-linejoin: miter; stroke-miterlimit: 4; fill: rgb(0,0,0); fill-opacity: 0.23; fill-rule: nonzero; opacity: 1;" vector-effect="non-scaling-stroke"  transform=" translate(0, 0)" d="M -12.34907 -12.34907 L 12.34906 -12.34907 L 12.34906 12.34906 L -12.34907 12.34906 z" stroke-linecap="round" />
</g>
<g transform="matrix(0.64 0 0 0.64 331.23 556.02)" id="1Z1Wd8y3u6O2u9QGv3UmO"  >
<path style="stroke: rgb(0,0,0); stroke-opacity: 0.89; stroke-width: 2; stroke-dasharray: none; stroke-linecap: butt; stroke-dashoffset: 0; stroke-linejoin: miter; stroke-miterlimit: 4; fill: rgb(0,0,0); fill-opacity: 0.23; fill-rule: nonzero; opacity: 1;" vector-effect="non-scaling-stroke"  transform=" translate(0, 0)" d="M -12.34907 -12.34907 L 12.34906 -12.34907 L 12.34906 12.34906 L -12.34907 12.34906 z" stroke-linecap="round" />
</g>
<g transform="matrix(0.64 0 0 0.64 301.69 252.6)" id="ZPpCHckysvthzBOCXwxm5"  >
<path style="stroke: rgb(0,0,0); stroke-opacity: 0.89; stroke-width: 2; stroke-dasharray: none; stroke-linecap: butt; stroke-dashoffset: 0; stroke-linejoin: miter; stroke-miterlimit: 4; fill: rgb(252,141,29); fill-opacity: 0.82; fill-rule: nonzero; opacity: 1;" vector-effect="non-scaling-stroke"  transform=" translate(0, 0)" d="M -12.34907 -12.34907 L 12.34906 -12.34907 L 12.34906 12.34906 L -12.34907 12.34906 z" stroke-linecap="round" />
</g>
<g transform="matrix(0.64 0 0 0.64 271.69 175)" id="aK7rNAz5ByhU6Wg0-nrOo"  >
<path style="stroke: rgb(0,0,0); stroke-opacity: 0.89; stroke-width: 2; stroke-dasharray: none; stroke-linecap: butt; stroke-dashoffset: 0; stroke-linejoin: miter; stroke-miterlimit: 4; fill: rgb(252,141,29); fill-opacity: 0.82; fill-rule: nonzero; opacity: 1;" vector-effect="non-scaling-stroke"  transform=" translate(0, 0)" d="M -12.34907 -12.34907 L 12.34906 -12.34907 L 12.34906 12.34906 L -12.34907 12.34906 z" stroke-linecap="round" />
</g>
<g transform="matrix(0.64 0 0 0.64 349.04 459.95)" id="GfVf9fkmIDG-ozJobeh2Y"  >
<path style="stroke: rgb(0,0,0); stroke-opacity: 0.89; stroke-width: 2; stroke-dasharray: none; stroke-linecap: butt; stroke-dashoffset: 0; stroke-linejoin: miter; stroke-miterlimit: 4; fill: rgb(252,141,29); fill-opacity: 0.82; fill-rule: nonzero; opacity: 1;" vector-effect="non-scaling-stroke"  transform=" translate(0, 0)" d="M -12.34907 -12.34907 L 12.34906 -12.34907 L 12.34906 12.34906 L -12.34907 12.34906 z" stroke-linecap="round" />
</g>
<g transform="matrix(0.64 0 0 0.64 317.52 415.44)" id="C3X-dQjUwj9NGVBQX7HNH"  >
<path style="stroke: rgb(0,0,0); stroke-opacity: 0.89; stroke-width: 2; stroke-dasharray: none; stroke-linecap: butt; stroke-dashoffset: 0; stroke-linejoin: miter; stroke-miterlimit: 4; fill: rgb(252,141,29); fill-opacity: 0.82; fill-rule: nonzero; opacity: 1;" vector-effect="non-scaling-stroke"  transform=" translate(0, 0)" d="M -12.34907 -12.34907 L 12.34906 -12.34907 L 12.34906 12.34906 L -12.34907 12.34906 z" stroke-linecap="round" />
</g>
<g transform="matrix(0.64 0 0 0.64 383.9 582.18)" id="Ao6u76CkRrPr6CaAYpePT"  >
<path style="stroke: rgb(0,0,0); stroke-opacity: 0.89; stroke-width: 2; stroke-dasharray: none; stroke-linecap: butt; stroke-dashoffset: 0; stroke-linejoin: miter; stroke-miterlimit: 4; fill: rgb(252,141,29); fill-opacity: 0.82; fill-rule: nonzero; opacity: 1;" vector-effect="non-scaling-stroke"  transform=" translate(0, 0)" d="M -12.34907 -12.34907 L 12.34906 -12.34907 L 12.34906 12.34906 L -12.34907 12.34906 z" stroke-linecap="round" />
</g>
<g transform="matrix(0.64 0 0 0.64 308.62 526.14)" id="xE4tztFSdomnbEvkqmn0d"  >
<path style="stroke: rgb(0,0,0); stroke-opacity: 0.89; stroke-width: 2; stroke-dasharray: none; stroke-linecap: butt; stroke-dashoffset: 0; stroke-linejoin: miter; stroke-miterlimit: 4; fill: rgb(252,141,29); fill-opacity: 0.82; fill-rule: nonzero; opacity: 1;" vector-effect="non-scaling-stroke"  transform=" translate(0, 0)" d="M -12.34907 -12.34907 L 12.34906 -12.34907 L 12.34906 12.34906 L -12.34907 12.34906 z" stroke-linecap="round" />
</g>
<g transform="matrix(0.64 0 0 0.64 340.14 301.02)" id="5qV9eHgVMLRYKxJQ9xEvO"  >
<path style="stroke: rgb(0,0,0); stroke-opacity: 0.89; stroke-width: 2; stroke-dasharray: none; stroke-linecap: butt; stroke-dashoffset: 0; stroke-linejoin: miter; stroke-miterlimit: 4; fill: rgb(255,255,255); fill-rule: nonzero; opacity: 1;" vector-effect="non-scaling-stroke"  transform=" translate(0, 0)" d="M -12.34907 -12.34907 L 12.34906 -12.34907 L 12.34906 12.34906 L -12.34907 12.34906 z" stroke-linecap="round" />
</g>
<g transform="matrix(0.64 0 0 0.64 312.02 582.18)" id="bD2b4ppof1Rvdu026Z8sb"  >
<path style="stroke: rgb(0,0,0); stroke-opacity: 0.89; stroke-width: 2; stroke-dasharray: none; stroke-linecap: butt; stroke-dashoffset: 0; stroke-linejoin: miter; stroke-miterlimit: 4; fill: rgb(255,255,255); fill-rule: nonzero; opacity: 1;" vector-effect="non-scaling-stroke"  transform=" translate(0, 0)" d="M -12.34907 -12.34907 L 12.34906 -12.34907 L 12.34906 12.34906 L -12.34907 12.34906 z" stroke-linecap="round" />
</g>
<g transform="matrix(0.64 0 0 0.64 292.85 98.52)" id="q9GLXsAQ-nC1laj0l9wCZ"  >
<path style="stroke: rgb(0,0,0); stroke-opacity: 0.89; stroke-width: 2; stroke-dasharray: none; stroke-linecap: butt; stroke-dashoffset: 0; stroke-linejoin: miter; stroke-miterlimit: 4; fill: rgb(255,255,255); fill-rule: nonzero; opacity: 1;" vector-effect="non-scaling-stroke"  transform=" translate(0, 0)" d="M -12.34907 -12.34907 L 12.34906 -12.34907 L 12.34906 12.34906 L -12.34907 12.34906 z" stroke-linecap="round" />
</g>
<g transform="matrix(0.64 0 0 0.64 408.38 582.18)" id="KG1GGCLaR_8PnZhpV1xiv"  >
<path style="stroke: rgb(0,0,0); stroke-opacity: 0.89; stroke-width: 2; stroke-dasharray: none; stroke-linecap: butt; stroke-dashoffset: 0; stroke-linejoin: miter; stroke-miterlimit: 4; fill: rgb(255,255,255); fill-rule: nonzero; opacity: 1;" vector-effect="non-scaling-stroke"  transform=" translate(0, 0)" d="M -12.34907 -12.34907 L 12.34906 -12.34907 L 12.34906 12.34906 L -12.34907 12.34906 z" stroke-linecap="round" />
</g>
<g transform="matrix(0.64 0 0 0.64 362.75 547.11)" id="dVffA1jReiFUUCD3vcJfF"  >
<path style="stroke: rgb(0,0,0); stroke-opacity: 0.89; stroke-width: 2; stroke-dasharray: none; stroke-linecap: butt; stroke-dashoffset: 0; stroke-linejoin: miter; stroke-miterlimit: 4; fill: rgb(255,255,255); fill-rule: nonzero; opacity: 1;" vector-effect="non-scaling-stroke"  transform=" translate(0, 0)" d="M -12.34907 -12.34907 L 12.34906 -12.34907 L 12.34906 12.34906 L -12.34907 12.34906 z" stroke-linecap="round" />
</g>
<g transform="matrix(0.64 0 0 0.64 355.88 390.36)" id="nVOud5naEClE4Mm5AdjzC"  >
<path style="stroke: rgb(0,0,0); stroke-opacity: 0.89; stroke-width: 2; stroke-dasharray: none; stroke-linecap: butt; stroke-dashoffset: 0; stroke-linejoin: miter; stroke-miterlimit: 4; fill: rgb(255,255,255); fill-rule: nonzero; opacity: 1;" vector-effect="non-scaling-stroke"  transform=" translate(0, 0)" d="M -12.34907 -12.34907 L 12.34906 -12.34907 L 12.34906 12.34906 L -12.34907 12.34906 z" stroke-linecap="round" />
</g>
<g transform="matrix(0.64 0 0 0.64 316.1 477.76)" id="-GWbtreYZDMAV6nuLbygL"  >
<path style="stroke: rgb(0,0,0); stroke-opacity: 0.89; stroke-width: 2; stroke-dasharray: none; stroke-linecap: butt; stroke-dashoffset: 0; stroke-linejoin: miter; stroke-miterlimit: 4; fill: rgb(255,255,255); fill-rule: nonzero; opacity: 1;" vector-effect="non-scaling-stroke"  transform=" translate(0, 0)" d="M -12.34907 -12.34907 L 12.34906 -12.34907 L 12.34906 12.34906 L -12.34907 12.34906 z" stroke-linecap="round" />
</g>
<g transform="matrix(0.64 0 0 0.64 323.54 135.85)" id="t0m9_jsiQP8xK8O38hyGb"  >
<path style="stroke: rgb(0,0,0); stroke-opacity: 0.89; stroke-width: 2; stroke-dasharray: none; stroke-linecap: butt; stroke-dashoffset: 0; stroke-linejoin: miter; stroke-miterlimit: 4; fill: rgb(0,0,0); fill-opacity: 0.23; fill-rule: nonzero; opacity: 1;" vector-effect="non-scaling-stroke"  transform=" translate(0, 0)" d="M -12.34907 -12.34907 L 12.34906 -12.34907 L 12.34906 12.34906 L -12.34907 12.34906 z" stroke-linecap="round" />
</g>
<g transform="matrix(0.64 0 0 0.64 281.9 558.34)" id="1jTYd0pdkw98zUoUj4T0D"  >
<path style="stroke: rgb(0,0,0); stroke-opacity: 0.89; stroke-width: 2; stroke-dasharray: none; stroke-linecap: butt; stroke-dashoffset: 0; stroke-linejoin: miter; stroke-miterlimit: 4; fill: rgb(0,0,0); fill-opacity: 0.23; fill-rule: nonzero; opacity: 1;" vector-effect="non-scaling-stroke"  transform=" translate(0, 0)" d="M -12.34907 -12.34907 L 12.34906 -12.34907 L 12.34906 12.34906 L -12.34907 12.34906 z" stroke-linecap="round" />
</g>
<g transform="matrix(0.64 0 0 0.64 290.81 216.98)" id="UnAUl4AgScp2PNNY8-6W_"  >
<path style="stroke: rgb(0,0,0); stroke-opacity: 0.89; stroke-width: 2; stroke-dasharray: none; stroke-linecap: butt; stroke-dashoffset: 0; stroke-linejoin: miter; stroke-miterlimit: 4; fill: rgb(0,0,0); fill-opacity: 0.23; fill-rule: nonzero; opacity: 1;" vector-effect="non-scaling-stroke"  transform=" translate(0, 0)" d="M -12.34907 -12.34907 L 12.34906 -12.34907 L 12.34906 12.34906 L -12.34907 12.34906 z" stroke-linecap="round" />
</g>
<g transform="matrix(0.64 0 0 0.64 280.59 133.76)" id="P9vzgxLbpRAozESa0WIXw"  >
<path style="stroke: rgb(0,0,0); stroke-opacity: 0.89; stroke-width: 2; stroke-dasharray: none; stroke-linecap: butt; stroke-dashoffset: 0; stroke-linejoin: miter; stroke-miterlimit: 4; fill: rgb(0,0,0); fill-opacity: 0.23; fill-rule: nonzero; opacity: 1;" vector-effect="non-scaling-stroke"  transform=" translate(0, 0)" d="M -12.34907 -12.34907 L 12.34906 -12.34907 L 12.34906 12.34906 L -12.34907 12.34906 z" stroke-linecap="round" />
</g>
<g transform="matrix(0.64 0 0 0.64 342.81 234.79)" id="KAGR1yAVANuLbENUDYE3o"  >
<path style="stroke: rgb(0,0,0); stroke-opacity: 0.89; stroke-width: 2; stroke-dasharray: none; stroke-linecap: butt; stroke-dashoffset: 0; stroke-linejoin: miter; stroke-miterlimit: 4; fill: rgb(0,0,0); fill-opacity: 0.23; fill-rule: nonzero; opacity: 1;" vector-effect="non-scaling-stroke"  transform=" translate(0, 0)" d="M -12.34907 -12.34907 L 12.34906 -12.34907 L 12.34906 12.34906 L -12.34907 12.34906 z" stroke-linecap="round" />
</g>
<g transform="matrix(0.64 0 0 0.64 355.88 419.54)" id="SdWA4mzA4f19htGXjPpEU"  >
<path style="stroke: rgb(0,0,0); stroke-opacity: 0.89; stroke-width: 2; stroke-dasharray: none; stroke-linecap: butt; stroke-dashoffset: 0; stroke-linejoin: miter; stroke-miterlimit: 4; fill: rgb(0,0,0); fill-opacity: 0.23; fill-rule: nonzero; opacity: 1;" vector-effect="non-scaling-stroke"  transform=" translate(0, 0)" d="M -12.34907 -12.34907 L 12.34906 -12.34907 L 12.34906 12.34906 L -12.34907 12.34906 z" stroke-linecap="round" />
</g>
<g transform="matrix(0.64 0 0 0.64 344.23 372.55)" id="8-zDApQZsVaGsv_LhpkIu"  >
<path style="stroke: rgb(0,0,0); stroke-opacity: 0.89; stroke-width: 2; stroke-dasharray: none; stroke-linecap: butt; stroke-dashoffset: 0; stroke-linejoin: miter; stroke-miterlimit: 4; fill: rgb(0,0,0); fill-opacity: 0.61; fill-rule: nonzero; opacity: 1;" vector-effect="non-scaling-stroke"  transform=" translate(0, 0)" d="M -12.34907 -12.34907 L 12.34906 -12.34907 L 12.34906 12.34906 L -12.34907 12.34906 z" stroke-linecap="round" />
</g>
<g transform="matrix(0.64 0 0 0.64 338.08 103.52)" id="OTByrKDv1YIzFE496Cvvy"  >
<path style="stroke: rgb(0,0,0); stroke-opacity: 0.89; stroke-width: 2; stroke-dasharray: none; stroke-linecap: butt; stroke-dashoffset: 0; stroke-linejoin: miter; stroke-miterlimit: 4; fill: rgb(0,0,0); fill-opacity: 0.61; fill-rule: nonzero; opacity: 1;" vector-effect="non-scaling-stroke"  transform=" translate(0, 0)" d="M -12.34907 -12.34907 L 12.34906 -12.34907 L 12.34906 12.34906 L -12.34907 12.34906 z" stroke-linecap="round" />
</g>
<g transform="matrix(0.64 0 0 0.64 329.83 283.22)" id="Y7pAWrhmJ1QFn_7ZGgeiD"  >
<path style="stroke: rgb(0,0,0); stroke-opacity: 0.89; stroke-width: 2; stroke-dasharray: none; stroke-linecap: butt; stroke-dashoffset: 0; stroke-linejoin: miter; stroke-miterlimit: 4; fill: rgb(0,0,0); fill-opacity: 0.61; fill-rule: nonzero; opacity: 1;" vector-effect="non-scaling-stroke"  transform=" translate(0, 0)" d="M -12.34907 -12.34907 L 12.34906 -12.34907 L 12.34906 12.34906 L -12.34907 12.34906 z" stroke-linecap="round" />
</g>
<g transform="matrix(0.64 0 0 0.64 301.69 166.1)" id="0osbINglsyXc-gKXrMIpk"  >
<path style="stroke: rgb(0,0,0); stroke-opacity: 0.89; stroke-width: 2; stroke-dasharray: none; stroke-linecap: butt; stroke-dashoffset: 0; stroke-linejoin: miter; stroke-miterlimit: 4; fill: rgb(0,0,0); fill-opacity: 0.61; fill-rule: nonzero; opacity: 1;" vector-effect="non-scaling-stroke"  transform=" translate(0, 0)" d="M -12.34907 -12.34907 L 12.34906 -12.34907 L 12.34906 12.34906 L -12.34907 12.34906 z" stroke-linecap="round" />
</g>
<g transform="matrix(0.64 0 0 0.64 292.79 468.86)" id="xw-Fp9dqmGMWgVG_tJiP8"  >
<path style="stroke: rgb(0,0,0); stroke-opacity: 0.89; stroke-width: 2; stroke-dasharray: none; stroke-linecap: butt; stroke-dashoffset: 0; stroke-linejoin: miter; stroke-miterlimit: 4; fill: rgb(0,0,0); fill-opacity: 0.23; fill-rule: nonzero; opacity: 1;" vector-effect="non-scaling-stroke"  transform=" translate(0, 0)" d="M -12.34907 -12.34907 L 12.34906 -12.34907 L 12.34906 12.34906 L -12.34907 12.34906 z" stroke-linecap="round" />
</g>
<g transform="matrix(0.64 0 0 0.64 351.4 174.92)" id="A6154S7CM4AkCez5Pkxrn"  >
<path style="stroke: rgb(0,0,0); stroke-opacity: 0.89; stroke-width: 2; stroke-dasharray: none; stroke-linecap: butt; stroke-dashoffset: 0; stroke-linejoin: miter; stroke-miterlimit: 4; fill: rgb(252,141,29); fill-opacity: 0.82; fill-rule: nonzero; opacity: 1;" vector-effect="non-scaling-stroke"  transform=" translate(0, 0)" d="M -12.34907 -12.34907 L 12.34906 -12.34907 L 12.34906 12.34906 L -12.34907 12.34906 z" stroke-linecap="round" />
</g>
<g transform="matrix(1 0 0 1 213 270.75)" id="jRZYjBwkEc4-z5IBZG5kx"  >
<path style="stroke: rgb(0,0,0); stroke-width: 2; stroke-dasharray: none; stroke-linecap: butt; stroke-dashoffset: 0; stroke-linejoin: miter; stroke-miterlimit: 4; fill: rgb(255,255,255); fill-rule: nonzero; opacity: 1;" vector-effect="non-scaling-stroke"  transform=" translate(0, 0)" d="M -65.22014 -62.67301 L 65.22015 62.67302" stroke-linecap="round" />
</g>
<g transform="matrix(1 0 0 1 149.2 158.42)" style="" id="wCPAYTALRjZh85iGjNck0"  >
		<text xml:space="preserve" font-family="Open Sans" font-size="27" font-style="normal" font-weight="normal" line-height="1.16" style="stroke: none; stroke-width: 1; stroke-dasharray: none; stroke-linecap: butt; stroke-dashoffset: 0; stroke-linejoin: miter; stroke-miterlimit: 4; fill: rgb(0,0,0); fill-rule: nonzero; opacity: 1; white-space: pre;" ><tspan x="-75" y="8.48" >固定された</tspan></text>
</g>
<g transform="matrix(1 0 0 1 183.4 188.3)" style="" id="pr7z22lASe9iWRR42M4Cz"  >
		<text xml:space="preserve" font-family="Open Sans" font-size="27" font-style="normal" font-weight="normal" line-height="1.16" style="stroke: none; stroke-width: 1; stroke-dasharray: none; stroke-linecap: butt; stroke-dashoffset: 0; stroke-linejoin: miter; stroke-miterlimit: 4; fill: rgb(0,0,0); fill-rule: nonzero; opacity: 1; white-space: pre;" ><tspan x="-75" y="8.48" >磁石</tspan></text>
</g>
<g transform="matrix(1 0 0 1 81.02 286.51)" style="" id="BpSiAK_h2f6hRRbtOZ237"  >
		<text xml:space="preserve" font-family="Open Sans" font-size="27" font-style="normal" font-weight="normal" line-height="1.16" style="stroke: none; stroke-width: 1; stroke-dasharray: none; stroke-linecap: butt; stroke-dashoffset: 0; stroke-linejoin: miter; stroke-miterlimit: 4; fill: rgb(0,0,0); fill-rule: nonzero; opacity: 1; white-space: pre;" ><tspan x="-70" y="8.48" >回転ドラム</tspan></text>
</g>
<g transform="matrix(1 0 0 1 124.47 324.45)" id="iX7P20pHrd1p7EhJysnxX"  >
<path style="stroke: rgb(0,0,0); stroke-width: 2; stroke-dasharray: none; stroke-linecap: butt; stroke-dashoffset: 0; stroke-linejoin: miter; stroke-miterlimit: 4; fill: rgb(255,255,255); fill-rule: nonzero; opacity: 1;" vector-effect="non-scaling-stroke"  transform=" translate(0, 0)" d="M 37.37497 22.1875 L -37.37496000000001 -22.187510000000003" stroke-linecap="round" />
</g>
<g transform="matrix(1 0 0 1 293.54 340)" id="kcawft3BGs5EK2Oys4cA4"  >
<path style="stroke: rgb(154,218,93); stroke-width: 0; stroke-dasharray: none; stroke-linecap: butt; stroke-dashoffset: 0; stroke-linejoin: miter; stroke-miterlimit: 4; fill: rgb(0,0,0); fill-opacity: 0.49; fill-rule: nonzero; opacity: 1;" vector-effect="non-scaling-stroke"  transform=" translate(-42.5, -85)" d="M 0 0 L 0 0 L 0 0 C 46.9442 0 85 38.0558 85 85 L 85 85 L 85 85 C 85 131.9442 46.9442 170 0 170 L 0 170 z" stroke-linecap="round" />
</g>
<g transform="matrix(1.27 0 0 1.27 350.46 37.87)" style="" id="DE_sTVYo3e5i34VvcZYW_"  >
		<text xml:space="preserve" font-family="Open Sans" font-size="20" font-style="normal" font-weight="normal" line-height="1.16" style="stroke: none; stroke-width: 1; stroke-dasharray: none; stroke-linecap: butt; stroke-dashoffset: 0; stroke-linejoin: miter; stroke-miterlimit: 4; fill: rgb(0,0,0); fill-rule: nonzero; opacity: 1; white-space: pre;" ><tspan x="-60" y="6.28" >混合物</tspan></text>
</g>
<g transform="matrix(0.89 0 0 0.43 311.38 37.54)" id="C46ZxV8qZqS3tPDyyXqAb"  >
<path style="stroke: rgb(0,0,0); stroke-width: 1; stroke-dasharray: none; stroke-linecap: butt; stroke-dashoffset: 0; stroke-linejoin: miter; stroke-miterlimit: 4; fill: rgb(0,0,0); fill-opacity: 0; fill-rule: nonzero; opacity: 1;" vector-effect="non-scaling-stroke"  transform=" translate(0, 0)" d="M 0 -52.27771 C 28.8573 -52.27771 52.27771 -28.85729 52.27771 0 C 52.27771 28.8573 28.85729 52.27771 0 52.27771 C -28.8573 52.27771 -52.27771 28.85729 -52.27771 0 C -52.27771 -28.8573 -28.85729 -52.27771 0 -52.27771 z" stroke-linecap="round" />
</g>
</svg>