<?xml version="1.0" encoding="UTF-8" standalone="no" ?>
<!DOCTYPE svg PUBLIC "-//W3C//DTD SVG 1.1//EN" "http://www.w3.org/Graphics/SVG/1.1/DTD/svg11.dtd">
<svg xmlns="http://www.w3.org/2000/svg" xmlns:xlink="http://www.w3.org/1999/xlink" version="1.1" width="500" height="500" viewBox="50 0 350 350" preserveAspectRatio="none" xml:space="preserve">
<desc>Created with Fabric.js 4.6.0</desc>
<defs>
</defs>
<g transform="matrix(0.25 0 0 0.25 214.5 219.5)" id="0fp_fV8yjUrNMxRjyQ-U4"  >
<path style="stroke: rgb(181,183,105); stroke-width: 0; stroke-dasharray: none; stroke-linecap: butt; stroke-dashoffset: 0; stroke-linejoin: miter; stroke-miterlimit: 4; fill: rgb(99,85,140); fill-rule: nonzero; opacity: 1;" vector-effect="non-scaling-stroke"  transform=" translate(0, 0)" d="M 0 -50 C 27.6 -50 50 -27.6 50 0 C 50 27.6 27.6 50 0 50 C -27.6 50 -50 27.6 -50 0 C -50 -27.6 -27.6 -50 0 -50 z" stroke-linecap="round" />
</g>
<g transform="matrix(1 0 0 1 216.5 232)" id="3UsmzCMskNVBGa0Oyr1Iv"  >
<path style="stroke: rgb(0,0,0); stroke-width: 1; stroke-dasharray: none; stroke-linecap: butt; stroke-dashoffset: 0; stroke-linejoin: miter; stroke-miterlimit: 4; fill: rgb(255,255,255); fill-opacity: 0; fill-rule: nonzero; opacity: 1;" vector-effect="non-scaling-stroke"  transform=" translate(0, 0)" d="M 0 0" stroke-linecap="round" />
</g>
<g transform="matrix(1 0 0 1 217 227.22)" id="d5Mk2xXK4L_sR_BnrS8iK"  >
<path style="stroke: rgb(0,0,0); stroke-width: 1; stroke-dasharray: none; stroke-linecap: butt; stroke-dashoffset: 0; stroke-linejoin: miter; stroke-miterlimit: 4; fill: rgb(255,255,255); fill-opacity: 0; fill-rule: nonzero; opacity: 1;" vector-effect="non-scaling-stroke"  transform=" translate(0, 0)" d="M 0 0" stroke-linecap="round" />
</g>
<g transform="matrix(0.56 0 0 1.19 214.5 267.5)" id="-sWfHaWv3y37Y3Ng4lV7Z"  >
<path style="stroke: none; stroke-width: 1; stroke-dasharray: none; stroke-linecap: butt; stroke-dashoffset: 0; stroke-linejoin: miter; stroke-miterlimit: 4; fill: rgb(99,85,140); fill-rule: nonzero; opacity: 1;" vector-effect="non-scaling-stroke"  transform=" translate(0, 0)" d="M 6.567 -35.671 L 10.19608 17.911659999999998 L 40 40 L 0 40 L -40 40 L -12.502880000000001 17.91166 L -6.446480000000001 -35.67099999999999 L 0.000009999999998733244 -39.99999999999999 z" stroke-linecap="round" />
</g>
<g transform="matrix(1.81 0 0 0.25 215.37 310)" id="YvSvmSPgK5FcvfgVlyf0r"  >
<path style="stroke: none; stroke-width: 1; stroke-dasharray: none; stroke-linecap: butt; stroke-dashoffset: 0; stroke-linejoin: miter; stroke-miterlimit: 4; fill: rgb(99,85,140); fill-rule: nonzero; opacity: 1;" vector-effect="non-scaling-stroke"  transform=" translate(0, 0)" d="M -39.84091 40 L -39.84091 9.01444 L -0.4772700000000043 -40 L 39.840909999999994 9.01444 L 39.840909999999994 40 L 24.242729999999995 40 L -25.197270000000003 40 z" stroke-linecap="round" />
</g>
<g transform="matrix(1 0 0 0.99 198 214)" id="anF4UUyf9B6IK33OSlOhU"  >
<path style="stroke: rgb(0,0,0); stroke-width: 0; stroke-dasharray: none; stroke-linecap: butt; stroke-dashoffset: 0; stroke-linejoin: miter; stroke-miterlimit: 4; fill: rgb(99,85,140); fill-rule: nonzero; opacity: 1;" vector-effect="non-scaling-stroke"  transform=" translate(0, 0)" d="M 10.99258 8.11771 C -77.24271 40.412980000000005 -77.81942 -15.303859999999998 -77.81942 -15.303859999999998 L -72.62911 -18.187369999999998 C -72.62911 -18.187369999999998 -78.97282 34.869150000000005 10.99257 4.303980000000003 C 100.95797 -26.261189999999996 99.22786 -24.177569999999996 10.99257 8.117710000000002 z" stroke-linecap="round" />
</g>
<g transform="matrix(-1 0 0 0.99 233 214)" id="OhKXsxulr1idK24MXHNEf"  >
<path style="stroke: rgb(0,0,0); stroke-width: 0; stroke-dasharray: none; stroke-linecap: butt; stroke-dashoffset: 0; stroke-linejoin: miter; stroke-miterlimit: 4; fill: rgb(99,85,140); fill-rule: nonzero; opacity: 1;" vector-effect="non-scaling-stroke"  transform=" translate(0, 0)" d="M 10.99258 8.11771 C -77.24271 40.412980000000005 -77.81942 -15.303859999999998 -77.81942 -15.303859999999998 L -72.62911 -18.187369999999998 C -72.62911 -18.187369999999998 -78.97282 34.869150000000005 10.99257 4.303980000000003 C 100.95797 -26.261189999999996 99.22786 -24.177569999999996 10.99257 8.117710000000002 z" stroke-linecap="round" />
</g>
<g transform="matrix(0.17 0 0 0.17 123 196)" id="SQh5evWe8a64sbngPpM_e"  >
<path style="stroke: none; stroke-width: 1; stroke-dasharray: none; stroke-linecap: butt; stroke-dashoffset: 0; stroke-linejoin: miter; stroke-miterlimit: 4; fill: rgb(179,181,179); fill-rule: nonzero; opacity: 1;" vector-effect="non-scaling-stroke"  transform=" translate(-40, -40)" d="M 0 30.56 L 40 0 L 80 30.56 L 64.72 80 L 15.28 80 L 0 30.56 z" stroke-linecap="round" />
</g>
<g transform="matrix(0.17 0 0 0.17 308 196)" id="EKDrbPcXxCs81BD_RiEnF"  >
<path style="stroke: none; stroke-width: 1; stroke-dasharray: none; stroke-linecap: butt; stroke-dashoffset: 0; stroke-linejoin: miter; stroke-miterlimit: 4; fill: rgb(179,181,179); fill-rule: nonzero; opacity: 1;" vector-effect="non-scaling-stroke"  transform=" translate(-40, -40)" d="M 0 30.56 L 40 0 L 80 30.56 L 64.72 80 L 15.28 80 L 0 30.56 z" stroke-linecap="round" />
</g>
<g transform="matrix(1 0 0 0.41 123 173.5)" id="z_2Pv9Lmup1gDLjBxsiiq"  >
<path style="stroke: rgb(127,182,72); stroke-width: 0; stroke-dasharray: none; stroke-linecap: butt; stroke-dashoffset: 0; stroke-linejoin: miter; stroke-miterlimit: 4; fill: rgb(27,171,150); fill-rule: nonzero; opacity: 1;" vector-effect="non-scaling-stroke"  transform=" translate(0, 0)" d="M 0 -50 C 27.6 -50 50 -27.6 50 0 C 50 27.6 27.6 50 0 50 C -27.6 50 -50 27.6 -50 0 C -50 -27.6 -27.6 -50 0 -50 z" stroke-linecap="round" />
</g>
<g transform="matrix(1 0 0 0.41 123 167.5)" id="b5AFvtjh8DPLcw6vdus5p"  >
<path style="stroke: rgb(127,182,72); stroke-width: 0; stroke-dasharray: none; stroke-linecap: butt; stroke-dashoffset: 0; stroke-linejoin: miter; stroke-miterlimit: 4; fill: rgb(255,255,255); fill-rule: nonzero; opacity: 1;" vector-effect="non-scaling-stroke"  transform=" translate(0, 0)" d="M 0 -50 C 27.6 -50 50 -27.6 50 0 C 50 27.6 27.6 50 0 50 C -27.6 50 -50 27.6 -50 0 C -50 -27.6 -27.6 -50 0 -50 z" stroke-linecap="round" />
</g>
<g transform="matrix(1 0 0 0.41 305 173.5)" id="vncjqByvqML6fcXMXhyZE"  >
<path style="stroke: rgb(127,182,72); stroke-width: 0; stroke-dasharray: none; stroke-linecap: butt; stroke-dashoffset: 0; stroke-linejoin: miter; stroke-miterlimit: 4; fill: rgb(27,171,150); fill-rule: nonzero; opacity: 1;" vector-effect="non-scaling-stroke"  transform=" translate(0, 0)" d="M 0 -50 C 27.6 -50 50 -27.6 50 0 C 50 27.6 27.6 50 0 50 C -27.6 50 -50 27.6 -50 0 C -50 -27.6 -27.6 -50 0 -50 z" stroke-linecap="round" />
</g>
<g transform="matrix(1 0 0 0.41 305 167.5)" id="5cmty4rtAtEukcSYFj7_S"  >
<path style="stroke: rgb(127,182,72); stroke-width: 0; stroke-dasharray: none; stroke-linecap: butt; stroke-dashoffset: 0; stroke-linejoin: miter; stroke-miterlimit: 4; fill: rgb(255,255,255); fill-rule: nonzero; opacity: 1;" vector-effect="non-scaling-stroke"  transform=" translate(0, 0)" d="M 0 -50 C 27.6 -50 50 -27.6 50 0 C 50 27.6 27.6 50 0 50 C -27.6 50 -50 27.6 -50 0 C -50 -27.6 -27.6 -50 0 -50 z" stroke-linecap="round" />
</g>
<g transform="matrix(0.89 -0.02 0.02 0.89 123 143.5)" id="QaHtvLl-bOS1dTElhnOO8"  >
<path style="stroke: rgb(54,184,153); stroke-width: 0; stroke-dasharray: none; stroke-linecap: butt; stroke-dashoffset: 0; stroke-linejoin: miter; stroke-miterlimit: 4; fill: rgb(183,144,109); fill-rule: nonzero; opacity: 1;" vector-effect="non-scaling-stroke"  transform=" translate(0, 0)" d="M -24.53479 -42.01609 C -16.301160000000003 -47.980689999999996 -10.30056 -50 0.6364400000000003 -50 C 10.76958 -50 19.45119 -47.20365 27.33128 -42.01609 C 40.91446 -33.07411 50.26115 -11.099819999999998 50.26115 6.367040000000003 C 50.26115 17.691720000000004 54.35587 25.322280000000003 48.0016 33.707860000000004 C 38.869530000000005 45.759240000000005 16.911770000000004 49.999990000000004 0.6364500000000035 49.999990000000004 C -13.435319999999997 49.999990000000004 -37.76587 46.424440000000004 -46.854679999999995 37.058510000000005 C -55.59242999999999 28.054340000000003 -49.48177 19.895270000000007 -49.48177 6.3670400000000065 C -49.48177 -10.295959999999994 -37.07907 -32.92877 -24.534779999999998 -42.01608999999999 z" stroke-linecap="round" />
</g>
<g transform="matrix(0.41 0.16 -0.16 0.41 122.5 96.5)" id="Zbowc9_MaA5aNgvhkP2Ok"  >
<path style="stroke: none; stroke-width: 1; stroke-dasharray: none; stroke-linecap: butt; stroke-dashoffset: 0; stroke-linejoin: miter; stroke-miterlimit: 4; fill: rgb(183,144,109); fill-rule: nonzero; opacity: 1;" vector-effect="non-scaling-stroke"  transform=" translate(0, 0)" d="M 0 -21.648 L 16.569 -40 L 15.306999999999999 -15.306999999999999 L 18.61723 -7.113899999999999 L 21.648 8.881784197001252e-16 L 40 16.569 L 15.306999999999999 15.306999999999999 L 16.569 40 L 0 21.648 L -16.569 40 L -15.306999999999999 15.306999999999999 L -18.468439999999998 7.8696899999999985 L -21.647999999999996 -1.7763568394002505e-15 L -40 -16.569000000000003 L -15.306999999999999 -15.307000000000002 L -16.569 -40 z" stroke-linecap="round" />
</g>
<g transform="matrix(0.25 0 0 0.11 122.5 94.5)" id="ctQb0-9d5-KGdgs3e1IK8"  >
<path style="stroke: rgb(115,214,66); stroke-width: 0; stroke-dasharray: none; stroke-linecap: butt; stroke-dashoffset: 0; stroke-linejoin: miter; stroke-miterlimit: 4; fill: rgb(204,182,182); fill-rule: nonzero; opacity: 1;" vector-effect="non-scaling-stroke"  transform=" translate(0, 0)" d="M -50 -1.78817 C -50 -28.414830000000002 -40.50253 -50 -28.7868 -50 L 28.786790000000003 -50 L 28.786790000000003 -50 C 40.502520000000004 -50 49.999990000000004 -28.41483 49.999990000000004 -1.788170000000001 L 49.999990000000004 1.793099999999999 L 49.999990000000004 1.793099999999999 C 49.999990000000004 28.41704 40.50348 50.00001 28.788950000000003 50.00001 L -28.788969999999996 50.00001 L -28.788969999999996 50.00001 C -40.503499999999995 50.00001 -50.000009999999996 28.417040000000004 -50.000009999999996 1.7931000000000026 z" stroke-linecap="round" />
</g>
<g transform="matrix(0.89 -0.02 0.02 0.89 305 143.5)" id="myVWb12ZB9AwpulwKN0Na"  >
<path style="stroke: rgb(54,184,153); stroke-width: 0; stroke-dasharray: none; stroke-linecap: butt; stroke-dashoffset: 0; stroke-linejoin: miter; stroke-miterlimit: 4; fill: rgb(183,144,109); fill-rule: nonzero; opacity: 1;" vector-effect="non-scaling-stroke"  transform=" translate(0, 0)" d="M -24.53479 -42.01609 C -16.301160000000003 -47.980689999999996 -10.30056 -50 0.6364400000000003 -50 C 10.76958 -50 19.45119 -47.20365 27.33128 -42.01609 C 40.91446 -33.07411 50.26115 -11.099819999999998 50.26115 6.367040000000003 C 50.26115 17.691720000000004 54.35587 25.322280000000003 48.0016 33.707860000000004 C 38.869530000000005 45.759240000000005 16.911770000000004 49.999990000000004 0.6364500000000035 49.999990000000004 C -13.435319999999997 49.999990000000004 -37.76587 46.424440000000004 -46.854679999999995 37.058510000000005 C -55.59242999999999 28.054340000000003 -49.48177 19.895270000000007 -49.48177 6.3670400000000065 C -49.48177 -10.295959999999994 -37.07907 -32.92877 -24.534779999999998 -42.01608999999999 z" stroke-linecap="round" />
</g>
<g transform="matrix(0.41 0.16 -0.16 0.41 304.5 96.5)" id="5_jeXnaGyGzlTVGwXkTV0"  >
<path style="stroke: none; stroke-width: 1; stroke-dasharray: none; stroke-linecap: butt; stroke-dashoffset: 0; stroke-linejoin: miter; stroke-miterlimit: 4; fill: rgb(183,144,109); fill-rule: nonzero; opacity: 1;" vector-effect="non-scaling-stroke"  transform=" translate(0, 0)" d="M 0 -21.648 L 16.569 -40 L 15.306999999999999 -15.306999999999999 L 18.61723 -7.113899999999999 L 21.648 8.881784197001252e-16 L 40 16.569 L 15.306999999999999 15.306999999999999 L 16.569 40 L 0 21.648 L -16.569 40 L -15.306999999999999 15.306999999999999 L -18.468439999999998 7.8696899999999985 L -21.647999999999996 -1.7763568394002505e-15 L -40 -16.569000000000003 L -15.306999999999999 -15.307000000000002 L -16.569 -40 z" stroke-linecap="round" />
</g>
<g transform="matrix(0.25 0 0 0.11 304.5 94.5)" id="dHNbAspiSYcdTLZGLdKtu"  >
<path style="stroke: rgb(115,214,66); stroke-width: 0; stroke-dasharray: none; stroke-linecap: butt; stroke-dashoffset: 0; stroke-linejoin: miter; stroke-miterlimit: 4; fill: rgb(204,182,182); fill-rule: nonzero; opacity: 1;" vector-effect="non-scaling-stroke"  transform=" translate(0, 0)" d="M -50 -1.78817 C -50 -28.414830000000002 -40.50253 -50 -28.7868 -50 L 28.786790000000003 -50 L 28.786790000000003 -50 C 40.502520000000004 -50 49.999990000000004 -28.41483 49.999990000000004 -1.788170000000001 L 49.999990000000004 1.793099999999999 L 49.999990000000004 1.793099999999999 C 49.999990000000004 28.41704 40.50348 50.00001 28.788950000000003 50.00001 L -28.788969999999996 50.00001 L -28.788969999999996 50.00001 C -40.503499999999995 50.00001 -50.000009999999996 28.417040000000004 -50.000009999999996 1.7931000000000026 z" stroke-linecap="round" />
</g>
<g transform="matrix(0.53 0.17 -0.02 0.08 177 205)" id="mGVj2J4sqyepUpV_8ltVZ"  >
<path style="stroke: rgb(237,53,228); stroke-width: 0; stroke-dasharray: none; stroke-linecap: butt; stroke-dashoffset: 0; stroke-linejoin: miter; stroke-miterlimit: 4; fill: rgb(255,255,255); fill-rule: nonzero; opacity: 1;" vector-effect="non-scaling-stroke"  transform=" translate(0, 0)" d="M -50 -50 L 50 -50 L 50 50 L -50 50 z" stroke-linecap="round" />
</g>
<g transform="matrix(0.53 -0.17 -0.02 -0.08 252 205)" id="uL4350xZMU1CFd7pGreRY"  >
<path style="stroke: rgb(237,53,228); stroke-width: 0; stroke-dasharray: none; stroke-linecap: butt; stroke-dashoffset: 0; stroke-linejoin: miter; stroke-miterlimit: 4; fill: rgb(255,255,255); fill-rule: nonzero; opacity: 1;" vector-effect="non-scaling-stroke"  transform=" translate(0, 0)" d="M -50 -50 L 50 -50 L 50 50 L -50 50 z" stroke-linecap="round" />
</g>
</svg>