<?xml version="1.0" encoding="UTF-8" standalone="no" ?>
<!DOCTYPE svg PUBLIC "-//W3C//DTD SVG 1.1//EN" "http://www.w3.org/Graphics/SVG/1.1/DTD/svg11.dtd">
<svg xmlns="http://www.w3.org/2000/svg" xmlns:xlink="http://www.w3.org/1999/xlink" version="1.1" width="500" height="500" viewBox="130 30 100 100" preserveAspectRatio="none" xml:space="preserve">
<desc>Created with Fabric.js 4.6.0</desc>
<defs>
</defs>
<g transform="matrix(0.77 0.6 -0.61 0.78 178.5 73)" id="qEWfTXjPYjXp31esDCA-y"  >
<path style="stroke: none; stroke-width: 1; stroke-dasharray: none; stroke-linecap: butt; stroke-dashoffset: 0; stroke-linejoin: miter; stroke-miterlimit: 4; fill: rgb(36,108,156); fill-rule: nonzero; opacity: 1;" vector-effect="non-scaling-stroke"  transform=" translate(0, 0)" d="M -50.41883 1.44855 L 13.88333 -48.52752 L 49.36693 -3.3477099999999993 L 49.36693 -3.3477099999999993 C 50.616080000000004 -1.7572199999999993 50.76597 0.4295700000000009 49.74541000000001 2.1740200000000005 L 29.776480000000006 36.30702 L 29.776480000000006 36.30702 C 28.792560000000005 37.98883 27.167730000000006 39.20423 25.270390000000006 39.67763 L -9.562119999999993 48.36858 L -9.562119999999993 48.36858 C -11.598939999999994 48.876780000000004 -13.745509999999992 48.143190000000004 -15.038339999999993 46.497080000000004 z" stroke-linecap="round" />
</g>
<g transform="matrix(0 0 0 0 148 51)" id="6gYTa4xC19ixis5cNck_V"  >
<path style="stroke: rgb(0,0,0); stroke-width: 1; stroke-dasharray: none; stroke-linecap: butt; stroke-dashoffset: 0; stroke-linejoin: miter; stroke-miterlimit: 4; fill: rgb(255,255,255); fill-opacity: 0; fill-rule: nonzero; opacity: 1;" vector-effect="non-scaling-stroke"  transform=" translate(0, 0)" d="M 0 0" stroke-linecap="round" />
</g>
<g transform="matrix(0.97 0 0 0 224 95)" id="nzcuavX-FZNMSTZdNVsa3"  >
<path style="stroke: rgb(255,255,255); stroke-width: 1; stroke-dasharray: none; stroke-linecap: butt; stroke-dashoffset: 0; stroke-linejoin: miter; stroke-miterlimit: 4; fill: rgb(255,255,255); fill-opacity: 0; fill-rule: nonzero; opacity: 1;" vector-effect="non-scaling-stroke"  transform=" translate(0, 0)" d="M -3.09811 0 L 3.0980999999999996 0" stroke-linecap="round" />
</g>
<g transform="matrix(0.97 0 0 0 231 103)" id="pNO6Sc4Q8JiZIa-ABU6Sp"  >
<path style="stroke: rgb(255,255,255); stroke-width: 1; stroke-dasharray: none; stroke-linecap: butt; stroke-dashoffset: 0; stroke-linejoin: miter; stroke-miterlimit: 4; fill: rgb(255,255,255); fill-opacity: 0; fill-rule: nonzero; opacity: 1;" vector-effect="non-scaling-stroke"  transform=" translate(0, 0)" d="M -3.09811 0 L 3.0980999999999996 0" stroke-linecap="round" />
</g>
<g transform="matrix(0.97 0 0 0 242 122)" id="Smq82-OQJzPta_3-hbLxA"  >
<path style="stroke: rgb(255,255,255); stroke-width: 1; stroke-dasharray: none; stroke-linecap: butt; stroke-dashoffset: 0; stroke-linejoin: miter; stroke-miterlimit: 4; fill: rgb(255,255,255); fill-opacity: 0; fill-rule: nonzero; opacity: 1;" vector-effect="non-scaling-stroke"  transform=" translate(0, 0)" d="M -3.09811 0 L 3.0980999999999996 0" stroke-linecap="round" />
</g>
<g transform="matrix(0.97 0 0 0 252 136)" id="8TP6EgkqClmnceasHKwIo"  >
<path style="stroke: rgb(255,255,255); stroke-width: 1; stroke-dasharray: none; stroke-linecap: butt; stroke-dashoffset: 0; stroke-linejoin: miter; stroke-miterlimit: 4; fill: rgb(255,255,255); fill-opacity: 0; fill-rule: nonzero; opacity: 1;" vector-effect="non-scaling-stroke"  transform=" translate(0, 0)" d="M -3.09811 0 L 3.0980999999999996 0" stroke-linecap="round" />
</g>
<g transform="matrix(0.97 0 0 0 262 146)" id="WGUyy5h6g6RcIzpBeMHPA"  >
<path style="stroke: rgb(255,255,255); stroke-width: 1; stroke-dasharray: none; stroke-linecap: butt; stroke-dashoffset: 0; stroke-linejoin: miter; stroke-miterlimit: 4; fill: rgb(255,255,255); fill-opacity: 0; fill-rule: nonzero; opacity: 1;" vector-effect="non-scaling-stroke"  transform=" translate(0, 0)" d="M -3.09811 0 L 3.0980999999999996 0" stroke-linecap="round" />
</g>
<g transform="matrix(0.97 0 0 0 272 156)" id="TNJjab4UMCqjmclNd6QQl"  >
<path style="stroke: rgb(255,255,255); stroke-width: 1; stroke-dasharray: none; stroke-linecap: butt; stroke-dashoffset: 0; stroke-linejoin: miter; stroke-miterlimit: 4; fill: rgb(255,255,255); fill-opacity: 0; fill-rule: nonzero; opacity: 1;" vector-effect="non-scaling-stroke"  transform=" translate(0, 0)" d="M -3.09811 0 L 3.0980999999999996 0" stroke-linecap="round" />
</g>
<g transform="matrix(0.99 0 0 0 147.5 50)" id="ASNtaSyHLKKZJU143z5hX"  >
<path style="stroke: rgb(255,255,255); stroke-width: 1; stroke-dasharray: none; stroke-linecap: butt; stroke-dashoffset: 0; stroke-linejoin: miter; stroke-miterlimit: 4; fill: rgb(255,255,255); fill-opacity: 0; fill-rule: nonzero; opacity: 1;" vector-effect="non-scaling-stroke"  transform=" translate(0, 0)" d="M -3.5284 0 L 3.5284 0" stroke-linecap="round" />
</g>
<g transform="matrix(1.03 0 0 0 0 0)" id="37NU8wAi7IUUg_GA8Dq_2"  >
<path style="stroke: rgb(0,0,0); stroke-width: 1; stroke-dasharray: none; stroke-linecap: butt; stroke-dashoffset: 0; stroke-linejoin: miter; stroke-miterlimit: 4; fill: rgb(255,255,255); fill-opacity: 0; fill-rule: nonzero; opacity: 1;" vector-effect="non-scaling-stroke"  transform=" translate(0, 0)" d="" stroke-linecap="round" />
</g>
<g transform="matrix(1.07 0 0 0 212.5 50)" id="Bv_RV4-9dEYY3DG_-azK5"  >
<path style="stroke: rgb(255,255,255); stroke-width: 1; stroke-dasharray: none; stroke-linecap: butt; stroke-dashoffset: 0; stroke-linejoin: miter; stroke-miterlimit: 4; fill: rgb(255,255,255); fill-opacity: 0; fill-rule: nonzero; opacity: 1;" vector-effect="non-scaling-stroke"  transform=" translate(0, 0)" d="M -3.27022 0 L 3.2702299999999997 0" stroke-linecap="round" />
</g>
<g transform="matrix(0 0 0 0 143 57)" id="oVPmdN8eHKUCz6ujUIoGj"  >
<path style="stroke: rgb(255,255,255); stroke-width: 1; stroke-dasharray: none; stroke-linecap: butt; stroke-dashoffset: 0; stroke-linejoin: miter; stroke-miterlimit: 4; fill: rgb(255,255,255); fill-opacity: 0; fill-rule: nonzero; opacity: 1;" vector-effect="non-scaling-stroke"  transform=" translate(0, 0)" d="M 0 -3.09811 L 0 3.0980999999999996" stroke-linecap="round" />
</g>
<g transform="matrix(0 0 0 0 143 68)" id="AQnfhXmWM6zOoVMMLuqKw"  >
<path style="stroke: rgb(255,255,255); stroke-width: 1; stroke-dasharray: none; stroke-linecap: butt; stroke-dashoffset: 0; stroke-linejoin: miter; stroke-miterlimit: 4; fill: rgb(255,255,255); fill-opacity: 0; fill-rule: nonzero; opacity: 1;" vector-effect="non-scaling-stroke"  transform=" translate(0, 0)" d="M 0 -3.01205 L 0 3.01205" stroke-linecap="round" />
</g>
<g transform="matrix(0 0 0 0 143 78)" id="9yVxmaMVVeJYMN0flTFNX"  >
<path style="stroke: rgb(255,255,255); stroke-width: 1; stroke-dasharray: none; stroke-linecap: butt; stroke-dashoffset: 0; stroke-linejoin: miter; stroke-miterlimit: 4; fill: rgb(255,255,255); fill-opacity: 0; fill-rule: nonzero; opacity: 1;" vector-effect="non-scaling-stroke"  transform=" translate(0, 0)" d="M 0 -3.09811 L 0 3.0980999999999996" stroke-linecap="round" />
</g>
<g transform="matrix(0 0 0 0 143 88)" id="Sl3cnzAM_Xlu_IhyeAct_"  >
<path style="stroke: rgb(255,255,255); stroke-width: 1; stroke-dasharray: none; stroke-linecap: butt; stroke-dashoffset: 0; stroke-linejoin: miter; stroke-miterlimit: 4; fill: rgb(255,255,255); fill-opacity: 0; fill-rule: nonzero; opacity: 1;" vector-effect="non-scaling-stroke"  transform=" translate(0, 0)" d="M 0 -3.09811 L 0 3.0980999999999996" stroke-linecap="round" />
</g>
<g transform="matrix(0 0 0 0 217 57)" id="67TGVoFtvG0bNuJmN3ppe"  >
<path style="stroke: rgb(0,0,0); stroke-width: 1; stroke-dasharray: none; stroke-linecap: butt; stroke-dashoffset: 0; stroke-linejoin: miter; stroke-miterlimit: 4; fill: rgb(255,255,255); fill-opacity: 0; fill-rule: nonzero; opacity: 1;" vector-effect="non-scaling-stroke"  transform=" translate(0, 0)" d="M 0 0" stroke-linecap="round" />
</g>
<g transform="matrix(0 0 0 0 217 56.5)" id="YlCvC4r6IgkHPYb2pPinz"  >
<path style="stroke: rgb(255,255,255); stroke-width: 1; stroke-dasharray: none; stroke-linecap: butt; stroke-dashoffset: 0; stroke-linejoin: miter; stroke-miterlimit: 4; fill: rgb(255,255,255); fill-opacity: 0; fill-rule: nonzero; opacity: 1;" vector-effect="non-scaling-stroke"  transform=" translate(0, 0)" d="M 0 -3.59811 L 0 3.5980999999999996" stroke-linecap="round" />
</g>
<g transform="matrix(0 0 0 0 217 67.5)" id="3xNXdhojXc6-_KOswacN8"  >
<path style="stroke: rgb(255,255,255); stroke-width: 1; stroke-dasharray: none; stroke-linecap: butt; stroke-dashoffset: 0; stroke-linejoin: miter; stroke-miterlimit: 4; fill: rgb(255,255,255); fill-opacity: 0; fill-rule: nonzero; opacity: 1;" vector-effect="non-scaling-stroke"  transform=" translate(0, 0)" d="M 0 -3.51205 L 0 3.51205" stroke-linecap="round" />
</g>
<g transform="matrix(0 0 0 0 217 77.5)" id="HLJEa7SwtzMxZVVG7sknB"  >
<path style="stroke: rgb(255,255,255); stroke-width: 1; stroke-dasharray: none; stroke-linecap: butt; stroke-dashoffset: 0; stroke-linejoin: miter; stroke-miterlimit: 4; fill: rgb(255,255,255); fill-opacity: 0; fill-rule: nonzero; opacity: 1;" vector-effect="non-scaling-stroke"  transform=" translate(0, 0)" d="M 0 -3.59811 L 0 3.5980999999999996" stroke-linecap="round" />
</g>
<g transform="matrix(0 0 0 0 217 87.5)" id="bJcPypR9vpwfWcNcI1e5_"  >
<path style="stroke: rgb(255,255,255); stroke-width: 1; stroke-dasharray: none; stroke-linecap: butt; stroke-dashoffset: 0; stroke-linejoin: miter; stroke-miterlimit: 4; fill: rgb(255,255,255); fill-opacity: 0; fill-rule: nonzero; opacity: 1;" vector-effect="non-scaling-stroke"  transform=" translate(0, 0)" d="M 0 -3.59811 L 0 3.5980999999999996" stroke-linecap="round" />
</g>
<g transform="matrix(0 0 0 0 143 99.5)" id="zYkds84NvRz2JM9T3iX3H"  >
<path style="stroke: rgb(255,255,255); stroke-width: 1; stroke-dasharray: none; stroke-linecap: butt; stroke-dashoffset: 0; stroke-linejoin: miter; stroke-miterlimit: 4; fill: rgb(255,255,255); fill-opacity: 0; fill-rule: nonzero; opacity: 1;" vector-effect="non-scaling-stroke"  transform=" translate(0, 0)" d="M 0 -3.44234 L 0 3.44234" stroke-linecap="round" />
</g>
<g transform="matrix(0 0 0 0 217 100)" id="Z31RhiX11ytElz782oqWO"  >
<path style="stroke: rgb(255,255,255); stroke-width: 1; stroke-dasharray: none; stroke-linecap: butt; stroke-dashoffset: 0; stroke-linejoin: miter; stroke-miterlimit: 4; fill: rgb(255,255,255); fill-opacity: 0; fill-rule: nonzero; opacity: 1;" vector-effect="non-scaling-stroke"  transform=" translate(0, 0)" d="M 0 -3.94234 L 0 3.94234" stroke-linecap="round" />
</g>
<g transform="matrix(1.02 0 0 0.92 147.5 105.5)" id="ha0MkcGRip94AQqbdn91O"  >
<path style="stroke: rgb(255,255,255); stroke-width: 1; stroke-dasharray: none; stroke-linecap: butt; stroke-dashoffset: 0; stroke-linejoin: miter; stroke-miterlimit: 4; fill: rgb(255,255,255); fill-opacity: 0; fill-rule: nonzero; opacity: 1;" vector-effect="non-scaling-stroke"  transform=" translate(0, 0)" d="M -3.44234 -1.63511 L 3.44234 1.63511" stroke-linecap="round" />
</g>
<g transform="matrix(0.95 0 0 0.92 159.5 110.5)" id="Exe38osgZWZQJELig0WGe"  >
<path style="stroke: rgb(255,255,255); stroke-width: 1; stroke-dasharray: none; stroke-linecap: butt; stroke-dashoffset: 0; stroke-linejoin: miter; stroke-miterlimit: 4; fill: rgb(255,255,255); fill-opacity: 0; fill-rule: nonzero; opacity: 1;" vector-effect="non-scaling-stroke"  transform=" translate(0, 0)" d="M -3.70052 -1.63511 L 3.7005100000000004 1.63511" stroke-linecap="round" />
</g>
<g transform="matrix(1 -0.09 0.09 1.03 171 115.5)" id="LNncOwOcoDx6I-NSVlAv0"  >
<path style="stroke: rgb(255,255,255); stroke-width: 1; stroke-dasharray: none; stroke-linecap: butt; stroke-dashoffset: 0; stroke-linejoin: miter; stroke-miterlimit: 4; fill: rgb(255,255,255); fill-opacity: 0; fill-rule: nonzero; opacity: 1;" vector-effect="non-scaling-stroke"  transform=" translate(0, 0)" d="M -3.01205 -1.46299 L 3.01205 1.463" stroke-linecap="round" />
</g>
<g transform="matrix(0.94 0.12 -0.12 1.01 183.5 115)" id="RHI-oB2zkkmq0-xN5paSO"  >
<path style="stroke: rgb(255,255,255); stroke-width: 1; stroke-dasharray: none; stroke-linecap: butt; stroke-dashoffset: 0; stroke-linejoin: miter; stroke-miterlimit: 4; fill: rgb(255,255,255); fill-opacity: 0; fill-rule: nonzero; opacity: 1;" vector-effect="non-scaling-stroke"  transform=" translate(0, 0)" d="M -3.70052 1.96299 L 3.7005100000000004 -1.963" stroke-linecap="round" />
</g>
<g transform="matrix(0.95 0 0 0.94 195.5 110.5)" id="OhIqqvQ463NLWEfjfRLfZ"  >
<path style="stroke: rgb(255,255,255); stroke-width: 1; stroke-dasharray: none; stroke-linecap: butt; stroke-dashoffset: 0; stroke-linejoin: miter; stroke-miterlimit: 4; fill: rgb(255,255,255); fill-opacity: 0; fill-rule: nonzero; opacity: 1;" vector-effect="non-scaling-stroke"  transform=" translate(0, 0)" d="M -3.70052 1.59767 L 3.7005100000000004 -1.59768" stroke-linecap="round" />
</g>
<g transform="matrix(1.01 0 0 0.92 209 105.5)" id="mgl6yEeqisIikuZ6rzmDh"  >
<path style="stroke: rgb(255,255,255); stroke-width: 1; stroke-dasharray: none; stroke-linecap: butt; stroke-dashoffset: 0; stroke-linejoin: miter; stroke-miterlimit: 4; fill: rgb(255,255,255); fill-opacity: 0; fill-rule: nonzero; opacity: 1;" vector-effect="non-scaling-stroke"  transform=" translate(0, 0)" d="M -3.95869 1.62694 L 3.95869 -1.62693" stroke-linecap="round" />
</g>
<g transform="matrix(0.08 0 0 0.08 144 50)" id="Wzx6KbmPmaJRx9yiYtYwb"  >
<path style="stroke: rgb(82,193,163); stroke-width: 0; stroke-dasharray: none; stroke-linecap: butt; stroke-dashoffset: 0; stroke-linejoin: miter; stroke-miterlimit: 4; fill: rgb(220,131,51); fill-rule: nonzero; opacity: 1;" vector-effect="non-scaling-stroke"  transform=" translate(0, 0)" d="M 0 -50 C 27.6 -50 50 -27.6 50 0 C 50 27.6 27.6 50 0 50 C -27.6 50 -50 27.6 -50 0 C -50 -27.6 -27.6 -50 0 -50 z" stroke-linecap="round" />
</g>
<g transform="matrix(0.08 0 0 0.08 215 50)" id="l2TCUnB0rI57WDmPVl-nG"  >
<path style="stroke: rgb(82,193,163); stroke-width: 0; stroke-dasharray: none; stroke-linecap: butt; stroke-dashoffset: 0; stroke-linejoin: miter; stroke-miterlimit: 4; fill: rgb(220,131,51); fill-rule: nonzero; opacity: 1;" vector-effect="non-scaling-stroke"  transform=" translate(0, 0)" d="M 0 -50 C 27.6 -50 50 -27.6 50 0 C 50 27.6 27.6 50 0 50 C -27.6 50 -50 27.6 -50 0 C -50 -27.6 -27.6 -50 0 -50 z" stroke-linecap="round" />
</g>
<g transform="matrix(0.06 0 0 0.06 144 50)" id="QfiQrQwNZJB1NDpXLdxFG"  >
<path style="stroke: rgb(235,218,188); stroke-width: 0; stroke-dasharray: none; stroke-linecap: butt; stroke-dashoffset: 0; stroke-linejoin: miter; stroke-miterlimit: 4; fill: rgb(0,0,0); fill-opacity: 0.4; fill-rule: nonzero; opacity: 1;" vector-effect="non-scaling-stroke"  transform=" translate(0, 0)" d="M 0 -50 C 27.6 -50 50 -27.6 50 0 C 50 27.6 27.6 50 0 50 C -27.6 50 -50 27.6 -50 0 C -50 -27.6 -27.6 -50 0 -50 z" stroke-linecap="round" />
</g>
<g transform="matrix(0.06 0 0 0.06 215 50)" id="R0yvGEIerE74sc4s9sLkX"  >
<path style="stroke: rgb(239,211,118); stroke-width: 0; stroke-dasharray: none; stroke-linecap: butt; stroke-dashoffset: 0; stroke-linejoin: miter; stroke-miterlimit: 4; fill: rgb(0,0,0); fill-opacity: 0.34; fill-rule: nonzero; opacity: 1;" vector-effect="non-scaling-stroke"  transform=" translate(0, 0)" d="M 0 -50 C 27.6 -50 50 -27.6 50 0 C 50 27.6 27.6 50 0 50 C -27.6 50 -50 27.6 -50 0 C -50 -27.6 -27.6 -50 0 -50 z" stroke-linecap="round" />
</g>
<g transform="matrix(0.04 0 0 0.04 144 50)" id="nTsRE_pVufz5VRaeuzNTN"  >
<path style="stroke: rgb(108,246,95); stroke-width: 0; stroke-dasharray: none; stroke-linecap: butt; stroke-dashoffset: 0; stroke-linejoin: miter; stroke-miterlimit: 4; fill: rgb(220,131,51); fill-rule: nonzero; opacity: 1;" vector-effect="non-scaling-stroke"  transform=" translate(0, 0)" d="M 0 -50 C 27.6 -50 50 -27.6 50 0 C 50 27.6 27.6 50 0 50 C -27.6 50 -50 27.6 -50 0 C -50 -27.6 -27.6 -50 0 -50 z" stroke-linecap="round" />
</g>
<g transform="matrix(0.04 0 0 0.04 215 50)" id="ovWrwGOmA9rivJzgqvTSL"  >
<path style="stroke: rgb(176,236,51); stroke-width: 0; stroke-dasharray: none; stroke-linecap: butt; stroke-dashoffset: 0; stroke-linejoin: miter; stroke-miterlimit: 4; fill: rgb(220,131,51); fill-rule: nonzero; opacity: 1;" vector-effect="non-scaling-stroke"  transform=" translate(0, 0)" d="M 0 -50 C 27.6 -50 50 -27.6 50 0 C 50 27.6 27.6 50 0 50 C -27.6 50 -50 27.6 -50 0 C -50 -27.6 -27.6 -50 0 -50 z" stroke-linecap="round" />
</g>
<g transform="matrix(1 0 0 1 143.5 59.54)" id="D0xq1cIacqxlTtL-YTCeV"  >
<path style="stroke: rgb(255,255,255); stroke-width: 1; stroke-dasharray: none; stroke-linecap: butt; stroke-dashoffset: 0; stroke-linejoin: miter; stroke-miterlimit: 4; fill: rgb(255,255,255); fill-opacity: 0; fill-rule: nonzero; opacity: 1;" vector-effect="non-scaling-stroke"  transform=" translate(0, 0)" d="M 0 -3.44234 L 0 3.44234" stroke-linecap="round" />
</g>
<g transform="matrix(1 0 0 1 143.5 70.65)" id="TvTGhYLc3011cwJLsTubn"  >
<path style="stroke: rgb(255,255,255); stroke-width: 1; stroke-dasharray: none; stroke-linecap: butt; stroke-dashoffset: 0; stroke-linejoin: miter; stroke-miterlimit: 4; fill: rgb(255,255,255); fill-opacity: 0; fill-rule: nonzero; opacity: 1;" vector-effect="non-scaling-stroke"  transform=" translate(0, 0)" d="M 0 -3.35494 L 0 3.3549499999999997" stroke-linecap="round" />
</g>
<g transform="matrix(1 0 0 1 143.5 95.6)" id="4JOoA5EGo96o2GBEcZsl3"  >
<path style="stroke: rgb(255,255,255); stroke-width: 1; stroke-dasharray: none; stroke-linecap: butt; stroke-dashoffset: 0; stroke-linejoin: miter; stroke-miterlimit: 4; fill: rgb(255,255,255); fill-opacity: 0; fill-rule: nonzero; opacity: 1;" vector-effect="non-scaling-stroke"  transform=" translate(0, 0)" d="M 0 -3.70052 L 0 3.7005100000000004" stroke-linecap="round" />
</g>
<g transform="matrix(1 0 0 1 152.14 50)" id="VhBujK25Ujq2QsfgvizIq"  >
<path style="stroke: rgb(255,255,255); stroke-width: 1; stroke-dasharray: none; stroke-linecap: butt; stroke-dashoffset: 0; stroke-linejoin: miter; stroke-miterlimit: 4; fill: rgb(255,255,255); fill-opacity: 0; fill-rule: nonzero; opacity: 1;" vector-effect="non-scaling-stroke"  transform=" translate(0, 0)" d="M -3.35979 0 L 3.35979 0" stroke-linecap="round" />
</g>
<g transform="matrix(1 0 0 1 165.73 50)" id="9Yc6zsAaaXNkxt489ZxeI"  >
<path style="stroke: rgb(255,255,255); stroke-width: 1; stroke-dasharray: none; stroke-linecap: butt; stroke-dashoffset: 0; stroke-linejoin: miter; stroke-miterlimit: 4; fill: rgb(255,255,255); fill-opacity: 0; fill-rule: nonzero; opacity: 1;" vector-effect="non-scaling-stroke"  transform=" translate(0, 0)" d="M -4.04475 0 L 4.04475 0" stroke-linecap="round" />
</g>
<g transform="matrix(1 0 0 1 181.57 50)" id="LtujL7CGupWHwzX3L09z8"  >
<path style="stroke: rgb(255,255,255); stroke-width: 1; stroke-dasharray: none; stroke-linecap: butt; stroke-dashoffset: 0; stroke-linejoin: miter; stroke-miterlimit: 4; fill: rgb(255,255,255); fill-opacity: 0; fill-rule: nonzero; opacity: 1;" vector-effect="non-scaling-stroke"  transform=" translate(0, 0)" d="M -4.5611 0 L 4.5611 0" stroke-linecap="round" />
</g>
<g transform="matrix(1 0 0 1 143.51 82.5)" id="HqnFHs6Ira62x9IiqdFqQ"  >
<path style="stroke: rgb(255,255,255); stroke-width: 1; stroke-dasharray: none; stroke-linecap: butt; stroke-dashoffset: 0; stroke-linejoin: miter; stroke-miterlimit: 4; fill: rgb(255,255,255); fill-opacity: 0; fill-rule: nonzero; opacity: 1;" vector-effect="non-scaling-stroke"  transform=" translate(0, 0)" d="M 0 -4 L 0 4" stroke-linecap="round" />
</g>
<g transform="matrix(1 0 0 1 197.25 50)" id="E76oFhqofgI8EL9Y9DpRX"  >
<path style="stroke: rgb(255,255,255); stroke-width: 1; stroke-dasharray: none; stroke-linecap: butt; stroke-dashoffset: 0; stroke-linejoin: miter; stroke-miterlimit: 4; fill: rgb(255,255,255); fill-opacity: 0; fill-rule: nonzero; opacity: 1;" vector-effect="non-scaling-stroke"  transform=" translate(0, 0)" d="M -4.25 0 L 4.25 0" stroke-linecap="round" />
</g>
<g transform="matrix(1 0 0 1 208.17 50)" id="yyXuun8xvLFnnpAHYcRwS"  >
<path style="stroke: rgb(255,255,255); stroke-width: 1; stroke-dasharray: none; stroke-linecap: butt; stroke-dashoffset: 0; stroke-linejoin: miter; stroke-miterlimit: 4; fill: rgb(255,255,255); fill-opacity: 0; fill-rule: nonzero; opacity: 1;" vector-effect="non-scaling-stroke"  transform=" translate(0, 0)" d="M -1.82889 0 L 1.8288800000000003 0" stroke-linecap="round" />
</g>
<g transform="matrix(0 0 0 1 216 58.5)" id="O8mOF5qQctliOBhoiGcpI"  >
<path style="stroke: rgb(0,0,0); stroke-width: 1; stroke-dasharray: none; stroke-linecap: butt; stroke-dashoffset: 0; stroke-linejoin: miter; stroke-miterlimit: 4; fill: rgb(255,255,255); fill-opacity: 0; fill-rule: nonzero; opacity: 1;" vector-effect="non-scaling-stroke"  transform=" translate(0, 0)" d="M 0 -3.49117 L 0 3.49117" stroke-linecap="round" />
</g>
<g transform="matrix(1 0 0 1 215.81 59.3)" id="U51H9lrPVx491KJi9DQA9"  >
<path style="stroke: rgb(255,255,255); stroke-width: 1; stroke-dasharray: none; stroke-linecap: butt; stroke-dashoffset: 0; stroke-linejoin: miter; stroke-miterlimit: 4; fill: rgb(255,255,255); fill-opacity: 0; fill-rule: nonzero; opacity: 1;" vector-effect="non-scaling-stroke"  transform=" translate(0, 0)" d="M 0 -3.70117 L 0 3.70117" stroke-linecap="round" />
</g>
<g transform="matrix(1 0 0 1 215.81 70.34)" id="pIVP5aBa2g5q5wqTJV4ME"  >
<path style="stroke: rgb(255,255,255); stroke-width: 1; stroke-dasharray: none; stroke-linecap: butt; stroke-dashoffset: 0; stroke-linejoin: miter; stroke-miterlimit: 4; fill: rgb(255,255,255); fill-opacity: 0; fill-rule: nonzero; opacity: 1;" vector-effect="non-scaling-stroke"  transform=" translate(0, 0)" d="M 0 -2.83608 L 0 2.83608" stroke-linecap="round" />
</g>
<g transform="matrix(1 0 0 1 215.81 82.01)" id="8LP02H4IgECckykbpGMDb"  >
<path style="stroke: rgb(255,255,255); stroke-width: 1; stroke-dasharray: none; stroke-linecap: butt; stroke-dashoffset: 0; stroke-linejoin: miter; stroke-miterlimit: 4; fill: rgb(255,255,255); fill-opacity: 0; fill-rule: nonzero; opacity: 1;" vector-effect="non-scaling-stroke"  transform=" translate(0, 0)" d="M 0 -3.50774 L 0 3.5077499999999997" stroke-linecap="round" />
</g>
<g transform="matrix(1 0 0 1 215.81 95.2)" id="85lMXNN4MkgPmRYzF7Nb0"  >
<path style="stroke: rgb(255,255,255); stroke-width: 1; stroke-dasharray: none; stroke-linecap: butt; stroke-dashoffset: 0; stroke-linejoin: miter; stroke-miterlimit: 4; fill: rgb(255,255,255); fill-opacity: 0; fill-rule: nonzero; opacity: 1;" vector-effect="non-scaling-stroke"  transform=" translate(0, 0)" d="M 0 -3.80026 L 0 3.80026" stroke-linecap="round" />
</g>
<g transform="matrix(1 0 0 1 161.19 61.78)" id="z6xe6sq58PImvQCAo2NGJ"  >
<path style="stroke: rgb(0,0,0); stroke-width: 1; stroke-dasharray: none; stroke-linecap: butt; stroke-dashoffset: 0; stroke-linejoin: miter; stroke-miterlimit: 4; fill: rgb(255,255,255); fill-opacity: 0; fill-rule: nonzero; opacity: 1;" vector-effect="non-scaling-stroke"  transform=" translate(0, 0)" d="M 0 0" stroke-linecap="round" />
</g>
<g transform="matrix(1 0 0 1 157.93 52.8)" id="GYy3iHOiwgfVtQ_u1EteE"  >
<path style="stroke: rgb(0,0,0); stroke-width: 1; stroke-dasharray: none; stroke-linecap: butt; stroke-dashoffset: 0; stroke-linejoin: miter; stroke-miterlimit: 4; fill: rgb(255,255,255); fill-opacity: 0; fill-rule: nonzero; opacity: 1;" vector-effect="non-scaling-stroke"  transform=" translate(0, 0)" d="M -0.51635 -2.29941 L 0.51635 2.2994200000000005" stroke-linecap="round" />
</g>
<g transform="matrix(1.05 0.04 -0.04 1.06 159.5 59)" id="OSiy0GmIidkAA8zl66BLZ"  >
<path style="stroke: rgb(0,0,0); stroke-width: 1; stroke-dasharray: none; stroke-linecap: butt; stroke-dashoffset: 0; stroke-linejoin: miter; stroke-miterlimit: 4; fill: rgb(255,255,255); fill-opacity: 0; fill-rule: nonzero; opacity: 1;" vector-effect="non-scaling-stroke"  transform=" translate(0, 0)" d="M -0.47781 -1.889 L 0.47779999999999995 1.88901" stroke-linecap="round" />
</g>
<g transform="matrix(1 0 0 1 161.19 65.75)" id="skDN-2_D2cd2b2i-w3eGu"  >
<path style="stroke: rgb(0,0,0); stroke-width: 1; stroke-dasharray: none; stroke-linecap: butt; stroke-dashoffset: 0; stroke-linejoin: miter; stroke-miterlimit: 4; fill: rgb(255,255,255); fill-opacity: 0; fill-rule: nonzero; opacity: 1;" vector-effect="non-scaling-stroke"  transform=" translate(0, 0)" d="M -0.5 -2.24959 L 0.5 2.24959" stroke-linecap="round" />
</g>
<g transform="matrix(0.75 0 0 1.02 162.5 72.5)" id="ekuMZOvo2M7NBTqAq8v-2"  >
<path style="stroke: rgb(0,0,0); stroke-width: 1; stroke-dasharray: none; stroke-linecap: butt; stroke-dashoffset: 0; stroke-linejoin: miter; stroke-miterlimit: 4; fill: rgb(255,255,255); fill-opacity: 0; fill-rule: nonzero; opacity: 1;" vector-effect="non-scaling-stroke"  transform=" translate(0, 0)" d="M -0.66512 -2.44267 L 0.66512 2.44267" stroke-linecap="round" />
</g>
<g transform="matrix(1 0 0 1 164.99 52.75)" id="fP8V5-kljvn5I6OzfNT7Y"  >
<path style="stroke: rgb(0,0,0); stroke-width: 1; stroke-dasharray: none; stroke-linecap: butt; stroke-dashoffset: 0; stroke-linejoin: miter; stroke-miterlimit: 4; fill: rgb(255,255,255); fill-opacity: 0; fill-rule: nonzero; opacity: 1;" vector-effect="non-scaling-stroke"  transform=" translate(0, 0)" d="M -0.2991 -1.25 L 0.29911000000000004 1.25" stroke-linecap="round" />
</g>
<g transform="matrix(1 0 0 1 167.77 65)" id="KV5GHtyklSVnV-J3VIEn0"  >
<path style="stroke: rgb(0,0,0); stroke-width: 1; stroke-dasharray: none; stroke-linecap: butt; stroke-dashoffset: 0; stroke-linejoin: miter; stroke-miterlimit: 4; fill: rgb(255,255,255); fill-opacity: 0; fill-rule: nonzero; opacity: 1;" vector-effect="non-scaling-stroke"  transform=" translate(0, 0)" d="M -0.44039 -2.00138 L 0.44039999999999996 2.0013699999999996" stroke-linecap="round" />
</g>
<g transform="matrix(1 0 0 1 166.07 58.62)" id="0P-721j6Ge9PB3sDZlkFy"  >
<path style="stroke: rgb(0,0,0); stroke-width: 1; stroke-dasharray: none; stroke-linecap: butt; stroke-dashoffset: 0; stroke-linejoin: miter; stroke-miterlimit: 4; fill: rgb(255,255,255); fill-opacity: 0; fill-rule: nonzero; opacity: 1;" vector-effect="non-scaling-stroke"  transform=" translate(0, 0)" d="M -0.34129 -1.62437 L 0.34129 1.6243799999999997" stroke-linecap="round" />
</g>
<g transform="matrix(0.91 0 0 0.96 169.5 72)" id="Q_IgTKgjVw5itum3kznpj"  >
<path style="stroke: rgb(0,0,0); stroke-width: 1; stroke-dasharray: none; stroke-linecap: butt; stroke-dashoffset: 0; stroke-linejoin: miter; stroke-miterlimit: 4; fill: rgb(255,255,255); fill-opacity: 0; fill-rule: nonzero; opacity: 1;" vector-effect="non-scaling-stroke"  transform=" translate(0, 0)" d="M -0.54761 -2.08247 L 0.5476 2.0824800000000003" stroke-linecap="round" />
</g>
<g transform="matrix(1.43 0 0 1.08 171.5 79)" id="vxIXmr-CA1SNThMdvwEOz"  >
<path style="stroke: rgb(0,0,0); stroke-width: 1; stroke-dasharray: none; stroke-linecap: butt; stroke-dashoffset: 0; stroke-linejoin: miter; stroke-miterlimit: 4; fill: rgb(255,255,255); fill-opacity: 0; fill-rule: nonzero; opacity: 1;" vector-effect="non-scaling-stroke"  transform=" translate(0, 0)" d="M -0.3488 -1.8439 L 0.34879000000000004 1.84389" stroke-linecap="round" />
</g>
<g transform="matrix(0.96 0 0 0.98 176.5 106.5)" id="Se1aJrtTyUs_cMFWh0FSy"  >
<path style="stroke: rgb(0,0,0); stroke-width: 1; stroke-dasharray: none; stroke-linecap: butt; stroke-dashoffset: 0; stroke-linejoin: miter; stroke-miterlimit: 4; fill: rgb(255,255,255); fill-opacity: 0; fill-rule: nonzero; opacity: 1;" vector-effect="non-scaling-stroke"  transform=" translate(0, 0)" d="M 2.59222 -0.50958 C 2.59222 -0.50958 0 1.78354 -2.59223 -0.50958" stroke-linecap="round" />
</g>
<g transform="matrix(1.03 0.09 -0.09 1 169 103.5)" id="g_6RsXKxfhbibmoTTiZYh"  >
<path style="stroke: rgb(0,0,0); stroke-width: 1; stroke-dasharray: none; stroke-linecap: butt; stroke-dashoffset: 0; stroke-linejoin: miter; stroke-miterlimit: 4; fill: rgb(255,255,255); fill-opacity: 0; fill-rule: nonzero; opacity: 1;" vector-effect="non-scaling-stroke"  transform=" translate(0, 0)" d="M 1.93527 1.49551 C 1.93527 1.49551 -0.8385500000000001 0.99701 -1.93526 -1.49552" stroke-linecap="round" />
</g>
<g transform="matrix(0.68 0 0 1.01 164.5 95.5)" id="UhYxmuUeKG-rqBTX7VwUm"  >
<path style="stroke: rgb(0,0,0); stroke-width: 1; stroke-dasharray: none; stroke-linecap: butt; stroke-dashoffset: 0; stroke-linejoin: miter; stroke-miterlimit: 4; fill: rgb(255,255,255); fill-opacity: 0; fill-rule: nonzero; opacity: 1;" vector-effect="non-scaling-stroke"  transform=" translate(0, 0)" d="M 0.73579 2.48212 C 0.73579 2.48212 -1.59009 0.9077200000000001 -0.3936799999999999 -2.4821099999999996" stroke-linecap="round" />
</g>
<g transform="matrix(1 0 0 1 164.5 91.4)" id="HWAzBYcQOaEfq9MZk6VDq"  >
<path style="stroke: rgb(0,0,0); stroke-width: 1; stroke-dasharray: none; stroke-linecap: butt; stroke-dashoffset: 0; stroke-linejoin: miter; stroke-miterlimit: 4; fill: rgb(255,255,255); fill-opacity: 0; fill-rule: nonzero; opacity: 1;" vector-effect="non-scaling-stroke"  transform=" translate(0, 0)" d="M 0 0" stroke-linecap="round" />
</g>
<g transform="matrix(0.99 0.09 -0.1 1.11 173 84)" id="JzwYSg0G2mve5hTv9jY4s"  >
<path style="stroke: rgb(0,0,0); stroke-width: 1; stroke-dasharray: none; stroke-linecap: butt; stroke-dashoffset: 0; stroke-linejoin: miter; stroke-miterlimit: 4; fill: rgb(255,255,255); fill-opacity: 0; fill-rule: nonzero; opacity: 1;" vector-effect="non-scaling-stroke"  transform=" translate(0, 0)" d="M -2.01297 0.89723 C -2.01297 0.89723 -0.18045000000000022 -1.39589 2.01297 -0.79769" stroke-linecap="round" />
</g>
<g transform="matrix(0.91 0.24 -0.27 0.99 167 88)" id="7UuxHIykgM3q2UZ8nzLq4"  >
<path style="stroke: rgb(0,0,0); stroke-width: 1; stroke-dasharray: none; stroke-linecap: butt; stroke-dashoffset: 0; stroke-linejoin: miter; stroke-miterlimit: 4; fill: rgb(255,255,255); fill-opacity: 0; fill-rule: nonzero; opacity: 1;" vector-effect="non-scaling-stroke"  transform=" translate(0, 0)" d="M -1.00474 1.95005 C -1.00474 1.95005 -1.6253799999999998 -0.25512999999999986 1.0665499999999999 -1.95005" stroke-linecap="round" />
</g>
<g transform="matrix(1 0 0 1.22 180.5 84)" id="ojOx5dkZzKoOrgv5kIB3m"  >
<path style="stroke: rgb(0,0,0); stroke-width: 1; stroke-dasharray: none; stroke-linecap: butt; stroke-dashoffset: 0; stroke-linejoin: miter; stroke-miterlimit: 4; fill: rgb(255,255,255); fill-opacity: 0; fill-rule: nonzero; opacity: 1;" vector-effect="non-scaling-stroke"  transform=" translate(0, 0)" d="M -2.49177 -0.57776 C -2.49177 -0.57776 0.89656 -1.6744700000000001 2.4917800000000003 0.8180499999999999" stroke-linecap="round" />
</g>
<g transform="matrix(1.13 0.14 -0.11 0.87 186.5 88.5)" id="Mz20Uwyjlj-37bJe9_I0R"  >
<path style="stroke: rgb(0,0,0); stroke-width: 1; stroke-dasharray: none; stroke-linecap: butt; stroke-dashoffset: 0; stroke-linejoin: miter; stroke-miterlimit: 4; fill: rgb(255,255,255); fill-opacity: 0; fill-rule: nonzero; opacity: 1;" vector-effect="non-scaling-stroke"  transform=" translate(0, 0)" d="M -1.31459 -1.69956 C -1.31459 -1.69956 1.8372700000000002 -0.69326 1.2390600000000003 1.69957" stroke-linecap="round" />
</g>
<g transform="matrix(1.5 0 0 1.05 188.5 95)" id="AxfQHuMI0yPA4axeDO_S0"  >
<path style="stroke: rgb(0,0,0); stroke-width: 1; stroke-dasharray: none; stroke-linecap: butt; stroke-dashoffset: 0; stroke-linejoin: miter; stroke-miterlimit: 4; fill: rgb(255,255,255); fill-opacity: 0; fill-rule: nonzero; opacity: 1;" vector-effect="non-scaling-stroke"  transform=" translate(0, 0)" d="M -0.33066 -1.91128 C -0.33066 -1.91128 1.16293 -0.3818400000000002 -0.33258 1.91128" stroke-linecap="round" />
</g>
<g transform="matrix(1.1 0 0 1.11 184.5 102)" id="Ny47GIR82Cd_NGh3cFinQ"  >
<path style="stroke: rgb(0,0,0); stroke-width: 1; stroke-dasharray: none; stroke-linecap: butt; stroke-dashoffset: 0; stroke-linejoin: miter; stroke-miterlimit: 4; fill: rgb(255,255,255); fill-opacity: 0; fill-rule: nonzero; opacity: 1;" vector-effect="non-scaling-stroke"  transform=" translate(0, 0)" d="M 2.27959 -1.79573 C 2.27959 -1.79573 0.21293999999999969 2.4155699999999998 -2.27959 1.7176699999999998" stroke-linecap="round" />
</g>
<g transform="matrix(1.82 0.39 -0.34 1.59 173 88)" id="i0AzQUVM168G_vC_qRzaq"  >
<path style="stroke: rgb(0,0,0); stroke-width: 0.4; stroke-dasharray: none; stroke-linecap: butt; stroke-dashoffset: 0; stroke-linejoin: miter; stroke-miterlimit: 4; fill: rgb(255,255,255); fill-opacity: 0; fill-rule: nonzero; opacity: 1;" vector-effect="non-scaling-stroke"  transform=" translate(0, 0)" d="M 1.6166 -1.22384 C 1.6166 -1.22384 -1.2178 -1.1689800000000001 -1.6166 1.22385" stroke-linecap="round" />
</g>
<g transform="matrix(2.8 0.44 -0.3 1.87 170.5 97)" id="yR9DFND8-_K8KGiVgHKW0"  >
<path style="stroke: rgb(0,0,0); stroke-width: 0.4; stroke-dasharray: none; stroke-linecap: butt; stroke-dashoffset: 0; stroke-linejoin: miter; stroke-miterlimit: 4; fill: rgb(255,255,255); fill-opacity: 0; fill-rule: nonzero; opacity: 1;" vector-effect="non-scaling-stroke"  transform=" translate(0, 0)" d="M -0.73369 -1.58722 C -0.73369 -1.58722 -0.9956799999999999 -0.8166700000000001 -0.8253699999999999 -0.020540000000000003 C -0.6842699999999999 0.63904 -0.24644999999999995 1.31618 0.8829100000000001 1.58723" stroke-linecap="round" />
</g>
<g transform="matrix(1.7 -0.42 0.42 1.69 179.5 99.5)" id="-tJfVAdCw6KN4Cm3W25g8"  >
<path style="stroke: rgb(0,0,0); stroke-width: 0.4; stroke-dasharray: none; stroke-linecap: butt; stroke-dashoffset: 0; stroke-linejoin: miter; stroke-miterlimit: 4; fill: rgb(255,255,255); fill-opacity: 0; fill-rule: nonzero; opacity: 1;" vector-effect="non-scaling-stroke"  transform=" translate(0, 0)" d="M -2 0.62803 C -2 0.62803 1.2023899999999998 1.7310499999999998 2 -0.86118" stroke-linecap="round" />
</g>
<g transform="matrix(1.99 0.39 -0.33 1.69 183 90.5)" id="x1BzuYnUnWRpagJlX7K4D"  >
<path style="stroke: rgb(0,0,0); stroke-width: 0.4; stroke-dasharray: none; stroke-linecap: butt; stroke-dashoffset: 0; stroke-linejoin: miter; stroke-miterlimit: 4; fill: rgb(255,255,255); fill-opacity: 0; fill-rule: nonzero; opacity: 1;" vector-effect="non-scaling-stroke"  transform=" translate(0, 0)" d="M -0.98549 -1.44987 C -0.98549 -1.44987 1.33827 -0.74355 0.93947 1.44987" stroke-linecap="round" />
</g>
<g transform="matrix(1 0 0 1 164.75 81.25)" id="nKXGPmErge7JoSrqaoyq5"  >
<path style="stroke: rgb(0,0,0); stroke-width: 1; stroke-dasharray: none; stroke-linecap: butt; stroke-dashoffset: 0; stroke-linejoin: miter; stroke-miterlimit: 4; fill: rgb(255,255,255); fill-opacity: 0; fill-rule: nonzero; opacity: 1;" vector-effect="non-scaling-stroke"  transform=" translate(0, 0)" d="M -0.75 -2.74985 L 0.75 2.7498400000000003" stroke-linecap="round" />
</g>
<g transform="matrix(0.82 -0.07 0.09 1 189.5 52.5)" id="vVezrfOgicGkNRxGtVsUx"  >
<path style="stroke: rgb(0,0,0); stroke-width: 1; stroke-dasharray: none; stroke-linecap: butt; stroke-dashoffset: 0; stroke-linejoin: miter; stroke-miterlimit: 4; fill: rgb(255,255,255); fill-opacity: 0; fill-rule: nonzero; opacity: 1;" vector-effect="non-scaling-stroke"  transform=" translate(0, 0)" d="M 0.60658 -1.5 L -0.60658 1.5" stroke-linecap="round" />
</g>
<g transform="matrix(0.85 0 0 1.13 187.5 59)" id="1u6AFuy1dif7hz90s-o4i"  >
<path style="stroke: rgb(0,0,0); stroke-width: 1; stroke-dasharray: none; stroke-linecap: butt; stroke-dashoffset: 0; stroke-linejoin: miter; stroke-miterlimit: 4; fill: rgb(255,255,255); fill-opacity: 0; fill-rule: nonzero; opacity: 1;" vector-effect="non-scaling-stroke"  transform=" translate(0, 0)" d="M 0.58909 -1.76871 L -0.5890799999999999 1.76871" stroke-linecap="round" />
</g>
<g transform="matrix(1 0 0 1 186.05 65)" id="sWr7Vq-oGGwGI_3NN0IFl"  >
<path style="stroke: rgb(0,0,0); stroke-width: 1; stroke-dasharray: none; stroke-linecap: butt; stroke-dashoffset: 0; stroke-linejoin: miter; stroke-miterlimit: 4; fill: rgb(255,255,255); fill-opacity: 0; fill-rule: nonzero; opacity: 1;" vector-effect="non-scaling-stroke"  transform=" translate(0, 0)" d="M 0.49776 -1.99924 L -0.49775 1.99924" stroke-linecap="round" />
</g>
<g transform="matrix(1.28 0.07 -0.05 0.96 184.5 72)" id="rBc1rt0CTNQXpo2eJpq_L"  >
<path style="stroke: rgb(0,0,0); stroke-width: 1; stroke-dasharray: none; stroke-linecap: butt; stroke-dashoffset: 0; stroke-linejoin: miter; stroke-miterlimit: 4; fill: rgb(255,255,255); fill-opacity: 0; fill-rule: nonzero; opacity: 1;" vector-effect="non-scaling-stroke"  transform=" translate(0, 0)" d="M 0.39199 -2.08804 L -0.39199 2.08804" stroke-linecap="round" />
</g>
<g transform="matrix(0.74 0.01 -0.02 1.03 182.5 79)" id="COL2PWLuYrGP08MRewvMt"  >
<path style="stroke: rgb(0,0,0); stroke-width: 1; stroke-dasharray: none; stroke-linecap: butt; stroke-dashoffset: 0; stroke-linejoin: miter; stroke-miterlimit: 4; fill: rgb(255,255,255); fill-opacity: 0; fill-rule: nonzero; opacity: 1;" vector-effect="non-scaling-stroke"  transform=" translate(0, 0)" d="M 0.67311 -1.9382 L -0.6730999999999999 1.9382" stroke-linecap="round" />
</g>
<g transform="matrix(1 0 0 1 195.77 53.98)" id="gO1JxRKxpHeKUs2k_u6DV"  >
<path style="stroke: rgb(0,0,0); stroke-width: 1; stroke-dasharray: none; stroke-linecap: butt; stroke-dashoffset: 0; stroke-linejoin: miter; stroke-miterlimit: 4; fill: rgb(255,255,255); fill-opacity: 0; fill-rule: nonzero; opacity: 1;" vector-effect="non-scaling-stroke"  transform=" translate(0, 0)" d="M 0.74776 -2.48331 L -0.7477499999999999 2.48331" stroke-linecap="round" />
</g>
<g transform="matrix(0.84 -0.06 0.06 0.92 194.5 60.5)" id="QIbdmIacT-736cyfc2bER"  >
<path style="stroke: rgb(0,0,0); stroke-width: 1; stroke-dasharray: none; stroke-linecap: butt; stroke-dashoffset: 0; stroke-linejoin: miter; stroke-miterlimit: 4; fill: rgb(255,255,255); fill-opacity: 0; fill-rule: nonzero; opacity: 1;" vector-effect="non-scaling-stroke"  transform=" translate(0, 0)" d="M 0.59746 -1.63916 L -0.59746 1.63916" stroke-linecap="round" />
</g>
<g transform="matrix(0.98 0.05 -0.06 1.09 192.5 66.5)" id="NdmQ381YF-ctM1_u0sDcW"  >
<path style="stroke: rgb(0,0,0); stroke-width: 1; stroke-dasharray: none; stroke-linecap: butt; stroke-dashoffset: 0; stroke-linejoin: miter; stroke-miterlimit: 4; fill: rgb(255,255,255); fill-opacity: 0; fill-rule: nonzero; opacity: 1;" vector-effect="non-scaling-stroke"  transform=" translate(0, 0)" d="M 0.50774 -2.28787 L -0.50775 2.28787" stroke-linecap="round" />
</g>
<g transform="matrix(0.96 0.07 -0.08 1.11 190.5 73)" id="d6vjq8UB8qIPU8__CUpEb"  >
<path style="stroke: rgb(0,0,0); stroke-width: 1; stroke-dasharray: none; stroke-linecap: butt; stroke-dashoffset: 0; stroke-linejoin: miter; stroke-miterlimit: 4; fill: rgb(255,255,255); fill-opacity: 0; fill-rule: nonzero; opacity: 1;" vector-effect="non-scaling-stroke"  transform=" translate(0, 0)" d="M 0.52126 -1.79613 L -0.52126 1.79612" stroke-linecap="round" />
</g>
<g transform="matrix(1.03 0 0 0.97 188 80.5)" id="A4kjxYhKK-IkWSCbJDc-R"  >
<path style="stroke: rgb(0,0,0); stroke-width: 1; stroke-dasharray: none; stroke-linecap: butt; stroke-dashoffset: 0; stroke-linejoin: miter; stroke-miterlimit: 4; fill: rgb(255,255,255); fill-opacity: 0; fill-rule: nonzero; opacity: 1;" vector-effect="non-scaling-stroke"  transform=" translate(0, 0)" d="M 0.97099 -2.58288 L -0.9710000000000001 2.5828900000000004" stroke-linecap="round" />
</g>
</svg>