<svg xmlns="http://www.w3.org/2000/svg" id="main" xmlns:xlink="http://www.w3.org/1999/xlink" xmlns:lucid="lucid" width="1000" height="750" viewBox="450,150,1050,800">
    <g transform="translate(0 0)" lucid:page-tab-id="sEf9HUI1J4BPR">
        <path d="M1150 181a5 5 0 0 1 5-5h310a5 5 0 0 1 5 5v170a5 5 0 0 1-5 5h-310a5 5 0 0 1-5-5z" stroke="#000"
              stroke-width="2" fill-opacity="0"/>
        <a href="#s_0">
            <path d="M855 597a5 5 0 0 1 5-5h230a5 5 0 0 1 5 5v134a5 5 0 0 1-5 5H860a5 5 0 0 1-5-5z" stroke="#000"
                  stroke-width="2" fill="#e3f7ff"/>
            <text style="font-size: 31px;" transform="matrix(1,0,0,1,875,592) translate(37.77777777777777 78.22222222222223)">金属資源</text>
        </a>
        <a href="#s_1">
            <path d="M480 597a5 5 0 0 1 5-5h230a5 5 0 0 1 5 5v134a5 5 0 0 1-5 5H485a5 5 0 0 1-5-5z" stroke="#000"
                  stroke-width="2" fill="#ffe3e9"/>
            <text style="font-size: 31px;" transform="matrix(1,0,0,1,500,592) translate(23 78.22222222222223)">資源の偏在</text>
        </a>
        <a href="#s_2">
            <path d="M855 389a5 5 0 0 1 5-5h230a5 5 0 0 1 5 5v134a5 5 0 0 1-5 5H860a5 5 0 0 1-5-5z" stroke="#000"
                  stroke-width="2" fill="#fff7e3"/>
            <text style="font-size: 31px;" transform="matrix(1,0,0,1,875,384) translate(23 59.55555555555555)">最新技術に</text>
            <text style="font-size: 31px;" transform="matrix(1,0,0,1,875,384) translate(25.33333333333333 96.88888888888889)">欠かせない</text>
        </a>
        <a href="#s_3">
            <path d="M855 805a5 5 0 0 1 5-5h230a5 5 0 0 1 5 5v134a5 5 0 0 1-5 5H860a5 5 0 0 1-5-5z" stroke="#000"
                  stroke-width="2" fill="#ebffe3"/>
            <path d="M1093 785.07c.82-1.65 3.18-1.65 4 0l13.92 27.67c.75 1.5-.34 3.26-2 3.26h-27.83c-1.7 0-2.77-1.76-2.02-3.26l13.9-27.67z"
                  fill="#fdc51f"/>
            <path d="M1097 794h-4v12h4v-12zm-2.88 14c-.62 0-1.12.5-1.12 1.13v1.75c0 .62.5 1.12 1.13 1.12h1.74c.63 0 1.13-.5 1.13-1.13v-1.75c0-.62-.5-1.12-1.13-1.12h-1.74z"
                  fill="#fff"/>
            <text style="font-size: 31px;" transform="matrix(1,0,0,1,875,800) translate(23 78.22222222222223)">資源の枯渇</text>
        </a>
        <a href="#s_4">
            <path d="M1230 805a5 5 0 0 1 5-5h230a5 5 0 0 1 5 5v134a5 5 0 0 1-5 5h-230a5 5 0 0 1-5-5z" stroke="#000"
                  stroke-width="2" fill="#fff7e3"/>
            <text style="font-size: 31px;" transform="matrix(1,0,0,1,1250,800) translate(38.55555555555555 59.55555555555555)">生産量の</text>
            <text style="font-size: 31px;" transform="matrix(1,0,0,1,1250,800) translate(68.88888888888889 96.88888888888889)">増加</text>
        </a>
        <a href="#s_5">
            <path d="M1230 597a5 5 0 0 1 5-5h230a5 5 0 0 1 5 5v134a5 5 0 0 1-5 5h-230a5 5 0 0 1-5-5z" stroke="#000"
                  stroke-width="2" fill="#fff7e3"/>
            <path d="M1468 577.07c.82-1.65 3.18-1.65 4 0l13.92 27.67c.75 1.5-.34 3.26-2 3.26h-27.83c-1.7 0-2.77-1.76-2.02-3.26l13.9-27.67z"
                  fill="#fdc51f"/>
            <path d="M1472 586h-4v12h4v-12zm-2.88 14c-.62 0-1.12.5-1.12 1.13v1.75c0 .62.5 1.12 1.13 1.12h1.74c.63 0 1.13-.5 1.13-1.13v-1.75c0-.62-.5-1.12-1.13-1.12h-1.74z"
                  fill="#fff"/>
            <text style="font-size: 31px;" transform="matrix(1,0,0,1,1250,592) translate(40.11111111111111 59.55555555555555)">ケータイ</text>
            <text style="font-size: 31px;" transform="matrix(1,0,0,1,1250,592) translate(55.666666666666664 96.88888888888889)">ゴリラ</text>
        </a>
        <a href="#s_6">
            <path d="M855 181a5 5 0 0 1 5-5h230a5 5 0 0 1 5 5v134a5 5 0 0 1-5 5H860a5 5 0 0 1-5-5z" stroke="#000"
                  stroke-width="2" fill="#fff7e3"/>
            <path d="M1093 161.07c.82-1.65 3.18-1.65 4 0l13.92 27.67c.75 1.5-.34 3.26-2 3.26h-27.83c-1.7 0-2.77-1.76-2.02-3.26l13.9-27.67z"
                  fill="#fdc51f"/>
            <path d="M1097 170h-4v12h4v-12zm-2.88 14c-.62 0-1.12.5-1.12 1.13v1.75c0 .62.5 1.12 1.13 1.12h1.74c.63 0 1.13-.5 1.13-1.13v-1.75c0-.62-.5-1.12-1.13-1.12h-1.74z"
                  fill="#fff"/>
            <text style="font-size: 31px;" transform="matrix(1,0,0,1,875,176) translate(54.11111111111111 59.55555555555555)">資源を</text>
            <text style="font-size: 31px;" transform="matrix(1,0,0,1,875,176) translate(24.555555555555543 96.88888888888889)">めぐる紛争</text>
        </a>
        <a href="#s_7">
            <path d="M1230 389a5 5 0 0 1 5-5h230a5 5 0 0 1 5 5v134a5 5 0 0 1-5 5h-230a5 5 0 0 1-5-5z" stroke="#000"
                  stroke-width="2" fill="#fff7e3"/>
            <path d="M1468 369.07c.82-1.65 3.18-1.65 4 0l13.92 27.67c.75 1.5-.34 3.26-2 3.26h-27.83c-1.7 0-2.77-1.76-2.02-3.26l13.9-27.67z"
                  fill="#fdc51f"/>
            <path d="M1472 378h-4v12h4v-12zm-2.88 14c-.62 0-1.12.5-1.12 1.13v1.75c0 .62.5 1.12 1.13 1.12h1.74c.63 0 1.13-.5 1.13-1.13v-1.75c0-.62-.5-1.12-1.13-1.12h-1.74z"
                  fill="#fff"/>
            <text style="font-size: 31px;" transform="matrix(1,0,0,1,1250,384) translate(54.11111111111111 59.55555555555555)">鉱山の</text>
            <text style="font-size: 31px;" transform="matrix(1,0,0,1,1250,384) translate(23 96.88888888888889)">悲惨な現状</text>
        </a>
        <path d="M975 590.03v-60.06" stroke="#000" stroke-width="2" fill="none"/>
        <path d="M976 591.03h-2V590h2M976 530h-2v-1.03h2"/>
        <path d="M975 737.97v60.06" stroke="#000" stroke-width="2" fill="none"/>
        <path d="M976 738h-2v-1.03h2M976 799.03h-2V798h2"/>
        <path d="M853.03 664H721.97" stroke="#000" stroke-width="2" fill="none"/>
        <path d="M854.03 665H853v-2h1.03M722 665h-1.03v-2H722"/>
        <path d="M1096.97 456.04l.32.02.65.06.65.1.65.13.66.15.67.18.67.22.68.25.7.3.7.33.73.38.75.43.77.5.8.55.86.64.88.73.95.84 1 .97 1.05 1.13 1.13 1.3 1.23 1.56 1.33 1.84 1.46 2.2 1.6 2.68 1.82 3.3 2.05 4.13 2.35 5.3 2.74 6.94 3.28 9.45 4.05 13.5 5.3 20.77 7.85 37.42 38.25 216.7 5.3 20.77 4.05 13.5 3.28 9.45 2.74 6.95 2.35 5.3 2.05 4.12 1.8 3.3 1.62 2.67 1.47 2.2 1.34 1.85 1.23 1.55.56.65"
              stroke="#000" stroke-width="2" fill="none"/>
        <path d="M1097.02 455.02l-.04 2-1-.02v-2"/>
        <path d="M1226.2 870.44l-14.74-2.8 4.47-8.13z" stroke="#000" stroke-width="2"/>
        <path d="M1228.03 872h-113.56" stroke="#000" stroke-width="2" fill="none"/>
        <path d="M1229.03 873H1228v-2h1.03"/>
        <path d="M1099.2 872l14.27-4.64v9.28z" stroke="#000" stroke-width="2"/>
        <path d="M1167 208h62.03M1167.03 208H1166" stroke="#000" stroke-width="2" fill="none"/>
        <path d="M1230.03 209H1229v-2h1.03"/>
        <path d="M1096.97 456h131.06" stroke="#000" stroke-width="2" fill="none"/>
        <path d="M1097 457h-1.03v-2h1.03M1229.03 457H1228v-2h1.03"/>
        <path d="M1096.97 456.02h.32l1.28.1 1.27.12 1.25.2 1.23.22 1.22.3 1.22.33 1.22.4 1.22.44 1.23.52 1.25.6 1.27.65 1.3.76 1.3.84 1.38.95 1.4 1.06 1.46 1.22 1.54 1.38 1.6 1.57 1.7 1.8 1.78 2.08 1.93 2.43 2.08 2.86 2.27 3.43 2.52 4.16 2.83 5.17 3.28 6.62 3.96 8.92 5.18 13.17 9.62 28 18.42 55.4 5.2 13.16 3.95 8.92 3.28 6.62 2.83 5.17 2.52 4.16 2.27 3.43 2.08 2.86 1.93 2.43 1.8 2.08 1.68 1.8 1.6 1.57 1.53 1.38 1.45 1.2 1.4 1.07 1.37.95.2.12"
              stroke="#000" stroke-width="2" fill="none"/>
        <path d="M1097.02 455.02l-.04 2-1-.02v-2"/>
        <path d="M1225.94 663.05l-15 .22 2.73-8.86z" stroke="#000" stroke-width="2"/>
        <path d="M1350 798.03v-42.56" stroke="#000" stroke-width="2" fill="none"/>
        <path d="M1351 799.03h-2V798h2"/>
        <path d="M1350 740.2l4.64 14.27h-9.28z" stroke="#000" stroke-width="2"/>
        <a href="#s_8">
            <path d="M480 805a5 5 0 0 1 5-5h230a5 5 0 0 1 5 5v134a5 5 0 0 1-5 5H485a5 5 0 0 1-5-5z" stroke="#000"
                  stroke-width="2" fill="#ffe3e9"/>
            <text style="font-size: 31px;" transform="matrix(1,0,0,1,500,800) translate(7.444444444444443 59.55555555555555)">日本は自給率</text>
            <text style="font-size: 31px;" transform="matrix(1,0,0,1,500,800) translate(54.888888888888886 96.88888888888889)">が低い</text>
        </a>
        <path d="M600 737.97v60.06" stroke="#000" stroke-width="2" fill="none"/>
        <path d="M601 738h-2v-1.03h2M601 799.03h-2V798h2"/>
        <a href="#s_9">
            <path d="M480 389a5 5 0 0 1 5-5h230a5 5 0 0 1 5 5v134a5 5 0 0 1-5 5H485a5 5 0 0 1-5-5z" stroke="#000"
                  stroke-width="2" fill="#ffe3e9"/>
            <path d="M718 369.07c.82-1.65 3.18-1.65 4 0l13.92 27.67c.75 1.5-.34 3.26-2 3.26h-27.83c-1.7 0-2.77-1.76-2.02-3.26l13.9-27.67z"
                  fill="#fdc51f"/>
            <path d="M722 378h-4v12h4v-12zm-2.88 14c-.62 0-1.12.5-1.12 1.13v1.75c0 .62.5 1.12 1.13 1.12h1.75c.62 0 1.12-.5 1.12-1.13v-1.75c0-.62-.5-1.12-1.13-1.12h-1.75z"
                  fill="#fff"/>
            <text style="font-size: 31px;" transform="matrix(1,0,0,1,500,384) translate(54.11111111111111 59.55555555555555)">各国の</text>
            <text style="font-size: 31px;" transform="matrix(1,0,0,1,500,384) translate(38.55555555555555 96.88888888888889)">立場の差</text>
        </a>
        <path d="M600 590.03v-42.56" stroke="#000" stroke-width="2" fill="none"/>
        <path d="M601 591.03h-2V590h2"/>
        <path d="M600 532.2l4.64 14.27h-9.28z" stroke="#000" stroke-width="2"/>
        <g>
            <path d="M1230 181a5 5 0 0 1 5-5h230a5 5 0 0 1 5 5v50a5 5 0 0 1-5 5h-230a5 5 0 0 1-5-5z" stroke="#000"
                  stroke-opacity="0" stroke-width="2" fill="#fff" fill-opacity="0"/>
            <text style="font-size: 24px;" transform="matrix(1,0,0,1,1250,176) translate(51.11111111111111 34.888888888888886)">事実関係</text>
        </g>
        <g>
            <path d="M1230 241a5 5 0 0 1 5-5h230a5 5 0 0 1 5 5v50a5 5 0 0 1-5 5h-230a5 5 0 0 1-5-5z" stroke="#000"
                  stroke-opacity="0" stroke-width="2" fill="#fff" fill-opacity="0"/>
            <text style="font-size: 24px;" transform="matrix(1,0,0,1,1250,236) translate(51.11111111111111 34.888888888888886)">因果関係</text>
        </g>
        <g>
            <path d="M1230 301a5 5 0 0 1 5-5h230a5 5 0 0 1 5 5v50a5 5 0 0 1-5 5h-230a5 5 0 0 1-5-5z" stroke="#000"
                  stroke-opacity="0" stroke-width="2" fill="#fff" fill-opacity="0"/>
            <path d="M1203 311.07c.82-1.65 3.18-1.65 4 0l13.92 27.67c.75 1.5-.34 3.26-2 3.26h-27.83c-1.7 0-2.77-1.76-2.02-3.26l13.9-27.67z"
                  fill="#fdc51f"/>
            <path d="M1207 320h-4v12h4v-12zm-2.88 14c-.62 0-1.12.5-1.12 1.13v1.75c0 .62.5 1.12 1.13 1.12h1.74c.63 0 1.13-.5 1.13-1.13v-1.75c0-.62-.5-1.12-1.13-1.12h-1.74z"
                  fill="#fff"/>
            <text style="font-size: 24px;" transform="matrix(1,0,0,1,1250,296) translate(4.055555555555529 34.888888888888886)">今解決すべき問題</text>
        </g>
        <path d="M1167 266h44.53M1167.03 266H1166" stroke="#000" stroke-width="2" fill="none"/>
        <path d="M1226.8 266l-14.27 4.64v-9.28z" stroke="#000" stroke-width="2"/>
        <path d="M975 382.03v-42.56" stroke="#000" stroke-width="2" fill="none"/>
        <path d="M976 383.03h-2V382h2"/>
        <path d="M975 324.2l4.64 14.27h-9.28z" stroke="#000" stroke-width="2"/>
    </g>
</svg>