<svg width="1280" height="720" xmlns="http://www.w3.org/2000/svg" xmlns:xlink="http://www.w3.org/1999/xlink"
     overflow="hidden">
    <defs>
        <clipPath id="clip0">
            <rect x="0" y="0" width="1280" height="720"/>
        </clipPath>
        <clipPath id="clip1">
            <rect x="712" y="175" width="96" height="96"/>
        </clipPath>
        <clipPath id="clip2">
            <rect x="712" y="175" width="96" height="96"/>
        </clipPath>
        <clipPath id="clip3">
            <rect x="712" y="175" width="96" height="96"/>
        </clipPath>
        <clipPath id="clip4">
            <rect x="543" y="281" width="96" height="96"/>
        </clipPath>
        <clipPath id="clip5">
            <rect x="543" y="281" width="96" height="96"/>
        </clipPath>
        <clipPath id="clip6">
            <rect x="543" y="281" width="96" height="96"/>
        </clipPath>
        <clipPath id="clip7">
            <rect x="1012" y="543" width="96" height="96"/>
        </clipPath>
        <clipPath id="clip8">
            <rect x="1012" y="543" width="96" height="96"/>
        </clipPath>
        <clipPath id="clip9">
            <rect x="1012" y="543" width="96" height="96"/>
        </clipPath>
        <clipPath id="clip10">
            <rect x="912" y="297" width="96" height="96"/>
        </clipPath>
        <clipPath id="clip11">
            <rect x="912" y="297" width="96" height="96"/>
        </clipPath>
        <clipPath id="clip12">
            <rect x="912" y="297" width="96" height="96"/>
        </clipPath>
        <clipPath id="clip13">
            <rect x="592" y="382" width="96" height="96"/>
        </clipPath>
        <clipPath id="clip14">
            <rect x="592" y="382" width="96" height="96"/>
        </clipPath>
        <clipPath id="clip15">
            <rect x="592" y="382" width="96" height="96"/>
        </clipPath>
        <clipPath id="clip16">
            <rect x="1048" y="266" width="71" height="71"/>
        </clipPath>
        <clipPath id="clip17">
            <rect x="1048" y="266" width="71" height="71"/>
        </clipPath>
        <clipPath id="clip18">
            <rect x="1048" y="266" width="71" height="71"/>
        </clipPath>
        <clipPath id="clip19">
            <rect x="212" y="281" width="67" height="67"/>
        </clipPath>
        <clipPath id="clip20">
            <rect x="212" y="281" width="67" height="67"/>
        </clipPath>
        <clipPath id="clip21">
            <rect x="212" y="281" width="67" height="67"/>
        </clipPath>
    </defs>
    <g clip-path="url(#clip0)">
        <rect x="0" y="0" width="1280" height="720" fill="#FFFFFF"/>
        <path d="M124.5 135.834C124.5 108.588 146.588 86.5001 173.834 86.5001L1083.17 86.5001C1110.41 86.5001 1132.5 108.588 1132.5 135.834L1132.5 333.166C1132.5 360.412 1110.41 382.5 1083.17 382.5L173.834 382.5C146.588 382.5 124.5 360.412 124.5 333.166Z"
              stroke="#4472C4" stroke-width="1.33333" stroke-miterlimit="8" fill="none" fill-rule="evenodd"/>
        <rect x="407.5" y="26.5001" width="464" height="138" stroke="#000000" stroke-width="1.33333"
              stroke-miterlimit="8" fill="#FFFFFF"/>
        <text font-weight="400" font-size="24"
              transform="translate(519.349 103)">金属資源の現状と課題
        </text>
        <a href="#s_0">
            <path d="M197.5 241C197.5 207.035 251.002 179.5 317 179.5 382.998 179.5 436.5 207.035 436.5 241 436.5 274.966 382.998 302.5 317 302.5 251.002 302.5 197.5 274.966 197.5 241Z"
                  stroke="#000000" stroke-width="1.33333" stroke-miterlimit="8" fill="#FFFFFF" fill-rule="evenodd"/>
            <text font-weight="400" font-size="24"
                  transform="translate(268.514 234)">金属製品
                <tspan font-size="24" x="-24" y="29">生産量の増加</tspan>
            </text>
        </a>
        <a href="#s_2">
            <path d="M530.5 241C530.5 207.035 583.778 179.5 649.5 179.5 715.222 179.5 768.5 207.035 768.5 241 768.5 274.966 715.222 302.5 649.5 302.5 583.778 302.5 530.5 274.966 530.5 241Z"
                  stroke="#000000" stroke-width="1.33333" stroke-miterlimit="8" fill="#FFFFFF" fill-rule="evenodd"/>
            <text font-weight="400" font-size="24"
                  transform="translate(577.266 234)">最新技術に欠
                <tspan font-size="24" x="24" y="29">かせない</tspan>
            </text>
        </a>
        <a href="#s_3">
            <path d="M360.5 302.5C360.5 268.811 413.778 241.5 479.5 241.5 545.222 241.5 598.5 268.811 598.5 302.5 598.5 336.189 545.222 363.5 479.5 363.5 413.778 363.5 360.5 336.189 360.5 302.5Z"
                  stroke="#000000" stroke-width="1.33333" stroke-miterlimit="8" fill="#FFFFFF" fill-rule="evenodd"/>
            <text font-weight="400" font-size="24"
                  transform="translate(418.881 295)">金属資源の
                <tspan font-size="24" x="36" y="29">枯渇</tspan>
            </text>
        </a>
        <a href="#s_6">
            <path d="M621.5 518.5C621.5 484.811 674.778 457.5 740.5 457.5 806.222 457.5 859.5 484.811 859.5 518.5 859.5 552.189 806.222 579.5 740.5 579.5 674.778 579.5 621.5 552.189 621.5 518.5Z"
                  stroke="#000000" stroke-width="1.33333" stroke-miterlimit="8" fill="#FFFFFF" fill-rule="evenodd"/>
            <text font-weight="400" font-size="24"
                  transform="translate(667.79 511)">資源をめぐる
                <tspan font-size="24" x="48" y="29">紛争</tspan>
            </text>
        </a>
        <a href="#s_9">
            <path d="M407.5 518.5C407.5 484.811 460.778 457.5 526.5 457.5 592.222 457.5 645.5 484.811 645.5 518.5 645.5 552.189 592.222 579.5 526.5 579.5 460.778 579.5 407.5 552.189 407.5 518.5Z"
                  stroke="#000000" stroke-width="1.33333" stroke-miterlimit="8" fill="#FFFFFF" fill-rule="evenodd"/>
            <text font-weight="400" font-size="24"
                  transform="translate(490.321 511)">各国の
                <tspan font-size="24" x="-12" y="29">立場の差</tspan>
            </text>
        </a>
        <a href="#s_5">
            <path d="M725.5 575.167C725.5 568.723 730.723 563.5 737.167 563.5L1036.83 563.5C1043.28 563.5 1048.5 568.723 1048.5 575.167L1048.5 621.833C1048.5 628.277 1043.28 633.5 1036.83 633.5L737.167 633.5C730.723 633.5 725.5 628.277 725.5 621.833Z"
                  stroke="#000000" stroke-width="1.33333" stroke-miterlimit="8" fill="#FFFFFF" fill-rule="evenodd"/>
            <text font-weight="400" font-size="24"
                  transform="translate(778.652 606)">ケータイゴリラ問題
            </text>
        </a>
        <a href="#s_8">
            <path d="M725.5 645C725.5 638.649 730.649 633.5 737 633.5L1037 633.5C1043.35 633.5 1048.5 638.649 1048.5 645L1048.5 691C1048.5 697.351 1043.35 702.5 1037 702.5L737 702.5C730.649 702.5 725.5 697.351 725.5 691Z"
                  stroke="#000000" stroke-width="1.33333" stroke-miterlimit="8" fill="#FFFFFF" fill-rule="evenodd"/>
            <text font-weight="400" font-size="24"
                  transform="translate(778.652 675)">日本は自給率が低い
            </text>
        </a>
        <g clip-path="url(#clip1)">
            <g clip-path="url(#clip2)">
                <g clip-path="url(#clip3)">
                    <path d="M778 255 742 255 742 191 778 191 778 255ZM756 183 764 183C765.1 183 766 183.9 766 185 766 186.1 765.1 187 764 187L756 187C754.9 187 754 186.1 754 185 754 183.9 754.9 183 756 183ZM782 179 738 179C736.9 179 736 179.9 736 181L736 265C736 266.1 736.9 267 738 267L782 267C783.1 267 784 266.1 784 265L784 181C784 179.9 783.1 179 782 179Z"/>
                </g>
            </g>
        </g>
        <g clip-path="url(#clip4)">
            <g clip-path="url(#clip5)">
                <g clip-path="url(#clip6)">
                    <path d="M553 315 560 315 560 319 553 319Z"/>
                    <path d="M553 307 560 307 560 311 553 311Z"/>
                    <path d="M553 323 560 323 560 327 553 327Z"/>
                    <path d="M553 347 560 347 560 351 553 351Z"/>
                    <path d="M553 339 560 339 560 343 553 343Z"/>
                    <path d="M553 331 560 331 560 335 553 335Z"/>
                    <path d="M622 339 629 339 629 343 622 343Z"/>
                    <path d="M622 347 629 347 629 351 622 351Z"/>
                    <path d="M622 331 629 331 629 335 622 335Z"/>
                    <path d="M622 307 629 307 629 311 622 311Z"/>
                    <path d="M622 323 629 323 629 327 622 327Z"/>
                    <path d="M622 315 629 315 629 319 622 319Z"/>
                    <path d="M593 291 597 291 597 298 593 298Z"/>
                    <path d="M609 291 613 291 613 298 609 298Z"/>
                    <path d="M601 291 605 291 605 298 601 298Z"/>
                    <path d="M585 291 589 291 589 298 585 298Z"/>
                    <path d="M569 291 573 291 573 298 569 298Z"/>
                    <path d="M577 291 581 291 581 298 577 298Z"/>
                    <path d="M577 360 581 360 581 367 577 367Z"/>
                    <path d="M569 360 573 360 573 367 569 367Z"/>
                    <path d="M585 360 589 360 589 367 585 367Z"/>
                    <path d="M593 360 597 360 597 367 593 367Z"/>
                    <path d="M601 360 605 360 605 367 601 367Z"/>
                    <path d="M609 360 613 360 613 367 609 367Z"/>
                    <path d="M578 316 604 316 604 342 578 342Z"/>
                    <path d="M614 302 568 302C565.791 302 564 303.791 564 306L564 352C564 354.209 565.791 356 568 356L614 356C616.209 356 618 354.209 618 352L618 306C618 303.791 616.209 302 614 302ZM608 346 574 346 574 312 608 312Z"/>
                </g>
            </g>
        </g>
        <g clip-path="url(#clip7)">
            <g clip-path="url(#clip8)">
                <g clip-path="url(#clip9)">
                    <path d="M1096.68 577 1093.68 574 1094.6 571.39C1095.27 569.49 1094.89 567.379 1093.6 565.83L1088.24 559.32C1087.05 557.866 1085.28 557.016 1083.4 557 1078.8 557 1075 558 1073 562L1071.31 565.35C1070.91 566.577 1069.88 567.495 1068.62 567.75L1066.56 567.8C1063.16 567.867 1059.87 568.985 1057.14 571L1042.26 585.47C1041.42 586.312 1040.19 586.643 1039.04 586.34 1036.93 585.752 1034.71 585.68 1032.56 586.13 1027.17 587.24 1023 591.58 1023 597.08 1023 601.35 1025.65 605.26 1029 607.64L1029 619.92C1029 622.681 1031.24 624.92 1034 624.92 1036.76 624.92 1039 622.681 1039 619.92L1039 609 1048 609C1051.96 608.999 1055.89 608.361 1059.65 607.11L1061.97 606.11 1061.97 619.92C1061.97 622.681 1064.21 624.92 1066.97 624.92 1069.73 624.92 1071.97 622.681 1071.97 619.92L1071.97 601.42C1071.97 601.42 1071.97 601.34 1071.97 601.31L1073.97 600.11 1073.97 619.92C1073.97 622.681 1076.21 624.92 1078.97 624.92 1081.73 624.92 1083.97 622.681 1083.97 619.92L1083.97 587.51C1084.11 587.047 1084.36 586.625 1084.7 586.28L1085.34 585.64C1085.76 585.226 1086.32 584.995 1086.91 585L1094 585C1095.32 584.974 1096.43 583.991 1096.62 582.68L1097.3 580.07C1097.73 579.015 1097.49 577.804 1096.68 577Z"/>
                    <path d="M1041 611 1041 619.92C1041 622.681 1043.24 624.92 1046 624.92 1048.76 624.92 1051 622.681 1051 619.92L1051 610.92C1050 611 1049 611 1048 611Z"/>
                </g>
            </g>
        </g>
        <a href="#s_7">
            <path d="M879.5 239C879.5 205.035 933.002 177.5 999 177.5 1065 177.5 1118.5 205.035 1118.5 239 1118.5 272.966 1065 300.5 999 300.5 933.002 300.5 879.5 272.966 879.5 239Z"
                  stroke="#000000" stroke-width="1.33333" stroke-miterlimit="8" fill="#FFFFFF" fill-rule="evenodd"/>
            <text font-weight="400" font-size="24"
                  transform="translate(926.496 232)">鉱山の悲惨な
                <tspan font-size="24" x="48" y="29">現状</tspan>
            </text>
        </a>
        <a href="#s_1">
            <path d="M709.5 312C709.5 278.035 762.778 250.5 828.5 250.5 894.222 250.5 947.5 278.035 947.5 312 947.5 345.966 894.222 373.5 828.5 373.5 762.778 373.5 709.5 345.966 709.5 312Z"
                  stroke="#000000" stroke-width="1.33333" stroke-miterlimit="8" fill="#FFFFFF" fill-rule="evenodd"/>
            <text font-weight="400" font-size="24"
                  transform="translate(768.11 319)">資源の偏在
            </text>
        </a>
        <g clip-path="url(#clip10)">
            <g clip-path="url(#clip11)">
                <g clip-path="url(#clip12)">
                    <path d="M980 327.2C977.6 327.2 975.6 325.2 975.7 322.7 975.7 320.3 977.7 318.3 980.1 318.3 982.5 318.3 984.5 320.3 984.5 322.7 984.5 323.9 984 325 983.2 325.8 982.3 326.7 981.2 327.2 980 327.2ZM975.7 313.3C973.5 314.1 971.8 315.8 970.7 317.8 969.3 320.5 969.1 323.6 970.2 326.4L975 336.8 978.2 343.4C978.5 344.1 979.2 344.5 980 344.5 980.8 344.5 981.5 344.1 981.8 343.4L985 336.8 989.8 326.5C990.3 325.3 990.5 324 990.5 322.7 990.5 315.7 983.3 310.4 975.7 313.3Z"/>
                    <path d="M958 369.8 942 361.8 942 329.2 958 337.2 958 369.8ZM938 361.8 926 367.8 926 335.2 938 329.2 938 361.8ZM993.4 328.2 993.4 328.2 990.9 333.6 994 335.2 994 367.8 982 361.8 982 348.5 978 348.5 978 361.8 962 369.8 962 337.2 969.1 333.6 966.6 328.2 960 331.5 940 321.5 920 331.5 920 377.5 940 367.5 960 377.5 980 367.5 1000 377.5 1000 331.5 993.4 328.2Z"/>
                </g>
            </g>
        </g>
        <rect x="297" y="403" width="310" height="39" fill="#FFFFFF"/>
        <text font-weight="700" font-size="24"
              transform="translate(306.747 430)">特にレアメタル不足が顕著
        </text>
        <path d="M306.747 431.942 378.747 431.942 450.747 431.942 522.747 431.942 594.747 431.942 594.747 432.942 522.747 432.942 450.747 432.942 378.747 432.942 306.747 432.942Z"
              fill-rule="evenodd"/>
        <g clip-path="url(#clip13)">
            <g clip-path="url(#clip14)">
                <g clip-path="url(#clip15)">
                    <path d="M640 446.25 668 425.25 668 412.75 640 433.75 612 412.75 612 425.25 640 446.25Z"/>
                    <path d="M640 409.75 612 388.75 612 401.25 640 422.25 668 401.25 668 388.75 640 409.75Z"/>
                    <path d="M640 470.25 668 449.25 668 436.75 640 457.75 612 436.75 612 449.25 640 470.25Z"/>
                </g>
            </g>
        </g>
        <g clip-path="url(#clip16)">
            <g clip-path="url(#clip17)">
                <g clip-path="url(#clip18)">
                    <path d="M1051.03 298.69 1055.1 288.04C1055.25 287.596 1055.54 287.226 1055.84 286.93L1057.98 284.785 1056.88 283.602C1056.28 283.01 1056.28 281.975 1056.88 281.383L1059.17 279.091C1059.76 278.499 1060.79 278.499 1061.39 279.091L1062.57 280.2 1069.15 273.618C1069.74 273.026 1070.78 273.026 1071.37 273.618L1078.54 280.866C1079.14 281.457 1079.14 282.493 1078.54 283.084L1072.18 289.519 1109.02 324.723C1109.61 325.315 1109.61 326.35 1109.02 326.942L1104.65 331.305C1104.06 331.897 1103.03 331.897 1102.43 331.305L1067.23 294.474 1065.38 296.323C1065.01 296.693 1064.57 296.915 1064.12 297.062L1053.03 300.686C1052.44 300.834 1051.85 300.686 1051.4 300.243 1050.96 299.873 1050.81 299.207 1051.03 298.69Z"/>
                    <path d="M1095.41 287.004 1085.79 280.644C1085.42 280.348 1085.2 279.978 1085.13 279.534 1085.13 279.091 1085.28 278.647 1085.57 278.277L1092.23 271.695C1092.74 271.177 1093.63 271.103 1094.22 271.547L1105.54 279.091C1105.61 279.091 1105.69 279.165 1105.69 279.239L1105.76 279.312 1107.91 281.457 1108.05 281.605 1108.13 281.679 1108.13 281.753 1115.75 292.847C1116.19 293.439 1116.12 294.326 1115.6 294.844L1108.94 301.426C1108.65 301.722 1108.13 301.944 1107.68 301.87 1107.24 301.796 1106.8 301.574 1106.5 301.204L1100.29 291.885 1090.23 302.388 1084.76 297.136 1095.41 287.004Z"/>
                    <path d="M1062.57 331.305C1061.98 331.897 1060.94 331.897 1060.35 331.305L1055.91 326.868C1055.32 326.276 1055.32 325.241 1055.91 324.649L1074.62 306.825 1080.32 312.742 1062.57 331.305Z"/>
                </g>
            </g>
        </g>
        <g clip-path="url(#clip19)">
            <g clip-path="url(#clip20)">
                <g clip-path="url(#clip21)">
                    <path d="M234.333 324.271C234.333 327.354 231.834 329.854 228.75 329.854 225.666 329.854 223.167 327.354 223.167 324.271 223.167 321.187 225.666 318.688 228.75 318.688 231.834 318.688 234.333 321.187 234.333 324.271Z"/>
                    <path d="M267.833 324.271C267.833 327.354 265.334 329.854 262.25 329.854 259.166 329.854 256.667 327.354 256.667 324.271 256.667 321.187 259.166 318.688 262.25 318.688 265.334 318.688 267.833 321.187 267.833 324.271Z"/>
                    <path d="M239.219 310.312 239.219 301.938 248.78 301.938C249.548 301.938 250.246 302.217 250.734 302.775L258.272 310.312 239.219 310.312ZM236.427 310.312 218.77 310.312 226.307 302.775C226.866 302.217 227.564 301.938 228.261 301.938L236.427 301.938 236.427 310.312ZM269.229 310.312 263.436 310.312C262.669 310.312 261.971 310.033 261.482 309.475L252.689 300.751C251.642 299.704 250.246 299.146 248.71 299.146L228.261 299.146C226.796 299.146 225.33 299.704 224.283 300.751L215.629 309.475C215.071 310.033 214.792 310.731 214.792 311.499L214.792 318.688C214.792 321.758 217.304 324.271 220.375 324.271L221.073 324.271C221.073 320.014 224.493 316.594 228.75 316.594 233.007 316.594 236.427 320.014 236.427 324.271L254.573 324.271C254.573 320.014 257.993 316.594 262.25 316.594 266.507 316.594 269.927 320.014 269.927 324.271L273.417 324.271C274.952 324.271 276.208 323.015 276.208 321.479L276.208 317.292C276.208 313.453 273.068 310.312 269.229 310.312Z"/>
                </g>
            </g>
        </g>
    </g>
</svg>