<svg xmlns="http://www.w3.org/2000/svg" xmlns:xlink="http://www.w3.org/1999/xlink" xmlns:lucid="lucid" id="main" width="1200" height="700" viewBox="250, 250, 1350, 850">
    <g transform="translate(0 0)" lucid:page-tab-id="vtQroJR_ifnU">
        <path d="M1248 293a5 5 0 0 1 5-5h310a5 5 0 0 1 5 5v110a5 5 0 0 1-5 5h-310a5 5 0 0 1-5-5z" stroke="#000"
              stroke-width="2" fill-opacity="0"/>
        <a href="#s_0">
        <path d="M663 501.06a5 5 0 0 1 5-5h230a5 5 0 0 1 5 5v134a5 5 0 0 1-5 5H668a5 5 0 0 1-5-5z" stroke="#000"
              stroke-width="2" fill="#e3f7ff"/>
            <text style="font-size: 31px;" transform="matrix(1,0,0,1,683,496.05999999999995) translate(23 59.55555555555555)">都市鉱山の</text>
            <text style="font-size: 31px;" transform="matrix(1,0,0,1,683,496.05999999999995) translate(68.88888888888889 96.88888888888889)">課題</text>
        </a>
        <a href="#s_1">
        <path d="M288 501.06a5 5 0 0 1 5-5h230a5 5 0 0 1 5 5v134a5 5 0 0 1-5 5H293a5 5 0 0 1-5-5z" stroke="#000"
              stroke-width="2" fill="#ffe3e9"/>
            <text style="font-size: 31px;" transform="matrix(1,0,0,1,308,496.05999999999995) translate(8.222222222222229 78.22222222222223)">回収率の低さ</text>
        </a>
        <a href="#s_2">
        <path d="M663 709.12a5 5 0 0 1 5-5h230a5 5 0 0 1 5 5v134a5 5 0 0 1-5 5H668a5 5 0 0 1-5-5z" stroke="#000"
              stroke-width="2" fill="#f4e3ff"/>
            <text style="font-size: 31px;" transform="matrix(1,0,0,1,683,704.1199999999999) translate(23.77777777777777 78.22222222222223)">品位の低さ</text>
        </a>
        <a href="#s_3">
        <path d="M1038 501.06a5 5 0 0 1 5-5h230a5 5 0 0 1 5 5v134a5 5 0 0 1-5 5h-230a5 5 0 0 1-5-5z" stroke="#000"
              stroke-width="2" fill="#fff7e3"/>s
            <text style="font-size: 31px;" transform="matrix(1,0,0,1,1058,496.05999999999995) translate(7.444444444444443 78.22222222222223)">廃棄物の発生</text>
        </a>
        <a href="#s_4">
        <path d="M663 293a5 5 0 0 1 5-5h230a5 5 0 0 1 5 5v134a5 5 0 0 1-5 5H668a5 5 0 0 1-5-5z" stroke="#000"
              stroke-width="2" fill="#ebffe3"/>
            <text style="font-size: 31px;" transform="matrix(1,0,0,1,683,288) translate(24.555555555555543 78.22222222222223)">コスト問題</text>
        </a>
        <path d="M408.02 642.03l.1 4.8.34 5.46.54 5.15.73 4.9.9 4.66 1.03 4.48 1.2 4.28 1.34 4.13 1.5 4 1.62 3.86 1.77 3.77 1.92 3.7 2.08 3.6 2.24 3.53 2.43 3.5 2.6 3.43 2.83 3.4 3.05 3.4 3.3 3.35 3.57 3.36 3.88 3.36 4.24 3.35 4.63 3.38 5.08 3.37 5.6 3.4 6.22 3.4 6.9 3.43 7.74 3.44 8.73 3.45 9.88 3.44 11.3 3.4 13.04 3.35 15.16 3.2 17.85 3.02 21.3 2.68 25.86 2.15 32.17 1.32h.86"
              stroke="#000" stroke-width="2" fill="none"/>
        <path d="M409.02 642.04l-2 .04-.02-1.05h2"/>
        <path d="M658.8 776.1l-14.32 4.48.1-9.27z" stroke="#000" stroke-width="2"/>
        <path d="M1157.98 494.1l-.1-4.8-.34-5.47-.54-5.16-.73-4.9-.9-4.66-1.03-4.46-1.2-4.28-1.34-4.13-1.5-4-1.62-3.87-1.77-3.77-1.92-3.7-2.08-3.6-2.24-3.54-2.43-3.5-2.6-3.43-2.83-3.4-3.05-3.4-3.3-3.36-3.57-3.36-3.88-3.34-4.24-3.35-4.63-3.36-5.08-3.37-5.6-3.4-6.22-3.4-6.9-3.43-7.74-3.44-8.73-3.45-9.88-3.44-11.3-3.4-13.04-3.33-15.16-3.2-17.85-3.02-21.3-2.68-25.86-2.15-32.17-1.32h-.86"
              stroke="#000" stroke-width="2" fill="none"/>
        <path d="M1159 495.1h-2l-.02-1.02 2-.04"/>
        <path d="M907.2 360.03l14.32-4.5-.1 9.28z" stroke="#000" stroke-width="2"/>
        <path d="M783 642.03v60.12" stroke="#000" stroke-width="2" fill="none"/>
        <path d="M784 642.06h-2v-1.03h2M784 703.15h-2v-1.02h2"/>
        <path d="M661.03 568.06H529.97" stroke="#000" stroke-width="2" fill="none"/>
        <path d="M662.03 569.06H661v-2h1.03M530 569.06h-1.03v-2H530"/>
        <path d="M783 494.1v-60.13" stroke="#000" stroke-width="2" fill="none"/>
        <path d="M784 495.1h-2v-1.04h2M784 434h-2v-1.03h2"/>
        <path d="M904.97 568.06h131.06" stroke="#000" stroke-width="2" fill="none"/>
        <path d="M905 569.06h-1.03v-2H905M1037.03 569.06H1036v-2h1.03"/>
        <a href="#s_5">
            <path d="M1038 709.12a5 5 0 0 1 5-5h230a5 5 0 0 1 5 5v134a5 5 0 0 1-5 5h-230a5 5 0 0 1-5-5z" stroke="#000"
                  stroke-width="2" fill="#fff7e3"/>
            <text style="font-size: 31px;" transform="matrix(1,0,0,1,1058,704.1199999999999) translate(23 59.55555555555555)">有害物質の</text>
            <text style="font-size: 31px;" transform="matrix(1,0,0,1,1058,704.1199999999999) translate(68.88888888888889 96.88888888888889)">発生</text>
        </a>
        <path d="M1158 702.15v-60.12" stroke="#000" stroke-width="2" fill="none"/>
        <path d="M1159 703.15h-2v-1.03h2M1159 642.05h-2v-1.02h2"/>
        <a href="#s_6">
            <path d="M1344 501.06a5 5 0 0 1 5-5h230a5 5 0 0 1 5 5v134a5 5 0 0 1-5 5h-230a5 5 0 0 1 -5-5 v-10 l-50,100 l50,-150 z" stroke="#000"
                  stroke-width="2" fill="#fff7e3"/>
            <text style="font-size: 31px;" transform="matrix(1,0,0,1,1364,496.05999999999995) translate(24.555555555555543 78.22222222222223)">セベソ事件</text>
        </a>
        <a href="#s_7">
            <path d="M1344 709.12a5 5 0 0 1 5-5h230a5 5 0 0 1 5 5v134a5 5 0 0 1-5 5h-230a5 5 0 0 1-5-5 v-47 l-50,-20 l50,-20 z" stroke="#000"
                  stroke-width="2" fill="#fff7e3"/>
            <text style="font-size: 31px;" transform="matrix(1,0,0,1,1364,704.1199999999999) translate(39.33333333333333 78.22222222222223)">ココ事件</text>
        </a>
        <a href="#s_8">
            <path d="M1344 917a5 5 0 0 1 5-5h230a5 5 0 0 1 5 5v134a5 5 0 0 1-5 5h-230a5 5 0 0 1 -5-5 v-74 l-50,-150 l50,100 z" stroke="#000"
                  stroke-width="2" fill="#fff7e3"/>
            <text style="font-size: 31px;" transform="matrix(1,0,0,1,1364,912) translate(37.77777777777777 78.22222222222223)">豊島事件</text>
        </a>
        <path d="M1265 320h62.03M1265.03 320H1264" stroke="#000" stroke-width="2" fill="none"/>
        <path d="M1328.03 321H1327v-2h1.03"/>
        <g>
            <path d="M1328 293a5 5 0 0 1 5-5h230a5 5 0 0 1 5 5v50a5 5 0 0 1-5 5h-230a5 5 0 0 1-5-5z" stroke="#000"
                  stroke-opacity="0" stroke-width="2" fill="#fff" fill-opacity="0"/>
            <text style="font-size: 18px;" transform="matrix(1,0,0,1,1348,288) translate(64 33.6)">事実関係</text>
        </g>
        <g>
            <path d="M1328 353a5 5 0 0 1 5-5h230a5 5 0 0 1 5 5v50a5 5 0 0 1-5 5h-230a5 5 0 0 1-5-5z" stroke="#000"
                  stroke-opacity="0" stroke-width="2" fill="#fff" fill-opacity="0"/>
            <text style="font-size: 18px;" transform="matrix(1,0,0,1,1348,348) translate(64 33.6)">因果関係</text>
        </g>
        <path d="M1265 378h44.53M1265.03 378H1264" stroke="#000" stroke-width="2" fill="none"/>
        <path d="M1324.8 378l-14.27 4.64v-9.28z" stroke="#000" stroke-width="2"/>
    </g>
</svg>