<svg xmlns="http://www.w3.org/2000/svg" xmlns:xlink="http://www.w3.org/1999/xlink" id="main" xmlns:lucid="lucid" width="1300" height="600" viewBox="100,390,1400,600">
    <g transform="translate(0 0)" lucid:page-tab-id="henNOGDDcFUnn">
        <path d="M105 437a5 5 0 0 1 5-5h310a5 5 0 0 1 5 5v50a5 5 0 0 1-5 5H110a5 5 0 0 1-5-5z" stroke="#000"
              stroke-width="2" fill-opacity="0"/>
        <a href="#s_5">
            <path d="M855 618.5a5 5 0 0 1 5-5h230a5 5 0 0 1 5 5v134a5 5 0 0 1-5 5H860a5 5 0 0 1-5-5z" stroke="#000"
                  stroke-width="2" fill="#e3f7ff"/>

            <text style="font-size: 31px;" transform="matrix(1,0,0,1,875,613.5) translate(11.333333333333343 59.55555555555555)">リサイクルの</text>
            <text style="font-size: 31px;" transform="matrix(1,0,0,1,875,613.5) translate(68.88888888888889 96.88888888888889)">促進</text>
        </a>
        <a href="#s_9">
        <path d="M855 826.44a5 5 0 0 1 5-5h230a5 5 0 0 1 5 5v134a5 5 0 0 1-5 5H860a5 5 0 0 1-5-5z" stroke="#000"
              stroke-width="2" fill="#f4e3ff"/>
            <text style="font-size: 31px;" transform="matrix(1,0,0,1,875,821.44) translate(24.555555555555543 40.888888888888886)">配達による</text>
            <text style="font-size: 31px;" transform="matrix(1,0,0,1,875,821.44) translate(26.111111111111114 78.22222222222223)">リサイクル</text>
            <text style="font-size: 31px;" transform="matrix(1,0,0,1,875,821.44) translate(40.11111111111111 115.55555555555557)">サービス</text>
        </a>
        <a href="#s_6">
        <path d="M1230 618.5a5 5 0 0 1 5-5h230a5 5 0 0 1 5 5v134a5 5 0 0 1-5 5h-230a5 5 0 0 1-5-5z" stroke="#000"
              stroke-width="2" fill="#fff7e3"/>
            <text style="font-size: 31px;" transform="matrix(1,0,0,1,1250,613.5) translate(40.888888888888886 40.888888888888886)">シングル</text>
            <text style="font-size: 31px;" transform="matrix(1,0,0,1,1250,613.5) translate(9.777777777777771 78.22222222222223)">ストリーム方</text>
            <text style="font-size: 31px;" transform="matrix(1,0,0,1,1250,613.5) translate(84.44444444444444 115.55555555555557)">式</text>
        </a>
        <a href="#s_8">
        <path d="M480 826.44a5 5 0 0 1 5-5h230a5 5 0 0 1 5 5v134a5 5 0 0 1-5 5H485a5 5 0 0 1-5-5z" stroke="#000"
              stroke-width="2" fill="#e3e5ff"/>
            <text style="font-size: 31px;" transform="matrix(1,0,0,1,500,821.44) translate(40.11111111111111 59.55555555555555)">スケール</text>
            <text style="font-size: 31px;" transform="matrix(1,0,0,1,500,821.44) translate(40.888888888888886 96.88888888888889)">メリット</text>
        </a>
        <a href="#s_0">
        <path d="M480 410.56a5 5 0 0 1 5-5h230a5 5 0 0 1 5 5v134a5 5 0 0 1-5 5H485a5 5 0 0 1-5-5z" stroke="#000"
              stroke-width="2" fill="#ffd4fa"/>
            <text style="font-size: 31px;" transform="matrix(1,0,0,1,500,405.55999999999995) translate(8.222222222222229 59.55555555555555)">前払い制度の</text>
            <text style="font-size: 31px;" transform="matrix(1,0,0,1,500,405.55999999999995) translate(68.88888888888889 96.88888888888889)">導入</text>
        </a>
        <a href="#s_1">
        <path d="M855 410.56a5 5 0 0 1 5-5h230a5 5 0 0 1 5 5v134a5 5 0 0 1-5 5H860a5 5 0 0 1-5-5z" stroke="#000"
              stroke-width="2" fill="#ebffe3"/>
            <text style="font-size: 31px;" transform="matrix(1,0,0,1,875,405.55999999999995) translate(2.4320987654321016 78.22222222222223)">ORDEEの制定</text>
        </a>
        <a href="#s_2">
        <path d="M1230 410.56a5 5 0 0 1 5-5h230a5 5 0 0 1 5 5v134a5 5 0 0 1-5 5h-230a5 5 0 0 1-5-5z" stroke="#000"
              stroke-width="2" fill="#e3e5ff"/>
            <text style="font-size: 31px;" transform="matrix(1,0,0,1,1250,405.55999999999995) translate(9.777777777777771 59.55555555555555)">回収ボックス</text>
            <text style="font-size: 31px;" transform="matrix(1,0,0,1,1250,405.55999999999995) translate(54.11111111111111 96.88888888888889)">の設置</text>
        </a>
        <a href="#s_10">
            <path d="M1230 826.44a5 5 0 0 1 5-5h230a5 5 0 0 1 5 5v134a5 5 0 0 1-5 5h-230a5 5 0 0 1-5-5z" stroke="#000"
                  stroke-width="2" fill="#ffd4fa"/>
            <text style="font-size: 31px;" transform="matrix(1,0,0,1,1250,821.44) translate(40.888888888888886 40.888888888888886)">みんなの</text>
            <text style="font-size: 31px;" transform="matrix(1,0,0,1,1250,821.44) translate(55.666666666666664 78.22222222222223)">メダル</text>
            <text style="font-size: 31px;" transform="matrix(1,0,0,1,1250,821.44) translate(11.333333333333343 115.55555555555557)">プロジェクト</text>
        </a>
        <a href="#s_4">
            <path d="M480 618.5a5 5 0 0 1 5-5h230a5 5 0 0 1 5 5v134a5 5 0 0 1-5 5H485a5 5 0 0 1-5-5z" stroke="#000"
                  stroke-width="2" fill="#ffe3e9"/>
            <text style="font-size: 31px;" transform="matrix(1,0,0,1,500,613.5) translate(7.444444444444429 59.55555555555555)">電子廃棄物の</text>
            <text style="font-size: 31px;" transform="matrix(1,0,0,1,500,613.5) translate(68.88888888888889 96.88888888888889)">削減</text>
        </a>
        <a href="#s_3">
            <path d="M105 618.5a5 5 0 0 1 5-5h230a5 5 0 0 1 5 5v134a5 5 0 0 1-5 5H110a5 5 0 0 1-5-5z" stroke="#000"
                  stroke-width="2" fill="#ffe3e9"/>
            <text style="font-size: 31px;" transform="matrix(1,0,0,1,125,613.5) translate(25.33333333333333 59.55555555555555)">リユースの</text>
            <text style="font-size: 31px;" transform="matrix(1,0,0,1,125,613.5) translate(68.88888888888889 96.88888888888889)">促進</text>
        </a>
        <a href="#s_7">
            <path d="M105 826.44a5 5 0 0 1 5-5h230a5 5 0 0 1 5 5v134a5 5 0 0 1-5 5H110a5 5 0 0 1-5-5z" stroke="#000"
                  stroke-width="2" fill="#ffe3e9"/>
            <text style="font-size: 31px;" transform="matrix(1,0,0,1,125,821.44) translate(11.333333333333343 59.55555555555555)">オンラインの</text>
            <text style="font-size: 31px;" transform="matrix(1,0,0,1,125,821.44) translate(9 96.88888888888889)">修理サービス</text>
        </a>
        <path d="M975 551.53v42.5" stroke="#000" stroke-width="2" fill="none"/>
        <path d="M976 551.56h-2v-1.03h2"/>
        <path d="M975 609.3l-4.64-14.27h9.28z" stroke="#000" stroke-width="2"/>
        <path d="M1231.24 550.45l-3.67 5.73-4.1 5.87-4.05 5.27-3.98 4.77-3.95 4.35-3.96 4-3.95 3.67-4 3.4-4.02 3.17-4.1 2.94-4.2 2.76-4.32 2.6-4.47 2.43-4.67 2.28-4.87 2.15-5.15 2-5.46 1.9-5.86 1.73-6.35 1.6-6.95 1.44-7.7 1.26-8.66 1.05-8.4.67"
              stroke="#000" stroke-width="2" fill="none"/>
        <path d="M1231.47 549.42l.8.5.4.15-.6.94-1.68-1.07.6-.93"/>
        <path d="M1099.17 618l14.1-5.1.3 9.26z" stroke="#000" stroke-width="2"/>
        <path d="M721.02 548.1l19.32 11.32 14.73 7.8 13.1 6.24 51.65 22.57 14.72 7.8 4.22 2.47" stroke="#000"
              stroke-width="2" fill="none"/>
        <path d="M721.55 547.26l-1 1.73-.98-.58.3-.33.48-.8.24-.6"/>
        <path d="M851.94 614l-14.66-3.2 4.7-8z" stroke="#000" stroke-width="2"/>
        <path d="M718.76 820.55l3.67-5.73 4.1-5.87 4.05-5.27 3.98-4.77 3.95-4.35 3.96-4 3.95-3.67 4-3.4 4.02-3.17 4.1-2.94 4.2-2.76 4.32-2.6 4.47-2.43 4.67-2.28 4.87-2.15 5.15-2 5.46-1.9 5.86-1.73 6.35-1.6 6.95-1.44 7.7-1.26 8.66-1.05 8.4-.67"
              stroke="#000" stroke-width="2" fill="none"/>
        <path d="M719.6 821.07l-.6.93-.47-.42-.8-.5-.4-.15.6-.94"/>
        <path d="M850.83 753l-14.1 5.1-.3-9.26z" stroke="#000" stroke-width="2"/>
        <path d="M721.97 685.5h113.56" stroke="#000" stroke-width="2" fill="none"/>
        <path d="M722 686.5h-1.03v-2H722"/>
        <path d="M850.8 685.5l-14.27 4.64v-9.28z" stroke="#000" stroke-width="2"/>
        <path d="M975 819.47v-42.5" stroke="#000" stroke-width="2" fill="none"/>
        <path d="M976 820.47h-2v-1.03h2"/>
        <path d="M975 761.7l4.64 14.27h-9.28z" stroke="#000" stroke-width="2"/>
        <path d="M1229 822.85l-7.42-4.75-9.1-6.4-11.7-9-35.6-28.8-6.3-4.42-5.23-3.36-4.67-2.73-4.34-2.3-4.13-1.97-4.02-1.72-3.98-1.5-3.98-1.3-4.03-1.15-4.14-.98-4.27-.84-1.67-.25"
              stroke="#000" stroke-width="2" fill="none"/>
        <path d="M1230.43 822.58l-.3.33-.48.8-.24.6-.96-.62 1.08-1.68"/>
        <path d="M1099.23 750.22l14.57-3.54-.7 9.25z" stroke="#000" stroke-width="2"/>
        <path d="M1228.03 685.5h-113.56" stroke="#000" stroke-width="2" fill="none"/>
        <path d="M1229.03 686.5H1228v-2h1.03"/>
        <path d="M1099.2 685.5l14.27-4.64v9.28z" stroke="#000" stroke-width="2"/>
        <path d="M346.97 685.5h113.56" stroke="#000" stroke-width="2" fill="none"/>
        <path d="M347 686.5h-1.03v-2H347"/>
        <path d="M475.8 685.5l-14.27 4.64v-9.28z" stroke="#000" stroke-width="2"/>
        <path d="M225 819.47v-42.5" stroke="#000" stroke-width="2" fill="none"/>
        <path d="M226 820.47h-2v-1.03h2"/>
        <path d="M225 761.7l4.64 14.27h-9.28z" stroke="#000" stroke-width="2"/>
        <path d="M461.67 691.03l-1.07.74-1.37 1.04-1.43 1.2-1.5 1.34-1.55 1.53-1.65 1.76-1.76 2.04-1.88 2.38-2.04 2.8-2.22 3.35-2.45 4.06-2.76 5.03-3.2 6.4-3.78 8.55-4.86 12.3-7.63 22.13-23.7 73.26-4.84 12.3-3.8 8.55-3.18 6.4-2.76 5.04-2.46 4.06-2.22 3.35-2.03 2.8-1.9 2.38-1.74 2.03-1.65 1.77-1.56 1.53-1.5 1.34-1.43 1.18-1.37 1.05-1.33.92-1.3.82-1.25.73-1.24.64-1.2.58-1.2.5-1.2.44-1.18.4-1.2.32-1.18.28-1.2.22-1.2.18-1.22.13-1.25.07h-.28"
              stroke="#000" stroke-width="2" fill="none"/>
        <path d="M475.95 686.48l-12.2 8.75-2.8-8.83z" stroke="#000" stroke-width="2"/>
        <path d="M347 902h-1.03v-2H347"/>
        <path d="M185 437a5 5 0 0 1 5-5h230a5 5 0 0 1 5 5v50a5 5 0 0 1-5 5H190a5 5 0 0 1-5-5z" stroke="#000"
              stroke-opacity="0" stroke-width="2" fill="#fff" fill-opacity="0"/>
        <g>
            <text style="font-size: 24px;" transform="matrix(1,0,0,1,205,432) translate(51.11111111111111 34.888888888888886)">因果関係</text>
        </g>
        <path d="M122 462h44.53M122.03 462H121" stroke="#000" stroke-width="2" fill="none"/>
        <path d="M181.8 462l-14.27 4.64v-9.28z" stroke="#000" stroke-width="2"/>

    </g>
</svg>