<?xml version="1.0" encoding="UTF-8" standalone="no" ?>
<!DOCTYPE svg PUBLIC "-//W3C//DTD SVG 1.1//EN" "http://www.w3.org/Graphics/SVG/1.1/DTD/svg11.dtd">
<svg xmlns="http://www.w3.org/2000/svg" xmlns:xlink="http://www.w3.org/1999/xlink" version="1.1" width="1400" height="800" viewBox="0 0 1400 800" xml:space="preserve">
<desc>Created with Fabric.js 4.6.0</desc>
<defs>
</defs>
<g id="main">
<g transform="matrix(0.74 0 0 0.59 78.3 202.74)" id="E_ZTMIxaNy59R7hNJ5yCU"  >
<path style="stroke: rgb(0,0,0); stroke-width: 1; stroke-dasharray: none; stroke-linecap: butt; stroke-dashoffset: 0; stroke-linejoin: miter; stroke-miterlimit: 4; fill: rgb(255,255,255); fill-rule: nonzero; opacity: 1;" vector-effect="non-scaling-stroke"  transform=" translate(0, 0)" d="M -78.01021 -21.63463 C -78.01021 -36.58636 -73.32787 -50.92571 -64.99325 -61.49818 C -56.65863 -72.07065 -45.35446 -78.0102 -33.567530000000005 -78.0102 L 33.56752 -78.0102 L 33.56752 -78.0102 C 45.35445 -78.0102 56.65862 -72.07065 64.99324 -61.49818 C 73.32786 -50.925709999999995 78.0102 -36.58636 78.0102 -21.63463 L 78.0102 21.634619999999998 L 78.0102 21.634619999999998 C 78.0102 52.76999 58.112539999999996 78.0102 33.567519999999995 78.0102 L -33.56753000000001 78.0102 L -33.56753000000001 78.0102 C -58.11254000000001 78.0102 -78.01021000000001 52.76998999999999 -78.01021000000001 21.634619999999998 z" stroke-linecap="round" />
</g>
<g transform="matrix(1 0 0 1 78.3 186.42)" style="" id="XG6s9WEMDCd9eGMX2ZGT4"  >
		<text xml:space="preserve" font-family="Open Sans" font-size="29" font-style="normal" font-weight="normal" line-height="1.16" style="stroke: none; stroke-width: 1; stroke-dasharray: none; stroke-linecap: butt; stroke-dashoffset: 0; stroke-linejoin: miter; stroke-miterlimit: 4; fill: rgb(0,0,0); fill-rule: nonzero; opacity: 1; white-space: pre;" ><tspan x="-50" y="9.11" >粉々の</tspan></text>
</g>
<g transform="matrix(1 0 0 1 120.94 224.68)" style="" id="p8b_rRk41hL8D8us92HWQ"  >
		<text xml:space="preserve" font-family="Open Sans" font-size="29" font-style="normal" font-weight="normal" line-height="1.16" style="stroke: none; stroke-width: 1; stroke-dasharray: none; stroke-linecap: butt; stroke-dashoffset: 0; stroke-linejoin: miter; stroke-miterlimit: 4; fill: rgb(0,0,0); fill-rule: nonzero; opacity: 1; white-space: pre;" ><tspan x="-75" y="9.11" >冷蔵庫</tspan></text>
</g>
<g transform="matrix(1 0 0 1 202.6 123.83)" id="TCDyIpsIKTFAKRPm5N_mJ"  >
<path style="stroke: rgb(0,0,0); stroke-width: 1; stroke-dasharray: none; stroke-linecap: butt; stroke-dashoffset: 0; stroke-linejoin: miter; stroke-miterlimit: 4; fill: rgb(49,168,247); fill-rule: nonzero; opacity: 1;" vector-effect="non-scaling-stroke"  transform=" translate(0, 0)" d="M -55.56122 67.90816 L -55.56122 -38.72449 L -44.33673 -49.948980000000006 L 25.255110000000002 -48.826530000000005 L 25.255110000000002 -67.90816000000001 L 55.56123 -37.60204000000001 L 26.377560000000003 -16.275510000000008 L 25.255110000000002 -30.86735000000001 L -28.622439999999997 -31.98980000000001 L -37.60203 -24.13266000000001 L -37.60203 67.90815999999998 z" stroke-linecap="round" />
</g>
<g transform="matrix(1 0 0 -1 201.38 312.3)" id="KChm6MpkD8q_FMcOjyrW7"  >
<path style="stroke: rgb(0,0,0); stroke-width: 1; stroke-dasharray: none; stroke-linecap: butt; stroke-dashoffset: 0; stroke-linejoin: miter; stroke-miterlimit: 4; fill: rgb(49,168,247); fill-rule: nonzero; opacity: 1;" vector-effect="non-scaling-stroke"  transform=" translate(0, 0)" d="M -55.56122 67.90816 L -55.56122 -38.72449 L -44.33673 -49.948980000000006 L 25.255110000000002 -48.826530000000005 L 25.255110000000002 -67.90816000000001 L 55.56123 -37.60204000000001 L 26.377560000000003 -16.275510000000008 L 25.255110000000002 -30.86735000000001 L -28.622439999999997 -31.98980000000001 L -37.60203 -24.13266000000001 L -37.60203 67.90815999999998 z" stroke-linecap="round" />
</g>
<g transform="matrix(1.16 0 0 0.55 337.94 86.09)" id="sxmQVHvcr8HuyBFOWxq9K"  >
<path style="stroke: rgb(0,0,0); stroke-width: 1; stroke-dasharray: none; stroke-linecap: butt; stroke-dashoffset: 0; stroke-linejoin: miter; stroke-miterlimit: 4; fill: rgb(255,226,18); fill-opacity: 0.55; fill-rule: nonzero; opacity: 1;" vector-effect="non-scaling-stroke"  transform=" translate(0, 0)" d="M -60.96278 -14.21568 C -60.96278 -40.033390000000004 -51.01303 -60.96278 -38.73939 -60.96278 L 38.73939 -60.96278 L 38.73939 -60.96278 C 51.01303 -60.96278 60.962779999999995 -40.03339 60.962779999999995 -14.215679999999999 L 60.962779999999995 14.21567 L 60.962779999999995 14.21567 C 60.962779999999995 40.03338 51.01302999999999 60.962770000000006 38.73939 60.962770000000006 L -38.73939 60.962770000000006 L -38.73939 60.962770000000006 C -51.01303 60.962770000000006 -60.962779999999995 40.03338000000001 -60.962779999999995 14.215670000000003 z" stroke-linecap="round" />
</g>
<g transform="matrix(0.87 0 0 0.87 353.58 87.87)" style="filter: url(#SVGID_0);" id="HrqiHDS7gbibMPGYvKHoE"  >
<filter id="SVGID_0" y="-22%" height="144%" x="-21%" width="142%" >
	<feGaussianBlur in="SourceAlpha" stdDeviation="0"></feGaussianBlur>
	<feOffset dx="1" dy="1" result="oBlur" ></feOffset>
	<feFlood flood-color="rgb(255,255,255)" flood-opacity="1"/>
	<feComposite in2="oBlur" operator="in" />
	<feMerge>
		<feMergeNode></feMergeNode>
		<feMergeNode in="SourceGraphic"></feMergeNode>
	</feMerge>
</filter>
		<text xml:space="preserve" font-family="Open Sans" font-size="38" font-style="normal" font-weight="normal" line-height="1.16" style="stroke: none; stroke-width: 1; stroke-dasharray: none; stroke-linecap: butt; stroke-dashoffset: 0; stroke-linejoin: miter; stroke-miterlimit: 4; fill: rgb(0,0,0); fill-rule: nonzero; opacity: 1; white-space: pre;" ><tspan x="-92.36" y="11.94" >ウレタン</tspan></text>
</g>
<g transform="matrix(0.59 0 0 0.55 338.19 260.73)" id="YcMdX3if0pCTiw8SyzUAk"  >
<path style="stroke: rgb(0,0,0); stroke-width: 1; stroke-dasharray: none; stroke-linecap: butt; stroke-dashoffset: 0; stroke-linejoin: miter; stroke-miterlimit: 4; fill: rgb(0,0,0); fill-opacity: 0.48; fill-rule: nonzero; opacity: 1;" vector-effect="non-scaling-stroke"  transform=" translate(0, 0)" d="M -60.96278 -13.93675 C -60.96278 -39.90851 -41.35362000000001 -60.962779999999995 -17.164500000000004 -60.962779999999995 L 17.164499999999997 -60.962779999999995 L 17.164499999999997 -60.962779999999995 C 41.35361999999999 -60.962779999999995 60.962779999999995 -39.90850999999999 60.962779999999995 -13.936749999999996 L 60.962779999999995 13.936750000000004 L 60.962779999999995 13.936750000000004 C 60.962779999999995 39.90851000000001 41.35361999999999 60.96278 17.164499999999997 60.96278 L -17.164500000000004 60.96278 L -17.164500000000004 60.96278 C -41.35362000000001 60.96278 -60.96278 39.90851000000001 -60.96278 13.936750000000004 z" stroke-linecap="round" />
</g>
<g transform="matrix(0.87 0 0 0.87 389.38 263.73)" style="filter: url(#SVGID_4);" id="AZDNyz6pC11yG_4tN88NV"  >
<filter id="SVGID_4" y="-22%" height="144%" x="-21%" width="142%" >
	<feGaussianBlur in="SourceAlpha" stdDeviation="0"></feGaussianBlur>
	<feOffset dx="1" dy="1" result="oBlur" ></feOffset>
	<feFlood flood-color="rgb(255,255,255)" flood-opacity="1"/>
	<feComposite in2="oBlur" operator="in" />
	<feMerge>
		<feMergeNode></feMergeNode>
		<feMergeNode in="SourceGraphic"></feMergeNode>
	</feMerge>
</filter>
		<text xml:space="preserve" font-family="Open Sans" font-size="54" font-style="normal" font-weight="normal" line-height="1.16" style="stroke: none; stroke-width: 1; stroke-dasharray: none; stroke-linecap: butt; stroke-dashoffset: 0; stroke-linejoin: miter; stroke-miterlimit: 4; fill: rgb(0,0,0); fill-rule: nonzero; opacity: 1; white-space: pre;" ><tspan x="-86" y="16.96" >鉄</tspan></text>
</g>
<g transform="matrix(0.6 0 0 0.55 336.14 328.58)" id="5IDS9xEFfihJ8-QdqolgF"  >
<path style="stroke: rgb(0,0,0); stroke-width: 1; stroke-dasharray: none; stroke-linecap: butt; stroke-dashoffset: 0; stroke-linejoin: miter; stroke-miterlimit: 4; fill: rgb(252,141,29); fill-opacity: 0.87; fill-rule: nonzero; opacity: 1;" vector-effect="non-scaling-stroke"  transform=" translate(0, 0)" d="M -60.96278 -13.93675 C -60.96278 -39.90851 -41.68745 -60.962779999999995 -17.91012 -60.962779999999995 L 17.910110000000003 -60.962779999999995 L 17.910110000000003 -60.962779999999995 C 41.68744 -60.962779999999995 60.962770000000006 -39.90850999999999 60.962770000000006 -13.936749999999996 L 60.962770000000006 13.936750000000004 L 60.962770000000006 13.936750000000004 C 60.962770000000006 39.90851000000001 41.68744000000001 60.96278 17.910110000000003 60.96278 L -17.91012 60.96278 L -17.91012 60.96278 C -41.68745 60.96278 -60.96278 39.90851000000001 -60.96278 13.936750000000004 z" stroke-linecap="round" />
</g>
<g transform="matrix(0.87 0 0 0.87 387.86 331.58)" style="filter: url(#SVGID_8);" id="W_MIsIzl4oHFZlTvJCYp1"  >
<filter id="SVGID_8" y="-22%" height="144%" x="-21%" width="142%" >
	<feGaussianBlur in="SourceAlpha" stdDeviation="0"></feGaussianBlur>
	<feOffset dx="1" dy="1" result="oBlur" ></feOffset>
	<feFlood flood-color="rgb(255,255,255)" flood-opacity="1"/>
	<feComposite in2="oBlur" operator="in" />
	<feMerge>
		<feMergeNode></feMergeNode>
		<feMergeNode in="SourceGraphic"></feMergeNode>
	</feMerge>
</filter>
		<text xml:space="preserve" font-family="Open Sans" font-size="54" font-style="normal" font-weight="normal" line-height="1.16" style="stroke: none; stroke-width: 1; stroke-dasharray: none; stroke-linecap: butt; stroke-dashoffset: 0; stroke-linejoin: miter; stroke-miterlimit: 4; fill: rgb(0,0,0); fill-rule: nonzero; opacity: 1; white-space: pre;" ><tspan x="-86" y="16.96" >銅</tspan></text>
</g>
<g transform="matrix(1.07 0 0 0.55 335.74 395.54)" id="kJ35_Fg8BxBZBGk9QtH1u"  >
<path style="stroke: rgb(0,0,0); stroke-width: 1; stroke-dasharray: none; stroke-linecap: butt; stroke-dashoffset: 0; stroke-linejoin: miter; stroke-miterlimit: 4; fill: rgb(0,0,0); fill-opacity: 0.08; fill-rule: nonzero; opacity: 1;" vector-effect="non-scaling-stroke"  transform=" translate(0, 0)" d="M -60.96278 -13.93675 C -60.96278 -39.90851 -50.16212 -60.962779999999995 -36.83882 -60.962779999999995 L 36.83883 -60.962779999999995 L 36.83883 -60.962779999999995 C 50.16212 -60.962779999999995 60.96279 -39.90850999999999 60.96279 -13.936749999999996 L 60.96279 13.936750000000004 L 60.96279 13.936750000000004 C 60.96279 39.90851000000001 50.16213 60.96278 36.83883 60.96278 L -36.83882 60.96278 L -36.83882 60.96278 C -50.16211 60.96278 -60.962779999999995 39.90851000000001 -60.962779999999995 13.936750000000004 z" stroke-linecap="round" />
</g>
<g transform="matrix(0.87 0 0 0.87 354.23 398.54)" style="filter: url(#SVGID_10);" id="KLm2Xkgle57yl3QAd3bSC"  >
<filter id="SVGID_10" y="-22%" height="144%" x="-21%" width="142%" >
	<feGaussianBlur in="SourceAlpha" stdDeviation="0"></feGaussianBlur>
	<feOffset dx="1" dy="1" result="oBlur" ></feOffset>
	<feFlood flood-color="rgb(255,255,255)" flood-opacity="1"/>
	<feComposite in2="oBlur" operator="in" />
	<feMerge>
		<feMergeNode></feMergeNode>
		<feMergeNode in="SourceGraphic"></feMergeNode>
	</feMerge>
</filter>
		<text xml:space="preserve" font-family="Open Sans" font-size="44" font-style="normal" font-weight="normal" line-height="1.16" style="stroke: none; stroke-width: 1; stroke-dasharray: none; stroke-linecap: butt; stroke-dashoffset: 0; stroke-linejoin: miter; stroke-miterlimit: 4; fill: rgb(0,0,0); fill-rule: nonzero; opacity: 1; white-space: pre;" ><tspan x="-86" y="13.82" >アルミ</tspan></text>
</g>
<g transform="matrix(1.53 0 0 0.55 337.22 464.28)" id="t5XZDC-f_XO3PkO9FBD_f"  >
<path style="stroke: rgb(0,0,0); stroke-width: 1; stroke-dasharray: none; stroke-linecap: butt; stroke-dashoffset: 0; stroke-linejoin: miter; stroke-miterlimit: 4; fill: rgb(255,255,255); fill-rule: nonzero; opacity: 1;" vector-effect="non-scaling-stroke"  transform=" translate(0, 0)" d="M -60.96278 -13.93675 C -60.96278 -39.90851 -53.39242 -60.962779999999995 -44.0539 -60.962779999999995 L 44.0539 -60.962779999999995 L 44.0539 -60.962779999999995 C 53.39242 -60.962779999999995 60.962779999999995 -39.90850999999999 60.962779999999995 -13.936749999999996 L 60.962779999999995 13.936750000000004 L 60.962779999999995 13.936750000000004 C 60.962779999999995 39.90851000000001 53.392419999999994 60.96278 44.0539 60.96278 L -44.0539 60.96278 L -44.0539 60.96278 C -53.39242 60.96278 -60.962779999999995 39.90851000000001 -60.962779999999995 13.936750000000004 z" stroke-linecap="round" />
</g>
<g transform="matrix(0.87 0 0 0.87 361.5 467.28)" style="filter: url(#SVGID_12);" id="dtnLmw0sz6nSpAvI8dxo2"  >
<filter id="SVGID_12" y="-23%" height="146%" x="-20%" width="140%" >
	<feGaussianBlur in="SourceAlpha" stdDeviation="0"></feGaussianBlur>
	<feOffset dx="1" dy="1" result="oBlur" ></feOffset>
	<feFlood flood-color="rgb(255,255,255)" flood-opacity="1"/>
	<feComposite in2="oBlur" operator="in" />
	<feMerge>
		<feMergeNode></feMergeNode>
		<feMergeNode in="SourceGraphic"></feMergeNode>
	</feMerge>
</filter>
		<text xml:space="preserve" font-family="Open Sans" font-size="35" font-style="normal" font-weight="normal" line-height="1.16" style="stroke: none; stroke-width: 1; stroke-dasharray: none; stroke-linecap: butt; stroke-dashoffset: 0; stroke-linejoin: miter; stroke-miterlimit: 4; fill: rgb(0,0,0); fill-rule: nonzero; opacity: 1; white-space: pre;" ><tspan x="-132" y="10.99" >プラスチック</tspan></text>
</g>
<g transform="matrix(1 0 0 1 239.4 713.83)" style="" id="fjkl4vA7KT15ut_24V4dS"  >
	<text xml:space="preserve" font-family="Open Sans" font-size="35" font-style="normal" font-weight="normal" line-height="1.16" style="stroke: none; stroke-width: 1; stroke-dasharray: none; stroke-linecap: butt; stroke-dashoffset: 0; stroke-linejoin: miter; stroke-miterlimit: 4; fill: rgb(0,0,0); fill-rule: nonzero; opacity: 1; white-space: pre;" ><tspan x="-100" y="10.99" ><a href="#petec_img_6">風力選別機</a></tspan></text>
</g>
<g transform="matrix(1 0 0 1 226.7 731.2)" id="mieR9NbXOjhixs5H_Dd5N"  >
<path style="stroke: rgb(0,0,0); stroke-width: 2; stroke-dasharray: none; stroke-linecap: butt; stroke-dashoffset: 0; stroke-linejoin: miter; stroke-miterlimit: 4; fill: rgb(255,255,255); fill-rule: nonzero; opacity: 1;" vector-effect="non-scaling-stroke"  transform=" translate(0, 0)" d="M -91.66667 0.88997 L 91.66666 -0.88997" stroke-linecap="round" />
</g>
<g transform="matrix(1 0 0 1 498.28 267.33)" id="xaqIPbMjgV2ghA4Ci4XG0"  >
<path style="stroke: rgb(0,0,0); stroke-width: 1; stroke-dasharray: none; stroke-linecap: butt; stroke-dashoffset: 0; stroke-linejoin: miter; stroke-miterlimit: 4; fill: rgb(49,168,247); fill-rule: nonzero; opacity: 1;" vector-effect="non-scaling-stroke"  transform=" translate(0, 0)" d="M -55.56122 67.90816 L -55.56122 -38.72449 L -44.33673 -49.948980000000006 L 25.255110000000002 -48.826530000000005 L 25.255110000000002 -67.90816000000001 L 55.56123 -37.60204000000001 L 26.377560000000003 -16.275510000000008 L 25.255110000000002 -30.86735000000001 L -28.622439999999997 -31.98980000000001 L -37.60203 -24.13266000000001 L -37.60203 67.90815999999998 z" stroke-linecap="round" />
</g>
<g transform="matrix(1 0 0 -1 496.71 440.19)" id="sscOUvZDEQRo3paxJdnZB"  >
<path style="stroke: rgb(0,0,0); stroke-width: 1; stroke-dasharray: none; stroke-linecap: butt; stroke-dashoffset: 0; stroke-linejoin: miter; stroke-miterlimit: 4; fill: rgb(49,168,247); fill-rule: nonzero; opacity: 1;" vector-effect="non-scaling-stroke"  transform=" translate(0, 0)" d="M -55.56122 67.90816 L -55.56122 -38.72449 L -44.33673 -49.948980000000006 L 25.255110000000002 -48.826530000000005 L 25.255110000000002 -67.90816000000001 L 55.56123 -37.60204000000001 L 26.377560000000003 -16.275510000000008 L 25.255110000000002 -30.86735000000001 L -28.622439999999997 -31.98980000000001 L -37.60203 -24.13266000000001 L -37.60203 67.90815999999998 z" stroke-linecap="round" />
</g>
<g transform="matrix(0.59 0 0 0.55 635.63 228.9)" id="01TPr17pDM8hWUKNz-bF9"  >
<path style="stroke: rgb(0,0,0); stroke-width: 1; stroke-dasharray: none; stroke-linecap: butt; stroke-dashoffset: 0; stroke-linejoin: miter; stroke-miterlimit: 4; fill: rgb(0,0,0); fill-opacity: 0.48; fill-rule: nonzero; opacity: 1;" vector-effect="non-scaling-stroke"  transform=" translate(0, 0)" d="M -60.96278 -13.93675 C -60.96278 -39.90851 -41.35362000000001 -60.962779999999995 -17.164500000000004 -60.962779999999995 L 17.164499999999997 -60.962779999999995 L 17.164499999999997 -60.962779999999995 C 41.35361999999999 -60.962779999999995 60.962779999999995 -39.90850999999999 60.962779999999995 -13.936749999999996 L 60.962779999999995 13.936750000000004 L 60.962779999999995 13.936750000000004 C 60.962779999999995 39.90851000000001 41.35361999999999 60.96278 17.164499999999997 60.96278 L -17.164500000000004 60.96278 L -17.164500000000004 60.96278 C -41.35362000000001 60.96278 -60.96278 39.90851000000001 -60.96278 13.936750000000004 z" stroke-linecap="round" />
</g>
<g transform="matrix(0.87 0 0 0.87 686.82 231.9)" style="filter: url(#SVGID_14);" id="tQr1ifXuqCRe0dNO3SY7H"  >
<filter id="SVGID_14" y="-22%" height="144%" x="-21%" width="142%" >
	<feGaussianBlur in="SourceAlpha" stdDeviation="0"></feGaussianBlur>
	<feOffset dx="1" dy="1" result="oBlur" ></feOffset>
	<feFlood flood-color="rgb(255,255,255)" flood-opacity="1"/>
	<feComposite in2="oBlur" operator="in" />
	<feMerge>
		<feMergeNode></feMergeNode>
		<feMergeNode in="SourceGraphic"></feMergeNode>
	</feMerge>
</filter>
		<text xml:space="preserve" font-family="Open Sans" font-size="54" font-style="normal" font-weight="normal" line-height="1.16" style="stroke: none; stroke-width: 1; stroke-dasharray: none; stroke-linecap: butt; stroke-dashoffset: 0; stroke-linejoin: miter; stroke-miterlimit: 4; fill: rgb(0,0,0); fill-rule: nonzero; opacity: 1; white-space: pre;" ><tspan x="-86" y="16.96" >鉄</tspan></text>
</g>
<g transform="matrix(0.6 0 0 0.55 632.72 398.21)" id="boHLn4kowM0AGojSN-2gM"  >
<path style="stroke: rgb(0,0,0); stroke-width: 1; stroke-dasharray: none; stroke-linecap: butt; stroke-dashoffset: 0; stroke-linejoin: miter; stroke-miterlimit: 4; fill: rgb(252,141,29); fill-opacity: 0.87; fill-rule: nonzero; opacity: 1;" vector-effect="non-scaling-stroke"  transform=" translate(0, 0)" d="M -60.96278 -13.93675 C -60.96278 -39.90851 -41.68745 -60.962779999999995 -17.91012 -60.962779999999995 L 17.910110000000003 -60.962779999999995 L 17.910110000000003 -60.962779999999995 C 41.68744 -60.962779999999995 60.962770000000006 -39.90850999999999 60.962770000000006 -13.936749999999996 L 60.962770000000006 13.936750000000004 L 60.962770000000006 13.936750000000004 C 60.962770000000006 39.90851000000001 41.68744000000001 60.96278 17.910110000000003 60.96278 L -17.91012 60.96278 L -17.91012 60.96278 C -41.68745 60.96278 -60.96278 39.90851000000001 -60.96278 13.936750000000004 z" stroke-linecap="round" />
</g>
<g transform="matrix(0.87 0 0 0.87 684.44 401.21)" style="filter: url(#SVGID_18);" id="LGQDO3vNo6HV01Uh3zt1H"  >
<filter id="SVGID_18" y="-22%" height="144%" x="-21%" width="142%" >
	<feGaussianBlur in="SourceAlpha" stdDeviation="0"></feGaussianBlur>
	<feOffset dx="1" dy="1" result="oBlur" ></feOffset>
	<feFlood flood-color="rgb(255,255,255)" flood-opacity="1"/>
	<feComposite in2="oBlur" operator="in" />
	<feMerge>
		<feMergeNode></feMergeNode>
		<feMergeNode in="SourceGraphic"></feMergeNode>
	</feMerge>
</filter>
		<text xml:space="preserve" font-family="Open Sans" font-size="54" font-style="normal" font-weight="normal" line-height="1.16" style="stroke: none; stroke-width: 1; stroke-dasharray: none; stroke-linecap: butt; stroke-dashoffset: 0; stroke-linejoin: miter; stroke-miterlimit: 4; fill: rgb(0,0,0); fill-rule: nonzero; opacity: 1; white-space: pre;" ><tspan x="-86" y="16.96" >銅</tspan></text>
</g>
<g transform="matrix(1.07 0 0 0.55 632.32 465.17)" id="oSzYtntXV_le82npBxb-8"  >
<path style="stroke: rgb(0,0,0); stroke-width: 1; stroke-dasharray: none; stroke-linecap: butt; stroke-dashoffset: 0; stroke-linejoin: miter; stroke-miterlimit: 4; fill: rgb(0,0,0); fill-opacity: 0.08; fill-rule: nonzero; opacity: 1;" vector-effect="non-scaling-stroke"  transform=" translate(0, 0)" d="M -60.96278 -13.93675 C -60.96278 -39.90851 -50.16212 -60.962779999999995 -36.83882 -60.962779999999995 L 36.83883 -60.962779999999995 L 36.83883 -60.962779999999995 C 50.16212 -60.962779999999995 60.96279 -39.90850999999999 60.96279 -13.936749999999996 L 60.96279 13.936750000000004 L 60.96279 13.936750000000004 C 60.96279 39.90851000000001 50.16213 60.96278 36.83883 60.96278 L -36.83882 60.96278 L -36.83882 60.96278 C -50.16211 60.96278 -60.962779999999995 39.90851000000001 -60.962779999999995 13.936750000000004 z" stroke-linecap="round" />
</g>
<g transform="matrix(0.87 0 0 0.87 650.81 468.17)" style="filter: url(#SVGID_19);" id="ZlDe-47VorWqpJrb3fKyp"  >
<filter id="SVGID_19" y="-22%" height="144%" x="-21%" width="142%" >
	<feGaussianBlur in="SourceAlpha" stdDeviation="0"></feGaussianBlur>
	<feOffset dx="1" dy="1" result="oBlur" ></feOffset>
	<feFlood flood-color="rgb(255,255,255)" flood-opacity="1"/>
	<feComposite in2="oBlur" operator="in" />
	<feMerge>
		<feMergeNode></feMergeNode>
		<feMergeNode in="SourceGraphic"></feMergeNode>
	</feMerge>
</filter>
		<text xml:space="preserve" font-family="Open Sans" font-size="44" font-style="normal" font-weight="normal" line-height="1.16" style="stroke: none; stroke-width: 1; stroke-dasharray: none; stroke-linecap: butt; stroke-dashoffset: 0; stroke-linejoin: miter; stroke-miterlimit: 4; fill: rgb(0,0,0); fill-rule: nonzero; opacity: 1; white-space: pre;" ><tspan x="-86" y="13.82" >アルミ</tspan></text>
</g>
<g transform="matrix(1.53 0 0 0.55 633.8 533.91)" id="a3vdrMGksdfGTZrzpNcIb"  >
<path style="stroke: rgb(0,0,0); stroke-width: 1; stroke-dasharray: none; stroke-linecap: butt; stroke-dashoffset: 0; stroke-linejoin: miter; stroke-miterlimit: 4; fill: rgb(255,255,255); fill-rule: nonzero; opacity: 1;" vector-effect="non-scaling-stroke"  transform=" translate(0, 0)" d="M -60.96278 -13.93675 C -60.96278 -39.90851 -53.39242 -60.962779999999995 -44.0539 -60.962779999999995 L 44.0539 -60.962779999999995 L 44.0539 -60.962779999999995 C 53.39242 -60.962779999999995 60.962779999999995 -39.90850999999999 60.962779999999995 -13.936749999999996 L 60.962779999999995 13.936750000000004 L 60.962779999999995 13.936750000000004 C 60.962779999999995 39.90851000000001 53.392419999999994 60.96278 44.0539 60.96278 L -44.0539 60.96278 L -44.0539 60.96278 C -53.39242 60.96278 -60.962779999999995 39.90851000000001 -60.962779999999995 13.936750000000004 z" stroke-linecap="round" />
</g>
<g transform="matrix(0.87 0 0 0.87 658.07 536.91)" style="filter: url(#SVGID_20);" id="kQGweqz8rcMflLW6dgdLk"  >
<filter id="SVGID_20" y="-23%" height="146%" x="-20%" width="140%" >
	<feGaussianBlur in="SourceAlpha" stdDeviation="0"></feGaussianBlur>
	<feOffset dx="1" dy="1" result="oBlur" ></feOffset>
	<feFlood flood-color="rgb(255,255,255)" flood-opacity="1"/>
	<feComposite in2="oBlur" operator="in" />
	<feMerge>
		<feMergeNode></feMergeNode>
		<feMergeNode in="SourceGraphic"></feMergeNode>
	</feMerge>
</filter>
		<text xml:space="preserve" font-family="Open Sans" font-size="35" font-style="normal" font-weight="normal" line-height="1.16" style="stroke: none; stroke-width: 1; stroke-dasharray: none; stroke-linecap: butt; stroke-dashoffset: 0; stroke-linejoin: miter; stroke-miterlimit: 4; fill: rgb(0,0,0); fill-rule: nonzero; opacity: 1; white-space: pre;" ><tspan x="-132" y="10.99" >プラスチック</tspan></text>
</g>
<g transform="matrix(1 0 0 1 791.45 382.28)" id="iR6r-gXdcnuVtqY74prZY"  >
<path style="stroke: rgb(0,0,0); stroke-width: 1; stroke-dasharray: none; stroke-linecap: butt; stroke-dashoffset: 0; stroke-linejoin: miter; stroke-miterlimit: 4; fill: rgb(49,168,247); fill-rule: nonzero; opacity: 1;" vector-effect="non-scaling-stroke"  transform=" translate(0, 0)" d="M -55.56122 67.90816 L -55.56122 -38.72449 L -44.33673 -49.948980000000006 L 25.255110000000002 -48.826530000000005 L 25.255110000000002 -67.90816000000001 L 55.56123 -37.60204000000001 L 26.377560000000003 -16.275510000000008 L 25.255110000000002 -30.86735000000001 L -28.622439999999997 -31.98980000000001 L -37.60203 -24.13266000000001 L -37.60203 67.90815999999998 z" stroke-linecap="round" />
</g>
<g transform="matrix(1 0 0 -1 789.89 555.14)" id="fUNqtgCZTaBFFw8pM_QXz"  >
<path style="stroke: rgb(0,0,0); stroke-width: 1; stroke-dasharray: none; stroke-linecap: butt; stroke-dashoffset: 0; stroke-linejoin: miter; stroke-miterlimit: 4; fill: rgb(49,168,247); fill-rule: nonzero; opacity: 1;" vector-effect="non-scaling-stroke"  transform=" translate(0, 0)" d="M -55.56122 67.90816 L -55.56122 -38.72449 L -44.33673 -49.948980000000006 L 25.255110000000002 -48.826530000000005 L 25.255110000000002 -67.90816000000001 L 55.56123 -37.60204000000001 L 26.377560000000003 -16.275510000000008 L 25.255110000000002 -30.86735000000001 L -28.622439999999997 -31.98980000000001 L -37.60203 -24.13266000000001 L -37.60203 67.90815999999998 z" stroke-linecap="round" />
</g>
<g transform="matrix(1.53 0 0 0.55 947.76 339.95)" id="9RAlsXGvCAhyXpkFpgCL-"  >
<path style="stroke: rgb(0,0,0); stroke-width: 1; stroke-dasharray: none; stroke-linecap: butt; stroke-dashoffset: 0; stroke-linejoin: miter; stroke-miterlimit: 4; fill: rgb(255,255,255); fill-rule: nonzero; opacity: 1;" vector-effect="non-scaling-stroke"  transform=" translate(0, 0)" d="M -60.96278 -13.93675 C -60.96278 -39.90851 -53.39242 -60.962779999999995 -44.0539 -60.962779999999995 L 44.0539 -60.962779999999995 L 44.0539 -60.962779999999995 C 53.39242 -60.962779999999995 60.962779999999995 -39.90850999999999 60.962779999999995 -13.936749999999996 L 60.962779999999995 13.936750000000004 L 60.962779999999995 13.936750000000004 C 60.962779999999995 39.90851000000001 53.392419999999994 60.96278 44.0539 60.96278 L -44.0539 60.96278 L -44.0539 60.96278 C -53.39242 60.96278 -60.962779999999995 39.90851000000001 -60.962779999999995 13.936750000000004 z" stroke-linecap="round" />
</g>
<g transform="matrix(0.87 0 0 0.87 972.03 342.95)" style="filter: url(#SVGID_22);" id="LouEN5PUrByntLqEmQR7d"  >
<filter id="SVGID_22" y="-23%" height="146%" x="-20%" width="140%" >
	<feGaussianBlur in="SourceAlpha" stdDeviation="0"></feGaussianBlur>
	<feOffset dx="1" dy="1" result="oBlur" ></feOffset>
	<feFlood flood-color="rgb(255,255,255)" flood-opacity="1"/>
	<feComposite in2="oBlur" operator="in" />
	<feMerge>
		<feMergeNode></feMergeNode>
		<feMergeNode in="SourceGraphic"></feMergeNode>
	</feMerge>
</filter>
		<text xml:space="preserve" font-family="Open Sans" font-size="35" font-style="normal" font-weight="normal" line-height="1.16" style="stroke: none; stroke-width: 1; stroke-dasharray: none; stroke-linecap: butt; stroke-dashoffset: 0; stroke-linejoin: miter; stroke-miterlimit: 4; fill: rgb(0,0,0); fill-rule: nonzero; opacity: 1; white-space: pre;" ><tspan x="-132" y="10.99" >プラスチック</tspan></text>
</g>
<g transform="matrix(0.6 0 0 0.55 944.71 563.66)" id="bxCY1No5RUIbs0WNvJmxx"  >
<path style="stroke: rgb(0,0,0); stroke-width: 1; stroke-dasharray: none; stroke-linecap: butt; stroke-dashoffset: 0; stroke-linejoin: miter; stroke-miterlimit: 4; fill: rgb(252,141,29); fill-opacity: 0.87; fill-rule: nonzero; opacity: 1;" vector-effect="non-scaling-stroke"  transform=" translate(0, 0)" d="M -60.96278 -13.93675 C -60.96278 -39.90851 -41.68745 -60.962779999999995 -17.91012 -60.962779999999995 L 17.910110000000003 -60.962779999999995 L 17.910110000000003 -60.962779999999995 C 41.68744 -60.962779999999995 60.962770000000006 -39.90850999999999 60.962770000000006 -13.936749999999996 L 60.962770000000006 13.936750000000004 L 60.962770000000006 13.936750000000004 C 60.962770000000006 39.90851000000001 41.68744000000001 60.96278 17.910110000000003 60.96278 L -17.91012 60.96278 L -17.91012 60.96278 C -41.68745 60.96278 -60.96278 39.90851000000001 -60.96278 13.936750000000004 z" stroke-linecap="round" />
</g>
<g transform="matrix(0.87 0 0 0.87 996.43 566.66)" style="filter: url(#SVGID_25);" id="JiIpZZB19DogjKOe2r5RX"  >
<filter id="SVGID_25" y="-22%" height="144%" x="-21%" width="142%" >
	<feGaussianBlur in="SourceAlpha" stdDeviation="0"></feGaussianBlur>
	<feOffset dx="1" dy="1" result="oBlur" ></feOffset>
	<feFlood flood-color="rgb(255,255,255)" flood-opacity="1"/>
	<feComposite in2="oBlur" operator="in" />
	<feMerge>
		<feMergeNode></feMergeNode>
		<feMergeNode in="SourceGraphic"></feMergeNode>
	</feMerge>
</filter>
		<text xml:space="preserve" font-family="Open Sans" font-size="54" font-style="normal" font-weight="normal" line-height="1.16" style="stroke: none; stroke-width: 1; stroke-dasharray: none; stroke-linecap: butt; stroke-dashoffset: 0; stroke-linejoin: miter; stroke-miterlimit: 4; fill: rgb(0,0,0); fill-rule: nonzero; opacity: 1; white-space: pre;" ><tspan x="-86" y="16.96" >銅</tspan></text>
</g>
<g transform="matrix(1.07 0 0 0.55 944.31 630.62)" id="nOnQ1yBSF_Bug8pH_hKvi"  >
<path style="stroke: rgb(0,0,0); stroke-width: 1; stroke-dasharray: none; stroke-linecap: butt; stroke-dashoffset: 0; stroke-linejoin: miter; stroke-miterlimit: 4; fill: rgb(0,0,0); fill-opacity: 0.08; fill-rule: nonzero; opacity: 1;" vector-effect="non-scaling-stroke"  transform=" translate(0, 0)" d="M -60.96278 -13.93675 C -60.96278 -39.90851 -50.16212 -60.962779999999995 -36.83882 -60.962779999999995 L 36.83883 -60.962779999999995 L 36.83883 -60.962779999999995 C 50.16212 -60.962779999999995 60.96279 -39.90850999999999 60.96279 -13.936749999999996 L 60.96279 13.936750000000004 L 60.96279 13.936750000000004 C 60.96279 39.90851000000001 50.16213 60.96278 36.83883 60.96278 L -36.83882 60.96278 L -36.83882 60.96278 C -50.16211 60.96278 -60.962779999999995 39.90851000000001 -60.962779999999995 13.936750000000004 z" stroke-linecap="round" />
</g>
<g transform="matrix(0.87 0 0 0.87 962.8 633.62)" style="filter: url(#SVGID_26);" id="O-vAqX9LY7Z_whzP2S90p"  >
<filter id="SVGID_26" y="-22%" height="144%" x="-21%" width="142%" >
	<feGaussianBlur in="SourceAlpha" stdDeviation="0"></feGaussianBlur>
	<feOffset dx="1" dy="1" result="oBlur" ></feOffset>
	<feFlood flood-color="rgb(255,255,255)" flood-opacity="1"/>
	<feComposite in2="oBlur" operator="in" />
	<feMerge>
		<feMergeNode></feMergeNode>
		<feMergeNode in="SourceGraphic"></feMergeNode>
	</feMerge>
</filter>
		<text xml:space="preserve" font-family="Open Sans" font-size="44" font-style="normal" font-weight="normal" line-height="1.16" style="stroke: none; stroke-width: 1; stroke-dasharray: none; stroke-linecap: butt; stroke-dashoffset: 0; stroke-linejoin: miter; stroke-miterlimit: 4; fill: rgb(0,0,0); fill-rule: nonzero; opacity: 1; white-space: pre;" ><tspan x="-86" y="13.82" >アルミ</tspan></text>
</g>
<g transform="matrix(1 0 0 1 1115.4 272.77)" id="X5pV6AzOB1aaPs0dpAv_Y"  >
<path style="stroke: rgb(0,0,0); stroke-width: 1; stroke-dasharray: none; stroke-linecap: butt; stroke-dashoffset: 0; stroke-linejoin: miter; stroke-miterlimit: 4; fill: rgb(49,168,247); fill-rule: nonzero; opacity: 1;" vector-effect="non-scaling-stroke"  transform=" translate(0, 0)" d="M -58.41584 47.0297 L -57.425740000000005 -14.35644 L -45.54455 -26.23763 L 33.66337 -26.23763 L 33.66337 -47.029709999999994 L 58.41585 -16.336639999999996 L 32.67328 4.455440000000003 L 32.67328 -9.405949999999997 L -36.633649999999996 -11.386149999999997 L -44.55444 -5.445559999999997 L -44.55444 47.02969 z" stroke-linecap="round" />
</g>
<g transform="matrix(1 0 0 1 1122.82 342.08)" id="Lq3PqMuMTR4Xc-aNuM3Qj"  >
<path style="stroke: rgb(0,0,0); stroke-width: 1; stroke-dasharray: none; stroke-linecap: butt; stroke-dashoffset: 0; stroke-linejoin: miter; stroke-miterlimit: 4; fill: rgb(49,168,247); fill-rule: nonzero; opacity: 1;" vector-effect="non-scaling-stroke"  transform=" translate(0, 0)" d="M -50 -7.42574 L 24.25743 -6.43564 L 24.25743 -21.28713 L 50 3.4653499999999973 L 26.23762 21.287129999999998 L 25.24752 10.396039999999998 L -49.00991 11.386139999999997 z" stroke-linecap="round" />
</g>
<g transform="matrix(1 0 0 -1 1112.53 415.44)" id="uKjxqqe7Wp1h1WlEG2LRw"  >
<path style="stroke: rgb(0,0,0); stroke-width: 1; stroke-dasharray: none; stroke-linecap: butt; stroke-dashoffset: 0; stroke-linejoin: miter; stroke-miterlimit: 4; fill: rgb(49,168,247); fill-rule: nonzero; opacity: 1;" vector-effect="non-scaling-stroke"  transform=" translate(0, 0)" d="M -58.41584 47.0297 L -57.425740000000005 -14.35644 L -45.54455 -26.23763 L 33.66337 -26.23763 L 33.66337 -47.029709999999994 L 58.41585 -16.336639999999996 L 32.67328 4.455440000000003 L 32.67328 -9.405949999999997 L -36.633649999999996 -11.386149999999997 L -44.55444 -5.445559999999997 L -44.55444 47.02969 z" stroke-linecap="round" />
</g>
<g transform="matrix(2.32 0 0 1 1261.02 255.94)" id="1tHfMIeLTsgIJuYwn2iuw"  >
<path style="stroke: rgb(0,0,0); stroke-width: 1; stroke-dasharray: none; stroke-linecap: butt; stroke-dashoffset: 0; stroke-linejoin: miter; stroke-miterlimit: 4; fill: rgb(247,47,58); fill-rule: nonzero; opacity: 1;" vector-effect="non-scaling-stroke"  transform=" translate(0, 0)" d="M 0 -33.5 C 18.492 -33.5 33.5 -18.492 33.5 0 C 33.5 18.492 18.492 33.5 0 33.5 C -18.492 33.5 -33.5 18.492 -33.5 0 C -33.5 -18.492 -18.492 -33.5 0 -33.5 z" stroke-linecap="round" />
</g>
<g transform="matrix(1 0 0 1 1293.37 258.53)" style="filter: url(#SVGID_29);" id="MkprTzJN_YnHpscd3Vqaj"  >
<filter id="SVGID_29" y="-22%" height="144%" x="-21%" width="142%" >
	<feGaussianBlur in="SourceAlpha" stdDeviation="0"></feGaussianBlur>
	<feOffset dx="1" dy="1" result="oBlur" ></feOffset>
	<feFlood flood-color="rgb(255,255,255)" flood-opacity="1"/>
	<feComposite in2="oBlur" operator="in" />
	<feMerge>
		<feMergeNode></feMergeNode>
		<feMergeNode in="SourceGraphic"></feMergeNode>
	</feMerge>
</filter>
		<text xml:space="preserve" font-family="Open Sans" font-size="44" font-style="normal" font-weight="normal" line-height="1.16" style="stroke: none; stroke-width: 1; stroke-dasharray: none; stroke-linecap: butt; stroke-dashoffset: 0; stroke-linejoin: miter; stroke-miterlimit: 4; fill: rgb(0,0,0); fill-rule: nonzero; opacity: 1; white-space: pre;" ><tspan x="-75" y="13.82" >ABS</tspan></text>
</g>
<g transform="matrix(2.51 0 0 1 1261.53 345.05)" id="LKlgsZ5yvzVmFbP7llvIW"  >
<path style="stroke: rgb(0,0,0); stroke-width: 1; stroke-dasharray: none; stroke-linecap: butt; stroke-dashoffset: 0; stroke-linejoin: miter; stroke-miterlimit: 4; fill: rgb(49,91,247); fill-opacity: 0.77; fill-rule: nonzero; opacity: 1;" vector-effect="non-scaling-stroke"  transform=" translate(-33.5, -33.5)" d="M 50.25 33.5 L 67 67 L 33.5 67 L 0 67 L 16.75 33.5 L 33.5 0 z" stroke-linecap="round" />
</g>
<g transform="matrix(1 0 0 1 1259.95 353.47)" style="filter: url(#SVGID_33);" id="VkkuFC1qknbQACIJmrhT1"  >
<filter id="SVGID_33" y="-22%" height="144%" x="-22%" width="144%" >
	<feGaussianBlur in="SourceAlpha" stdDeviation="0"></feGaussianBlur>
	<feOffset dx="1" dy="1" result="oBlur" ></feOffset>
	<feFlood flood-color="rgb(255,255,255)" flood-opacity="1"/>
	<feComposite in2="oBlur" operator="in" />
	<feMerge>
		<feMergeNode></feMergeNode>
		<feMergeNode in="SourceGraphic"></feMergeNode>
	</feMerge>
</filter>
		<text xml:space="preserve" font-family="Open Sans" font-size="50" font-style="normal" font-weight="normal" line-height="1.16" style="stroke: none; stroke-width: 1; stroke-dasharray: none; stroke-linecap: butt; stroke-dashoffset: 0; stroke-linejoin: miter; stroke-miterlimit: 4; fill: rgb(0,0,0); fill-rule: nonzero; opacity: 1; white-space: pre;" ><tspan x="-30.08" y="15.71" >PP</tspan></text>
</g>
<g transform="matrix(1.91 0 0 1 1258.65 436.6)" id="oSCuqjByXL3aWTbTDjBdP"  >
<path style="stroke: rgb(0,0,0); stroke-width: 1; stroke-dasharray: none; stroke-linecap: butt; stroke-dashoffset: 0; stroke-linejoin: miter; stroke-miterlimit: 4; fill: rgb(53,237,53); fill-rule: nonzero; opacity: 1;" vector-effect="non-scaling-stroke"  transform=" translate(-38.68, -33.5)" d="M 58.0237 0 L 77.36482 33.5 L 58.02369999999999 67 L 19.34111999999999 67 L -1.0658141036401503e-14 33.5 L 19.34111999999999 0 z" stroke-linecap="round" />
</g>
<g transform="matrix(1 0 0 1 1257.95 438.61)" style="filter: url(#SVGID_36);" id="kNunUqgAgSczE_68dZfvk"  >
<filter id="SVGID_36" y="-22%" height="144%" x="-22%" width="144%" >
	<feGaussianBlur in="SourceAlpha" stdDeviation="0"></feGaussianBlur>
	<feOffset dx="1" dy="1" result="oBlur" ></feOffset>
	<feFlood flood-color="rgb(255,255,255)" flood-opacity="1"/>
	<feComposite in2="oBlur" operator="in" />
	<feMerge>
		<feMergeNode></feMergeNode>
		<feMergeNode in="SourceGraphic"></feMergeNode>
	</feMerge>
</filter>
		<text xml:space="preserve" font-family="Open Sans" font-size="50" font-style="normal" font-weight="normal" line-height="1.16" style="stroke: none; stroke-width: 1; stroke-dasharray: none; stroke-linecap: butt; stroke-dashoffset: 0; stroke-linejoin: miter; stroke-miterlimit: 4; fill: rgb(0,0,0); fill-rule: nonzero; opacity: 1; white-space: pre;" ><tspan x="-29.9" y="15.71" >PS</tspan></text>
</g>
<g transform="matrix(1 0 0 1 594.95 713.92)" style="" id="RidIyAcyvHnCFGa66U-mr"  >
	<text xml:space="preserve" font-family="Open Sans" font-size="35" font-style="normal" font-weight="normal" line-height="1.16" style="stroke: none; stroke-width: 1; stroke-dasharray: none; stroke-linecap: butt; stroke-dashoffset: 0; stroke-linejoin: miter; stroke-miterlimit: 4; fill: rgb(0,0,0); fill-rule: nonzero; opacity: 1; white-space: pre;" ><tspan x="-157.5" y="10.99" ><a href="#petec_img_2">磁力選別機</a></tspan></text>
</g>
<g transform="matrix(1 0 0 1 524.82 729.31)" id="Tj78xNQWNbP0J2C-5zNIp"  >
<path style="stroke: rgb(0,0,0); stroke-width: 2; stroke-dasharray: none; stroke-linecap: butt; stroke-dashoffset: 0; stroke-linejoin: miter; stroke-miterlimit: 4; fill: rgb(255,255,255); fill-rule: nonzero; opacity: 1;" vector-effect="non-scaling-stroke"  transform=" translate(0, 0)" d="M -91.66667 0.88997 L 91.66666 -0.88997" stroke-linecap="round" />
</g>
<g transform="matrix(1 0 0 1 886.14 709.07)" style="" id="3hNGCjbB1UwSHYM9j4O-D"  >
	<text xml:space="preserve" font-family="Open Sans" font-size="35" font-style="normal" font-weight="normal" line-height="1.16" style="stroke: none; stroke-width: 1; stroke-dasharray: none; stroke-linecap: butt; stroke-dashoffset: 0; stroke-linejoin: miter; stroke-miterlimit: 4; fill: rgb(0,0,0); fill-rule: nonzero; opacity: 1; white-space: pre;" ><tspan x="-157.5" y="10.99" ><a href="#petec_img_3">非鉄金属選別機</a></tspan></text>
</g>
<g transform="matrix(1 0 0 1 852.22 726.24)" id="Ak1zQERkp7GU6nS2jkdR7"  >
<path style="stroke: rgb(0,0,0); stroke-width: 2; stroke-dasharray: none; stroke-linecap: butt; stroke-dashoffset: 0; stroke-linejoin: miter; stroke-miterlimit: 4; fill: rgb(255,255,255); fill-rule: nonzero; opacity: 1;" vector-effect="non-scaling-stroke"  transform=" translate(0, 0)" d="M -124.25743 0.49505 L 124.25742 -0.49505" stroke-linecap="round" />
</g>
<g transform="matrix(1 0 0 1 3908.68 709.03)" style="" id="kXRyANp1W3V69cdca7ToL"  >
	<text xml:space="preserve" font-family="Open Sans" font-size="31" font-style="normal" font-weight="normal" line-height="1.16" style="stroke: none; stroke-width: 1; stroke-dasharray: none; stroke-linecap: butt; stroke-dashoffset: 0; stroke-linejoin: miter; stroke-miterlimit: 4; fill: rgb(0,0,0); fill-rule: nonzero; opacity: 1; white-space: pre;" ><tspan x="-2860" y="9.74" ><a href="#petec_img_7">高精度樹脂選別システム</a></tspan></text>
</g>
<g transform="matrix(1 0 0 1 1219.09 723.76)" id="unkrUEJZPstJ2uP8u3KCq"  >
<path style="stroke: rgb(0,0,0); stroke-width: 2; stroke-dasharray: none; stroke-linecap: butt; stroke-dashoffset: 0; stroke-linejoin: miter; stroke-miterlimit: 4; fill: rgb(255,255,255); fill-rule: nonzero; opacity: 1;" vector-effect="non-scaling-stroke"  transform=" translate(0, 0)" d="M -172.77228 0 L 172.77227000000002 0" stroke-linecap="round" />
</g>
</g>
</svg>