<svg xmlns="http://www.w3.org/2000/svg" xmlns:xlink="http://www.w3.org/1999/xlink" width="1000" height="750">
	<g transform="translate(-420 -150)">
		<path d="M1056 181c0-2.76 2.24-5 5-5h310c2.76 0 5 2.24 5 5v170c0 2.76-2.24 5-5 5h-310c-2.76 0-5-2.24-5-5z" stroke="#000" stroke-width="2" fill-opacity="0"/>

		<!-- 金属資源 -->
		<a href="#">
			<path d="M855 597c0-2.76 2.24-5 5-5h150c2.76 0 5 2.24 5 5v86c0 2.76-2.24 5-5 5H860c-2.76 0-5-2.24-5-5z" stroke="#000" stroke-width="2" fill="#e3f7ff"/>
			<text transform="matrix(1,0,0,1,905,645)">金属資源</text>
		</a>

		<!-- 資源の偏在 -->
		<a href="#">
			<path d="M480 597c0-2.76 2.24-5 5-5h150c2.76 0 5 2.24 5 5v86c0 2.76-2.24 5-5 5H485c-2.76 0-5-2.24-5-5z" stroke="#000" stroke-width="2" fill="#ffe3e9"/>
			<text transform="matrix(1,0,0,1,520,645)">資源の偏在</text>
		</a>

		<!-- 最新技術に欠かせない -->
		<a href="#">
			<path d="M855 389c0-2.76 2.24-5 5-5h150c2.76 0 5 2.24 5 5v86c0 2.76-2.24 5-5 5H860c-2.76 0-5-2.24-5-5z" stroke="#000" stroke-width="2" fill="#fff7e3"/>
			<text transform="matrix(1,0,0,1,895,425)">最新技術に</text>
			<text transform="matrix(1,0,0,1,895,445)">欠かせない</text>
		</a>
		<!-- 資源の枯渇 -->
		<a href="#">
			<path d="M855 805c0-2.76 2.24-5 5-5h150c2.76 0 5 2.24 5 5v86c0 2.76-2.24 5-5 5H860c-2.76 0-5-2.24-5-5z" stroke="#000" stroke-width="2" fill="#ebffe3"/>
			<path d="M1013 785.07c.82-1.65 3.18-1.65 4 0l13.92 27.67c.75 1.5-.34 3.26-2 3.26h-27.83c-1.7 0-2.77-1.76-2.02-3.26l13.9-27.67z" fill="#fdc51f"/>
			<text transform="matrix(1,0,0,1,895,852)">資源の枯渇</text>
		</a>

		<path d="M1017 794h-4v12h4v-12zm-2.88 14c-.62 0-1.12.5-1.12 1.13v1.75c0 .62.5 1.12 1.13 1.12h1.75c.62 0 1.12-.5 1.12-1.13v-1.75c0-.62-.5-1.12-1.13-1.12h-1.75z" fill="#fff"/>

		<!-- 生産量の増加 -->
		<a href="#">
			<path d="M1230 805c0-2.76 2.24-5 5-5h150c2.76 0 5 2.24 5 5v86c0 2.76-2.24 5-5 5h-150c-2.76 0-5-2.24-5-5z" stroke="#000" stroke-width="2" fill="#fff7e3"/>
			<text transform="matrix(1,0,0,1,1260,852)">生産量の増加</text>
		</a>

		<!-- ケータイゴリラ -->
		<a href="#">
			<path d="M1230 597c0-2.76 2.24-5 5-5h150c2.76 0 5 2.24 5 5v86c0 2.76-2.24 5-5 5h-150c-2.76 0-5-2.24-5-5z" stroke="#000" stroke-width="2" fill="#fff7e3"/>
			<path d="M1388 577.07c.82-1.65 3.18-1.65 4 0l13.92 27.67c.75 1.5-.34 3.26-2 3.26h-27.83c-1.7 0-2.77-1.76-2.02-3.26l13.9-27.67z" fill="#fdc51f"/>
			<path d="M1392 586h-4v12h4v-12zm-2.88 14c-.62 0-1.12.5-1.12 1.13v1.75c0 .62.5 1.12 1.13 1.12h1.74c.63 0 1.13-.5 1.13-1.13v-1.75c0-.62-.5-1.12-1.13-1.12h-1.74z" fill="#fff"/>
			<text transform="matrix(1,0,0,1,1255,645)">ケータイゴリラ</text>
		</a>

		<!-- 資源をめぐる紛争 -->
		<a href="#">
			<path d="M855 181c0-2.76 2.24-5 5-5h150c2.76 0 5 2.24 5 5v86c0 2.76-2.24 5-5 5H860c-2.76 0-5-2.24-5-5z" stroke="#000" stroke-width="2" fill="#fff7e3"/>
			<path d="M1013 161.07c.82-1.65 3.18-1.65 4 0l13.92 27.67c.75 1.5-.34 3.26-2 3.26h-27.83c-1.7 0-2.77-1.76-2.02-3.26l13.9-27.67z" fill="#fdc51f"/>
			<path d="M1017 170h-4v12h4v-12zm-2.88 14c-.62 0-1.12.5-1.12 1.13v1.75c0 .62.5 1.12 1.13 1.12h1.75c.62 0 1.12-.5 1.12-1.13v-1.75c0-.62-.5-1.12-1.13-1.12h-1.75z" fill="#fff"/>
			<text transform="matrix(1,0,0,1,890,220)">資源をめぐる</text>
			<text transform="matrix(1,0,0,1,920,240)">紛争</text>
		</a>

		<!-- 鉱山の悲惨な現状 -->
		<a href="#">
			<path d="M1230 389c0-2.76 2.24-5 5-5h150c2.76 0 5 2.24 5 5v86c0 2.76-2.24 5-5 5h-150c-2.76 0-5-2.24-5-5z" stroke="#000" stroke-width="2" fill="#fff7e3"/>
			<path d="M1388 369.07c.82-1.65 3.18-1.65 4 0l13.92 27.67c.75 1.5-.34 3.26-2 3.26h-27.83c-1.7 0-2.77-1.76-2.02-3.26l13.9-27.67z" fill="#fdc51f"/>
			<path d="M1392 378h-4v12h4v-12zm-2.88 14c-.62 0-1.12.5-1.12 1.13v1.75c0 .62.5 1.12 1.13 1.12h1.74c.63 0 1.13-.5 1.13-1.13v-1.75c0-.62-.5-1.12-1.13-1.12h-1.74z" fill="#fff"/>
			<text transform="matrix(1,0,0,1,1260,425)">鉱山の悲惨な</text>
			<text transform="matrix(1,0,0,1,1295,445)">現状</text>
		</a>

		<path d="M935 590V482" stroke="#000" stroke-width="2" fill="none"/>
		<path d="M936 591h-2v-1.03h2M936 482.03h-2V481h2"/>
		<path d="M935 690v108" stroke="#000" stroke-width="2" fill="none"/>
		<path d="M936 690.03h-2V689h2M936 799h-2v-1.03h2"/>
		<path d="M853 640H642" stroke="#000" stroke-width="2" fill="none"/>
		<path d="M854 641h-1.03v-2H854M642.03 641H641v-2h1.03"/>
		<path d="M1017 432.02l.7.02 1.67.1 1.64.17 1.64.25 1.6.3 1.62.4 1.62.44 1.62.52 1.63.6 1.65.7 1.68.8 1.7.9 1.77 1 1.8 1.14 1.86 1.3 1.92 1.47 2 1.66 2.12 1.9 2.22 2.16 2.34 2.5 2.5 2.9 2.7 3.4 2.9 4 3.15 4.75 3.48 5.77 3.9 7.1 4.4 8.9 5.12 11.5 6.14 15.57 7.82 22.6 11.74 39.25 45.42 167.06 7.83 22.6 6.15 15.56 5.12 11.52 4.4 8.9 3.9 7.1 3.48 5.75 3.16 4.75 2.9 4 2.7 3.4 2.5 2.9 2.34 2.5 2.22 2.16 2.1 1.9 2.02 1.67 1.93 1.47 1.87 1.3 1.8 1.14 1.76 1 1.7.9.22.1" stroke="#000" stroke-width="2" fill="none"/>
		<path d="M1017.05 431.02l-.04 2-1-.02v-2"/>
		<path d="M1225.85 847.26l-14.95 1.23 2.13-9.03z" stroke="#000" stroke-width="2"/>
		<path d="M1228 848h-193.5" stroke="#000" stroke-width="2" fill="none"/>
		<path d="M1229 849h-1.03v-2h1.03"/><path d="M1019.24 848l14.26-4.64v9.28z" stroke="#000" stroke-width="2"/>
		<path d="M1073 208h62M1073.03 208H1072" stroke="#000" stroke-width="2" fill="none"/>
		<path d="M1136 209h-1.03v-2h1.03"/>
		<path d="M1017 432h211" stroke="#000" stroke-width="2" fill="none"/>
		<path d="M1017.03 433H1016v-2h1.03M1229 433h-1.03v-2h1.03"/>
		<path d="M1017 432.02l2.36.05 3.23.2 3.1.33 3.05.45 2.96.56 2.9.7 2.87.8 2.83.9 2.8 1.05 2.8 1.18 2.8 1.32 2.8 1.47 2.86 1.65 2.9 1.84 2.96 2.06 3.04 2.3 3.14 2.62 3.28 2.95 3.44 3.37 3.66 3.9 3.93 4.56 4.3 5.43 4.83 6.63 5.63 8.5 7.1 11.74 11.78 21.6 28.1 53.26 7.1 11.75 5.63 8.5 4.82 6.63 4.3 5.44 3.92 4.56 3.66 3.9 3.44 3.37 3.28 2.95 3.14 2.6 3.04 2.32 2.96 2.05 2.9 1.83 2.85 1.65 2.8 1.47 2.8 1.32 2.8 1.18 2.8 1.04 2.83.9 2.86.8.28.07" stroke="#000" stroke-width="2" fill="none"/>
		<path d="M1017.05 431.02l-.04 2-1-.02v-2"/>
		<path d="M1225.8 639.6l-14.73 2.9 1.12-9.2z" stroke="#000" stroke-width="2"/>
		<path d="M1310 798v-90.5" stroke="#000" stroke-width="2" fill="none"/>
		<path d="M1311 799h-2v-1.03h2"/>
		<path d="M1310 692.24l4.64 14.26h-9.28z" stroke="#000" stroke-width="2"/>

		<!-- 日本は自給率が低い -->
		<a href="#">
			<path d="M480 805c0-2.76 2.24-5 5-5h150c2.76 0 5 2.24 5 5v86c0 2.76-2.24 5-5 5H485c-2.76 0-5-2.24-5-5z" stroke="#000" stroke-width="2" fill="#ffe3e9"/>
			<text transform="matrix(1,0,0,1,505,845)">日本は自給率が</text>
			<text transform="matrix(1,0,0,1,540,865)">低い</text>
		</a>

		<path d="M560 690v108" stroke="#000" stroke-width="2" fill="none"/>
		<path d="M561 690.03h-2V689h2M561 799h-2v-1.03h2"/>

		<!-- 各国の立場の差 -->
		<a href="#">
			<path d="M480 389c0-2.76 2.24-5 5-5h150c2.76 0 5 2.24 5 5v86c0 2.76-2.24 5-5 5H485c-2.76 0-5-2.24-5-5z" stroke="#000" stroke-width="2" fill="#ffe3e9"/>
			<path d="M638 369.07c.82-1.65 3.18-1.65 4 0l13.92 27.67c.75 1.5-.34 3.26-2 3.26h-27.83c-1.7 0-2.77-1.76-2.02-3.26l13.9-27.67z" fill="#fdc51f"/>
			<path d="M642 378h-4v12h4v-12zm-2.88 14c-.62 0-1.12.5-1.12 1.13v1.75c0 .62.5 1.12 1.13 1.12h1.75c.62 0 1.12-.5 1.12-1.13v-1.75c0-.62-.5-1.12-1.13-1.12h-1.75z" fill="#fff"/>
			<text transform="matrix(1,0,0,1,505,438)">各国の立場の差</text>
		</a>

		<path d="M560 590v-90.5" stroke="#000" stroke-width="2" fill="none"/>
		<path d="M561 591h-2v-1.03h2"/><path d="M560 484.24l4.64 14.26h-9.28z" stroke="#000" stroke-width="2"/>

		<!-- 事実関係 -->
		<a href="#">
			<path d="M1136 181c0-2.76 2.24-5 5-5h230c2.76 0 5 2.24 5 5v50c0 2.76-2.24 5-5 5h-230c-2.76 0-5-2.24-5-5z" stroke="#000" stroke-opacity="0" stroke-width="2" fill="#fff" fill-opacity="0"/>
			<text transform="matrix(1,0,0,1,1200,215)">事実関係</text>
		</a>

		<!-- 因果関係 -->
		<a href="#">
			<path d="M1136 241c0-2.76 2.24-5 5-5h230c2.76 0 5 2.24 5 5v50c0 2.76-2.24 5-5 5h-230c-2.76 0-5-2.24-5-5z" stroke="#000" stroke-opacity="0" stroke-width="2" fill="#fff" fill-opacity="0"/>
			<text transform="matrix(1,0,0,1,1200,275)">因果関係</text>
		</a>

		<path d="M1136 301c0-2.76 2.24-5 5-5h230c2.76 0 5 2.24 5 5v50c0 2.76-2.24 5-5 5h-230c-2.76 0-5-2.24-5-5z" stroke="#000" stroke-opacity="0" stroke-width="2" fill="#fff" fill-opacity="0"/>
		<path d="M1109 311.07c.82-1.65 3.18-1.65 4 0l13.92 27.67c.75 1.5-.34 3.26-2 3.26h-27.83c-1.7 0-2.77-1.76-2.02-3.26l13.9-27.67z" fill="#fdc51f"/>

		<!-- 今解決すべき問題 -->
		<a href="#">
			<path d="M1113 320h-4v12h4v-12zm-2.88 14c-.62 0-1.12.5-1.12 1.13v1.75c0 .62.5 1.12 1.13 1.12h1.74c.63 0 1.13-.5 1.13-1.13v-1.75c0-.62-.5-1.12-1.13-1.12h-1.74z" fill="#fff"/>
			<text transform="matrix(1,0,0,1,1200,330)">今解決すべき問題</text>
		</a>

		<path d="M1073 266h44.5M1073.03 266H1072" stroke="#000" stroke-width="2" fill="none"/>
		<path d="M1132.76 266l-14.26 4.64v-9.28z" stroke="#000" stroke-width="2"/>
		<path d="M935 382v-90.5" stroke="#000" stroke-width="2" fill="none"/>
		<path d="M936 383h-2v-1.03h2"/><path d="M935 276.24l4.64 14.26h-9.28z" stroke="#000" stroke-width="2"/>
	</g>
</svg>
