<svg xmlns="http://www.w3.org/2000/svg" xmlns:xlink="http://www.w3.org/1999/xlink" width="1200" height="700">
	<g transform="translate(-450 -400)">
		<path d="M1312 421c0-2.76 2.24-5 5-5h310c2.76 0 5 2.24 5 5v110c0 2.76-2.24 5-5 5h-310c-2.76 0-5-2.24-5-5z" stroke="#000" stroke-width="2" fill-opacity="0"/>

		<!-- 都市鉱山の課題 -->
		<a href="#">
			<path d="M855 629.06c0-2.76 2.24-5 5-5h150c2.76 0 5 2.24 5 5v86c0 2.76-2.24 5-5 5H860c-2.76 0-5-2.24-5-5z" stroke="#000" stroke-width="2" fill="#e3f7ff"/>
			<text transform="matrix(1,0,0,1,880,675)">都市鉱山の課題</text>
		</a>

		<!-- 回収率の低さ -->
		<a href="#">
			<path d="M480 629.06c0-2.76 2.24-5 5-5h150c2.76 0 5 2.24 5 5v86c0 2.76-2.24 5-5 5H485c-2.76 0-5-2.24-5-5z" stroke="#000" stroke-width="2" fill="#ffe3e9"/>
			<text transform="matrix(1,0,0,1,510,675)">回収率の低さ</text>
		</a>

		<!-- 品位の低さ -->
		<a href="#">
			<path d="M855 837.12c0-2.76 2.24-5 5-5h150c2.76 0 5 2.24 5 5v86c0 2.76-2.24 5-5 5H860c-2.76 0-5-2.24-5-5z" stroke="#000" stroke-width="2" fill="#f4e3ff"/>
			<text transform="matrix(1,0,0,1,895,885)">品位の低さ</text>
		</a>

		<!-- 廃棄物の発生 -->
		<a href="#">
			<path d="M1230 629.06c0-2.76 2.24-5 5-5h150c2.76 0 5 2.24 5 5v86c0 2.76-2.24 5-5 5h-150c-2.76 0-5-2.24-5-5z" stroke="#000" stroke-width="2" fill="#fff7e3"/>
			<text transform="matrix(1,0,0,1,1262,675)">廃棄物の発生</text>
		</a>

		<!-- コスト問題 -->
		<a href="#">
			<path d="M855 421c0-2.76 2.24-5 5-5h150c2.76 0 5 2.24 5 5v86c0 2.76-2.24 5-5 5H860c-2.76 0-5-2.24-5-5z" stroke="#000" stroke-width="2" fill="#ebffe3"/>
			<text transform="matrix(1,0,0,1,895,468)">コスト問題</text>
		</a>

		<path d="M560.02 722.06l.12 5.8.4 6.4.64 6.04.85 5.75 1.04 5.48 1.23 5.25 1.4 5.05 1.6 4.86 1.74 4.7 1.92 4.57 2.1 4.45 2.27 4.34 2.46 4.26 2.64 4.2 2.87 4.1 3.1 4.1 3.34 4.02 3.6 4 3.9 4 4.25 3.96 4.6 3.98 5 3.97 5.5 4 6.02 4 6.64 4 7.36 4.05 8.18 4.06 9.16 4.07 10.3 4.08 11.68 4.07 13.32 4 15.32 3.94 17.76 3.77 20.8 3.5 24.6 3.1 29.5 2.46 35.83 1.48 2.43.03" stroke="#000" stroke-width="2" fill="none"/>
		<path d="M561.02 722.07l-2 .04-.02-1.04h2"/>
		<path d="M850.76 880.1l-14.3 4.48.1-9.27z" stroke="#000" stroke-width="2"/>
		<path d="M1309.98 622.06l-.12-5.8-.4-6.4-.64-6.04-.85-5.75-1.04-5.48-1.23-5.26-1.4-5.05-1.6-4.87-1.74-4.7-1.92-4.58-2.1-4.45-2.27-4.34-2.46-4.26-2.64-4.2-2.87-4.1-3.1-4.1-3.34-4.02-3.6-4-3.9-4-4.25-3.96-4.6-3.98-5-3.97-5.5-4-6.02-4-6.64-4-7.36-4.05-8.18-4.06-9.16-4.07-10.3-4.1-11.68-4.05-13.32-4-15.32-3.94-17.76-3.75-20.8-3.5-24.6-3.1-29.5-2.46-35.83-1.5h-2.43" stroke="#000" stroke-width="2" fill="none"/>
		<path d="M1311 623.06h-2l-.02-1 2-.05"/>
		<path d="M1019.24 464.03l14.3-4.5-.1 9.28z" stroke="#000" stroke-width="2"/>
		<path d="M935 722.06v108.06" stroke="#000" stroke-width="2" fill="none"/>
		<path d="M936 722.1h-2v-1.04h2M936 831.12h-2v-1.03h2"/>
		<path d="M853 672.06H642" stroke="#000" stroke-width="2" fill="none"/>
		<path d="M854 673.06h-1.03v-2H854M642.03 673.06H641v-2h1.03"/>
		<path d="M935 622.06V514" stroke="#000" stroke-width="2" fill="none"/>
		<path d="M936 623.06h-2v-1.03h2M936 514.03h-2V513h2"/>
		<path d="M1017 672.06h211" stroke="#000" stroke-width="2" fill="none"/>
		<path d="M1017.03 673.06H1016v-2h1.03M1229 673.06h-1.03v-2h1.03"/>

		<!-- 有害物質の発生 -->
		<a href="#">
			<path d="M1230 837.12c0-2.76 2.24-5 5-5h150c2.76 0 5 2.24 5 5v86c0 2.76-2.24 5-5 5h-150c-2.76 0-5-2.24-5-5z" stroke="#000" stroke-width="2" fill="#fff7e3"/>
			<text transform="matrix(1,0,0,1,1255,885)">有害物質の発生</text>
		</a>

		<path d="M1310 830.12V722.06" stroke="#000" stroke-width="2" fill="none"/>
		<path d="M1311 831.12h-2v-1.03h2M1311 722.1h-2v-1.04h2"/>

		<!-- セベソ事件 -->
		<a href="#">
			<path d="M1481 687.56c0-2.76 2.24-5 5-5h150c2.76 0 5 2.24 5 5v86c0 2.76-2.24 5-5 5h-150c-2.76 0-5-2.24-5-5 v-10 l-50 60 l50 -100 z" stroke="#000" stroke-width="2" fill="#fff7e3"/>
			<text transform="matrix(1,0,0,1,1520,735)">セベソ事件</text>
		</a>

		<!-- ココ事件 -->
		<a href="#">
			<path d="M1481 837.12c0-2.76 2.24-5 5-5h150c2.76 0 5 2.24 5 5v86c0 2.76-2.24 5-5 5h-150c-2.76 0-5-2.24-5-5 v-28 l-50 -15 l50 -15 z" stroke="#000" stroke-width="2" fill="#fff7e3"/>
			<text transform="matrix(1,0,0,1,1530,885)">ココ事件</text>
		</a>

		<!-- 豊島事件 -->
		<a href="#">
			<path d="M1481 986.68c0-2.76 2.24-5 5-5h150c2.76 0 5 2.24 5 5v86c0 2.76-2.24 5-5 5h-150c-2.76 0-5-2.24-5-5 v-36 l-50 -100 l50 60 z" stroke="#000" stroke-width="2" fill="#fff7e3"/>
			<text transform="matrix(1,0,0,1,1530,1035)">豊島事件</text>
		</a>

		<path d="M1329 448h62M1329.03 448H1328" stroke="#000" stroke-width="2" fill="none"/>
		<path d="M1392 449h-1.03v-2h1.03"/>

		<!-- 事実関係 -->
		<path d="M1392 421c0-2.76 2.24-5 5-5h230c2.76 0 5 2.24 5 5v50c0 2.76-2.24 5-5 5h-230c-2.76 0-5-2.24-5-5z" stroke="#000" stroke-opacity="0" stroke-width="2" fill="#fff" fill-opacity="0"/>
		<text transform="matrix(1,0,0,1,1475,455)">事実関係</text>

		<!-- 因果関係 -->
		<path d="M1392 481c0-2.76 2.24-5 5-5h230c2.76 0 5 2.24 5 5v50c0 2.76-2.24 5-5 5h-230c-2.76 0-5-2.24-5-5z" stroke="#000" stroke-opacity="0" stroke-width="2" fill="#fff" fill-opacity="0"/>
		<text transform="matrix(1,0,0,1,1475,510)">因果関係</text>

		<path d="M1329 506h44.5M1329.03 506H1328" stroke="#000" stroke-width="2" fill="none"/>
		<path d="M1388.76 506l-14.26 4.64v-9.28z" stroke="#000" stroke-width="2"/>
	</g>
</svg>
