<svg xmlns="http://www.w3.org/2000/svg" xmlns:xlink="http://www.w3.org/1999/xlink" width="1300" height="600">
	<g transform="translate(-100 -400)">
		<path d="M105 428.56c0-2.76 2.24-5 5-5h310c2.76 0 5 2.24 5 5v50c0 2.76-2.24 5-5 5H110c-2.76 0-5-2.24-5-5z" stroke="#000" stroke-width="2" fill-opacity="0"/>
		<text transform="matrix(1,0,0,1,260,460)" font-size="20">因果関係</text>

		<!-- リサイクルの促進 -->
		<a href="#">
			<path d="M855 618.5c0-2.76 2.24-5 5-5h150c2.76 0 5 2.24 5 5v86c0 2.76-2.24 5-5 5H860c-2.76 0-5-2.24-5-5z" stroke="#000" stroke-width="2" fill="#e3f7ff"/>
			<text x="-5" y="55" transform="matrix(1,0,0,1,875,613.5)">リサイクルの促進</text>
		</a>

		<!-- 配達によるリサイクルサービス -->
		<a href="#">
			<path d="M855 826.44c0-2.76 2.24-5 5-5h150c2.76 0 5 2.24 5 5v86c0 2.76-2.24 5-5 5H860c-2.76 0-5-2.24-5-5z" stroke="#000" stroke-width="2" fill="#f4e3ff"/>
			<text transform="matrix(1,0,0,1,895,865)">配達による</text>
			<text transform="matrix(1,0,0,1,865,885)">リサイクルサービス</text>
		</a>

		<!-- シングルストリーム方式 -->
		<a href="#">
			<path d="M1230 618.5c0-2.76 2.24-5 5-5h150c2.76 0 5 2.24 5 5v86c0 2.76-2.24 5-5 5h-150c-2.76 0-5-2.24-5-5z" stroke="#000" stroke-width="2" fill="#fff7e3"/>
			<text transform="matrix(1,0,0,1,1275,660)">シングル</text>
			<text transform="matrix(1,0,0,1,1255,680)">ストリーム方式</text>
		</a>

		<!-- スケールメリット -->
		<a href="#">
			<path d="M480 826.44c0-2.76 2.24-5 5-5h150c2.76 0 5 2.24 5 5v86c0 2.76-2.24 5-5 5H485c-2.76 0-5-2.24-5-5z" stroke="#000" stroke-width="2" fill="#e3e5ff"/>
			<text transform="matrix(1,0,0,1,497,875)">スケールメリット</text>
		</a>

		<!-- 前払い制度の導入 -->
		<a href="#">
			<path d="M480 410.56c0-2.76 2.24-5 5-5h150c2.76 0 5 2.24 5 5v86c0 2.76-2.24 5-5 5H485c-2.76 0-5-2.24-5-5z" stroke="#000" stroke-width="2" fill="#ffd4fa"/>
			<text transform="matrix(1,0,0,1,500,460)">前払い制度の導入</text>
		</a>

		<!-- ORDEEの制定 -->
		<a href="#">
			<path d="M855 410.56c0-2.76 2.24-5 5-5h150c2.76 0 5 2.24 5 5v86c0 2.76-2.24 5-5 5H860c-2.76 0-5-2.24-5-5z" stroke="#000" stroke-width="2" fill="#ebffe3"/>
			<text transform="matrix(1,0,0,1,885,460)">ORDEEの制定</text>
		</a>

		<!-- 回収ボックスの設置 -->
		<a href="#">
			<path d="M1230 410.56c0-2.76 2.24-5 5-5h150c2.76 0 5 2.24 5 5v86c0 2.76-2.24 5-5 5h-150c-2.76 0-5-2.24-5-5z" stroke="#000" stroke-width="2" fill="#e3e5ff"/>
			<text transform="matrix(1,0,0,1,1240,460)">回収ボックスの設置</text>
		</a>

		<!-- みんなのメダルプロジェクト -->
		<a href="#">
			<path d="M1230 826.44c0-2.76 2.24-5 5-5h150c2.76 0 5 2.24 5 5v86c0 2.76-2.24 5-5 5h-150c-2.76 0-5-2.24-5-5z" stroke="#000" stroke-width="2" fill="#ffd4fa"/>
			<text transform="matrix(1,0,0,1,1255,865)">みんなのメダル</text>
			<text transform="matrix(1,0,0,1,1265,885)">プロジェクト</text>
		</a>

		<!-- 電子廃棄物の削減 -->
		<a href="#">
			<path d="M480 618.5c0-2.76 2.24-5 5-5h150c2.76 0 5 2.24 5 5v86c0 2.76-2.24 5-5 5H485c-2.76 0-5-2.24-5-5z" stroke="#000" stroke-width="2" fill="#ffe3e9"/>
			<text transform="matrix(1,0,0,1,510,660)">電子廃棄物の</text>
			<text transform="matrix(1,0,0,1,540,680)">削減</text>
		</a>

		<!-- リユースの促進 -->
		<a href="#">
			<path d="M105 618.5c0-2.76 2.24-5 5-5h150c2.76 0 5 2.24 5 5v86c0 2.76-2.24 5-5 5H110c-2.76 0-5-2.24-5-5z" stroke="#000" stroke-width="2" fill="#ffe3e9"/>
			<text transform="matrix(1,0,0,1,130,665)">リユースの促進</text>
		</a>

		<!-- オンラインの修理サービス -->
		<a href="#">
			<path d="M105 826.44c0-2.76 2.24-5 5-5h150c2.76 0 5 2.24 5 5v86c0 2.76-2.24 5-5 5H110c-2.76 0-5-2.24-5-5z" stroke="#000" stroke-width="2" fill="#ffe3e9"/>
			<text transform="matrix(1,0,0,1,135,865)">オンラインの</text>
			<text transform="matrix(1,0,0,1,135,885)">修理サービス</text>
		</a>

		<path d="M935 503.56V594" stroke="#000" stroke-width="2" fill="none"/>
		<path d="M936 503.6h-2v-1.04h2"/>
		<path d="M935 609.26L930.36 595h9.28z" stroke="#000" stroke-width="2"/>
		<path d="M1231.1 502.4l-2 5.7-2.43 6.13-2.54 5.68-2.64 5.3-2.74 4.98-2.85 4.68-2.94 4.44-3.07 4.2-3.2 4.04-3.36 3.86-3.5 3.73-3.7 3.6-3.88 3.5-4.13 3.4-4.4 3.34-4.74 3.28-5.12 3.23-5.57 3.2-6.12 3.2-6.83 3.2-7.7 3.22-8.9 3.3-10.55 3.4-13.06 3.6-17.57 4.1-30.38 5.65-33.23 5.27" stroke="#000" stroke-width="2" fill="none"/>
		<path d="M1231.43 501.45l.95.3-.35 1-1.88-.66.56-1.64"/>
		<path d="M1018.9 616.02l13.35-6.82 1.46 9.16z" stroke="#000" stroke-width="2"/>
		<path d="M640.5 500.93l6.43 8.46 6.8 8.2 6.6 7.33 6.54 6.65 6.5 6.1 6.56 5.63 6.68 5.3 6.9 5 7.22 4.78 7.7 4.64 8.36 4.58 9.36 4.63 10.92 4.84 13.66 5.37 20.18 6.96 66.47 20.28" stroke="#000" stroke-width="2" fill="none"/>
		<path d="M641.3 500.34l-1.6 1.2-.62-.82.8-.6.38-1.15"/>
		<path d="M851.97 614.13l-15 .27 2.7-8.87z" stroke="#000" stroke-width="2"/>
		<path d="M638.9 820.6l2-5.7 2.43-6.13 2.54-5.68 2.64-5.3 2.74-4.98 2.85-4.68 2.94-4.44 3.07-4.2 3.2-4.04 3.36-3.86 3.5-3.73 3.7-3.6 3.88-3.5 4.13-3.4 4.4-3.34 4.74-3.28 5.12-3.23 5.57-3.2 6.12-3.2 6.83-3.2 7.7-3.22 8.9-3.3 10.55-3.4 13.06-3.6 17.57-4.1 30.38-5.65 33.23-5.27" stroke="#000" stroke-width="2" fill="none"/>
		<path d="M639.85 820.9l-.56 1.64-.73-1-.95-.3.35-1"/>
		<path d="M851.1 706.98l-13.35 6.82-1.46-9.16z" stroke="#000" stroke-width="2"/>
		<path d="M642 661.5h193.5" stroke="#000" stroke-width="2" fill="none"/>
		<path d="M642.03 662.5H641v-2h1.03"/>
		<path d="M850.76 661.5l-14.26 4.64v-9.28z" stroke="#000" stroke-width="2"/>
		<path d="M935 819.44V729" stroke="#000" stroke-width="2" fill="none"/>
		<path d="M936 820.44h-2v-1.03h2"/>
		<path d="M935 713.74l4.64 14.26h-9.28z" stroke="#000" stroke-width="2"/>
		<path d="M1229.5 822.07l-12.66-16.68-11.4-13.76-10.14-11.26-9.3-9.5-8.72-8.15-8.28-7.13-7.97-6.3-7.77-5.64-7.65-5.07-7.6-4.6-7.62-4.18-7.7-3.8-7.84-3.5-8.05-3.17-8.35-2.9-8.7-2.6-9.14-2.34-9.7-2.04-10.43-1.75-11.3-1.4-12.36-1.02-2.3-.1" stroke="#000" stroke-width="2" fill="none"/>
		<path d="M1230.92 822.28l-.8.6-.38 1.15-1.04-1.37 1.6-1.2"/>
		<path d="M1019.23 704.75l14.4-4.22-.27 9.26z" stroke="#000" stroke-width="2"/>
		<path d="M1228 661.5h-193.5" stroke="#000" stroke-width="2" fill="none"/>
		<path d="M1229 662.5h-1.03v-2h1.03"/>
		<path d="M1019.24 661.5l14.26-4.64v9.28z" stroke="#000" stroke-width="2"/>
		<path d="M267 661.5h193.5" stroke="#000" stroke-width="2" fill="none"/>
		<path d="M267.03 662.5H266v-2h1.03"/>
		<path d="M475.76 661.5l-14.26 4.64v-9.28z" stroke="#000" stroke-width="2"/>
		<path d="M185 819.44V729" stroke="#000" stroke-width="2" fill="none"/>
		<path d="M186 820.44h-2v-1.03h2"/>
		<path d="M185 713.74l4.64 14.26h-9.28z" stroke="#000" stroke-width="2"/>
		<path d="M460.68 663.77l-2.7.76-2.78.9-2.76 1.03-2.75 1.16-2.77 1.3-2.77 1.44-2.8 1.63-2.86 1.8-2.92 2.02-3 2.28-3.1 2.56-3.22 2.9-3.4 3.33-3.58 3.82-3.86 4.48-4.2 5.3-4.7 6.48-5.42 8.18-6.7 11.07-9.9 18.13-33.9 65.4-6.7 11.08-5.42 8.18-4.7 6.47-4.2 5.3-3.86 4.48-3.6 3.83-3.38 3.33-3.23 2.9-3.1 2.57-2.98 2.28-2.92 2.02-2.85 1.8-2.8 1.64-2.78 1.45-2.76 1.28-2.74 1.16-2.76 1.03-2.77.9-2.8.78-2.85.67-2.9.55-2.98.44-3.06.33-3.16.2-2.28.05" stroke="#000" stroke-width="2" fill="none"/>
		<path d="M475.8 661.9l-13.6 6.36-1.14-9.2z" stroke="#000" stroke-width="2"/>
		<path d="M267.03 875.5H266v-2h1.03"/>
		<path d="M122 453.56h44.5M122.03 453.56H121" stroke="#000" stroke-width="2" fill="none"/>
		<path d="M181.76 453.56l-14.26 4.64v-9.28z" stroke="#000" stroke-width="2"/>

	</g>
</svg>
