<?xml version="1.0" encoding="UTF-8" standalone="no" ?>
<!DOCTYPE svg PUBLIC "-//W3C//DTD SVG 1.1//EN" "http://www.w3.org/Graphics/SVG/1.1/DTD/svg11.dtd">
<svg xmlns="http://www.w3.org/2000/svg" xmlns:xlink="http://www.w3.org/1999/xlink" version="1.1" width="600" height="400" viewBox="0 0 600 400" xml:space="preserve">
<desc>Created with Fabric.js 4.6.0</desc>
<defs>
</defs>
<g transform="matrix(0.37 0.07 -0.12 0.62 67.66 143.37)" id="02NkKslJ5AdlQzT87qLjJ"  >
<path style="stroke: rgb(0,0,0); stroke-width: 1; stroke-dasharray: none; stroke-linecap: butt; stroke-dashoffset: 0; stroke-linejoin: miter; stroke-miterlimit: 4; fill: rgb(255,255,255); fill-opacity: 0; fill-rule: nonzero; opacity: 1;" vector-effect="non-scaling-stroke"  transform=" translate(0, 0)" d="M -39.02439 -39.02439 L 39.02439 -39.02439 L 39.02439 39.02439 L -39.02439 39.02439 z" stroke-linecap="round" />
</g>
<g transform="matrix(1 0 0 1 220 100)" id="-dB2NLFhexzaWDiRNyBGw"  >
<path style="stroke: rgb(111,67,146); stroke-width: 1; stroke-dasharray: none; stroke-linecap: butt; stroke-dashoffset: 0; stroke-linejoin: miter; stroke-miterlimit: 4; fill: rgb(6,96,166); fill-rule: nonzero; opacity: 1;" vector-effect="non-scaling-stroke"  transform=" translate(0, 0)" d="M 0 -29.75 L 40 -0.16666999999999987 L 0 29.75 L 0 9.75 L -40 9.75 L -40 -9.75 L 0 -9.75 z" stroke-linecap="round" />
</g>
<g transform="matrix(0.71 0.71 -0.71 0.71 457.82 112.39)" id="OB_n4ODrulOzuzB5PC1Ka"  >
<path style="stroke: rgb(111,67,146); stroke-width: 1; stroke-dasharray: none; stroke-linecap: butt; stroke-dashoffset: 0; stroke-linejoin: miter; stroke-miterlimit: 4; fill: rgb(6,96,166); fill-rule: nonzero; opacity: 1;" vector-effect="non-scaling-stroke"  transform=" translate(0, 0)" d="M 0 -29.75 L 40 -0.16666999999999987 L 0 29.75 L 0 9.75 L -40 9.75 L -40 -9.75 L 0 -9.75 z" stroke-linecap="round" />
</g>
<g transform="matrix(-0.71 0.71 -0.71 -0.71 457.82 300.22)" id="Rp3956sq7bt3MFxPu4hvf"  >
<path style="stroke: rgb(111,67,146); stroke-width: 1; stroke-dasharray: none; stroke-linecap: butt; stroke-dashoffset: 0; stroke-linejoin: miter; stroke-miterlimit: 4; fill: rgb(6,96,166); fill-rule: nonzero; opacity: 1;" vector-effect="non-scaling-stroke"  transform=" translate(0, 0)" d="M 0 -29.75 L 40 -0.16666999999999987 L 0 29.75 L 0 9.75 L -40 9.75 L -40 -9.75 L 0 -9.75 z" stroke-linecap="round" />
</g>
<g transform="matrix(-1 0 0 -1 219.5 320)" id="CriIk2NLOYJhhgnM1sQKv"  >
<path style="stroke: rgb(111,67,146); stroke-width: 1; stroke-dasharray: none; stroke-linecap: butt; stroke-dashoffset: 0; stroke-linejoin: miter; stroke-miterlimit: 4; fill: rgb(6,96,166); fill-rule: nonzero; opacity: 1;" vector-effect="non-scaling-stroke"  transform=" translate(0, 0)" d="M 0 -29.75 L 40 -0.16666999999999987 L 0 29.75 L 0 9.75 L -40 9.75 L -40 -9.75 L 0 -9.75 z" stroke-linecap="round" />
</g>
<g transform="matrix(0.63 0.12 -0.17 0.89 68.61 140.13)" id="qkKXhNmgtOq6GZc1bUkUx"  >
<path style="stroke: rgb(0,0,0); stroke-width: 1; stroke-dasharray: none; stroke-linecap: butt; stroke-dashoffset: 0; stroke-linejoin: miter; stroke-miterlimit: 4; fill: rgb(255,255,255); fill-opacity: 0; fill-rule: nonzero; opacity: 1;" vector-effect="non-scaling-stroke"  transform=" translate(0, 0)" d="M -18.98907 -18.98907 L 18.98907 -18.98907 L 18.98907 18.98907 L -18.98907 18.98907 z" stroke-linecap="round" />
</g>
<g transform="matrix(1 0 0 1 64.19 162.42)" id="0QhG0uW4m3Gk0BGWfpRTC"  >
<path style="stroke: rgb(53,9,171); stroke-opacity: 0; stroke-width: 1; stroke-dasharray: none; stroke-linecap: butt; stroke-dashoffset: 0; stroke-linejoin: miter; stroke-miterlimit: 4; fill: rgb(0,0,0); fill-rule: nonzero; opacity: 1;" vector-effect="non-scaling-stroke"  transform=" translate(-3.69, -3.69)" d="M 3.68853 0 C 5.724600000000001 0 7.37706 1.65246 7.37706 3.68853 C 7.37706 5.724600000000001 5.724600000000001 7.37706 3.68853 7.37706 C 1.65246 7.37706 0 5.724600000000001 0 3.68853 C 0 1.65246 1.65246 0 3.68853 0 z" stroke-linecap="round" />
</g>
<g transform="matrix(0.55 0 0 0.92 130 110)" id="Q5RDdMTrSPydEauHOY6jq"  >
<path style="stroke: rgb(90,178,3); stroke-opacity: 0; stroke-width: 0; stroke-dasharray: none; stroke-linecap: butt; stroke-dashoffset: 0; stroke-linejoin: miter; stroke-miterlimit: 4; fill: rgb(177,233,102); fill-rule: nonzero; opacity: 1;" vector-effect="non-scaling-stroke"  transform=" translate(0, 0)" d="M -54.09836 -54.09836 L 54.09836 -54.09836 L 54.09836 54.09836 L -54.09836 54.09836 z" stroke-linecap="round" />
</g>
<g transform="matrix(0.9 0 0 0.62 129.5 85.13)" id="OvF7yrnUGRemgr-Cynz3V"  >
<path style="stroke: rgb(0,0,0); stroke-opacity: 0.5; stroke-width: 1; stroke-dasharray: none; stroke-linecap: butt; stroke-dashoffset: 0; stroke-linejoin: miter; stroke-miterlimit: 4; fill: rgb(0,0,0); fill-opacity: 0.36; fill-rule: nonzero; opacity: 1;" vector-effect="non-scaling-stroke"  transform=" translate(0, 0)" d="M -23.22404 -7.30189 C -23.22404 -11.524709999999999 -22.073339999999998 -15.57457 -20.02507 -18.56055 C -17.97681 -21.54653 -15.19876 -23.22404 -12.30208 -23.22404 L 12.30209 -23.22404 L 12.30209 -23.22404 C 15.19877 -23.22404 17.97681 -21.546529999999997 20.02508 -18.56055 C 22.073339999999998 -15.57457 23.22405 -11.5247 23.22405 -7.301879999999999 L 23.22405 7.301900000000002 L 23.22405 7.301900000000002 C 23.22405 16.095460000000003 18.33412 23.22406 12.302099999999998 23.22406 L -12.302070000000002 23.22406 L -12.302070000000002 23.22406 C -18.334100000000003 23.22406 -23.224020000000003 16.095470000000002 -23.224020000000003 7.301900000000002 z" stroke-linecap="round" />
</g>
<g transform="matrix(0.63 0 0 1 129.96 134.06)" id="Agox9YC8WG6H31vFz1XhM"  >
<path style="stroke: rgb(255,255,255); stroke-opacity: 0; stroke-width: 0; stroke-dasharray: none; stroke-linecap: butt; stroke-dashoffset: 0; stroke-linejoin: miter; stroke-miterlimit: 4; fill: rgb(255,255,255); fill-rule: nonzero; opacity: 1;" vector-effect="non-scaling-stroke"  transform=" translate(0, 0)" d="M -19.34157 -19.34157 L 19.341559999999998 -19.34157 L 19.341559999999998 19.341559999999998 L -19.34157 19.341559999999998 z" stroke-linecap="round" />
</g>
<g transform="matrix(1 0 0 1 130 135.09)" style="" id="X7cZNF_--4trxE0Tve0e5"  >
		<text xml:space="preserve" font-family="Open Sans" font-size="16" font-style="normal" font-weight="normal" line-height="0.9" style="stroke: none; stroke-width: 1; stroke-dasharray: none; stroke-linecap: butt; stroke-dashoffset: 0; stroke-linejoin: miter; stroke-miterlimit: 4; fill: rgb(0,0,0); fill-rule: nonzero; opacity: 1; white-space: pre;" ><tspan x="-8" y="-3.11" >回</tspan><tspan x="-8" y="13.16" >収</tspan></text>
</g>
<g transform="matrix(1 0 0 1 117.77 34.95)" style="" id="QPKSY1lcohOCIVSHhsh_T"  >
		<text xml:space="preserve" font-family="Open Sans" font-size="20" font-style="normal" font-weight="normal" line-height="1.16" style="stroke: none; stroke-width: 1; stroke-dasharray: none; stroke-linecap: butt; stroke-dashoffset: 0; stroke-linejoin: miter; stroke-miterlimit: 4; fill: rgb(0,0,0); fill-rule: nonzero; opacity: 1; white-space: pre;" ><tspan x="-60" y="6.28" >回収ボックス</tspan></text>
</g>
<g transform="matrix(1 0 0 1 337.02 34.95)" style="" id="b7y0onZjNs_BEho2cImOi"  >
		<text xml:space="preserve" font-family="Open Sans" font-size="20" font-style="normal" font-weight="normal" line-height="1.16" style="stroke: none; stroke-width: 1; stroke-dasharray: none; stroke-linecap: butt; stroke-dashoffset: 0; stroke-linejoin: miter; stroke-miterlimit: 4; fill: rgb(0,0,0); fill-rule: nonzero; opacity: 1; white-space: pre;" ><tspan x="-50" y="6.28" >認定事業者</tspan></text>
</g>
<g transform="matrix(1 0 0 1 518.32 159.12)" style="" id="mVKKIz3Ll0W2Xcdkjy1s3"  >
		<text xml:space="preserve" font-family="Open Sans" font-size="20" font-style="normal" font-weight="normal" line-height="1.16" style="stroke: none; stroke-width: 1; stroke-dasharray: none; stroke-linecap: butt; stroke-dashoffset: 0; stroke-linejoin: miter; stroke-miterlimit: 4; fill: rgb(0,0,0); fill-rule: nonzero; opacity: 1; white-space: pre;" ><tspan x="-70" y="6.28" >金属精錬事業者</tspan></text>
</g>
<g transform="matrix(1 0 0 1 347.3 238.39)" style="" id="A7nxGE0vZy8ZB6eXDDuj4"  >
		<text xml:space="preserve" font-family="Open Sans" font-size="20" font-style="normal" font-weight="normal" line-height="1.16" style="stroke: none; stroke-width: 1; stroke-dasharray: none; stroke-linecap: butt; stroke-dashoffset: 0; stroke-linejoin: miter; stroke-miterlimit: 4; fill: rgb(0,0,0); fill-rule: nonzero; opacity: 1; white-space: pre;" ><tspan x="-39.7" y="6.28" >メーカー</tspan></text>
</g>
<g transform="matrix(1 0 0 1 108.1 238.39)" style="" id="QtO6QCgh26rT78OpTQDQ2"  >
		<text xml:space="preserve" font-family="Open Sans" font-size="20" font-style="normal" font-weight="normal" line-height="1.16" style="stroke: none; stroke-width: 1; stroke-dasharray: none; stroke-linecap: butt; stroke-dashoffset: 0; stroke-linejoin: miter; stroke-miterlimit: 4; fill: rgb(0,0,0); fill-rule: nonzero; opacity: 1; white-space: pre;" ><tspan x="-30" y="6.28" >消費者</tspan></text>
</g>
<g transform="matrix(1 0 0 0.49 300 78.51)" id="wJWn6v65T0kfamKbUlJ8S"  >
<path style="stroke: rgb(0,0,0); stroke-width: 1; stroke-dasharray: none; stroke-linecap: butt; stroke-dashoffset: 0; stroke-linejoin: miter; stroke-miterlimit: 4; fill: rgb(102,68,69); fill-opacity: 0; fill-rule: nonzero; opacity: 1;" vector-effect="non-scaling-stroke"  transform=" translate(0, 0)" d="M -32.03884 -4.1971 C -32.03884 -19.57367 -25.95308 -32.03884 -18.445909999999998 -32.03884 L 18.445910000000005 -32.03884 L 18.445910000000005 -32.03884 C 25.953080000000007 -32.03884 32.03884000000001 -19.57367 32.03884000000001 -4.197099999999999 L 32.03884000000001 4.197090000000001 L 32.03884000000001 4.197090000000001 C 32.03884000000001 19.57366 25.953080000000007 32.038830000000004 18.445910000000005 32.038830000000004 L -18.445909999999998 32.038830000000004 L -18.445909999999998 32.038830000000004 C -25.95308 32.038830000000004 -32.03884 19.573660000000004 -32.03884 4.197090000000003 z" stroke-linecap="round" />
</g>
<g transform="matrix(1 0 0 1 300 78.51)" style="" id="ZY3iwBrrs3lImqrgaeQ6C"  >
		<text xml:space="preserve" font-family="Open Sans" font-size="16" font-style="normal" font-weight="normal" line-height="1.16" style="stroke: none; stroke-width: 1; stroke-dasharray: none; stroke-linecap: butt; stroke-dashoffset: 0; stroke-linejoin: miter; stroke-miterlimit: 4; fill: rgb(0,0,0); fill-rule: nonzero; opacity: 1; white-space: pre;" ><tspan x="-24" y="5.03" >仕分け</tspan></text>
</g>
<g transform="matrix(1 0 0 0.49 375.26 78.45)" id="DjAVgsdOqLdwUNkCuhgJF"  >
<path style="stroke: rgb(0,0,0); stroke-width: 1; stroke-dasharray: none; stroke-linecap: butt; stroke-dashoffset: 0; stroke-linejoin: miter; stroke-miterlimit: 4; fill: rgb(102,68,69); fill-opacity: 0; fill-rule: nonzero; opacity: 1;" vector-effect="non-scaling-stroke"  transform=" translate(0, 0)" d="M -32.03884 -4.1971 C -32.03884 -19.57367 -25.95308 -32.03884 -18.445909999999998 -32.03884 L 18.445910000000005 -32.03884 L 18.445910000000005 -32.03884 C 25.953080000000007 -32.03884 32.03884000000001 -19.57367 32.03884000000001 -4.197099999999999 L 32.03884000000001 4.197090000000001 L 32.03884000000001 4.197090000000001 C 32.03884000000001 19.57366 25.953080000000007 32.038830000000004 18.445910000000005 32.038830000000004 L -18.445909999999998 32.038830000000004 L -18.445909999999998 32.038830000000004 C -25.95308 32.038830000000004 -32.03884 19.573660000000004 -32.03884 4.197090000000003 z" stroke-linecap="round" />
</g>
<g transform="matrix(1 0 0 1 375.26 78.45)" style="" id="ZzyeW1lvxVxovo-f4Sq9Z"  >
		<text xml:space="preserve" font-family="Open Sans" font-size="16" font-style="normal" font-weight="normal" line-height="1.16" style="stroke: none; stroke-width: 1; stroke-dasharray: none; stroke-linecap: butt; stroke-dashoffset: 0; stroke-linejoin: miter; stroke-miterlimit: 4; fill: rgb(0,0,0); fill-rule: nonzero; opacity: 1; white-space: pre;" ><tspan x="-16" y="5.03" >分解</tspan></text>
</g>
<g transform="matrix(1 0 0 0.49 300 128.59)" id="8DT4atEnPBA8yl62_PoxA"  >
<path style="stroke: rgb(0,0,0); stroke-width: 1; stroke-dasharray: none; stroke-linecap: butt; stroke-dashoffset: 0; stroke-linejoin: miter; stroke-miterlimit: 4; fill: rgb(102,68,69); fill-opacity: 0; fill-rule: nonzero; opacity: 1;" vector-effect="non-scaling-stroke"  transform=" translate(0, 0)" d="M -32.03884 -4.1971 C -32.03884 -19.57367 -25.95308 -32.03884 -18.445909999999998 -32.03884 L 18.445910000000005 -32.03884 L 18.445910000000005 -32.03884 C 25.953080000000007 -32.03884 32.03884000000001 -19.57367 32.03884000000001 -4.197099999999999 L 32.03884000000001 4.197090000000001 L 32.03884000000001 4.197090000000001 C 32.03884000000001 19.57366 25.953080000000007 32.038830000000004 18.445910000000005 32.038830000000004 L -18.445909999999998 32.038830000000004 L -18.445909999999998 32.038830000000004 C -25.95308 32.038830000000004 -32.03884 19.573660000000004 -32.03884 4.197090000000003 z" stroke-linecap="round" />
</g>
<g transform="matrix(1 0 0 1 300 129.8)" style="" id="VqJBhKu-ORpnKEx3yHp6F"  >
		<text xml:space="preserve" font-family="Open Sans" font-size="16" font-style="normal" font-weight="normal" line-height="1.16" style="stroke: none; stroke-width: 1; stroke-dasharray: none; stroke-linecap: butt; stroke-dashoffset: 0; stroke-linejoin: miter; stroke-miterlimit: 4; fill: rgb(0,0,0); fill-rule: nonzero; opacity: 1; white-space: pre;" ><tspan x="-16" y="5.03" >選別</tspan></text>
</g>
<g transform="matrix(1 0 0 0.49 375.26 128.59)" id="CjhzyjxKVm0miwaZgIVED"  >
<path style="stroke: rgb(0,0,0); stroke-width: 1; stroke-dasharray: none; stroke-linecap: butt; stroke-dashoffset: 0; stroke-linejoin: miter; stroke-miterlimit: 4; fill: rgb(102,68,69); fill-opacity: 0; fill-rule: nonzero; opacity: 1;" vector-effect="non-scaling-stroke"  transform=" translate(0, 0)" d="M -32.03884 -4.1971 C -32.03884 -19.57367 -25.95308 -32.03884 -18.445909999999998 -32.03884 L 18.445910000000005 -32.03884 L 18.445910000000005 -32.03884 C 25.953080000000007 -32.03884 32.03884000000001 -19.57367 32.03884000000001 -4.197099999999999 L 32.03884000000001 4.197090000000001 L 32.03884000000001 4.197090000000001 C 32.03884000000001 19.57366 25.953080000000007 32.038830000000004 18.445910000000005 32.038830000000004 L -18.445909999999998 32.038830000000004 L -18.445909999999998 32.038830000000004 C -25.95308 32.038830000000004 -32.03884 19.573660000000004 -32.03884 4.197090000000003 z" stroke-linecap="round" />
</g>
<g transform="matrix(1 0 0 1 375.26 129.8)" style="" id="TnjSrCFofDb1fxJbMQMio"  >
		<text xml:space="preserve" font-family="Open Sans" font-size="16" font-style="normal" font-weight="normal" line-height="1.16" style="stroke: none; stroke-width: 1; stroke-dasharray: none; stroke-linecap: butt; stroke-dashoffset: 0; stroke-linejoin: miter; stroke-miterlimit: 4; fill: rgb(0,0,0); fill-rule: nonzero; opacity: 1; white-space: pre;" ><tspan x="-16" y="5.03" >破砕</tspan></text>
</g>
<g transform="matrix(1 0 0 0.44 518.32 210.96)" id="O8mtuuQqJu7wInooXLOU2"  >
<path style="stroke: rgb(0,0,0); stroke-width: 1; stroke-dasharray: none; stroke-linecap: butt; stroke-dashoffset: 0; stroke-linejoin: miter; stroke-miterlimit: 4; fill: rgb(0,0,0); fill-opacity: 0; fill-rule: nonzero; opacity: 1;" vector-effect="non-scaling-stroke"  transform=" translate(0, 0)" d="M -61.16505 -61.16505 L 61.16505 -61.16505 L 61.16505 61.16505 L -61.16505 61.16505 z" stroke-linecap="round" />
</g>
<g transform="matrix(1 0 0 1 518.32 210.96)" style="" id="p5-vdgHqYCIcWrnap4NYo"  >
		<text xml:space="preserve" font-family="Open Sans" font-size="16" font-style="normal" font-weight="normal" line-height="1.16" style="stroke: none; stroke-width: 1; stroke-dasharray: none; stroke-linecap: butt; stroke-dashoffset: 0; stroke-linejoin: miter; stroke-miterlimit: 4; fill: rgb(0,0,0); fill-rule: nonzero; opacity: 1; white-space: pre;" ><tspan x="-56" y="5.03" >金属の取り出し</tspan></text>
</g>
<g transform="matrix(1 0 0 1 345.89 322.82)" id="jXjzfEdvxGLFChmD0bBGx"  >
<path style="stroke: rgb(0,0,0); stroke-width: 1; stroke-dasharray: none; stroke-linecap: butt; stroke-dashoffset: 0; stroke-linejoin: miter; stroke-miterlimit: 4; fill: rgb(255,255,255); fill-opacity: 0; fill-rule: nonzero; opacity: 1;" vector-effect="non-scaling-stroke"  transform=" translate(-61.41, -61.41)" d="M 61.40777 0 C 95.30485999999999 0 122.81554 27.51068 122.81554 61.40777 C 122.81554 95.30485999999999 95.30485999999999 122.81554 61.40777 122.81554 C 27.51068 122.81554 0 95.30485999999999 0 61.40777 C 0 27.51068 27.51068 0 61.40777 0 z" stroke-linecap="round" />
</g>
<g transform="matrix(1 0 0 1 345.9 327.77)" style="" id="fJD78zfKcfTFLG06r0nUa"  >
		<text xml:space="preserve" font-family="Open Sans" font-size="20" font-style="normal" font-weight="normal" line-height="1.16" style="stroke: none; stroke-width: 1; stroke-dasharray: none; stroke-linecap: butt; stroke-dashoffset: 0; stroke-linejoin: miter; stroke-miterlimit: 4; fill: rgb(0,0,0); fill-rule: nonzero; opacity: 1; white-space: pre;" ><tspan x="-30" y="-19.93" >原材料</tspan><tspan x="-30" y="6.28" >として</tspan><tspan x="-20" y="32.5" >再生</tspan></text>
</g>
<g transform="matrix(1.41 0 0 1.41 108.1 327.99)" id="Oa8AlaiTtoQiaGYEeGN0n"  >
<g style="" vector-effect="non-scaling-stroke"   >
		<g transform="matrix(1 0 0 1 0 3.45)" id="66JlwczHwjWyzps5eCETT"  >
<path style="stroke: none; stroke-width: 1; stroke-dasharray: none; stroke-linecap: butt; stroke-dashoffset: 0; stroke-linejoin: miter; stroke-miterlimit: 4; fill: rgb(179,181,179); fill-rule: nonzero; opacity: 1;" vector-effect="non-scaling-stroke"  transform=" translate(-40, -43.5)" d="M 24.3 34.9 C 24.400000000000002 33.8 25 26.099999999999998 17.1 26.099999999999998 C 8.700000000000001 26.099999999999998 9.900000000000002 35 9.900000000000002 35 C 9.4 35 9 35.4 9 36.8 C 9.1 38.5 10.3 39.5 10.7 39.8 C 10.899999999999999 40.199999999999996 11.399999999999999 41.4 12.299999999999999 42.699999999999996 L 12.299999999999999 45.9 C 12.1 46.1 9.299999999999999 48.6 9.299999999999999 48.6 L 3.1999999999999993 51.5 C 1.9999999999999993 52 1.1999999999999993 53.1 0.8999999999999995 54.4 L 0 61 C 0 61 12.4 61 12.4 60.9 L 13 57.8 C 13.5 55.4 15.1 53.3 17.3 52.3 L 25.200000000000003 48.699999999999996 C 25.200000000000003 48.699999999999996 22.000000000000004 45.9 22.000000000000004 45.9 L 22.000000000000004 42.699999999999996 C 22.900000000000002 41.4 23.400000000000002 40.099999999999994 23.600000000000005 39.699999999999996 C 24.000000000000004 39.4 25.200000000000006 38.49999999999999 25.300000000000004 36.699999999999996 C 25.3 35.2 24.8 34.9 24.3 34.9 z M 54.7 36.8 C 54.800000000000004 38.5 56 39.5 56.400000000000006 39.8 C 56.60000000000001 40.199999999999996 57.10000000000001 41.4 58.00000000000001 42.8 L 58.00000000000001 46 C 58.00000000000001 46 54.800000000000004 48.8 54.800000000000004 48.8 L 62.7 52.4 C 65 53.4 66.60000000000001 55.5 67 57.9 L 67.6 61 C 67.6 61 80 61 80 61 L 79 54.3 C 78.7 53 77.9 52 76.7 51.4 L 70.60000000000001 48.5 C 70.60000000000001 48.5 67.80000000000001 46 67.60000000000001 45.8 L 67.60000000000001 42.599999999999994 C 68.50000000000001 41.3 69.00000000000001 40.099999999999994 69.2 39.699999999999996 C 69.60000000000001 39.4 70.8 38.4 70.9 36.699999999999996 C 71 35.3 70.5 34.99999999999999 70.10000000000001 34.9 C 70.10000000000001 34.9 71.30000000000001 26 62.900000000000006 26 C 55.00000000000001 26 55.60000000000001 33.7 55.7 34.8 C 55.2 34.9 54.7 35.2 54.7 36.8 z" stroke-linecap="round" />
</g>
		<g transform="matrix(1 0 0 1 -0.05 0)" id="5KVMiNKP5cHg6k9agpyCb"  >
<path style="stroke: none; stroke-width: 1; stroke-dasharray: none; stroke-linecap: butt; stroke-dashoffset: 0; stroke-linejoin: miter; stroke-miterlimit: 4; fill: rgb(179,181,179); fill-rule: nonzero; opacity: 1;" vector-effect="non-scaling-stroke"  transform=" translate(-39.95, -40.05)" d="M 62.2 53.6 L 52.2 49 C 52.2 49 47.400000000000006 44.6 47.400000000000006 44.6 L 47.300000000000004 39.5 C 48.7 37.4 49.6 35.5 49.800000000000004 34.9 C 50.400000000000006 34.5 52.400000000000006 32.9 52.50000000000001 30.299999999999997 C 52.60000000000001 27.9 51.800000000000004 27.299999999999997 51.10000000000001 27.299999999999997 C 51.30000000000001 25.599999999999998 52.10000000000001 13.399999999999997 39.70000000000001 13.399999999999997 C 26.30000000000001 13.399999999999997 28.20000000000001 27.499999999999996 28.20000000000001 27.499999999999996 L 28.20000000000001 27.499999999999996 C 27.50000000000001 27.599999999999998 26.80000000000001 28.099999999999998 26.90000000000001 30.299999999999997 C 27.00000000000001 33 29.00000000000001 34.5 29.60000000000001 34.9 C 29.90000000000001 35.5 30.70000000000001 37.5 32.10000000000001 39.5 L 32.10000000000001 44.6 C 32.10000000000001 44.6 27.40000000000001 49 27.40000000000001 49 L 17.80000000000001 53.6 C 15.900000000000011 54.5 14.600000000000012 56.1 14.200000000000012 58.1 L 12.500000000000012 66.7 L 67.4 66.7 L 65.7 58.1 C 65.4 56.1 64 54.4 62.2 53.6 z" stroke-linecap="round" />
</g>
</g>
</g>
<g transform="matrix(0.43 0 0 0.43 337.02 100)" id="fpzfX02Vnlo7tQM7RQ-l8"  >
<g style="" vector-effect="non-scaling-stroke"   >
		<g transform="matrix(1 0 0 1 0.01 -0.02)" id="dVtkHzDqLrd8xNx4joRdf"  >
<path style="stroke: none; stroke-width: 1; stroke-dasharray: none; stroke-linecap: butt; stroke-dashoffset: 0; stroke-linejoin: miter; stroke-miterlimit: 4; fill: rgb(179,181,179); fill-rule: nonzero; opacity: 1;" vector-effect="non-scaling-stroke"  transform=" translate(-40.01, -39.98)" d="M 34.4 62.8 C 33.5 63.699999999999996 32 63.8 31.2 62.9 L 30.2 61.9 C 30.2 62 29.5 62.9 29.099999999999998 63.199999999999996 L 14.8 77.5 C 12.8 79.5 9.700000000000001 79.6 7.9 77.7 L 2.3000000000000007 72.10000000000001 C 0.5000000000000007 70.30000000000001 0.6000000000000008 67.2 2.500000000000001 65.2 L 16.7 51 C 17.099999999999998 50.6 18 50 18 49.9 L 17 48.9 C 16.1 48 16.2 46.6 17.1 45.699999999999996 C 18.000000000000004 44.79999999999999 19.5 44.8 20.3 45.599999999999994 L 25.700000000000003 50.99999999999999 L 61 15.4 L 62.9 9.9 L 76 0.9000000000000004 L 79 3.9000000000000004 L 70 17 L 64.6 19 L 29 54.2 L 34.4 59.6 C 35.3 60.5 35.3 61.9 34.4 62.8 z" stroke-linecap="round" />
</g>
		<g transform="matrix(1 0 0 1 0 0)" id="tPP_qRvwe4gOt0ak0HZF8"  >
<path style="stroke: none; stroke-width: 1; stroke-dasharray: none; stroke-linecap: butt; stroke-dashoffset: 0; stroke-linejoin: miter; stroke-miterlimit: 4; fill: rgb(179,181,179); fill-rule: nonzero; opacity: 1;" vector-effect="non-scaling-stroke"  transform=" translate(-40, -40)" d="M 77.4 56.5 C 81 63.1 79.80000000000001 71.4 79.80000000000001 71.4 L 70.9 59.7 L 61.800000000000004 61.800000000000004 L 59.7 70.9 L 71.4 79.80000000000001 C 71.4 79.80000000000001 63.10000000000001 81.00000000000001 56.50000000000001 77.4 C 49.10000000000001 73.4 53.10000000000001 66.80000000000001 51.10000000000001 63.2 C 32.70000000000001 37.2 16.80000000000001 28.900000000000006 16.80000000000001 28.900000000000006 C 16.80000000000001 28.900000000000006 6.600000000000012 30.900000000000006 2.600000000000012 23.500000000000007 C -1 16.9 0.2 8.6 0.2 8.6 L 9.1 20.299999999999997 L 18.2 18.199999999999996 L 20.3 9.099999999999996 L 8.6 0.2 C 8.6 0.2 16.9 -1 23.5 2.6 C 30.9 6.6 28.9 16.8 28.9 16.8 C 28.9 16.8 37.599999999999994 33.5 63.199999999999996 51.099999999999994 C 66.6 53.5 73.4 49.1 77.4 56.5 z" stroke-linecap="round" />
</g>
</g>
</g>
</svg>