<?xml version="1.0" encoding="UTF-8" standalone="no" ?>
<!DOCTYPE svg PUBLIC "-//W3C//DTD SVG 1.1//EN" "http://www.w3.org/Graphics/SVG/1.1/DTD/svg11.dtd">
<svg xmlns="http://www.w3.org/2000/svg" xmlns:xlink="http://www.w3.org/1999/xlink" version="1.1" width="800" height="500" viewBox="0 0 800 500" xml:space="preserve">
<desc>Created with Fabric.js 4.6.0</desc>
<defs>
</defs>
<g transform="matrix(0.85 0 0 0.85 206.43 259.58)" id="NKKS9nAFqWW6BX4vs8T-G"  >
<path style="stroke: rgb(0,0,0); stroke-width: 1; stroke-dasharray: none; stroke-linecap: butt; stroke-dashoffset: 0; stroke-linejoin: miter; stroke-miterlimit: 4; fill: rgb(49,168,247); fill-rule: nonzero; opacity: 1;" vector-effect="non-scaling-stroke"  transform=" translate(0, 0)" d="M -19.7411 26.86084 L -17.79935 14.56311 L -12.62136 3.55987 L -6.796119999999999 -8.09062 L 2.9126200000000013 -18.44661 L -3.5598699999999983 -26.2136 L 15.857610000000003 -26.86085 L 19.741110000000003 -8.737870000000001 L 11.974120000000003 -15.857610000000001 L 4.207130000000003 -4.2071200000000015 L -2.2653599999999967 6.148869999999999 L -5.501609999999997 17.15211 L -6.796109999999997 26.2136 z" stroke-linecap="round" />
</g>
<g transform="matrix(-0.85 0 0 -0.85 347.17 338.19)" id="--WNXTS8yk3MOmrXmk4KR"  >
<path style="stroke: rgb(0,0,0); stroke-width: 1; stroke-dasharray: none; stroke-linecap: butt; stroke-dashoffset: 0; stroke-linejoin: miter; stroke-miterlimit: 4; fill: rgb(49,168,247); fill-rule: nonzero; opacity: 1;" vector-effect="non-scaling-stroke"  transform=" translate(0, 0)" d="M -19.7411 26.86084 L -17.79935 14.56311 L -12.62136 3.55987 L -6.796119999999999 -8.09062 L 2.9126200000000013 -18.44661 L -3.5598699999999983 -26.2136 L 15.857610000000003 -26.86085 L 19.741110000000003 -8.737870000000001 L 11.974120000000003 -15.857610000000001 L 4.207130000000003 -4.2071200000000015 L -2.2653599999999967 6.148869999999999 L -5.501609999999997 17.15211 L -6.796109999999997 26.2136 z" stroke-linecap="round" />
</g>
<g transform="matrix(1 0 0 1 517.48 418.36)" id="yu4_XybVqEi7y2JT7TGKP"  >
<path style="stroke: rgb(149,132,192); stroke-width: 0; stroke-dasharray: none; stroke-linecap: butt; stroke-dashoffset: 0; stroke-linejoin: miter; stroke-miterlimit: 4; fill: rgb(0,0,0); fill-rule: nonzero; opacity: 1;" vector-effect="non-scaling-stroke"  transform=" translate(-200, -1.33)" d="M 0 0 L 400 0 L 400 2.66667 L 0 2.66667 z" stroke-linecap="round" />
</g>
<g transform="matrix(1 0 0 1 586.41 448.38)" id="wfYuqX_o9AJ2L_kQIBcq6"  >
<path style="stroke: rgb(0,0,0); stroke-width: 1; stroke-dasharray: none; stroke-linecap: butt; stroke-dashoffset: 0; stroke-linejoin: miter; stroke-miterlimit: 4; fill: rgb(252,141,29); fill-opacity: 0.93; fill-rule: nonzero; opacity: 1;" vector-effect="non-scaling-stroke"  transform=" translate(-27.5, -27.5)" d="M 0 11.66726 C 0 5.223610000000001 5.22361 0 11.66726 0 L 43.33273 0 L 43.33273 0 C 49.776379999999996 0 54.99999 5.22361 54.99999 11.66726 L 54.99999 43.33273 L 54.99999 43.33273 C 54.99999 49.776379999999996 49.776379999999996 54.99999 43.33273 54.99999 L 11.667259999999999 54.99999 L 11.667259999999999 54.99999 C 5.223609999999999 54.99999 -1.7763568394002505e-15 49.776379999999996 -1.7763568394002505e-15 43.33273 z" stroke-linecap="round" />
</g>
<g transform="matrix(1 0 0 1 643.93 450.03)" style="filter: url(#SVGID_0);" id="ZhjZl12OZu_vt_ZQCplWS"  >
<filter id="SVGID_0" y="-22%" height="144%" x="-21%" width="142%" >
	<feGaussianBlur in="SourceAlpha" stdDeviation="0"></feGaussianBlur>
	<feOffset dx="1" dy="1" result="oBlur" ></feOffset>
	<feFlood flood-color="rgb(255,255,255)" flood-opacity="1"/>
	<feComposite in2="oBlur" operator="in" />
	<feMerge>
		<feMergeNode></feMergeNode>
		<feMergeNode in="SourceGraphic"></feMergeNode>
	</feMerge>
</filter>
		<text xml:space="preserve" font-family="Open Sans" font-size="37" font-style="normal" font-weight="normal" line-height="1.16" style="stroke: none; stroke-width: 1; stroke-dasharray: none; stroke-linecap: butt; stroke-dashoffset: 0; stroke-linejoin: miter; stroke-miterlimit: 4; fill: rgb(0,0,0); fill-rule: nonzero; opacity: 1; white-space: pre;" ><tspan x="-75" y="11.62" >銅</tspan></text>
</g>
<g transform="matrix(0.93 0 0 0.93 518.12 380.74)" id="483YjjFD-o9e3hxAUAsRz"  >
<path style="stroke: none; stroke-width: 0; stroke-dasharray: none; stroke-linecap: butt; stroke-dashoffset: 0; stroke-linejoin: miter; stroke-miterlimit: 4; fill: rgb(0,0,0); fill-opacity: 0.56; fill-rule: nonzero; opacity: 1;" vector-effect="non-scaling-stroke"  transform=" translate(0, 0)" d="M 20 0 L 40 40 L 0 40 L -40 40 L -20 0 L 0 -40 z" stroke-linecap="round" />
</g>
<g transform="matrix(1.91 0 0 1 669.96 448.02)" id="gLMnRp6QcR4gGXGSZR0Q0"  >
<path style="stroke: rgb(0,0,0); stroke-width: 1; stroke-dasharray: none; stroke-linecap: butt; stroke-dashoffset: 0; stroke-linejoin: miter; stroke-miterlimit: 4; fill: rgb(0,0,0); fill-opacity: 0.12; fill-rule: nonzero; opacity: 1;" vector-effect="non-scaling-stroke"  transform=" translate(0, 0)" d="M -27.5 -15.83274 C -27.5 -22.27639 -24.7646 -27.5 -21.39031 -27.5 L 21.390300000000003 -27.5 L 21.390300000000003 -27.5 C 24.764590000000002 -27.5 27.499990000000004 -22.27639 27.499990000000004 -15.83274 L 27.499990000000004 15.83273 L 27.499990000000004 15.83273 C 27.499990000000004 22.27638 24.764590000000005 27.49999 21.390300000000003 27.49999 L -21.39031 27.49999 L -21.39031 27.49999 C -24.764599999999998 27.49999 -27.5 22.27638 -27.5 15.83273 z" stroke-linecap="round" />
</g>
<g transform="matrix(1 0 0 1 698.59 450.31)" style="filter: url(#SVGID_1);" id="ho2N59hblLdSLoLeHZMNn"  >
<filter id="SVGID_1" y="-23%" height="146%" x="-21%" width="142%" >
	<feGaussianBlur in="SourceAlpha" stdDeviation="0"></feGaussianBlur>
	<feOffset dx="1" dy="1" result="oBlur" ></feOffset>
	<feFlood flood-color="rgb(255,255,255)" flood-opacity="1"/>
	<feComposite in2="oBlur" operator="in" />
	<feMerge>
		<feMergeNode></feMergeNode>
		<feMergeNode in="SourceGraphic"></feMergeNode>
	</feMerge>
</filter>
		<text xml:space="preserve" font-family="Open Sans" font-size="30" font-style="normal" font-weight="normal" line-height="1.16" style="stroke: none; stroke-width: 1; stroke-dasharray: none; stroke-linecap: butt; stroke-dashoffset: 0; stroke-linejoin: miter; stroke-miterlimit: 4; fill: rgb(0,0,0); fill-rule: nonzero; opacity: 1; white-space: pre;" ><tspan x="-75" y="9.42" >アルミ</tspan></text>
</g>
<g transform="matrix(3.15 0 0 1 400.33 450.9)" id="HxtpiVxL0ouoxtULmVBiy"  >
<path style="stroke: rgb(0,0,0); stroke-width: 1; stroke-dasharray: none; stroke-linecap: butt; stroke-dashoffset: 0; stroke-linejoin: miter; stroke-miterlimit: 4; fill: rgb(255,255,255); fill-rule: nonzero; opacity: 1;" vector-effect="non-scaling-stroke"  transform=" translate(0, 0)" d="M -27.5 -15.83274 C -27.5 -22.27639 -25.84037 -27.5 -23.79311 -27.5 L 23.793100000000003 -27.5 L 23.793100000000003 -27.5 C 25.840360000000004 -27.5 27.499990000000004 -22.27639 27.499990000000004 -15.83274 L 27.499990000000004 15.83273 L 27.499990000000004 15.83273 C 27.499990000000004 22.27638 25.840360000000004 27.49999 23.793100000000003 27.49999 L -23.79311 27.49999 L -23.79311 27.49999 C -25.84037 27.49999 -27.5 22.27638 -27.5 15.83273 z" stroke-linecap="round" />
</g>
<g transform="matrix(1 0 0 1 408.92 452.54)" style="" id="A81p-RKHU5FNxK8HGG39-"  >
		<text xml:space="preserve" font-family="Open Sans" font-size="27" font-style="normal" font-weight="normal" line-height="1.16" style="stroke: none; stroke-width: 1; stroke-dasharray: none; stroke-linecap: butt; stroke-dashoffset: 0; stroke-linejoin: miter; stroke-miterlimit: 4; fill: rgb(0,0,0); fill-rule: nonzero; opacity: 1; white-space: pre;" ><tspan x="-90" y="8.48" >プラスチック</tspan></text>
</g>
<g transform="matrix(1.26 0 0 1.26 349.7 176.23)" id="R1gr19XW4V6uIZmc05Op_"  >
<path style="stroke: rgb(0,0,0); stroke-width: 1; stroke-dasharray: none; stroke-linecap: butt; stroke-dashoffset: 0; stroke-linejoin: miter; stroke-miterlimit: 4; fill: rgb(255,255,255); fill-rule: nonzero; opacity: 1;" vector-effect="non-scaling-stroke"  transform=" translate(0, 0)" d="M 0 0" stroke-linecap="round" />
</g>
<g transform="matrix(0.79 0 0 0.79 185.36 220.79)" id="NOPGxFBrTy8ivY-yhOAGx"  >
<path style="stroke: rgb(0,0,0); stroke-width: 1; stroke-dasharray: none; stroke-linecap: butt; stroke-dashoffset: 0; stroke-linejoin: miter; stroke-miterlimit: 4; fill: rgb(255,255,255); fill-rule: nonzero; opacity: 1;" vector-effect="non-scaling-stroke"  transform=" translate(0, 0)" d="M -11.00324 -11.00324 L 11.00323 -11.00324 L 11.00323 11.00323 L -11.00324 11.00323 z" stroke-linecap="round" />
</g>
<g transform="matrix(0.79 0 0 0.79 36.78 219.79)" id="5IL94P9PhBxNmKGRa_yvE"  >
<path style="stroke: rgb(0,0,0); stroke-width: 1; stroke-dasharray: none; stroke-linecap: butt; stroke-dashoffset: 0; stroke-linejoin: miter; stroke-miterlimit: 4; fill: rgb(255,255,255); fill-rule: nonzero; opacity: 1;" vector-effect="non-scaling-stroke"  transform=" translate(0, 0)" d="M -11.00324 -11.00324 L 11.00323 -11.00324 L 11.00323 11.00323 L -11.00324 11.00323 z" stroke-linecap="round" />
</g>
<g transform="matrix(0.79 0 0 0.79 110.86 201.96)" id="eKg5r7QLlt-AfaVrzXgpO"  >
<path style="stroke: rgb(0,0,0); stroke-width: 1; stroke-dasharray: none; stroke-linecap: butt; stroke-dashoffset: 0; stroke-linejoin: miter; stroke-miterlimit: 4; fill: rgb(255,255,255); fill-rule: nonzero; opacity: 1;" vector-effect="non-scaling-stroke"  transform=" translate(0, 0)" d="M -11.00324 -11.00324 L 11.00323 -11.00324 L 11.00323 11.00323 L -11.00324 11.00323 z" stroke-linecap="round" />
</g>
<g transform="matrix(0.79 0 0 0.79 272.32 219.72)" id="OYg_GT50scZwTWI1sB8ua"  >
<path style="stroke: rgb(0,0,0); stroke-width: 1; stroke-dasharray: none; stroke-linecap: butt; stroke-dashoffset: 0; stroke-linejoin: miter; stroke-miterlimit: 4; fill: rgb(255,255,255); fill-rule: nonzero; opacity: 1;" vector-effect="non-scaling-stroke"  transform=" translate(0, 0)" d="M -11.00324 -11.00324 L 11.00323 -11.00324 L 11.00323 11.00323 L -11.00324 11.00323 z" stroke-linecap="round" />
</g>
<g transform="matrix(0.79 0 0 0.79 353.52 265.32)" id="FZff-CvUlMR7tJHMPYJnz"  >
<path style="stroke: rgb(0,0,0); stroke-width: 1; stroke-dasharray: none; stroke-linecap: butt; stroke-dashoffset: 0; stroke-linejoin: miter; stroke-miterlimit: 4; fill: rgb(255,255,255); fill-rule: nonzero; opacity: 1;" vector-effect="non-scaling-stroke"  transform=" translate(0, 0)" d="M -11.00324 -11.00324 L 11.00323 -11.00324 L 11.00323 11.00323 L -11.00324 11.00323 z" stroke-linecap="round" />
</g>
<g transform="matrix(0.79 0 0 0.79 393.29 376.3)" id="BmYNCeHQ9NWGXi7bbz4bo"  >
<path style="stroke: rgb(0,0,0); stroke-width: 1; stroke-dasharray: none; stroke-linecap: butt; stroke-dashoffset: 0; stroke-linejoin: miter; stroke-miterlimit: 4; fill: rgb(255,255,255); fill-rule: nonzero; opacity: 1;" vector-effect="non-scaling-stroke"  transform=" translate(0, 0)" d="M -11.00324 -11.00324 L 11.00323 -11.00324 L 11.00323 11.00323 L -11.00324 11.00323 z" stroke-linecap="round" />
</g>
<g transform="matrix(0.79 0 0 0.79 383.22 408.95)" id="VruFJAjqTzL7--TcTng00"  >
<path style="stroke: rgb(0,0,0); stroke-width: 1; stroke-dasharray: none; stroke-linecap: butt; stroke-dashoffset: 0; stroke-linejoin: miter; stroke-miterlimit: 4; fill: rgb(255,255,255); fill-rule: nonzero; opacity: 1;" vector-effect="non-scaling-stroke"  transform=" translate(0, 0)" d="M -11.00324 -11.00324 L 11.00323 -11.00324 L 11.00323 11.00323 L -11.00324 11.00323 z" stroke-linecap="round" />
</g>
<g transform="matrix(0.79 0 0 0.79 344.68 407.3)" id="D1MPoXjG47R0-lZriXCJj"  >
<path style="stroke: rgb(0,0,0); stroke-width: 1; stroke-dasharray: none; stroke-linecap: butt; stroke-dashoffset: 0; stroke-linejoin: miter; stroke-miterlimit: 4; fill: rgb(255,255,255); fill-rule: nonzero; opacity: 1;" vector-effect="non-scaling-stroke"  transform=" translate(0, 0)" d="M -11.00324 -11.00324 L 11.00323 -11.00324 L 11.00323 11.00323 L -11.00324 11.00323 z" stroke-linecap="round" />
</g>
<g transform="matrix(0.79 0 0 0.79 207.11 219.89)" id="EpChv-4yTGt1SRRyobpnN"  >
<path style="stroke: rgb(0,0,0); stroke-width: 1; stroke-dasharray: none; stroke-linecap: butt; stroke-dashoffset: 0; stroke-linejoin: miter; stroke-miterlimit: 4; fill: rgb(252,141,29); fill-opacity: 0.86; fill-rule: nonzero; opacity: 1;" vector-effect="non-scaling-stroke"  transform=" translate(0, 0)" d="M -11.00324 -11.00324 L 11.00323 -11.00324 L 11.00323 11.00323 L -11.00324 11.00323 z" stroke-linecap="round" />
</g>
<g transform="matrix(0.79 0 0 0.79 564.68 243.48)" id="QsEaaEubwsqKRbkyld4Qb"  >
<path style="stroke: rgb(0,0,0); stroke-width: 1; stroke-dasharray: none; stroke-linecap: butt; stroke-dashoffset: 0; stroke-linejoin: miter; stroke-miterlimit: 4; fill: rgb(252,141,29); fill-opacity: 0.86; fill-rule: nonzero; opacity: 1;" vector-effect="non-scaling-stroke"  transform=" translate(0, 0)" d="M -11.00324 -11.00324 L 11.00323 -11.00324 L 11.00323 11.00323 L -11.00324 11.00323 z" stroke-linecap="round" />
</g>
<g transform="matrix(0.79 0 0 0.79 327.43 222.41)" id="rGbGHCMuXtX5KCTDc7OsB"  >
<path style="stroke: rgb(0,0,0); stroke-width: 1; stroke-dasharray: none; stroke-linecap: butt; stroke-dashoffset: 0; stroke-linejoin: miter; stroke-miterlimit: 4; fill: rgb(252,141,29); fill-opacity: 0.86; fill-rule: nonzero; opacity: 1;" vector-effect="non-scaling-stroke"  transform=" translate(0, 0)" d="M -11.00324 -11.00324 L 11.00323 -11.00324 L 11.00323 11.00323 L -11.00324 11.00323 z" stroke-linecap="round" />
</g>
<g transform="matrix(0.79 0 0 0.79 579.5 408.46)" id="31nHFzSqOxGyPACUZMgIe"  >
<path style="stroke: rgb(0,0,0); stroke-width: 1; stroke-dasharray: none; stroke-linecap: butt; stroke-dashoffset: 0; stroke-linejoin: miter; stroke-miterlimit: 4; fill: rgb(252,141,29); fill-opacity: 0.86; fill-rule: nonzero; opacity: 1;" vector-effect="non-scaling-stroke"  transform=" translate(0, 0)" d="M -11.00324 -11.00324 L 11.00323 -11.00324 L 11.00323 11.00323 L -11.00324 11.00323 z" stroke-linecap="round" />
</g>
<g transform="matrix(0.79 0 0 0.79 83.42 219.82)" id="MFDg4FzAF1DksRKlKhGWQ"  >
<path style="stroke: rgb(0,0,0); stroke-width: 1; stroke-dasharray: none; stroke-linecap: butt; stroke-dashoffset: 0; stroke-linejoin: miter; stroke-miterlimit: 4; fill: rgb(252,141,29); fill-opacity: 0.86; fill-rule: nonzero; opacity: 1;" vector-effect="non-scaling-stroke"  transform=" translate(0, 0)" d="M -11.00324 -11.00324 L 11.00323 -11.00324 L 11.00323 11.00323 L -11.00324 11.00323 z" stroke-linecap="round" />
</g>
<g transform="matrix(0.79 0 0 0.79 625.46 339.85)" id="W7LVRQMiwn4oljC7Nci1i"  >
<path style="stroke: rgb(0,0,0); stroke-width: 1; stroke-dasharray: none; stroke-linecap: butt; stroke-dashoffset: 0; stroke-linejoin: miter; stroke-miterlimit: 4; fill: rgb(252,141,29); fill-opacity: 0.86; fill-rule: nonzero; opacity: 1;" vector-effect="non-scaling-stroke"  transform=" translate(0, 0)" d="M -11.00324 -11.00324 L 11.00323 -11.00324 L 11.00323 11.00323 L -11.00324 11.00323 z" stroke-linecap="round" />
</g>
<g transform="matrix(0.79 0 0 0.79 515.13 248.3)" id="-oHdV-y8UWHJikmQrXZut"  >
<path style="stroke: rgb(0,0,0); stroke-width: 1; stroke-dasharray: none; stroke-linecap: butt; stroke-dashoffset: 0; stroke-linejoin: miter; stroke-miterlimit: 4; fill: rgb(0,0,0); fill-opacity: 0.15; fill-rule: nonzero; opacity: 1;" vector-effect="non-scaling-stroke"  transform=" translate(0, 0)" d="M -11.00324 -11.00324 L 11.00323 -11.00324 L 11.00323 11.00323 L -11.00324 11.00323 z" stroke-linecap="round" />
</g>
<g transform="matrix(0.79 0 0 0.79 158.14 220.11)" id="3yu7n3Cab52CGrCcdNM3a"  >
<path style="stroke: rgb(0,0,0); stroke-width: 1; stroke-dasharray: none; stroke-linecap: butt; stroke-dashoffset: 0; stroke-linejoin: miter; stroke-miterlimit: 4; fill: rgb(0,0,0); fill-opacity: 0.15; fill-rule: nonzero; opacity: 1;" vector-effect="non-scaling-stroke"  transform=" translate(0, 0)" d="M -11.00324 -11.00324 L 11.00323 -11.00324 L 11.00323 11.00323 L -11.00324 11.00323 z" stroke-linecap="round" />
</g>
<g transform="matrix(0.79 0 0 0.79 60.05 221.7)" id="1xls1lfiVZXT74xNn8ZwZ"  >
<path style="stroke: rgb(0,0,0); stroke-width: 1; stroke-dasharray: none; stroke-linecap: butt; stroke-dashoffset: 0; stroke-linejoin: miter; stroke-miterlimit: 4; fill: rgb(0,0,0); fill-opacity: 0.15; fill-rule: nonzero; opacity: 1;" vector-effect="non-scaling-stroke"  transform=" translate(0, 0)" d="M -11.00324 -11.00324 L 11.00323 -11.00324 L 11.00323 11.00323 L -11.00324 11.00323 z" stroke-linecap="round" />
</g>
<g transform="matrix(0.79 0 0 0.79 570.37 294.48)" id="EuF6mw_RlnZyPet8mLflO"  >
<path style="stroke: rgb(0,0,0); stroke-width: 1; stroke-dasharray: none; stroke-linecap: butt; stroke-dashoffset: 0; stroke-linejoin: miter; stroke-miterlimit: 4; fill: rgb(0,0,0); fill-opacity: 0.15; fill-rule: nonzero; opacity: 1;" vector-effect="non-scaling-stroke"  transform=" translate(0, 0)" d="M -11.00324 -11.00324 L 11.00323 -11.00324 L 11.00323 11.00323 L -11.00324 11.00323 z" stroke-linecap="round" />
</g>
<g transform="matrix(0.79 0 0 0.79 562.25 376.32)" id="Y2_BRZc-0cNpygGjkNXwz"  >
<path style="stroke: rgb(0,0,0); stroke-width: 1; stroke-dasharray: none; stroke-linecap: butt; stroke-dashoffset: 0; stroke-linejoin: miter; stroke-miterlimit: 4; fill: rgb(0,0,0); fill-opacity: 0.15; fill-rule: nonzero; opacity: 1;" vector-effect="non-scaling-stroke"  transform=" translate(0, 0)" d="M -11.00324 -11.00324 L 11.00323 -11.00324 L 11.00323 11.00323 L -11.00324 11.00323 z" stroke-linecap="round" />
</g>
<g transform="matrix(0.79 0 0 0.79 636.33 369.5)" id="Ac1so98vaodQdNUFWpTjH"  >
<path style="stroke: rgb(0,0,0); stroke-width: 1; stroke-dasharray: none; stroke-linecap: butt; stroke-dashoffset: 0; stroke-linejoin: miter; stroke-miterlimit: 4; fill: rgb(0,0,0); fill-opacity: 0.15; fill-rule: nonzero; opacity: 1;" vector-effect="non-scaling-stroke"  transform=" translate(0, 0)" d="M -11.00324 -11.00324 L 11.00323 -11.00324 L 11.00323 11.00323 L -11.00324 11.00323 z" stroke-linecap="round" />
</g>
<g transform="matrix(0.79 0 0 0.79 662.51 409.92)" id="8Clf-6rz0egipG2401pWn"  >
<path style="stroke: rgb(0,0,0); stroke-width: 1; stroke-dasharray: none; stroke-linecap: butt; stroke-dashoffset: 0; stroke-linejoin: miter; stroke-miterlimit: 4; fill: rgb(0,0,0); fill-opacity: 0.15; fill-rule: nonzero; opacity: 1;" vector-effect="non-scaling-stroke"  transform=" translate(0, 0)" d="M -11.00324 -11.00324 L 11.00323 -11.00324 L 11.00323 11.00323 L -11.00324 11.00323 z" stroke-linecap="round" />
</g>
<g transform="matrix(0.79 0 0 0.79 73.93 201.28)" id="Z4PHviSIpt5ZFrcpwfpAb"  >
<path style="stroke: rgb(0,0,0); stroke-width: 1; stroke-dasharray: none; stroke-linecap: butt; stroke-dashoffset: 0; stroke-linejoin: miter; stroke-miterlimit: 4; fill: rgb(0,0,0); fill-opacity: 0.15; fill-rule: nonzero; opacity: 1;" vector-effect="non-scaling-stroke"  transform=" translate(0, 0)" d="M -11.00324 -11.00324 L 11.00323 -11.00324 L 11.00323 11.00323 L -11.00324 11.00323 z" stroke-linecap="round" />
</g>
<g transform="matrix(0.79 0 0 0.79 173.25 203.51)" id="0DMrigPipzcpapRAw6Ijk"  >
<path style="stroke: rgb(0,0,0); stroke-width: 1; stroke-dasharray: none; stroke-linecap: butt; stroke-dashoffset: 0; stroke-linejoin: miter; stroke-miterlimit: 4; fill: rgb(0,0,0); fill-opacity: 0.15; fill-rule: nonzero; opacity: 1;" vector-effect="non-scaling-stroke"  transform=" translate(0, 0)" d="M -11.00324 -11.00324 L 11.00323 -11.00324 L 11.00323 11.00323 L -11.00324 11.00323 z" stroke-linecap="round" />
</g>
<g transform="matrix(0.79 0 0 0.79 642.35 293.97)" id="Nef2ZDCzBI3HpMQKasdQy"  >
<path style="stroke: rgb(0,0,0); stroke-width: 1; stroke-dasharray: none; stroke-linecap: butt; stroke-dashoffset: 0; stroke-linejoin: miter; stroke-miterlimit: 4; fill: rgb(252,141,29); fill-opacity: 0.86; fill-rule: nonzero; opacity: 1;" vector-effect="non-scaling-stroke"  transform=" translate(0, 0)" d="M -11.00324 -11.00324 L 11.00323 -11.00324 L 11.00323 11.00323 L -11.00324 11.00323 z" stroke-linecap="round" />
</g>
<g transform="matrix(0.79 0 0 0.79 120.96 219.18)" id="65JM19xRlnNmEQ-nleyIT"  >
<path style="stroke: rgb(0,0,0); stroke-width: 1; stroke-dasharray: none; stroke-linecap: butt; stroke-dashoffset: 0; stroke-linejoin: miter; stroke-miterlimit: 4; fill: rgb(252,141,29); fill-opacity: 0.86; fill-rule: nonzero; opacity: 1;" vector-effect="non-scaling-stroke"  transform=" translate(0, 0)" d="M -11.00324 -11.00324 L 11.00323 -11.00324 L 11.00323 11.00323 L -11.00324 11.00323 z" stroke-linecap="round" />
</g>
<g transform="matrix(1 0 0 1 99.03 420.23)" style="" id="Ylj2bjinidZqWNxDU0hkB"  >
		<text xml:space="preserve" font-family="Open Sans" font-size="24" font-style="normal" font-weight="normal" line-height="1.16" style="stroke: none; stroke-width: 1; stroke-dasharray: none; stroke-linecap: butt; stroke-dashoffset: 0; stroke-linejoin: miter; stroke-miterlimit: 4; fill: rgb(0,0,0); fill-rule: nonzero; opacity: 1; white-space: pre;" ><tspan x="-91" y="7.54" >コンベヤベルト</tspan></text>
</g>
<g transform="matrix(1 0 0 1 109.06 382.36)" id="CIlkmh499IZW1ALqbWkA0"  >
<path style="stroke: rgb(0,0,0); stroke-width: 2; stroke-dasharray: none; stroke-linecap: butt; stroke-dashoffset: 0; stroke-linejoin: miter; stroke-miterlimit: 4; fill: rgb(255,255,255); fill-rule: nonzero; opacity: 1;" vector-effect="non-scaling-stroke"  transform=" translate(0, 0)" d="M 20.38835 -20.71197 L -20.38835 20.711979999999997" stroke-linecap="round" />
</g>
<g transform="matrix(0.84 0 0 0.84 432.28 193.3)" id="Lr3hSBBqz-eBM-vC6gpJ_"  >
<filter id="SVGID_2" y="-24%" height="148%" x="-21%" width="142%" >
	<feGaussianBlur in="SourceAlpha" stdDeviation="0"></feGaussianBlur>
	<feOffset dx="1" dy="1" result="oBlur" ></feOffset>
	<feFlood flood-color="rgb(255,255,255)" flood-opacity="1"/>
	<feComposite in2="oBlur" operator="in" />
	<feMerge>
		<feMergeNode></feMergeNode>
		<feMergeNode in="SourceGraphic"></feMergeNode>
	</feMerge>
</filter>
<path style="stroke: rgb(49,168,247); stroke-width: 1; stroke-dasharray: none; stroke-linecap: butt; stroke-dashoffset: 0; stroke-linejoin: miter; stroke-miterlimit: 4; fill: rgb(255,255,255); fill-opacity: 0; fill-rule: nonzero; opacity: 1;filter: url(#SVGID_2);" vector-effect="non-scaling-stroke"  transform=" translate(0, 0)" d="M -65.04854 -10.89017 L -37.95939 -11.10688 C -15.22196 -11.28879 4.03425 -8.84519 26.005589999999998 -2.989890000000001 C 40.01175 0.7427199999999994 51.5757 4.911689999999999 64.74163999999999 10.97496 L 65.04856 11.116299999999999" stroke-linecap="round" />
</g>
<g transform="matrix(0.84 0 0 0.84 431.98 203.29)" id="1AeO4PVVbRwCcSquhJaHs"  >
<filter id="SVGID_3" y="-24%" height="148%" x="-21%" width="142%" >
	<feGaussianBlur in="SourceAlpha" stdDeviation="0"></feGaussianBlur>
	<feOffset dx="1" dy="1" result="oBlur" ></feOffset>
	<feFlood flood-color="rgb(255,255,255)" flood-opacity="1"/>
	<feComposite in2="oBlur" operator="in" />
	<feMerge>
		<feMergeNode></feMergeNode>
		<feMergeNode in="SourceGraphic"></feMergeNode>
	</feMerge>
</filter>
<path style="stroke: rgb(49,168,247); stroke-width: 1; stroke-dasharray: none; stroke-linecap: butt; stroke-dashoffset: 0; stroke-linejoin: miter; stroke-miterlimit: 4; fill: rgb(255,255,255); fill-opacity: 0; fill-rule: nonzero; opacity: 1;filter: url(#SVGID_3);" vector-effect="non-scaling-stroke"  transform=" translate(0, 0)" d="M -65.04854 -10.89017 L -37.95939 -11.10688 C -15.22196 -11.28879 4.03425 -8.84519 26.005589999999998 -2.989890000000001 C 40.01175 0.7427199999999994 51.5757 4.911689999999999 64.74163999999999 10.97496 L 65.04856 11.116299999999999" stroke-linecap="round" />
</g>
<g transform="matrix(0.84 0 0 0.84 432.77 213.83)" id="3STkydtKLPwBDxbxQMYT0"  >
<filter id="SVGID_4" y="-24%" height="148%" x="-21%" width="142%" >
	<feGaussianBlur in="SourceAlpha" stdDeviation="0"></feGaussianBlur>
	<feOffset dx="1" dy="1" result="oBlur" ></feOffset>
	<feFlood flood-color="rgb(255,255,255)" flood-opacity="1"/>
	<feComposite in2="oBlur" operator="in" />
	<feMerge>
		<feMergeNode></feMergeNode>
		<feMergeNode in="SourceGraphic"></feMergeNode>
	</feMerge>
</filter>
<path style="stroke: rgb(49,168,247); stroke-width: 1; stroke-dasharray: none; stroke-linecap: butt; stroke-dashoffset: 0; stroke-linejoin: miter; stroke-miterlimit: 4; fill: rgb(255,255,255); fill-opacity: 0; fill-rule: nonzero; opacity: 1;filter: url(#SVGID_4);" vector-effect="non-scaling-stroke"  transform=" translate(0, 0)" d="M -65.04854 -10.89017 L -37.95939 -11.10688 C -15.22196 -11.28879 4.03425 -8.84519 26.005589999999998 -2.989890000000001 C 40.01175 0.7427199999999994 51.5757 4.911689999999999 64.74163999999999 10.97496 L 65.04856 11.116299999999999" stroke-linecap="round" />
</g>
<g transform="matrix(0.79 0 0 0.79 421.57 236.94)" id="p7UlJimVbGXQmF52YcIPI"  >
<path style="stroke: rgb(0,0,0); stroke-width: 1; stroke-dasharray: none; stroke-linecap: butt; stroke-dashoffset: 0; stroke-linejoin: miter; stroke-miterlimit: 4; fill: rgb(0,0,0); fill-opacity: 0.15; fill-rule: nonzero; opacity: 1;" vector-effect="non-scaling-stroke"  transform=" translate(0, 0)" d="M -11.00324 -11.00324 L 11.00323 -11.00324 L 11.00323 11.00323 L -11.00324 11.00323 z" stroke-linecap="round" />
</g>
<g transform="matrix(0.79 0 0 0.79 484.07 266.42)" id="U46-bH5HIFvQVAaMW-4gl"  >
<path style="stroke: rgb(0,0,0); stroke-width: 1; stroke-dasharray: none; stroke-linecap: butt; stroke-dashoffset: 0; stroke-linejoin: miter; stroke-miterlimit: 4; fill: rgb(252,141,29); fill-opacity: 0.86; fill-rule: nonzero; opacity: 1;" vector-effect="non-scaling-stroke"  transform=" translate(0, 0)" d="M -11.00324 -11.00324 L 11.00323 -11.00324 L 11.00323 11.00323 L -11.00324 11.00323 z" stroke-linecap="round" />
</g>
<g transform="matrix(0.79 0 0 0.79 417.24 407.36)" id="asloZAxhn8ixMt75IwdU2"  >
<path style="stroke: rgb(0,0,0); stroke-width: 1; stroke-dasharray: none; stroke-linecap: butt; stroke-dashoffset: 0; stroke-linejoin: miter; stroke-miterlimit: 4; fill: rgb(255,255,255); fill-rule: nonzero; opacity: 1;" vector-effect="non-scaling-stroke"  transform=" translate(0, 0)" d="M -11.00324 -11.00324 L 11.00323 -11.00324 L 11.00323 11.00323 L -11.00324 11.00323 z" stroke-linecap="round" />
</g>
<g transform="matrix(1 0 0 1 280.67 293.32)" id="dbWuY5oP-UpQZeCvXc9ho"  >
<path style="stroke: rgb(0,0,0); stroke-width: 3; stroke-dasharray: none; stroke-linecap: butt; stroke-dashoffset: 0; stroke-linejoin: miter; stroke-miterlimit: 4; fill: rgb(0,0,0); fill-opacity: 0.31; fill-rule: nonzero; opacity: 1;" vector-effect="non-scaling-stroke"  transform=" translate(-65, -65)" d="M 65 0 C 100.88 0 130 29.12 130 65 C 130 100.88 100.88 130 65 130 C 29.119999999999997 130 0 100.88 0 65 C 0 29.119999999999997 29.12 0 65 0 z" stroke-linecap="round" />
</g>
<g transform="matrix(1 0 0 1 215.07 293.97)" id="wBQ1WoZd2nZVtbkfr5SmT"  >
<path style="stroke: rgb(0,0,0); stroke-width: 1; stroke-dasharray: none; stroke-linecap: butt; stroke-dashoffset: 0; stroke-linejoin: miter; stroke-miterlimit: 4; fill: rgb(255,255,255); fill-rule: nonzero; opacity: 1;" vector-effect="non-scaling-stroke"  transform=" translate(0, 0)" d="M 0 0" stroke-linecap="round" />
</g>
<g transform="matrix(1 0 0 1 215.72 293.32)" id="vS5-YBpiUVd5XsBROm69D"  >
<path style="stroke: rgb(0,0,0); stroke-width: 1; stroke-dasharray: none; stroke-linecap: butt; stroke-dashoffset: 0; stroke-linejoin: miter; stroke-miterlimit: 4; fill: rgb(255,255,255); fill-rule: nonzero; opacity: 1;" vector-effect="non-scaling-stroke"  transform=" translate(0, 0)" d="M 0 0" stroke-linecap="round" />
</g>
<g transform="matrix(1 0 0 1 281.58 295.91)" id="P4neg9w4Sa2Vki19-e9Ut"  >
<path style="stroke: rgb(0,0,0); stroke-width: 1; stroke-dasharray: none; stroke-linecap: butt; stroke-dashoffset: 0; stroke-linejoin: miter; stroke-miterlimit: 4; fill: rgb(255,255,255); fill-rule: nonzero; opacity: 1;" vector-effect="non-scaling-stroke"  transform=" translate(0, 0)" d="M -65.36246 0 L 65.36246 0" stroke-linecap="round" />
</g>
<g transform="matrix(1 0 0 1 279.72 293.32)" id="rJ984-MTVHnH-djrKiUHe"  >
<path style="stroke: rgb(0,0,0); stroke-width: 1; stroke-dasharray: none; stroke-linecap: butt; stroke-dashoffset: 0; stroke-linejoin: miter; stroke-miterlimit: 4; fill: rgb(255,255,255); fill-rule: nonzero; opacity: 1;" vector-effect="non-scaling-stroke"  transform=" translate(0, 0)" d="M 0 -66.5 L 0 66.5" stroke-linecap="round" />
</g>
<g transform="matrix(1 0 0 1 317.65 271.42)" style="filter: url(#SVGID_5);" id="krt0RmD9RNgJzIGkBVchQ"  >
<filter id="SVGID_5" y="-22%" height="144%" x="-21%" width="142%" >
	<feGaussianBlur in="SourceAlpha" stdDeviation="0"></feGaussianBlur>
	<feOffset dx="1" dy="1" result="oBlur" ></feOffset>
	<feFlood flood-color="rgb(255,255,255)" flood-opacity="1"/>
	<feComposite in2="oBlur" operator="in" />
	<feMerge>
		<feMergeNode></feMergeNode>
		<feMergeNode in="SourceGraphic"></feMergeNode>
	</feMerge>
</filter>
		<text xml:space="preserve" font-family="Open Sans" font-size="37" font-style="normal" font-weight="normal" line-height="1.16" style="stroke: none; stroke-width: 1; stroke-dasharray: none; stroke-linecap: butt; stroke-dashoffset: 0; stroke-linejoin: miter; stroke-miterlimit: 4; fill: rgb(0,0,0); fill-rule: nonzero; opacity: 1; white-space: pre;" ><tspan x="-75" y="11.62" >S</tspan></text>
</g>
<g transform="matrix(1 0 0 1 370.33 323.16)" style="filter: url(#SVGID_6);" id="IxNmrdDUt2mwgVxnXP0aK"  >
<filter id="SVGID_6" y="-22%" height="144%" x="-21%" width="142%" >
	<feGaussianBlur in="SourceAlpha" stdDeviation="0"></feGaussianBlur>
	<feOffset dx="1" dy="1" result="oBlur" ></feOffset>
	<feFlood flood-color="rgb(255,255,255)" flood-opacity="1"/>
	<feComposite in2="oBlur" operator="in" />
	<feMerge>
		<feMergeNode></feMergeNode>
		<feMergeNode in="SourceGraphic"></feMergeNode>
	</feMerge>
</filter>
		<text xml:space="preserve" font-family="Open Sans" font-size="37" font-style="normal" font-weight="normal" line-height="1.16" style="stroke: none; stroke-width: 1; stroke-dasharray: none; stroke-linecap: butt; stroke-dashoffset: 0; stroke-linejoin: miter; stroke-miterlimit: 4; fill: rgb(0,0,0); fill-rule: nonzero; opacity: 1; white-space: pre;" ><tspan x="-75" y="11.62" >S</tspan></text>
</g>
<g transform="matrix(1 0 0 1 313.21 323.16)" style="filter: url(#SVGID_7);" id="buBQ6x-7W-IWQ_STL_hhp"  >
<filter id="SVGID_7" y="-22%" height="144%" x="-21%" width="142%" >
	<feGaussianBlur in="SourceAlpha" stdDeviation="0"></feGaussianBlur>
	<feOffset dx="1" dy="1" result="oBlur" ></feOffset>
	<feFlood flood-color="rgb(255,255,255)" flood-opacity="1"/>
	<feComposite in2="oBlur" operator="in" />
	<feMerge>
		<feMergeNode></feMergeNode>
		<feMergeNode in="SourceGraphic"></feMergeNode>
	</feMerge>
</filter>
		<text xml:space="preserve" font-family="Open Sans" font-size="37" font-style="normal" font-weight="normal" line-height="1.16" style="stroke: none; stroke-width: 1; stroke-dasharray: none; stroke-linecap: butt; stroke-dashoffset: 0; stroke-linejoin: miter; stroke-miterlimit: 4; fill: rgb(0,0,0); fill-rule: nonzero; opacity: 1; white-space: pre;" ><tspan x="-75" y="11.62" >N</tspan></text>
</g>
<g transform="matrix(1 0 0 1 367.1 271.42)" style="filter: url(#SVGID_8);" id="K3U5b-uhbWC0KTMNGrFm8"  >
<filter id="SVGID_8" y="-22%" height="144%" x="-21%" width="142%" >
	<feGaussianBlur in="SourceAlpha" stdDeviation="0"></feGaussianBlur>
	<feOffset dx="1" dy="1" result="oBlur" ></feOffset>
	<feFlood flood-color="rgb(255,255,255)" flood-opacity="1"/>
	<feComposite in2="oBlur" operator="in" />
	<feMerge>
		<feMergeNode></feMergeNode>
		<feMergeNode in="SourceGraphic"></feMergeNode>
	</feMerge>
</filter>
		<text xml:space="preserve" font-family="Open Sans" font-size="37" font-style="normal" font-weight="normal" line-height="1.16" style="stroke: none; stroke-width: 1; stroke-dasharray: none; stroke-linecap: butt; stroke-dashoffset: 0; stroke-linejoin: miter; stroke-miterlimit: 4; fill: rgb(0,0,0); fill-rule: nonzero; opacity: 1; white-space: pre;" ><tspan x="-75" y="11.62" >N</tspan></text>
</g>
<g transform="matrix(1 0 0 1 140.27 229.14)" id="nsu0THJLBL9KjZlRbfe9m"  >
<path style="stroke: rgb(0,0,0); stroke-width: 3; stroke-dasharray: none; stroke-linecap: butt; stroke-dashoffset: 0; stroke-linejoin: miter; stroke-miterlimit: 4; fill: rgb(255,255,255); fill-rule: nonzero; opacity: 1;" vector-effect="non-scaling-stroke"  transform=" translate(0, 0)" d="M 139.94733 -0.16 L -139.94733 0.16" stroke-linecap="round" />
</g>
<g transform="matrix(1 0 0 1 139.96 359.01)" id="2AHyaQnetgfK_fleeqLd1"  >
<path style="stroke: rgb(0,0,0); stroke-width: 3; stroke-dasharray: none; stroke-linecap: butt; stroke-dashoffset: 0; stroke-linejoin: miter; stroke-miterlimit: 4; fill: rgb(255,255,255); fill-rule: nonzero; opacity: 1;" vector-effect="non-scaling-stroke"  transform=" translate(0, 0)" d="M 140.19733 0 L -140.19733 0" stroke-linecap="round" />
</g>
<g transform="matrix(1.11 0 0 1.11 83.31 145.27)" style="" id="4XN15SM1jKLcmvbojK7R4"  >
		<text xml:space="preserve" font-family="Open Sans" font-size="20" font-style="normal" font-weight="normal" line-height="1.16" style="stroke: none; stroke-width: 1; stroke-dasharray: none; stroke-linecap: butt; stroke-dashoffset: 0; stroke-linejoin: miter; stroke-miterlimit: 4; fill: rgb(0,0,0); fill-rule: nonzero; opacity: 1; white-space: pre;" ><tspan x="-60" y="6.28" >混合物</tspan></text>
</g>
<g transform="matrix(1.41 0 0 0.69 49.1 144.28)" id="7kFDFJlABXZdtkjlXUS44"  >
<path style="stroke: rgb(0,0,0); stroke-width: 1; stroke-dasharray: none; stroke-linecap: butt; stroke-dashoffset: 0; stroke-linejoin: miter; stroke-miterlimit: 4; fill: rgb(0,0,0); fill-opacity: 0; fill-rule: nonzero; opacity: 1;" vector-effect="non-scaling-stroke"  transform=" translate(0, 0)" d="M 0 -29.12622 C 16.07767 -29.12622 29.12622 -16.077669999999998 29.12622 0 C 29.12622 16.07767 16.077669999999998 29.12622 0 29.12622 C -16.07767 29.12622 -29.12622 16.077669999999998 -29.12622 0 C -29.12622 -16.07767 -16.077669999999998 -29.12622 0 -29.12622 z" stroke-linecap="round" />
</g>
</svg>