<?xml version="1.0" encoding="UTF-8" standalone="no" ?>
<!DOCTYPE svg PUBLIC "-//W3C//DTD SVG 1.1//EN" "http://www.w3.org/Graphics/SVG/1.1/DTD/svg11.dtd">
<svg xmlns="http://www.w3.org/2000/svg" xmlns:xlink="http://www.w3.org/1999/xlink" version="1.1" width="700" height="500" viewBox="0 0 700 500" xml:space="preserve">
<desc>Created with Fabric.js 4.6.0</desc>
<defs>
</defs>
<g transform="matrix(1 0 0 1 182.86 227.14)" id="moRwSF90PVXGpcMK-ma4f"  >
<path style="stroke: rgb(0,0,0); stroke-width: 3; stroke-dasharray: none; stroke-linecap: butt; stroke-dashoffset: 0; stroke-linejoin: miter; stroke-miterlimit: 4; fill: rgb(0,0,0); fill-opacity: 0.43; fill-rule: nonzero; opacity: 1;" vector-effect="non-scaling-stroke"  transform=" translate(-51.43, -51.43)" d="M 51.42857 0 C 79.81714 0 102.85714 23.04 102.85714 51.42857 C 102.85714 79.81714 79.81714 102.85714 51.42857 102.85714 C 23.04 102.85714 0 79.81714 0 51.42857 C 0 23.04 23.04 0 51.42857 0 z" stroke-linecap="round" />
</g>
<g transform="matrix(1 0 0 1 91.61 176.14)" id="DN2yZtIijQTdDK0ZsMGEP"  >
<path style="stroke: rgb(0,0,0); stroke-width: 3; stroke-dasharray: none; stroke-linecap: butt; stroke-dashoffset: 0; stroke-linejoin: miter; stroke-miterlimit: 4; fill: rgb(255,255,255); fill-rule: nonzero; opacity: 1;" vector-effect="non-scaling-stroke"  transform=" translate(0, 0)" d="M 91.25 0 L -91.25 0" stroke-linecap="round" />
</g>
<g transform="matrix(1 0 0 1 92.54 278.14)" id="agoDSgnYDjvrAiClquXb_"  >
<path style="stroke: rgb(0,0,0); stroke-width: 3; stroke-dasharray: none; stroke-linecap: butt; stroke-dashoffset: 0; stroke-linejoin: miter; stroke-miterlimit: 4; fill: rgb(255,255,255); fill-rule: nonzero; opacity: 1;" vector-effect="non-scaling-stroke"  transform=" translate(0, 0)" d="M 91.25 0 L -91.25 0" stroke-linecap="round" />
</g>
<g transform="matrix(1 0 0 1 449.29 408.57)" id="avWYU0xzIpZPKPFmuP6oq"  >
<path style="stroke: rgb(0,0,0); stroke-width: 2; stroke-dasharray: none; stroke-linecap: butt; stroke-dashoffset: 0; stroke-linejoin: miter; stroke-miterlimit: 4; fill: rgb(255,255,255); fill-rule: nonzero; opacity: 1;" vector-effect="non-scaling-stroke"  transform=" translate(0, 0)" d="M -220 0 L 220 0" stroke-linecap="round" />
</g>
<g transform="matrix(0.52 0 0 0.52 367.16 388.59)" id="8HefsXat8i6CelWH2VzTj"  >
<path style="stroke: none; stroke-width: 1; stroke-dasharray: none; stroke-linecap: butt; stroke-dashoffset: 0; stroke-linejoin: miter; stroke-miterlimit: 4; fill: rgb(0,0,0); fill-opacity: 0.7; fill-rule: nonzero; opacity: 1;" vector-effect="non-scaling-stroke"  transform=" translate(-40, -40)" d="M 60 40 L 80 80 L 40 80 L 0 80 L 20 40 L 40 0 L 60 40 z" stroke-linecap="round" />
</g>
<g transform="matrix(0.52 0 0 0.52 527.16 387.16)" id="r74WJGuApPzooLWoCrZt6"  >
<path style="stroke: none; stroke-width: 1; stroke-dasharray: none; stroke-linecap: butt; stroke-dashoffset: 0; stroke-linejoin: miter; stroke-miterlimit: 4; fill: rgb(0,0,0); fill-opacity: 0.7; fill-rule: nonzero; opacity: 1;" vector-effect="non-scaling-stroke"  transform=" translate(-40, -40)" d="M 60 40 L 80 80 L 40 80 L 0 80 L 20 40 L 40 0 L 60 40 z" stroke-linecap="round" />
</g>
<g transform="matrix(0.3 0.13 -0.23 0.51 390.05 98.81)" id="YuMKhnogwFWB00cJGuLyZ"  >
<path style="stroke: rgb(227,37,27); stroke-width: 0; stroke-dasharray: none; stroke-linecap: butt; stroke-dashoffset: 0; stroke-linejoin: miter; stroke-miterlimit: 4; fill: rgb(0,0,0); fill-opacity: 0.29; fill-rule: nonzero; opacity: 1;" vector-effect="non-scaling-stroke"  transform=" translate(0, 0)" d="M -36.07143 -36.07143 L 36.07143 -36.07143 L 36.07143 36.07143 L -36.07143 36.07143 z" stroke-linecap="round" />
</g>
<g transform="matrix(0.22 0.1 -0.23 0.51 378.96 122.31)" id="I33DbtyPJaY4uxXYddAQv"  >
<path style="stroke: rgb(188,223,90); stroke-width: 0; stroke-dasharray: none; stroke-linecap: butt; stroke-dashoffset: 0; stroke-linejoin: miter; stroke-miterlimit: 4; fill: rgb(0,0,0); fill-opacity: 0.8; fill-rule: nonzero; opacity: 1;" vector-effect="non-scaling-stroke"  transform=" translate(0, 0)" d="M -11.42857 -11.42857 L 11.42857 -11.42857 L 11.42857 11.42857 L -11.42857 11.42857 z" stroke-linecap="round" />
</g>
<g transform="matrix(0.3 0.13 -0.23 0.51 516.49 137.53)" id="W7v8vRMsag5ED3033sfTK"  >
<path style="stroke: rgb(227,37,27); stroke-width: 0; stroke-dasharray: none; stroke-linecap: butt; stroke-dashoffset: 0; stroke-linejoin: miter; stroke-miterlimit: 4; fill: rgb(0,0,0); fill-opacity: 0.29; fill-rule: nonzero; opacity: 1;" vector-effect="non-scaling-stroke"  transform=" translate(0, 0)" d="M -36.07143 -36.07143 L 36.07143 -36.07143 L 36.07143 36.07143 L -36.07143 36.07143 z" stroke-linecap="round" />
</g>
<g transform="matrix(0.22 0.1 -0.23 0.51 505.86 160.83)" id="7LxgdvMgmgT4JbQoRrTjj"  >
<path style="stroke: rgb(188,223,90); stroke-width: 0; stroke-dasharray: none; stroke-linecap: butt; stroke-dashoffset: 0; stroke-linejoin: miter; stroke-miterlimit: 4; fill: rgb(0,0,0); fill-opacity: 0.8; fill-rule: nonzero; opacity: 1;" vector-effect="non-scaling-stroke"  transform=" translate(0, 0)" d="M -11.42857 -11.42857 L 11.42857 -11.42857 L 11.42857 11.42857 L -11.42857 11.42857 z" stroke-linecap="round" />
</g>
<g transform="matrix(0.3 0.13 -0.23 0.51 638.27 177.25)" id="a_hcdbhFb4jujF6WXVHSO"  >
<path style="stroke: rgb(227,37,27); stroke-width: 0; stroke-dasharray: none; stroke-linecap: butt; stroke-dashoffset: 0; stroke-linejoin: miter; stroke-miterlimit: 4; fill: rgb(0,0,0); fill-opacity: 0.29; fill-rule: nonzero; opacity: 1;" vector-effect="non-scaling-stroke"  transform=" translate(0, 0)" d="M -36.07143 -36.07143 L 36.07143 -36.07143 L 36.07143 36.07143 L -36.07143 36.07143 z" stroke-linecap="round" />
</g>
<g transform="matrix(0.22 0.1 -0.23 0.51 627.17 200.75)" id="4IMUCUJVX3eDr19joIsvn"  >
<path style="stroke: rgb(188,223,90); stroke-width: 0; stroke-dasharray: none; stroke-linecap: butt; stroke-dashoffset: 0; stroke-linejoin: miter; stroke-miterlimit: 4; fill: rgb(0,0,0); fill-opacity: 0.8; fill-rule: nonzero; opacity: 1;" vector-effect="non-scaling-stroke"  transform=" translate(0, 0)" d="M -11.42857 -11.42857 L 11.42857 -11.42857 L 11.42857 11.42857 L -11.42857 11.42857 z" stroke-linecap="round" />
</g>
<g transform="matrix(0.9 0 0 0.71 288.83 448.75)" id="HeTAqMuuvo4ZdMPVed-Qa"  >
<path style="stroke: rgb(106,146,195); stroke-width: 0; stroke-dasharray: none; stroke-linecap: butt; stroke-dashoffset: 0; stroke-linejoin: miter; stroke-miterlimit: 4; fill: rgb(247,47,47); fill-rule: nonzero; opacity: 1;" vector-effect="non-scaling-stroke"  transform=" translate(0, 0)" d="M 0 -45.71428 C 25.23428 -45.71428 45.71428 -25.234280000000002 45.71428 0 C 45.71428 25.23428 25.234280000000002 45.71428 0 45.71428 C -25.23428 45.71428 -45.71428 25.234280000000002 -45.71428 0 C -45.71428 -25.23428 -25.234280000000002 -45.71428 0 -45.71428 z" stroke-linecap="round" />
</g>
<g transform="matrix(1 0 0 1 327.14 449.5)" style="filter: url(#SVGID_0);" id="Sirm1GWTzKnEAq-pDQmmM"  >
<filter id="SVGID_0" y="-22%" height="144%" x="-21%" width="142%" >
	<feGaussianBlur in="SourceAlpha" stdDeviation="0"></feGaussianBlur>
	<feOffset dx="1" dy="1" result="oBlur" ></feOffset>
	<feFlood flood-color="rgb(255,255,255)" flood-opacity="1"/>
	<feComposite in2="oBlur" operator="in" />
	<feMerge>
		<feMergeNode></feMergeNode>
		<feMergeNode in="SourceGraphic"></feMergeNode>
	</feMerge>
</filter>
		<text xml:space="preserve" font-family="Open Sans" font-size="39" font-style="normal" font-weight="normal" line-height="1.16" style="stroke: none; stroke-width: 1; stroke-dasharray: none; stroke-linecap: butt; stroke-dashoffset: 0; stroke-linejoin: miter; stroke-miterlimit: 4; fill: rgb(0,0,0); fill-rule: nonzero; opacity: 1; white-space: pre;" ><tspan x="-75" y="12.25" >ABS</tspan></text>
</g>
<g transform="matrix(1.54 0 0 0.73 446.82 444.02)" id="lY-5-t8rpSwPRIEvsVIZ1"  >
<path style="stroke: none; stroke-width: 0; stroke-dasharray: none; stroke-linecap: butt; stroke-dashoffset: 0; stroke-linejoin: miter; stroke-miterlimit: 4; fill: rgb(49,168,247); fill-rule: nonzero; opacity: 1;" vector-effect="non-scaling-stroke"  transform=" translate(-40, -40)" d="M 60 40 L 80 80 L 40 80 L 0 80 L 20 40 L 40 0 L 60 40 z" stroke-linecap="round" />
</g>
<g transform="matrix(1 0 0 1 499.29 450.21)" style="filter: url(#SVGID_1);" id="oM6RY0nLmgy76nv5vNYOe"  >
<filter id="SVGID_1" y="-22%" height="144%" x="-21%" width="142%" >
	<feGaussianBlur in="SourceAlpha" stdDeviation="0"></feGaussianBlur>
	<feOffset dx="1" dy="1" result="oBlur" ></feOffset>
	<feFlood flood-color="rgb(255,255,255)" flood-opacity="1"/>
	<feComposite in2="oBlur" operator="in" />
	<feMerge>
		<feMergeNode></feMergeNode>
		<feMergeNode in="SourceGraphic"></feMergeNode>
	</feMerge>
</filter>
		<text xml:space="preserve" font-family="Open Sans" font-size="39" font-style="normal" font-weight="normal" line-height="1.16" style="stroke: none; stroke-width: 1; stroke-dasharray: none; stroke-linecap: butt; stroke-dashoffset: 0; stroke-linejoin: miter; stroke-miterlimit: 4; fill: rgb(0,0,0); fill-rule: nonzero; opacity: 1; white-space: pre;" ><tspan x="-75" y="12.25" >PP</tspan></text>
</g>
<g transform="matrix(0.86 0 0 0.86 604.03 447.4)" id="qJr7UCQ8t65Ota6V-IpnK"  >
<path style="stroke: rgb(100,156,127); stroke-width: 0; stroke-dasharray: none; stroke-linecap: butt; stroke-dashoffset: 0; stroke-linejoin: miter; stroke-miterlimit: 4; fill: rgb(53,237,53); fill-rule: nonzero; opacity: 1;" vector-effect="non-scaling-stroke"  transform=" translate(-42.06, -36.43)" d="M 63.09612 0 L 84.12819 36.42857 L 63.09612 72.85714 L 21.032069999999997 72.85714 L -3.552713678800501e-15 36.42857 L 21.032069999999997 0 z" stroke-linecap="round" />
</g>
<g transform="matrix(1 0 0 1 702.86 450)" style="filter: url(#SVGID_2);" id="8C2uBIhZ4AfAj6Udt52yz"  >
<filter id="SVGID_2" y="-22%" height="144%" x="-20%" width="140%" >
	<feGaussianBlur in="SourceAlpha" stdDeviation="0"></feGaussianBlur>
	<feOffset dx="1" dy="1" result="oBlur" ></feOffset>
	<feFlood flood-color="rgb(255,255,255)" flood-opacity="1"/>
	<feComposite in2="oBlur" operator="in" />
	<feMerge>
		<feMergeNode></feMergeNode>
		<feMergeNode in="SourceGraphic"></feMergeNode>
	</feMerge>
</filter>
		<text xml:space="preserve" font-family="Open Sans" font-size="39" font-style="normal" font-weight="normal" line-height="1.16" style="stroke: none; stroke-width: 1; stroke-dasharray: none; stroke-linecap: butt; stroke-dashoffset: 0; stroke-linejoin: miter; stroke-miterlimit: 4; fill: rgb(0,0,0); fill-rule: nonzero; opacity: 1; white-space: pre;" ><tspan x="-122.52" y="12.25" >PS</tspan></text>
</g>
<g transform="matrix(0.75 0 0 0.75 278.51 270.3)" id="ZblZbMqIKJwwvPCCBYv7P"  >
<path style="stroke: rgb(0,0,0); stroke-width: 1; stroke-dasharray: none; stroke-linecap: butt; stroke-dashoffset: 0; stroke-linejoin: miter; stroke-miterlimit: 4; fill: rgb(247,47,58); fill-rule: nonzero; opacity: 1;" vector-effect="non-scaling-stroke"  transform=" translate(0, 0)" d="M 0 -16.07143 C 8.87143 -16.07143 16.07143 -8.87143 16.07143 0 C 16.07143 8.87143 8.87143 16.07143 0 16.07143 C -8.87143 16.07143 -16.07143 8.87143 -16.07143 0 C -16.07143 -8.87143 -8.87143 -16.07143 0 -16.07143 z" stroke-linecap="round" />
</g>
<g transform="matrix(0.75 0 0 0.75 312.8 322.44)" id="lvXuOoo3_lTXkO_dy7VlJ"  >
<path style="stroke: rgb(0,0,0); stroke-width: 1; stroke-dasharray: none; stroke-linecap: butt; stroke-dashoffset: 0; stroke-linejoin: miter; stroke-miterlimit: 4; fill: rgb(247,47,58); fill-rule: nonzero; opacity: 1;" vector-effect="non-scaling-stroke"  transform=" translate(0, 0)" d="M 0 -16.07143 C 8.87143 -16.07143 16.07143 -8.87143 16.07143 0 C 16.07143 8.87143 8.87143 16.07143 0 16.07143 C -8.87143 16.07143 -16.07143 8.87143 -16.07143 0 C -16.07143 -8.87143 -8.87143 -16.07143 0 -16.07143 z" stroke-linecap="round" />
</g>
<g transform="matrix(0.75 0 0 0.75 273.52 396.01)" id="w0blmBZoUtusuO9ueJ6KY"  >
<path style="stroke: rgb(0,0,0); stroke-width: 1; stroke-dasharray: none; stroke-linecap: butt; stroke-dashoffset: 0; stroke-linejoin: miter; stroke-miterlimit: 4; fill: rgb(247,47,58); fill-rule: nonzero; opacity: 1;" vector-effect="non-scaling-stroke"  transform=" translate(0, 0)" d="M 0 -16.07143 C 8.87143 -16.07143 16.07143 -8.87143 16.07143 0 C 16.07143 8.87143 8.87143 16.07143 0 16.07143 C -8.87143 16.07143 -16.07143 8.87143 -16.07143 0 C -16.07143 -8.87143 -8.87143 -16.07143 0 -16.07143 z" stroke-linecap="round" />
</g>
<g transform="matrix(0.75 0 0 0.75 292.8 378.87)" id="0XMa9O_ssShol_WpncDfO"  >
<path style="stroke: rgb(0,0,0); stroke-width: 1; stroke-dasharray: none; stroke-linecap: butt; stroke-dashoffset: 0; stroke-linejoin: miter; stroke-miterlimit: 4; fill: rgb(247,47,58); fill-rule: nonzero; opacity: 1;" vector-effect="non-scaling-stroke"  transform=" translate(0, 0)" d="M 0 -16.07143 C 8.87143 -16.07143 16.07143 -8.87143 16.07143 0 C 16.07143 8.87143 8.87143 16.07143 0 16.07143 C -8.87143 16.07143 -16.07143 8.87143 -16.07143 0 C -16.07143 -8.87143 -8.87143 -16.07143 0 -16.07143 z" stroke-linecap="round" />
</g>
<g transform="matrix(0.75 0 0 0.75 310.66 398.16)" id="ZZDxDbi0l8zo4LIV6v1v5"  >
<path style="stroke: rgb(0,0,0); stroke-width: 1; stroke-dasharray: none; stroke-linecap: butt; stroke-dashoffset: 0; stroke-linejoin: miter; stroke-miterlimit: 4; fill: rgb(247,47,58); fill-rule: nonzero; opacity: 1;" vector-effect="non-scaling-stroke"  transform=" translate(0, 0)" d="M 0 -16.07143 C 8.87143 -16.07143 16.07143 -8.87143 16.07143 0 C 16.07143 8.87143 8.87143 16.07143 0 16.07143 C -8.87143 16.07143 -16.07143 8.87143 -16.07143 0 C -16.07143 -8.87143 -8.87143 -16.07143 0 -16.07143 z" stroke-linecap="round" />
</g>
<g transform="matrix(0.75 0 0 0.75 29.95 163.87)" id="fARB8wAiK5uLcMVEYWit7"  >
<path style="stroke: rgb(0,0,0); stroke-width: 1; stroke-dasharray: none; stroke-linecap: butt; stroke-dashoffset: 0; stroke-linejoin: miter; stroke-miterlimit: 4; fill: rgb(247,47,58); fill-rule: nonzero; opacity: 1;" vector-effect="non-scaling-stroke"  transform=" translate(0, 0)" d="M 0 -16.07143 C 8.87143 -16.07143 16.07143 -8.87143 16.07143 0 C 16.07143 8.87143 8.87143 16.07143 0 16.07143 C -8.87143 16.07143 -16.07143 8.87143 -16.07143 0 C -16.07143 -8.87143 -8.87143 -16.07143 0 -16.07143 z" stroke-linecap="round" />
</g>
<g transform="matrix(0.75 0 0 0.75 169.95 163.87)" id="zsqMqKCbmZ1gPSj5CWksg"  >
<path style="stroke: rgb(0,0,0); stroke-width: 1; stroke-dasharray: none; stroke-linecap: butt; stroke-dashoffset: 0; stroke-linejoin: miter; stroke-miterlimit: 4; fill: rgb(247,47,58); fill-rule: nonzero; opacity: 1;" vector-effect="non-scaling-stroke"  transform=" translate(0, 0)" d="M 0 -16.07143 C 8.87143 -16.07143 16.07143 -8.87143 16.07143 0 C 16.07143 8.87143 8.87143 16.07143 0 16.07143 C -8.87143 16.07143 -16.07143 8.87143 -16.07143 0 C -16.07143 -8.87143 -8.87143 -16.07143 0 -16.07143 z" stroke-linecap="round" />
</g>
<g transform="matrix(0.37 0 0 0.33 434.87 393.69)" id="YeHDtTFW_vlHb74FoAMDE"  >
<path style="stroke: rgb(0,0,0); stroke-width: 1; stroke-dasharray: none; stroke-linecap: butt; stroke-dashoffset: 0; stroke-linejoin: miter; stroke-miterlimit: 4; fill: rgb(49,168,247); fill-rule: nonzero; opacity: 1;" vector-effect="non-scaling-stroke"  transform=" translate(-40, -40)" d="M 60 40 L 80 80 L 40 80 L 0 80 L 20 40 L 40 0 L 60 40 z" stroke-linecap="round" />
</g>
<g transform="matrix(0.37 0 0 0.33 474.87 392.98)" id="IyPupaJi9AXfJwkVf7FYp"  >
<path style="stroke: rgb(0,0,0); stroke-width: 1; stroke-dasharray: none; stroke-linecap: butt; stroke-dashoffset: 0; stroke-linejoin: miter; stroke-miterlimit: 4; fill: rgb(49,168,247); fill-rule: nonzero; opacity: 1;" vector-effect="non-scaling-stroke"  transform=" translate(-40, -40)" d="M 60 40 L 80 80 L 40 80 L 0 80 L 20 40 L 40 0 L 60 40 z" stroke-linecap="round" />
</g>
<g transform="matrix(0.37 0 0 0.33 93.44 160.83)" id="5q3__QF45XSqEziKOhTxy"  >
<path style="stroke: rgb(0,0,0); stroke-width: 1; stroke-dasharray: none; stroke-linecap: butt; stroke-dashoffset: 0; stroke-linejoin: miter; stroke-miterlimit: 4; fill: rgb(49,168,247); fill-rule: nonzero; opacity: 1;" vector-effect="non-scaling-stroke"  transform=" translate(-40, -40)" d="M 60 40 L 80 80 L 40 80 L 0 80 L 20 40 L 40 0 L 60 40 z" stroke-linecap="round" />
</g>
<g transform="matrix(0.37 0 0 0.33 365.58 215.83)" id="7xTSG3Zy0V3tr9VsVhT7u"  >
<path style="stroke: rgb(0,0,0); stroke-width: 1; stroke-dasharray: none; stroke-linecap: butt; stroke-dashoffset: 0; stroke-linejoin: miter; stroke-miterlimit: 4; fill: rgb(49,168,247); fill-rule: nonzero; opacity: 1;" vector-effect="non-scaling-stroke"  transform=" translate(-40, -40)" d="M 60 40 L 80 80 L 40 80 L 0 80 L 20 40 L 40 0 L 60 40 z" stroke-linecap="round" />
</g>
<g transform="matrix(0.37 0 0 0.33 492.19 310.25)" id="9bX4wCkTmPybi3UZlxPZ-"  >
<path style="stroke: rgb(0,0,0); stroke-width: 1; stroke-dasharray: none; stroke-linecap: butt; stroke-dashoffset: 0; stroke-linejoin: miter; stroke-miterlimit: 4; fill: rgb(49,168,247); fill-rule: nonzero; opacity: 1;" vector-effect="non-scaling-stroke"  transform=" translate(-40, -40)" d="M 60 40 L 80 80 L 40 80 L 0 80 L 20 40 L 40 0 L 60 40 z" stroke-linecap="round" />
</g>
<g transform="matrix(0.37 0 0 0.33 139.16 160.83)" id="SEDF7iQJS4SrQiVCnMLaL"  >
<path style="stroke: rgb(0,0,0); stroke-width: 1; stroke-dasharray: none; stroke-linecap: butt; stroke-dashoffset: 0; stroke-linejoin: miter; stroke-miterlimit: 4; fill: rgb(49,168,247); fill-rule: nonzero; opacity: 1;" vector-effect="non-scaling-stroke"  transform=" translate(-40, -40)" d="M 60 40 L 80 80 L 40 80 L 0 80 L 20 40 L 40 0 L 60 40 z" stroke-linecap="round" />
</g>
<g transform="matrix(0.37 0 0 0.33 427.01 364.4)" id="I3DhhbWozLrmfAsIjOqIz"  >
<path style="stroke: rgb(0,0,0); stroke-width: 1; stroke-dasharray: none; stroke-linecap: butt; stroke-dashoffset: 0; stroke-linejoin: miter; stroke-miterlimit: 4; fill: rgb(49,168,247); fill-rule: nonzero; opacity: 1;" vector-effect="non-scaling-stroke"  transform=" translate(-40, -40)" d="M 60 40 L 80 80 L 40 80 L 0 80 L 20 40 L 40 0 L 60 40 z" stroke-linecap="round" />
</g>
<g transform="matrix(1 0 0 1 585.67 394.64)" id="Uu76YZ-7UlRTe3LkNuli7"  >
<path style="stroke: rgb(0,0,0); stroke-width: 1; stroke-dasharray: none; stroke-linecap: butt; stroke-dashoffset: 0; stroke-linejoin: miter; stroke-miterlimit: 4; fill: rgb(53,237,53); fill-rule: nonzero; opacity: 1;" vector-effect="non-scaling-stroke"  transform=" translate(-15.67, -13.57)" d="M 23.50644 0 L 31.341880000000003 13.57143 L 23.506440000000005 27.14286 L 7.8354400000000055 27.14286 L 5.329070518200751e-15 13.57143 L 7.8354400000000055 0 z" stroke-linecap="round" />
</g>
<g transform="matrix(1 0 0 1 508.53 236.07)" id="wafudgBL5Jy4FDKo2ToWd"  >
<path style="stroke: rgb(0,0,0); stroke-width: 1; stroke-dasharray: none; stroke-linecap: butt; stroke-dashoffset: 0; stroke-linejoin: miter; stroke-miterlimit: 4; fill: rgb(53,237,53); fill-rule: nonzero; opacity: 1;" vector-effect="non-scaling-stroke"  transform=" translate(-15.67, -13.57)" d="M 23.50644 0 L 31.341880000000003 13.57143 L 23.506440000000005 27.14286 L 7.8354400000000055 27.14286 L 5.329070518200751e-15 13.57143 L 7.8354400000000055 0 z" stroke-linecap="round" />
</g>
<g transform="matrix(1 0 0 1 571.38 338.21)" id="Lu9lgLWFYbTozO4dTzFBv"  >
<path style="stroke: rgb(0,0,0); stroke-width: 1; stroke-dasharray: none; stroke-linecap: butt; stroke-dashoffset: 0; stroke-linejoin: miter; stroke-miterlimit: 4; fill: rgb(53,237,53); fill-rule: nonzero; opacity: 1;" vector-effect="non-scaling-stroke"  transform=" translate(-15.67, -13.57)" d="M 23.50644 0 L 31.341880000000003 13.57143 L 23.506440000000005 27.14286 L 7.8354400000000055 27.14286 L 5.329070518200751e-15 13.57143 L 7.8354400000000055 0 z" stroke-linecap="round" />
</g>
<g transform="matrix(1 0 0 1 616.38 366.07)" id="D_AawvygcYumlcmTzrTRU"  >
<path style="stroke: rgb(0,0,0); stroke-width: 1; stroke-dasharray: none; stroke-linecap: butt; stroke-dashoffset: 0; stroke-linejoin: miter; stroke-miterlimit: 4; fill: rgb(53,237,53); fill-rule: nonzero; opacity: 1;" vector-effect="non-scaling-stroke"  transform=" translate(-15.67, -13.57)" d="M 23.50644 0 L 31.341880000000003 13.57143 L 23.506440000000005 27.14286 L 7.8354400000000055 27.14286 L 5.329070518200751e-15 13.57143 L 7.8354400000000055 0 z" stroke-linecap="round" />
</g>
<g transform="matrix(1 0 0 1 624.96 393.21)" id="WrJ-PlZO7H4-i05VjdZr2"  >
<path style="stroke: rgb(0,0,0); stroke-width: 1; stroke-dasharray: none; stroke-linecap: butt; stroke-dashoffset: 0; stroke-linejoin: miter; stroke-miterlimit: 4; fill: rgb(53,237,53); fill-rule: nonzero; opacity: 1;" vector-effect="non-scaling-stroke"  transform=" translate(-15.67, -13.57)" d="M 23.50644 0 L 31.341880000000003 13.57143 L 23.506440000000005 27.14286 L 7.8354400000000055 27.14286 L 5.329070518200751e-15 13.57143 L 7.8354400000000055 0 z" stroke-linecap="round" />
</g>
<g transform="matrix(1 0 0 1 209.09 163.8)" id="prEZjgVe3uRuZDgN67yTc"  >
<path style="stroke: rgb(0,0,0); stroke-width: 1; stroke-dasharray: none; stroke-linecap: butt; stroke-dashoffset: 0; stroke-linejoin: miter; stroke-miterlimit: 4; fill: rgb(53,237,53); fill-rule: nonzero; opacity: 1;" vector-effect="non-scaling-stroke"  transform=" translate(-15.67, -13.57)" d="M 23.50644 0 L 31.341880000000003 13.57143 L 23.506440000000005 27.14286 L 7.8354400000000055 27.14286 L 5.329070518200751e-15 13.57143 L 7.8354400000000055 0 z" stroke-linecap="round" />
</g>
<g transform="matrix(1 0 0 1 404.95 196.78)" id="ofsjz-JMxdQYRJqZ3rZe_"  >
<path style="stroke: rgb(0,0,0); stroke-width: 1; stroke-dasharray: none; stroke-linecap: butt; stroke-dashoffset: 0; stroke-linejoin: miter; stroke-miterlimit: 4; fill: rgb(53,237,53); fill-rule: nonzero; opacity: 1;" vector-effect="non-scaling-stroke"  transform=" translate(-15.67, -13.57)" d="M 23.50644 0 L 31.341880000000003 13.57143 L 23.506440000000005 27.14286 L 7.8354400000000055 27.14286 L 5.329070518200751e-15 13.57143 L 7.8354400000000055 0 z" stroke-linecap="round" />
</g>
<g transform="matrix(0.37 0 0 0.33 439.87 240.84)" id="sI9FfxjwX1gmYSuo7fdxh"  >
<path style="stroke: rgb(0,0,0); stroke-width: 1; stroke-dasharray: none; stroke-linecap: butt; stroke-dashoffset: 0; stroke-linejoin: miter; stroke-miterlimit: 4; fill: rgb(49,168,247); fill-rule: nonzero; opacity: 1;" vector-effect="non-scaling-stroke"  transform=" translate(-40, -40)" d="M 60 40 L 80 80 L 40 80 L 0 80 L 20 40 L 40 0 L 60 40 z" stroke-linecap="round" />
</g>
<g transform="matrix(0.75 0 0 0.75 119.23 151.01)" id="OCMSrxPKJyXiuhXt9lHzP"  >
<path style="stroke: rgb(0,0,0); stroke-width: 1; stroke-dasharray: none; stroke-linecap: butt; stroke-dashoffset: 0; stroke-linejoin: miter; stroke-miterlimit: 4; fill: rgb(247,47,58); fill-rule: nonzero; opacity: 1;" vector-effect="non-scaling-stroke"  transform=" translate(0, 0)" d="M 0 -16.07143 C 8.87143 -16.07143 16.07143 -8.87143 16.07143 0 C 16.07143 8.87143 8.87143 16.07143 0 16.07143 C -8.87143 16.07143 -16.07143 8.87143 -16.07143 0 C -16.07143 -8.87143 -8.87143 -16.07143 0 -16.07143 z" stroke-linecap="round" />
</g>
<g transform="matrix(0.75 0 0 0.75 266.37 188.16)" id="ZiNe4qZ4VdKKI2mDpDb5L"  >
<path style="stroke: rgb(0,0,0); stroke-width: 1; stroke-dasharray: none; stroke-linecap: butt; stroke-dashoffset: 0; stroke-linejoin: miter; stroke-miterlimit: 4; fill: rgb(247,47,58); fill-rule: nonzero; opacity: 1;" vector-effect="non-scaling-stroke"  transform=" translate(0, 0)" d="M 0 -16.07143 C 8.87143 -16.07143 16.07143 -8.87143 16.07143 0 C 16.07143 8.87143 8.87143 16.07143 0 16.07143 C -8.87143 16.07143 -16.07143 8.87143 -16.07143 0 C -16.07143 -8.87143 -8.87143 -16.07143 0 -16.07143 z" stroke-linecap="round" />
</g>
<g transform="matrix(1 0 0 1 62.24 161.1)" id="gv4VJHQFDHsTgGjrJOd8T"  >
<path style="stroke: rgb(0,0,0); stroke-width: 1; stroke-dasharray: none; stroke-linecap: butt; stroke-dashoffset: 0; stroke-linejoin: miter; stroke-miterlimit: 4; fill: rgb(53,237,53); fill-rule: nonzero; opacity: 1;" vector-effect="non-scaling-stroke"  transform=" translate(-15.67, -13.57)" d="M 23.50644 0 L 31.341880000000003 13.57143 L 23.506440000000005 27.14286 L 7.8354400000000055 27.14286 L 5.329070518200751e-15 13.57143 L 7.8354400000000055 0 z" stroke-linecap="round" />
</g>
<g transform="matrix(1 0 0 1 579.24 270.35)" id="t7ykndv81I1soe5S-a965"  >
<path style="stroke: rgb(0,0,0); stroke-width: 1; stroke-dasharray: none; stroke-linecap: butt; stroke-dashoffset: 0; stroke-linejoin: miter; stroke-miterlimit: 4; fill: rgb(53,237,53); fill-rule: nonzero; opacity: 1;" vector-effect="non-scaling-stroke"  transform=" translate(-15.67, -13.57)" d="M 23.50644 0 L 31.341880000000003 13.57143 L 23.506440000000005 27.14286 L 7.8354400000000055 27.14286 L 5.329070518200751e-15 13.57143 L 7.8354400000000055 0 z" stroke-linecap="round" />
</g>
<g transform="matrix(0.37 0 0 0.33 38.34 135.97)" id="T_Ceh5mQGvAcvmXJKD6D8"  >
<path style="stroke: rgb(0,0,0); stroke-width: 1; stroke-dasharray: none; stroke-linecap: butt; stroke-dashoffset: 0; stroke-linejoin: miter; stroke-miterlimit: 4; fill: rgb(49,168,247); fill-rule: nonzero; opacity: 1;" vector-effect="non-scaling-stroke"  transform=" translate(-40, -40)" d="M 60 40 L 80 80 L 40 80 L 0 80 L 20 40 L 40 0 L 60 40 z" stroke-linecap="round" />
</g>
<g transform="matrix(1 0 0 1 155.66 141.07)" id="2JSGzjh6813jw5YJogBNZ"  >
<path style="stroke: rgb(0,0,0); stroke-width: 1; stroke-dasharray: none; stroke-linecap: butt; stroke-dashoffset: 0; stroke-linejoin: miter; stroke-miterlimit: 4; fill: rgb(53,237,53); fill-rule: nonzero; opacity: 1;" vector-effect="non-scaling-stroke"  transform=" translate(-15.67, -13.57)" d="M 23.50644 0 L 31.341880000000003 13.57143 L 23.506440000000005 27.14286 L 7.8354400000000055 27.14286 L 5.329070518200751e-15 13.57143 L 7.8354400000000055 0 z" stroke-linecap="round" />
</g>
<g transform="matrix(1 0 0 1 317.8 217.5)" id="QFuHtR9iuNu54DWtoeSkM"  >
<path style="stroke: rgb(0,0,0); stroke-width: 1; stroke-dasharray: none; stroke-linecap: butt; stroke-dashoffset: 0; stroke-linejoin: miter; stroke-miterlimit: 4; fill: rgb(53,237,53); fill-rule: nonzero; opacity: 1;" vector-effect="non-scaling-stroke"  transform=" translate(-15.67, -13.57)" d="M 23.50644 0 L 31.341880000000003 13.57143 L 23.506440000000005 27.14286 L 7.8354400000000055 27.14286 L 5.329070518200751e-15 13.57143 L 7.8354400000000055 0 z" stroke-linecap="round" />
</g>
<g transform="matrix(0.37 0 0 0.33 303.44 158.69)" id="b79JdH5lWiZh18b-RszaW"  >
<path style="stroke: rgb(0,0,0); stroke-width: 1; stroke-dasharray: none; stroke-linecap: butt; stroke-dashoffset: 0; stroke-linejoin: miter; stroke-miterlimit: 4; fill: rgb(49,168,247); fill-rule: nonzero; opacity: 1;" vector-effect="non-scaling-stroke"  transform=" translate(-40, -40)" d="M 60 40 L 80 80 L 40 80 L 0 80 L 20 40 L 40 0 L 60 40 z" stroke-linecap="round" />
</g>
<g transform="matrix(1 0 0 1 96.43 307.5)" id="gfgGh8ZOooBzHGK3Zfk3Z"  >
<path style="stroke: rgb(0,0,0); stroke-width: 2; stroke-dasharray: none; stroke-linecap: butt; stroke-dashoffset: 0; stroke-linejoin: miter; stroke-miterlimit: 4; fill: rgb(255,255,255); fill-rule: nonzero; opacity: 1;" vector-effect="non-scaling-stroke"  transform=" translate(0, 0)" d="M -6.42857 -28.57143 L 6.42857 28.57143" stroke-linecap="round" />
</g>
<g transform="matrix(1 0 0 1 110 350.93)" style="" id="iigM1uvpSeX-L9qg541c4"  >
		<text xml:space="preserve" font-family="Open Sans" font-size="25" font-style="normal" font-weight="normal" line-height="1.16" style="stroke: none; stroke-width: 1; stroke-dasharray: none; stroke-linecap: butt; stroke-dashoffset: 0; stroke-linejoin: miter; stroke-miterlimit: 4; fill: rgb(0,0,0); fill-rule: nonzero; opacity: 1; white-space: pre;" ><tspan x="-87.5" y="7.85" >コンベヤベルト</tspan></text>
</g>
<g transform="matrix(1 0 0 1 545.22 98.19)" id="Qo6mKLzZkEqxI3bbERfLV"  >
<path style="stroke: rgb(0,0,0); stroke-width: 2; stroke-dasharray: none; stroke-linecap: butt; stroke-dashoffset: 0; stroke-linejoin: miter; stroke-miterlimit: 4; fill: rgb(255,255,255); fill-rule: nonzero; opacity: 1;" vector-effect="non-scaling-stroke"  transform=" translate(0, 0)" d="M -21.07143 18.57143 L 21.07143 -18.57143" stroke-linecap="round" />
</g>
<g transform="matrix(1 0 0 1 587 66.76)" style="" id="sgZLYg7_2pZnxxkv7KqYY"  >
		<text xml:space="preserve" font-family="Open Sans" font-size="24" font-style="normal" font-weight="normal" line-height="1.16" style="stroke: none; stroke-width: 1; stroke-dasharray: none; stroke-linecap: butt; stroke-dashoffset: 0; stroke-linejoin: miter; stroke-miterlimit: 4; fill: rgb(0,0,0); fill-rule: nonzero; opacity: 1; white-space: pre;" ><tspan x="-62.5" y="7.54" >エアノズル</tspan></text>
</g>
<g transform="matrix(1 0 0 1 360.19 140.13)" id="CqCQZlT_VjbbTRu30mOiX"  >
<path style="stroke: rgb(49,168,247); stroke-width: 1; stroke-dasharray: none; stroke-linecap: butt; stroke-dashoffset: 0; stroke-linejoin: miter; stroke-miterlimit: 4; fill: rgb(255,255,255); fill-opacity: 0; fill-rule: nonzero; opacity: 1;" vector-effect="non-scaling-stroke"  transform=" translate(0, 0)" d="M 7.36246 -8.21197 L 7.36246 -8.21197 C 4.411899999999999 -1.5732100000000004 -0.48819000000000035 4.0110399999999995 -6.687210000000001 7.799329999999998 L -7.362460000000001 8.211979999999997" stroke-linecap="round" />
</g>
<g transform="matrix(-0.85 0.53 -0.53 -0.85 376.99 149)" id="EPy-D2od0TTh_hT0zI6XP"  >
<path style="stroke: rgb(49,168,247); stroke-width: 1; stroke-dasharray: none; stroke-linecap: butt; stroke-dashoffset: 0; stroke-linejoin: miter; stroke-miterlimit: 4; fill: rgb(255,255,255); fill-opacity: 0; fill-rule: nonzero; opacity: 1;" vector-effect="non-scaling-stroke"  transform=" translate(0, 0)" d="M 7.36246 -8.21197 L 7.36246 -8.21197 C 4.411899999999999 -1.5732100000000004 -0.48819000000000035 4.0110399999999995 -6.687210000000001 7.799329999999998 L -7.362460000000001 8.211979999999997" stroke-linecap="round" />
</g>
<g transform="matrix(1 0 0 1 367.27 146.36)" id="5P8ik_KMm23S5m_UiHZHV"  >
<path style="stroke: rgb(49,168,247); stroke-width: 1; stroke-dasharray: none; stroke-linecap: butt; stroke-dashoffset: 0; stroke-linejoin: miter; stroke-miterlimit: 4; fill: rgb(255,255,255); fill-opacity: 0; fill-rule: nonzero; opacity: 1;" vector-effect="non-scaling-stroke"  transform=" translate(0, 0)" d="M 5.9466 -11.04369 L -5.9466 11.04369" stroke-linecap="round" />
</g>
<g transform="matrix(1 0 0 1 487.42 177.31)" id="c35vK5rneQwcHMgPyYfxg"  >
<path style="stroke: rgb(49,168,247); stroke-width: 1; stroke-dasharray: none; stroke-linecap: butt; stroke-dashoffset: 0; stroke-linejoin: miter; stroke-miterlimit: 4; fill: rgb(255,255,255); fill-opacity: 0; fill-rule: nonzero; opacity: 1;" vector-effect="non-scaling-stroke"  transform=" translate(0, 0)" d="M 7.36246 -8.21197 L 7.36246 -8.21197 C 4.411899999999999 -1.5732100000000004 -0.48819000000000035 4.0110399999999995 -6.687210000000001 7.799329999999998 L -7.362460000000001 8.211979999999997" stroke-linecap="round" />
</g>
<g transform="matrix(-0.85 0.53 -0.53 -0.85 504.22 186.18)" id="XCOVdFzmGKTr0PW_U1jC2"  >
<path style="stroke: rgb(49,168,247); stroke-width: 1; stroke-dasharray: none; stroke-linecap: butt; stroke-dashoffset: 0; stroke-linejoin: miter; stroke-miterlimit: 4; fill: rgb(255,255,255); fill-opacity: 0; fill-rule: nonzero; opacity: 1;" vector-effect="non-scaling-stroke"  transform=" translate(0, 0)" d="M 7.36246 -8.21197 L 7.36246 -8.21197 C 4.411899999999999 -1.5732100000000004 -0.48819000000000035 4.0110399999999995 -6.687210000000001 7.799329999999998 L -7.362460000000001 8.211979999999997" stroke-linecap="round" />
</g>
<g transform="matrix(1 0 0 1 494.5 183.54)" id="Hp1uRLB7FJaAmNCC0IRWL"  >
<path style="stroke: rgb(49,168,247); stroke-width: 1; stroke-dasharray: none; stroke-linecap: butt; stroke-dashoffset: 0; stroke-linejoin: miter; stroke-miterlimit: 4; fill: rgb(255,255,255); fill-opacity: 0; fill-rule: nonzero; opacity: 1;" vector-effect="non-scaling-stroke"  transform=" translate(0, 0)" d="M 5.9466 -11.04369 L -5.9466 11.04369" stroke-linecap="round" />
</g>
<g transform="matrix(1 0 0 1 610.12 215.63)" id="za9--IUVDmQqHt6LcNiSN"  >
<path style="stroke: rgb(49,168,247); stroke-width: 1; stroke-dasharray: none; stroke-linecap: butt; stroke-dashoffset: 0; stroke-linejoin: miter; stroke-miterlimit: 4; fill: rgb(255,255,255); fill-opacity: 0; fill-rule: nonzero; opacity: 1;" vector-effect="non-scaling-stroke"  transform=" translate(0, 0)" d="M 7.36246 -8.21197 L 7.36246 -8.21197 C 4.411899999999999 -1.5732100000000004 -0.48819000000000035 4.0110399999999995 -6.687210000000001 7.799329999999998 L -7.362460000000001 8.211979999999997" stroke-linecap="round" />
</g>
<g transform="matrix(-0.85 0.53 -0.53 -0.85 626.92 224.5)" id="v49fpEJrn0nSv-_n5XyY-"  >
<path style="stroke: rgb(49,168,247); stroke-width: 1; stroke-dasharray: none; stroke-linecap: butt; stroke-dashoffset: 0; stroke-linejoin: miter; stroke-miterlimit: 4; fill: rgb(255,255,255); fill-opacity: 0; fill-rule: nonzero; opacity: 1;" vector-effect="non-scaling-stroke"  transform=" translate(0, 0)" d="M 7.36246 -8.21197 L 7.36246 -8.21197 C 4.411899999999999 -1.5732100000000004 -0.48819000000000035 4.0110399999999995 -6.687210000000001 7.799329999999998 L -7.362460000000001 8.211979999999997" stroke-linecap="round" />
</g>
<g transform="matrix(1 0 0 1 617.2 221.86)" id="uBECYoGnfz2hFgwP2wvNh"  >
<path style="stroke: rgb(49,168,247); stroke-width: 1; stroke-dasharray: none; stroke-linecap: butt; stroke-dashoffset: 0; stroke-linejoin: miter; stroke-miterlimit: 4; fill: rgb(255,255,255); fill-opacity: 0; fill-rule: nonzero; opacity: 1;" vector-effect="non-scaling-stroke"  transform=" translate(0, 0)" d="M 5.9466 -11.04369 L -5.9466 11.04369" stroke-linecap="round" />
</g>
<g transform="matrix(1.1 0 0 1.1 97 62.31)" style="" id="YXbRX3ypiqiIh1jRNv32y"  >
		<text xml:space="preserve" font-family="Open Sans" font-size="21" font-style="normal" font-weight="normal" line-height="1.16" style="stroke: none; stroke-width: 1; stroke-dasharray: none; stroke-linecap: butt; stroke-dashoffset: 0; stroke-linejoin: miter; stroke-miterlimit: 4; fill: rgb(0,0,0); fill-rule: nonzero; opacity: 1; white-space: pre;" ><tspan x="-75" y="6.6" >混合物</tspan></text>
</g>
<g transform="matrix(1.59 0 0 0.68 48.38 61.97)" id="Mlq7G5ALXDLWUVt6tzGsb"  >
<path style="stroke: rgb(0,0,0); stroke-width: 1; stroke-dasharray: none; stroke-linecap: butt; stroke-dashoffset: 0; stroke-linejoin: miter; stroke-miterlimit: 4; fill: rgb(0,0,0); fill-opacity: 0; fill-rule: nonzero; opacity: 1;" vector-effect="non-scaling-stroke"  transform=" translate(0, 0)" d="M 0 -26.05178 C 14.38058 -26.05178 26.05178 -14.38058 26.05178 0 C 26.05178 14.38058 14.38058 26.05178 0 26.05178 C -14.38058 26.05178 -26.05178 14.38058 -26.05178 0 C -26.05178 -14.38058 -14.38058 -26.05178 0 -26.05178 z" stroke-linecap="round" />
</g>
</svg>