<svg id="レイヤー_1" data-name="レイヤー 1" xmlns="http://www.w3.org/2000/svg" viewBox="0 0 750 500"><defs><style>.cls-1{fill:none;stroke-width:0.8px;}.cls-1,.cls-3{stroke:#003b54;stroke-miterlimit:10;}.cls-2,.cls-3{fill:#003b54;}.cls-3{stroke-width:0.4px;}</style></defs><line class="cls-1" x1="99.43047" y1="450.71572" x2="698.23047" y2="450.71572"/><path class="cls-2" d="M36.91309,451.16309c0-6.71,2.44238-10.30371,6.4292-10.30371s6.40136,3.62109,6.40136,10.30371c0,6.71-2.41455,10.44433-6.40136,10.44433S36.91309,457.87305,36.91309,451.16309Zm10.332,0c0-5.86817-1.57227-8.25489-3.90283-8.25489-2.3584,0-3.93067,2.38672-3.93067,8.25489s1.57227,8.39453,3.93067,8.39453C45.67285,459.55762,47.24512,457.03125,47.24512,451.16309Z"/><path class="cls-2" d="M53.165,459.66992a1.858,1.858,0,1,1,3.70605,0,1.85487,1.85487,0,1,1-3.70605,0Z"/><path class="cls-2" d="M60.294,451.16309c0-6.71,2.44287-10.30371,6.42968-10.30371s6.40137,3.62109,6.40137,10.30371c0,6.71-2.41455,10.44433-6.40137,10.44433S60.294,457.87305,60.294,451.16309Zm10.332,0c0-5.86817-1.57227-8.25489-3.90235-8.25489-2.3584,0-3.93066,2.38672-3.93066,8.25489s1.57226,8.39453,3.93066,8.39453C69.05371,459.55762,70.626,457.03125,70.626,451.16309Z"/><path class="cls-2" d="M75.87207,451.16309c0-6.71,2.44287-10.30371,6.42969-10.30371s6.40136,3.62109,6.40136,10.30371c0,6.71-2.41455,10.44433-6.40136,10.44433S75.87207,457.87305,75.87207,451.16309Zm10.332,0c0-5.86817-1.57226-8.25489-3.90234-8.25489-2.3584,0-3.93067,2.38672-3.93067,8.25489s1.57227,8.39453,3.93067,8.39453C84.63184,459.55762,86.2041,457.03125,86.2041,451.16309Z"/><path class="cls-2" d="M36.91309,371.40234c0-6.71093,2.44238-10.30468,6.4292-10.30468s6.40136,3.62207,6.40136,10.30468c0,6.71-2.41455,10.44434-6.40136,10.44434S36.91309,378.1123,36.91309,371.40234Zm10.332,0c0-5.86816-1.57227-8.25488-3.90283-8.25488-2.3584,0-3.93067,2.38672-3.93067,8.25488,0,5.86719,1.57227,8.39454,3.93067,8.39454C45.67285,379.79688,47.24512,377.26953,47.24512,371.40234Z"/><path class="cls-2" d="M53.165,379.90918a1.858,1.858,0,1,1,3.70605,0,1.85487,1.85487,0,1,1-3.70605,0Z"/><path class="cls-2" d="M60.294,371.40234c0-6.71093,2.44287-10.30468,6.42968-10.30468s6.40137,3.62207,6.40137,10.30468c0,6.71-2.41455,10.44434-6.40137,10.44434S60.294,378.1123,60.294,371.40234Zm10.332,0c0-5.86816-1.57227-8.25488-3.90235-8.25488-2.3584,0-3.93066,2.38672-3.93066,8.25488,0,5.86719,1.57226,8.39454,3.93066,8.39454C69.05371,379.79688,70.626,377.26953,70.626,371.40234Z"/><path class="cls-2" d="M75.28271,379.12305l1.26319-1.68457a6.77358,6.77358,0,0,0,5.05371,2.27441,4.30819,4.30819,0,0,0,4.37988-4.54883c0-2.77929-1.68457-4.43554-4.26758-4.43554a5.62983,5.62983,0,0,0-3.4248,1.23535l-1.376-.87012.64551-9.63086H87.58008v2.19043H79.80273l-.50488,5.97949a6.00115,6.00115,0,0,1,3.06006-.84179c3.42529,0,6.20459,1.96484,6.20459,6.28906a6.53463,6.53463,0,0,1-6.73828,6.7666A8.74206,8.74206,0,0,1,75.28271,379.12305Z"/><path class="cls-2" d="M36.91309,291.64258c0-6.71094,2.44238-10.30469,6.4292-10.30469s6.40136,3.62207,6.40136,10.30469c0,6.71-2.41455,10.44433-6.40136,10.44433S36.91309,298.35254,36.91309,291.64258Zm10.332,0c0-5.86817-1.57227-8.25488-3.90283-8.25488-2.3584,0-3.93067,2.38671-3.93067,8.25488,0,5.86719,1.57227,8.39453,3.93067,8.39453C45.67285,300.03711,47.24512,297.50977,47.24512,291.64258Z"/><path class="cls-2" d="M53.165,300.14941a1.858,1.858,0,1,1,3.70605,0,1.85487,1.85487,0,1,1-3.70605,0Z"/><path class="cls-2" d="M61.38916,299.58789h4.57666V284.82031H62.31543v-1.65722a11.84945,11.84945,0,0,0,4.26758-1.46h1.96582v17.88477h4.127v2.13379H61.38916Z"/><path class="cls-2" d="M75.87207,291.64258c0-6.71094,2.44287-10.30469,6.42969-10.30469s6.40136,3.62207,6.40136,10.30469c0,6.71-2.41455,10.44433-6.40136,10.44433S75.87207,298.35254,75.87207,291.64258Zm10.332,0c0-5.86817-1.57226-8.25488-3.90234-8.25488-2.3584,0-3.93067,2.38671-3.93067,8.25488,0,5.86719,1.57227,8.39453,3.93067,8.39453C84.63184,300.03711,86.2041,297.50977,86.2041,291.64258Z"/><path class="cls-2" d="M36.91309,211.88184c0-6.71,2.44238-10.30372,6.4292-10.30372s6.40136,3.62208,6.40136,10.30372c0,6.71045-2.41455,10.44433-6.40136,10.44433S36.91309,218.59229,36.91309,211.88184Zm10.332,0c0-5.86768-1.57227-8.25391-3.90283-8.25391-2.3584,0-3.93067,2.38623-3.93067,8.25391,0,5.86816,1.57227,8.395,3.93067,8.395C45.67285,220.27686,47.24512,217.75,47.24512,211.88184Z"/><path class="cls-2" d="M53.165,220.38916a1.858,1.858,0,1,1,3.70605,0,1.85485,1.85485,0,1,1-3.70605,0Z"/><path class="cls-2" d="M61.38916,219.82764h4.57666V205.05957H62.31543v-1.65625a11.85863,11.85863,0,0,0,4.26758-1.46h1.96582v17.88428h4.127v2.13379H61.38916Z"/><path class="cls-2" d="M75.28271,219.603l1.26319-1.68457a6.77155,6.77155,0,0,0,5.05371,2.27392,4.30736,4.30736,0,0,0,4.37988-4.54785c0-2.77978-1.68457-4.43652-4.26758-4.43652a5.62989,5.62989,0,0,0-3.4248,1.23535l-1.376-.87012.64551-9.62988H87.58008v2.18945H79.80273l-.50488,5.98047a5.99661,5.99661,0,0,1,3.06006-.84228c3.42529,0,6.20459,1.96533,6.20459,6.28906a6.53451,6.53451,0,0,1-6.73828,6.76611A8.74364,8.74364,0,0,1,75.28271,219.603Z"/><path class="cls-2" d="M36.91309,132.12207c0-6.71,2.44238-10.30371,6.4292-10.30371s6.40136,3.62207,6.40136,10.30371c0,6.71045-2.41455,10.44434-6.40136,10.44434S36.91309,138.83252,36.91309,132.12207Zm10.332,0c0-5.86768-1.57227-8.25391-3.90283-8.25391-2.3584,0-3.93067,2.38623-3.93067,8.25391,0,5.86816,1.57227,8.395,3.93067,8.395C45.67285,140.51709,47.24512,137.99023,47.24512,132.12207Z"/><path class="cls-2" d="M53.165,140.62939a1.858,1.858,0,1,1,3.70605,0,1.85485,1.85485,0,1,1-3.70605,0Z"/><path class="cls-2" d="M60.15381,140.68555c6.03662-6.0083,9.43359-9.60205,9.43359-12.88672,0-2.27442-1.23535-3.90283-3.79052-3.90283a5.85424,5.85424,0,0,0-4.26758,2.38623l-1.4878-1.43164c1.68457-1.8252,3.45362-3.03223,6.06446-3.03223,3.67822,0,5.98,2.33008,5.98,5.86816,0,3.76172-3.42481,7.4961-8.16992,12.49366,1.06689-.08448,2.30224-.19678,3.36914-.19678h5.81152v2.21826H60.15381Z"/><path class="cls-2" d="M75.87207,132.12207c0-6.71,2.44287-10.30371,6.42969-10.30371s6.40136,3.62207,6.40136,10.30371c0,6.71045-2.41455,10.44434-6.40136,10.44434S75.87207,138.83252,75.87207,132.12207Zm10.332,0c0-5.86768-1.57226-8.25391-3.90234-8.25391-2.3584,0-3.93067,2.38623-3.93067,8.25391,0,5.86816,1.57227,8.395,3.93067,8.395C84.63184,140.51709,86.2041,137.99023,86.2041,132.12207Z"/><path class="cls-2" d="M36.91309,52.3623c0-6.71044,2.44238-10.30419,6.4292-10.30419s6.40136,3.62158,6.40136,10.30419c0,6.71-2.41455,10.44434-6.40136,10.44434S36.91309,59.07227,36.91309,52.3623Zm10.332,0c0-5.86816-1.57227-8.25488-3.90283-8.25488-2.3584,0-3.93067,2.38672-3.93067,8.25488,0,5.86768,1.57227,8.39454,3.93067,8.39454C45.67285,60.75684,47.24512,58.23,47.24512,52.3623Z"/><path class="cls-2" d="M53.165,60.86914a1.858,1.858,0,1,1,3.70605,0,1.85487,1.85487,0,1,1-3.70605,0Z"/><path class="cls-2" d="M60.15381,60.92529c6.03662-6.0083,9.43359-9.602,9.43359-12.8872,0-2.27393-1.23535-3.90235-3.79052-3.90235a5.85326,5.85326,0,0,0-4.26758,2.38672l-1.4878-1.43213c1.68457-1.82471,3.45362-3.03222,6.06446-3.03222,3.67822,0,5.98,2.33056,5.98,5.86767,0,3.7627-3.42481,7.49658-8.16992,12.49414,1.06689-.084,2.30224-.19629,3.36914-.19629h5.81152v2.21778H60.15381Z"/><path class="cls-2" d="M75.28271,60.083l1.26319-1.68457a6.77185,6.77185,0,0,0,5.05371,2.27441A4.30791,4.30791,0,0,0,85.97949,56.124c0-2.77929-1.68457-4.43554-4.26758-4.43554a5.62989,5.62989,0,0,0-3.4248,1.23535l-1.376-.87061.64551-9.63037H87.58008v2.19043H79.80273l-.50488,5.98a5.99661,5.99661,0,0,1,3.06006-.84228c3.42529,0,6.20459,1.96533,6.20459,6.28906a6.53492,6.53492,0,0,1-6.73828,6.7666A8.74206,8.74206,0,0,1,75.28271,60.083Z"/><line class="cls-1" x1="99.43047" y1="450.71572" x2="99.43047" y2="51.91572"/><line class="cls-1" x1="99.43047" y1="450.71572" x2="698.23047" y2="450.71572"/><line class="cls-1" x1="99.43047" y1="370.95572" x2="698.23047" y2="370.95572"/><line class="cls-1" x1="99.43047" y1="291.19572" x2="698.23047" y2="291.19572"/><line class="cls-1" x1="99.43047" y1="211.43572" x2="698.23047" y2="211.43572"/><line class="cls-1" x1="99.43047" y1="131.67572" x2="698.23047" y2="131.67572"/><line class="cls-1" x1="99.43047" y1="51.91572" x2="698.23047" y2="51.91572"/><rect class="cls-3" x="113.40247" y="288.99754" width="71.856" height="161.71819"/><rect class="cls-3" x="213.20247" y="270.29519" width="71.856" height="180.42053"/><rect class="cls-3" x="313.00247" y="151.43068" width="71.856" height="299.28504"/><rect class="cls-3" x="412.80247" y="436.42665" width="71.856" height="14.28907"/><rect class="cls-3" x="512.60247" y="106.21474" width="71.856" height="344.50099"/><rect class="cls-3" x="612.40247" y="399.17296" width="71.856" height="51.54277"/><path d="M138.07764,461.08008h3.2959l7.96728,23.48633h-3.13574l-2.23975-7.168h-8.57568l-2.27149,7.168h-3.00781Zm-1.95215,13.95117H143.229l-1.11962-3.584c-.86426-2.65528-1.6001-5.21582-2.36817-7.93555h-.12793c-.73584,2.75195-1.5039,5.28027-2.33545,7.93555Z"/><path d="M152.15771,478.19922V467.19141h2.91163v10.65527c0,3.23242.96,4.60742,3.26416,4.60742,1.7915,0,3.03955-.86328,4.70361-2.94336V467.19141h2.91162v17.375h-2.43164l-.22412-2.71973h-.09619c-1.63184,1.8877-3.35938,3.13574-5.75928,3.13574C153.78955,484.98242,152.15771,482.61426,152.15771,478.19922Z"/><path d="M238.14844,461.4502h3.2959l7.96728,23.48632h-3.13574l-2.23975-7.168h-8.57568l-2.27149,7.168h-3.00781Zm-1.95215,13.95117h7.10351l-1.11962-3.584c-.86426-2.65527-1.6001-5.21582-2.36817-7.93554h-.12793c-.73584,2.75195-1.5039,5.28027-2.33545,7.93554Z"/><path d="M251.14062,488.26465a4.87764,4.87764,0,0,1,2.56006-3.93653v-.12792a3.14132,3.14132,0,0,1-1.60009-2.84766,4.23992,4.23992,0,0,1,1.95166-3.23145v-.12793a6.09938,6.09938,0,0,1-2.27149-4.67187c0-3.80762,3.00781-6.207,6.52735-6.207a7.17653,7.17653,0,0,1,2.43164.44726h6.04785v2.24024h-3.55176a4.96247,4.96247,0,0,1,1.40771,3.584c0,3.71094-2.81543,6.04688-6.33544,6.04688a6.04677,6.04677,0,0,1-2.5918-.60742,2.587,2.587,0,0,0-1.12012,2.08007c0,1.11914.7041,1.8877,3.04,1.8877h3.3916c4.03174,0,6.07959,1.2793,6.07959,4.12695,0,3.23242-3.42383,6.01563-8.79931,6.01563C254.05225,492.93555,251.14062,491.27246,251.14062,488.26465Zm13.11915-.89649c0-1.59961-1.248-2.14355-3.55176-2.14355H257.7002a9.74951,9.74951,0,0,1-2.23975-.28809,3.62039,3.62039,0,0,0-1.75977,2.94336c0,1.85645,1.8877,3.07227,5.02344,3.07227C262.05176,490.95215,264.25977,489.19238,264.25977,487.36816ZM262.02,473.32129a3.73283,3.73283,0,0,0-3.71191-4.06348c-2.04786,0-3.71192,1.50391-3.71192,4.06348a3.73288,3.73288,0,1,0,7.42383,0Z"/><path d="M332.981,481.86426l1.792-2.01563a9.08511,9.08511,0,0,0,6.46338,2.91211c3.07178,0,4.92773-1.53613,4.92773-3.83984,0-2.39942-1.6958-3.168-3.90381-4.15918l-3.3916-1.47266c-2.17578-.92773-4.76758-2.59179-4.76758-6.01562,0-3.61524,3.13575-6.23926,7.39112-6.23926a9.61649,9.61649,0,0,1,6.91162,2.91211l-1.56787,1.88769a7.5997,7.5997,0,0,0-5.34375-2.208c-2.65576,0-4.3833,1.34375-4.3833,3.456,0,2.27149,2.04785,3.13574,3.87158,3.90332l3.35986,1.44043c2.71973,1.1836,4.83155,2.7832,4.83155,6.27149,0,3.71191-3.07178,6.65527-7.96729,6.65527A11.20622,11.20622,0,0,1,332.981,481.86426Z"/><path d="M353.52441,467.56152h2.39991l.25586,2.4961h.09619c1.66357-1.63184,3.45556-2.94336,5.82324-2.94336,3.648,0,5.31152,2.36719,5.31152,6.81543v11.00683h-2.91162v-10.623c0-3.26368-.9917-4.63965-3.2959-4.63965-1.7915,0-3.00781.89551-4.76757,2.65527v12.60742h-2.91163Z"/><path d="M439.916,461.4502h2.97656v20.959h10.23926v2.52734H439.916Z"/><path d="M456.55664,462.02637a1.95166,1.95166,0,1,1,1.95117,1.95215A1.831,1.831,0,0,1,456.55664,462.02637Zm.47949,5.53515h2.91211v17.375h-2.91211Z"/><path d="M531.86816,481.86328l1.792-2.01562a9.0871,9.0871,0,0,0,6.46386,2.91211c3.07129,0,4.92774-1.53614,4.92774-3.83985,0-2.39941-1.69629-3.168-3.9043-4.15918l-3.3916-1.47265c-2.17578-.92774-4.76758-2.5918-4.76758-6.01563,0-3.61523,3.13574-6.23926,7.3916-6.23926a9.61626,9.61626,0,0,1,6.91114,2.91211l-1.56739,1.8877a7.60059,7.60059,0,0,0-5.34375-2.208c-2.65625,0-4.38379,1.34375-4.38379,3.45605,0,2.27149,2.04786,3.13575,3.87207,3.90333l3.35938,1.44042c2.71973,1.1836,4.832,2.78321,4.832,6.27149,0,3.71191-3.07227,6.65527-7.96777,6.65527A11.20626,11.20626,0,0,1,531.86816,481.86328Z"/><path d="M555.13184,483.14355h-.12793l-.25586,1.792h-2.33594V459.46582h2.91113v6.97461l-.0957,3.13574a8.7579,8.7579,0,0,1,5.43945-2.46289c4.51172,0,6.94336,3.51953,6.94336,8.83106,0,5.98339-3.55176,9.40722-7.55078,9.40722A7.71626,7.71626,0,0,1,555.13184,483.14355Zm9.43945-7.13574c0-3.83886-1.28027-6.43164-4.57617-6.43164-1.47168,0-3.00782.832-4.67188,2.40039v9.11914a6.67248,6.67248,0,0,0,4.25586,1.82422C562.459,482.91992,564.57129,480.32812,564.57129,476.00781Z"/><path d="M640.292,463.97852h-7.10351V461.4502h17.18261v2.52832h-7.10351v20.958H640.292Z"/><path d="M653.2207,480.4248c0-3.77539,3.2959-5.66308,10.68653-6.49511,0-2.24024-.73535-4.38379-3.583-4.38379a9.57277,9.57277,0,0,0-5.21582,1.85547l-1.15235-2.01563a13.06625,13.06625,0,0,1,6.84766-2.27148c4.22363,0,6.01563,2.84765,6.01563,7.13476v10.6875h-2.39942l-.25683-2.08007h-.09571a9.30765,9.30765,0,0,1-5.75976,2.49609C655.39648,485.35254,653.2207,483.56055,653.2207,480.4248Zm10.68653.28809v-4.86328c-5.85547.70312-7.83887,2.14355-7.83887,4.38281,0,1.98438,1.34375,2.78418,3.07129,2.78418C660.83594,483.0166,662.21191,482.2168,663.90723,480.71289Z"/></svg>