<?xml version="1.0" encoding="UTF-8" standalone="no" ?>
<!DOCTYPE svg PUBLIC "-//W3C//DTD SVG 1.1//EN" "http://www.w3.org/Graphics/SVG/1.1/DTD/svg11.dtd">
<svg xmlns="http://www.w3.org/2000/svg" xmlns:xlink="http://www.w3.org/1999/xlink" version="1.1" width="1280" height="720" viewBox="0 0 1280 720" xml:space="preserve">
<desc>Created with Fabric.js 4.6.0</desc>
<defs>
</defs>
<g transform="matrix(1 0 0 1 640 580.5)" id="NbSaZkR5476GU3iVWi29A"  >
<path style="stroke: rgb(38,85,199); stroke-opacity: 0; stroke-width: 1; stroke-dasharray: none; stroke-linecap: butt; stroke-dashoffset: 0; stroke-linejoin: miter; stroke-miterlimit: 4; fill: rgb(53,237,53); fill-rule: nonzero; opacity: 1;" vector-effect="non-scaling-stroke"  transform=" translate(0, 0)" d="M -0.00005 -220 C 43.883919999999996 -220 79.4999 -184.38400000000001 79.4999 -140.5 C 79.4999 -115.46976000000001 67.91313 -93.12931 49.81417999999999 -78.55324999999999 L 92.57728999999999 103.18994 C 99.22747 131.45319 92.59351 161.2059 74.56648999999999 183.96688 C 56.53945999999999 206.72786 29.09709999999999 220 0.062009999999986576 220 L -0.5343200000000135 220 C -29.42511000000001 220 -56.731110000000015 206.79381 -74.66855000000001 184.14594 C -92.60600000000001 161.49806999999998 -99.20698000000002 131.89321 -92.58985000000001 103.77042 L -49.70992000000001 -78.46933999999999 C -67.86868000000001 -93.0435 -79.50000000000001 -115.42167999999998 -79.50000000000001 -140.5 C -79.50000000000001 -184.38400000000001 -43.884020000000014 -220 -0.00005000000001587068 -220 z" stroke-linecap="round" />
</g>
<g transform="matrix(1 0 0 1 320 620.5)" id="Lwo68PqBaG4SXcuvcRQm2"  >
<path style="stroke: rgb(38,85,199); stroke-opacity: 0; stroke-width: 1; stroke-dasharray: none; stroke-linecap: butt; stroke-dashoffset: 0; stroke-linejoin: miter; stroke-miterlimit: 4; fill: rgb(165,237,53); fill-rule: nonzero; opacity: 1;" vector-effect="non-scaling-stroke"  transform=" translate(0, 0)" d="M -0.00005 -220 C 43.883919999999996 -220 79.4999 -184.38400000000001 79.4999 -140.5 C 79.4999 -115.46976000000001 67.91313 -93.12931 49.81417999999999 -78.55324999999999 L 92.57728999999999 103.18994 C 99.22747 131.45319 92.59351 161.2059 74.56648999999999 183.96688 C 56.53945999999999 206.72786 29.09709999999999 220 0.062009999999986576 220 L -0.5343200000000135 220 C -29.42511000000001 220 -56.731110000000015 206.79381 -74.66855000000001 184.14594 C -92.60600000000001 161.49806999999998 -99.20698000000002 131.89321 -92.58985000000001 103.77042 L -49.70992000000001 -78.46933999999999 C -67.86868000000001 -93.0435 -79.50000000000001 -115.42167999999998 -79.50000000000001 -140.5 C -79.50000000000001 -184.38400000000001 -43.884020000000014 -220 -0.00005000000001587068 -220 z" stroke-linecap="round" />
</g>
<g transform="matrix(1 0 0 1 960 620.5)" id="pRGzd4mWJQNMOhSDQQtF8"  >
<path style="stroke: rgb(38,85,199); stroke-opacity: 0; stroke-width: 1; stroke-dasharray: none; stroke-linecap: butt; stroke-dashoffset: 0; stroke-linejoin: miter; stroke-miterlimit: 4; fill: rgb(53,237,137); fill-rule: nonzero; opacity: 1;" vector-effect="non-scaling-stroke"  transform=" translate(0, 0)" d="M -0.00005 -220 C 43.883919999999996 -220 79.4999 -184.38400000000001 79.4999 -140.5 C 79.4999 -115.46976000000001 67.91313 -93.12931 49.81417999999999 -78.55324999999999 L 92.57728999999999 103.18994 C 99.22747 131.45319 92.59351 161.2059 74.56648999999999 183.96688 C 56.53945999999999 206.72786 29.09709999999999 220 0.062009999999986576 220 L -0.5343200000000135 220 C -29.42511000000001 220 -56.731110000000015 206.79381 -74.66855000000001 184.14594 C -92.60600000000001 161.49806999999998 -99.20698000000002 131.89321 -92.58985000000001 103.77042 L -49.70992000000001 -78.46933999999999 C -67.86868000000001 -93.0435 -79.50000000000001 -115.42167999999998 -79.50000000000001 -140.5 C -79.50000000000001 -184.38400000000001 -43.884020000000014 -220 -0.00005000000001587068 -220 z" stroke-linecap="round" />
</g>
</svg>