<?xml version="1.0" encoding="UTF-8" standalone="no" ?>
<!DOCTYPE svg PUBLIC "-//W3C//DTD SVG 1.1//EN" "http://www.w3.org/Graphics/SVG/1.1/DTD/svg11.dtd">
<svg xmlns="http://www.w3.org/2000/svg" xmlns:xlink="http://www.w3.org/1999/xlink" version="1.1" width="1280" height="720" viewBox="0 0 1280 720" xml:space="preserve">
<desc>Created with Fabric.js 4.6.0</desc>
<defs>
</defs>
<g transform="matrix(1 0 0 1 640 540.25)" id="NbSaZkR5476GU3iVWi29A"  >
<path style="stroke: rgb(38,85,199); stroke-opacity: 0; stroke-width: 1; stroke-dasharray: none; stroke-linecap: butt; stroke-dashoffset: 0; stroke-linejoin: miter; stroke-miterlimit: 4; fill: rgb(53,237,53); fill-rule: nonzero; opacity: 1;" vector-effect="non-scaling-stroke"  transform=" translate(0, 0)" d="M -0.00005 -179.75 C 43.883919999999996 -179.75 79.4999 -144.13400000000001 79.4999 -100.25 C 79.4999 -75.21976000000001 67.91313 -52.87931 49.81417999999999 -38.30325 L 80 179.75 L -80 179.75 L -49.70992 -38.21933999999999 C -67.86868 -52.79349999999999 -79.5 -75.17167999999998 -79.5 -100.24999999999999 C -79.5 -144.134 -43.88402 -179.75 -0.00005000000000165983 -179.75 z" stroke-linecap="round" />
</g>
<g transform="matrix(1 0 0 1 959.5 600.25)" id="YW0n7UKT-ZqDdg8y_PYW4"  >
<path style="stroke: rgb(38,85,199); stroke-opacity: 0; stroke-width: 1; stroke-dasharray: none; stroke-linecap: butt; stroke-dashoffset: 0; stroke-linejoin: miter; stroke-miterlimit: 4; fill: rgb(53,237,181); fill-rule: nonzero; opacity: 1;" vector-effect="non-scaling-stroke"  transform=" translate(0, 0)" d="M -0.00005 -179.75 C 43.883919999999996 -179.75 79.4999 -144.13400000000001 79.4999 -100.25 C 79.4999 -75.21976000000001 67.91313 -52.87931 49.81417999999999 -38.30325 L 80 179.75 L -80 179.75 L -49.70992 -38.21933999999999 C -67.86868 -52.79349999999999 -79.5 -75.17167999999998 -79.5 -100.24999999999999 C -79.5 -144.134 -43.88402 -179.75 -0.00005000000000165983 -179.75 z" stroke-linecap="round" />
</g>
<g transform="matrix(1 0 0 1 319.5 600.25)" id="lcBSiv-P_NTGKBpuZQk-w"  >
<path style="stroke: rgb(38,85,199); stroke-opacity: 0; stroke-width: 1; stroke-dasharray: none; stroke-linecap: butt; stroke-dashoffset: 0; stroke-linejoin: miter; stroke-miterlimit: 4; fill: rgb(158,237,53); fill-rule: nonzero; opacity: 1;" vector-effect="non-scaling-stroke"  transform=" translate(0, 0)" d="M -0.00005 -179.75 C 43.883919999999996 -179.75 79.4999 -144.13400000000001 79.4999 -100.25 C 79.4999 -75.21976000000001 67.91313 -52.87931 49.81417999999999 -38.30325 L 80 179.75 L -80 179.75 L -49.70992 -38.21933999999999 C -67.86868 -52.79349999999999 -79.5 -75.17167999999998 -79.5 -100.24999999999999 C -79.5 -144.134 -43.88402 -179.75 -0.00005000000000165983 -179.75 z" stroke-linecap="round" />
</g>
<g transform="matrix(0.65 0 0 0.65 243.66 423.66)" id="WBvMz6msRX8JZvjU5lshm"  >
<path style="stroke: rgb(0,0,0); stroke-width: 1; stroke-dasharray: none; stroke-linecap: butt; stroke-dashoffset: 0; stroke-linejoin: miter; stroke-miterlimit: 4; fill: rgb(158,237,53); fill-opacity: 0; fill-rule: nonzero; opacity: 1;" vector-effect="non-scaling-stroke"  transform=" translate(0, 0)" d="M 0 -24.375 C 13.455 -24.375 24.375 -13.455 24.375 0 C 24.375 13.455 13.455 24.375 0 24.375 C -13.455 24.375 -24.375 13.455 -24.375 0 C -24.375 -13.455 -13.455 -24.375 0 -24.375 z" stroke-linecap="round" />
</g>
<g transform="matrix(1.21 0 0 1.21 170 320)" id="K_xMEUFKQZ5qcNVeJXVxI"  >
<path style="stroke: rgb(0,0,0); stroke-width: 1; stroke-dasharray: none; stroke-linecap: butt; stroke-dashoffset: 0; stroke-linejoin: miter; stroke-miterlimit: 4; fill: rgb(158,237,53); fill-opacity: 0; fill-rule: nonzero; opacity: 1;" vector-effect="non-scaling-stroke"  transform=" translate(0, 0)" d="M 0 -24.375 C 13.455 -24.375 24.375 -13.455 24.375 0 C 24.375 13.455 13.455 24.375 0 24.375 C -13.455 24.375 -24.375 13.455 -24.375 0 C -24.375 -13.455 -13.455 -24.375 0 -24.375 z" stroke-linecap="round" />
</g>
<g transform="matrix(1.21 0 0 0.71 240 180)" id="3uUKl18o4TfQl2GS6WdkC"  >
<path style="stroke: rgb(0,0,0); stroke-width: 1; stroke-dasharray: none; stroke-linecap: butt; stroke-dashoffset: 0; stroke-linejoin: miter; stroke-miterlimit: 4; fill: rgb(4,92,142); fill-opacity: 0; fill-rule: nonzero; opacity: 1;" vector-effect="non-scaling-stroke"  transform=" translate(0, 0)" d="M 0 -140.41096 C 77.50685 -140.41096 140.41096 -77.50684999999999 140.41096 0 C 140.41096 77.50685 77.50684999999999 140.41096 0 140.41096 C -77.50685 140.41096 -140.41096 77.50684999999999 -140.41096 0 C -140.41096 -77.50685 -77.50684999999999 -140.41096 0 -140.41096 z" stroke-linecap="round" />
</g>
<g transform="matrix(2.02 0 0 2.02 240 180)" style="" id="zEYywKVzNn3W-6_u3_DFI"  >
		<text xml:space="preserve" font-family="Open Sans" font-size="18" font-style="normal" font-weight="normal" line-height="1.16" style="stroke: none; stroke-width: 1; stroke-dasharray: none; stroke-linecap: butt; stroke-dashoffset: 0; stroke-linejoin: miter; stroke-miterlimit: 4; fill: rgb(0,0,0); fill-rule: nonzero; opacity: 1; white-space: pre;" ><tspan x="-63" y="5.65" >キラキラしてる</tspan></text>
</g>
<g transform="matrix(0.8 0 0 0.8 520 340)" id="UMbHSSSfk3EPI3yiiSGOo"  >
<path style="stroke: rgb(0,0,0); stroke-width: 1; stroke-dasharray: none; stroke-linecap: butt; stroke-dashoffset: 0; stroke-linejoin: miter; stroke-miterlimit: 4; fill: rgb(158,237,53); fill-opacity: 0; fill-rule: nonzero; opacity: 1;" vector-effect="non-scaling-stroke"  transform=" translate(0, 0)" d="M 0 -24.375 C 13.455 -24.375 24.375 -13.455 24.375 0 C 24.375 13.455 13.455 24.375 0 24.375 C -13.455 24.375 -24.375 13.455 -24.375 0 C -24.375 -13.455 -13.455 -24.375 0 -24.375 z" stroke-linecap="round" />
</g>
<g transform="matrix(4.9 0 0 2.85 560 230)" id="zQJ-NZjsGKi8uryWCNcdd"  >
<path style="stroke: rgb(0,0,0); stroke-width: 1; stroke-dasharray: none; stroke-linecap: butt; stroke-dashoffset: 0; stroke-linejoin: miter; stroke-miterlimit: 4; fill: rgb(158,237,53); fill-opacity: 0; fill-rule: nonzero; opacity: 1;" vector-effect="non-scaling-stroke"  transform=" translate(0, 0)" d="M 0 -24.375 C 13.455 -24.375 24.375 -13.455 24.375 0 C 24.375 13.455 13.455 24.375 0 24.375 C -13.455 24.375 -24.375 13.455 -24.375 0 C -24.375 -13.455 -13.455 -24.375 0 -24.375 z" stroke-linecap="round" />
</g>
<g transform="matrix(1 0 0 1 560 229.96)" style="" id="kR5aiLjUaT3sZ4p45j95x"  >
		<text xml:space="preserve" font-family="Open Sans" font-size="23" font-style="normal" font-weight="normal" line-height="1.16" style="stroke: none; stroke-width: 1; stroke-dasharray: none; stroke-linecap: butt; stroke-dashoffset: 0; stroke-linejoin: miter; stroke-miterlimit: 4; fill: rgb(0,0,0); fill-rule: nonzero; opacity: 1; white-space: pre;" ><tspan x="-80.5" y="7.23" >よく分からない</tspan></text>
</g>
<g transform="matrix(0.58 0 0 0.58 554.67 374.67)" id="o9sKtT9Kg3Yr-kvcbJ4ny"  >
<path style="stroke: rgb(0,0,0); stroke-width: 1; stroke-dasharray: none; stroke-linecap: butt; stroke-dashoffset: 0; stroke-linejoin: miter; stroke-miterlimit: 4; fill: rgb(158,237,53); fill-opacity: 0; fill-rule: nonzero; opacity: 1;" vector-effect="non-scaling-stroke"  transform=" translate(0, 0)" d="M 0 -24.375 C 13.455 -24.375 24.375 -13.455 24.375 0 C 24.375 13.455 13.455 24.375 0 24.375 C -13.455 24.375 -24.375 13.455 -24.375 0 C -24.375 -13.455 -13.455 -24.375 0 -24.375 z" stroke-linecap="round" />
</g>
<g transform="matrix(0.8 0 0 0.8 206.55 382.98)" id="SmaXOJJdPn5NyVws4F52Z"  >
<path style="stroke: rgb(0,0,0); stroke-width: 1; stroke-dasharray: none; stroke-linecap: butt; stroke-dashoffset: 0; stroke-linejoin: miter; stroke-miterlimit: 4; fill: rgb(158,237,53); fill-opacity: 0; fill-rule: nonzero; opacity: 1;" vector-effect="non-scaling-stroke"  transform=" translate(0, 0)" d="M 0 -24.375 C 13.455 -24.375 24.375 -13.455 24.375 0 C 24.375 13.455 13.455 24.375 0 24.375 C -13.455 24.375 -24.375 13.455 -24.375 0 C -24.375 -13.455 -13.455 -24.375 0 -24.375 z" stroke-linecap="round" />
</g>
<g transform="matrix(0.58 0 0 0.58 745.36 334.64)" id="4GIyxesJSxpI0I84mU2GQ"  >
<path style="stroke: rgb(0,0,0); stroke-width: 1; stroke-dasharray: none; stroke-linecap: butt; stroke-dashoffset: 0; stroke-linejoin: miter; stroke-miterlimit: 4; fill: rgb(158,237,53); fill-opacity: 0; fill-rule: nonzero; opacity: 1;" vector-effect="non-scaling-stroke"  transform=" translate(0, 0)" d="M 0 -24.375 C 13.455 -24.375 24.375 -13.455 24.375 0 C 24.375 13.455 13.455 24.375 0 24.375 C -13.455 24.375 -24.375 13.455 -24.375 0 C -24.375 -13.455 -13.455 -24.375 0 -24.375 z" stroke-linecap="round" />
</g>
<g transform="matrix(0.8 0 0 0.8 780.04 289.37)" id="J96jukkQOSRIdN36Py-mM"  >
<path style="stroke: rgb(0,0,0); stroke-width: 1; stroke-dasharray: none; stroke-linecap: butt; stroke-dashoffset: 0; stroke-linejoin: miter; stroke-miterlimit: 4; fill: rgb(158,237,53); fill-opacity: 0; fill-rule: nonzero; opacity: 1;" vector-effect="non-scaling-stroke"  transform=" translate(0, 0)" d="M 0 -24.375 C 13.455 -24.375 24.375 -13.455 24.375 0 C 24.375 13.455 13.455 24.375 0 24.375 C -13.455 24.375 -24.375 13.455 -24.375 0 C -24.375 -13.455 -13.455 -24.375 0 -24.375 z" stroke-linecap="round" />
</g>
<g transform="matrix(3.81 0 0 3.26 813.41 180)" id="FIA20gGBkReFY_eKrNlXB"  >
<path style="stroke: rgb(0,0,0); stroke-width: 1; stroke-dasharray: none; stroke-linecap: butt; stroke-dashoffset: 0; stroke-linejoin: miter; stroke-miterlimit: 4; fill: rgb(158,237,53); fill-opacity: 0; fill-rule: nonzero; opacity: 1;" vector-effect="non-scaling-stroke"  transform=" translate(0, 0)" d="M 0 -24.375 C 13.455 -24.375 24.375 -13.455 24.375 0 C 24.375 13.455 13.455 24.375 0 24.375 C -13.455 24.375 -24.375 13.455 -24.375 0 C -24.375 -13.455 -13.455 -24.375 0 -24.375 z" stroke-linecap="round" />
</g>
<g transform="matrix(1 0 0 1 813.37 180)" style="" id="alZXesfn7xZb46rb5y5A-"  >
		<text xml:space="preserve" font-family="Open Sans" font-size="28" font-style="normal" font-weight="normal" line-height="1.16" style="stroke: none; stroke-width: 1; stroke-dasharray: none; stroke-linecap: butt; stroke-dashoffset: 0; stroke-linejoin: miter; stroke-miterlimit: 4; fill: rgb(0,0,0); fill-rule: nonzero; opacity: 1; white-space: pre;" ><tspan x="-42" y="8.8" >高そう</tspan></text>
</g>
<g transform="matrix(0.58 0 0 0.58 1054.64 394.64)" id="wA4MmyPW7CGdlKHKL2x1p"  >
<path style="stroke: rgb(0,0,0); stroke-width: 1; stroke-dasharray: none; stroke-linecap: butt; stroke-dashoffset: 0; stroke-linejoin: miter; stroke-miterlimit: 4; fill: rgb(158,237,53); fill-opacity: 0; fill-rule: nonzero; opacity: 1;" vector-effect="non-scaling-stroke"  transform=" translate(0, 0)" d="M 0 -24.375 C 13.455 -24.375 24.375 -13.455 24.375 0 C 24.375 13.455 13.455 24.375 0 24.375 C -13.455 24.375 -24.375 13.455 -24.375 0 C -24.375 -13.455 -13.455 -24.375 0 -24.375 z" stroke-linecap="round" />
</g>
<g transform="matrix(1.02 0 0 1.02 1105.3 340)" id="MJVoiKMScU0vVtGD6BUcx"  >
<path style="stroke: rgb(0,0,0); stroke-width: 1; stroke-dasharray: none; stroke-linecap: butt; stroke-dashoffset: 0; stroke-linejoin: miter; stroke-miterlimit: 4; fill: rgb(158,237,53); fill-opacity: 0; fill-rule: nonzero; opacity: 1;" vector-effect="non-scaling-stroke"  transform=" translate(0, 0)" d="M 0 -24.375 C 13.455 -24.375 24.375 -13.455 24.375 0 C 24.375 13.455 13.455 24.375 0 24.375 C -13.455 24.375 -24.375 13.455 -24.375 0 C -24.375 -13.455 -13.455 -24.375 0 -24.375 z" stroke-linecap="round" />
</g>
<g transform="matrix(5.89 0 0 4.3 1122.71 205.24)" id="si6Gj1MlQytKQxHI3WNct"  >
<path style="stroke: rgb(0,0,0); stroke-width: 1; stroke-dasharray: none; stroke-linecap: butt; stroke-dashoffset: 0; stroke-linejoin: miter; stroke-miterlimit: 4; fill: rgb(158,237,53); fill-opacity: 0; fill-rule: nonzero; opacity: 1;" vector-effect="non-scaling-stroke"  transform=" translate(0, 0)" d="M 0 -24.375 C 13.455 -24.375 24.375 -13.455 24.375 0 C 24.375 13.455 13.455 24.375 0 24.375 C -13.455 24.375 -24.375 13.455 -24.375 0 C -24.375 -13.455 -13.455 -24.375 0 -24.375 z" stroke-linecap="round" />
</g>
<g transform="matrix(1 0 0 1 1122.83 205.04)" style="" id="81ULTwBNnJzqq9X5HOutl"  >
		<text xml:space="preserve" font-family="Open Sans" font-size="34" font-style="normal" font-weight="normal" line-height="1.16" style="stroke: none; stroke-width: 1; stroke-dasharray: none; stroke-linecap: butt; stroke-dashoffset: 0; stroke-linejoin: miter; stroke-miterlimit: 4; fill: rgb(0,0,0); fill-rule: nonzero; opacity: 1; white-space: pre;" ><tspan x="-68" y="10.68" >お金持ち</tspan></text>
</g>
</svg>